<svg id="Calque_1" data-name="Calque 1" xmlns="http://www.w3.org/2000/svg" viewBox="0 0 1080 1080"><defs><style>.cls-1{fill:#f4f4f4;}</style></defs><path class="cls-1" d="M431.22,497.6a42.25,42.25,0,1,0,42.24,42.24A42.24,42.24,0,0,0,431.22,497.6Zm0,71.3a28.43,28.43,0,1,1,28.42-28.43A28.42,28.42,0,0,1,431.22,568.9Z"/><polygon class="cls-1" points="693.53 498.02 693.53 554.37 653.38 497.93 637.39 497.93 637.39 581.82 653.38 581.82 653.38 525.69 693.53 581.82 693.53 581.82 693.53 581.82 709.53 581.82 709.53 498.02 693.53 498.02"/><path class="cls-1" d="M797.28,497.89H781.21v50.74h0a19.48,19.48,0,0,1-38.76,0h0V497.87h-16.3V550h0a35.74,35.74,0,0,0,37.69,31.81c18.42-1.09,33.44-17.71,33.44-36.16Z"/><polygon class="cls-1" points="903.27 581.75 893.65 498.14 872.59 498.12 855.14 555.32 837.69 498.13 816.63 498.15 807 581.75 823 581.75 829.63 523.82 847.13 581.75 863.12 581.75 863.12 581.75 863.15 581.75 880.65 523.82 887.28 581.75 903.27 581.75"/><polygon class="cls-1" points="550.4 498.5 534.4 498.5 513.48 528.41 492.55 498.5 476.56 498.5 505.48 539.84 476.56 581.18 492.55 581.18 513.48 551.27 534.4 581.18 550.4 581.18 521.48 539.84 550.4 498.5"/><polygon class="cls-1" points="628.6 498.5 612.61 498.5 591.68 528.41 570.76 498.5 554.76 498.5 583.68 539.84 583.68 581.77 599.68 581.77 599.68 539.84 628.6 498.5"/><path class="cls-1" d="M290.93,497.6H206.78a42.23,42.23,0,0,0-42.23,42.23h0a42.23,42.23,0,0,0,42.23,42.23h84.15a42.23,42.23,0,0,0,42.23-42.23h0A42.23,42.23,0,0,0,290.93,497.6ZM206.78,568a28.16,28.16,0,1,1,28.15-28.16A28.15,28.15,0,0,1,206.78,568Z"/></svg>