<svg id="Calque_1" data-name="Calque 1" xmlns="http://www.w3.org/2000/svg" viewBox="0 0 1080 1080"><defs><style>.cls-1{fill:#2a2a2a;}</style></defs><path class="cls-1" d="M449.24,497.6a42.25,42.25,0,1,0,42.24,42.24A42.24,42.24,0,0,0,449.24,497.6Zm0,71.3a28.43,28.43,0,1,1,28.42-28.43A28.42,28.42,0,0,1,449.24,568.9Z"/><polygon class="cls-1" points="711.55 498.02 711.55 554.37 671.4 497.93 655.41 497.93 655.41 581.82 671.4 581.82 671.4 525.69 711.55 581.82 711.55 581.82 711.55 581.82 727.55 581.82 727.55 498.02 711.55 498.02"/><path class="cls-1" d="M815.3,497.89H799.24v50.74h0a19.48,19.48,0,0,1-38.77,0h0V497.87h-16.3V550h0a35.74,35.74,0,0,0,37.69,31.81c18.42-1.09,33.44-17.71,33.44-36.16Z"/><polygon class="cls-1" points="921.29 581.75 911.67 498.14 890.61 498.12 873.16 555.32 855.71 498.13 834.65 498.15 825.02 581.75 841.02 581.75 847.64 523.82 865.15 581.75 881.14 581.75 881.14 581.75 881.17 581.75 898.67 523.82 905.3 581.75 921.29 581.75"/><polygon class="cls-1" points="568.78 498.5 552.63 498.5 531.5 528.7 510.37 498.5 494.22 498.5 523.42 540.24 494.22 581.98 510.37 581.98 531.5 551.78 552.63 581.98 568.78 581.98 539.58 540.24 568.78 498.5"/><polygon class="cls-1" points="646.62 498.5 630.63 498.5 609.7 528.41 588.78 498.5 572.78 498.5 601.71 539.84 601.71 581.77 617.7 581.77 617.7 539.84 646.62 498.5"/><path class="cls-1" d="M309,497.6H224.8a42.23,42.23,0,0,0-42.23,42.23h0a42.23,42.23,0,0,0,42.23,42.23H309a42.23,42.23,0,0,0,42.23-42.23h0A42.23,42.23,0,0,0,309,497.6ZM224.8,568A28.16,28.16,0,1,1,253,539.83,28.15,28.15,0,0,1,224.8,568Z"/></svg>