<svg width="303" height="313" viewBox="0 0 303 313" fill="none" xmlns="http://www.w3.org/2000/svg">
<path d="M144 181C144 188.532 145.391 190 153 190C145.352 190 144 192.047 144 199C144 191.97 142.725 190 135 190C142.687 190 144 188.532 144 181Z" fill="#252525"/>
<path d="M63 108C63 115.532 64.3906 117 72 117C64.3519 117 63 119.047 63 126C63 118.97 61.7253 117 54 117C61.6867 117 63 115.532 63 108Z" fill="#252525"/>
<path d="M206 35C206 42.5322 207.391 44 215 44C207.352 44 206 46.0472 206 53C206 45.97 204.725 44 197 44C204.687 44 206 42.5322 206 35Z" fill="#252525"/>
<path d="M248 163C248 170.532 249.391 172 257 172C249.352 172 248 174.047 248 181C248 173.97 246.725 172 239 172C246.687 172 248 170.532 248 163Z" fill="#252525"/>
<path d="M9 253C9 260.532 10.3906 262 18 262C10.3519 262 9 264.047 9 271C9 263.97 7.72532 262 0 262C7.6867 262 9 260.532 9 253Z" fill="#252525"/>
<path d="M294 0C294 7.53219 295.391 9 303 9C295.352 9 294 11.0472 294 18C294 10.97 292.725 9 285 9C292.687 9 294 7.53219 294 0Z" fill="#252525"/>
<path d="M285 90C285 97.5322 286.391 99 294 99C286.352 99 285 101.047 285 108C285 100.97 283.725 99 276 99C283.687 99 285 97.5322 285 90Z" fill="#252525"/>
<path d="M215 295C215 302.532 216.391 304 224 304C216.352 304 215 306.047 215 313C215 305.97 213.725 304 206 304C213.687 304 215 302.532 215 295Z" fill="#252525"/>
</svg>
