<svg width="2424" height="830" viewBox="0 0 2424 830" fill="none" xmlns="http://www.w3.org/2000/svg">
<path d="M217.5 483H810C813 463.5 814.5 433.5 814.5 399C814.5 201 663 1.49995 408 1.49995C181.5 1.49995 8.04663e-07 186 8.04663e-07 415.5C8.04663e-07 651 166.5 829.5 423 829.5C616.5 829.5 718.5 750 780 660L610.5 547.5C576 610.5 526.5 645 429 645C324 645 243 586.5 217.5 483ZM214.5 337.5C237 229.5 312 169.5 414 169.5C516 169.5 585 234 606 337.5H214.5ZM1216.3 829.5C1418.8 829.5 1549.3 732 1549.3 573C1549.3 282 1126.3 358.5 1126.3 231C1126.3 190.5 1159.3 166.5 1219.3 166.5C1277.8 166.5 1319.8 193.5 1339.3 247.5L1526.8 175.5C1493.8 66 1379.8 1.49995 1222.3 1.49995C1030.3 1.49995 907.301 93 907.301 243C907.301 514.5 1328.8 448.5 1328.8 586.5C1328.8 631.5 1289.8 658.5 1223.8 658.5C1135.3 658.5 1078.3 618 1057.3 549L869.801 621C914.801 757.5 1040.8 829.5 1216.3 829.5ZM2114.98 -3.21865e-05C2012.98 -3.21865e-05 1930.48 37.4999 1876.48 93V19.5H1666.48V810H1888.48V342C1889.98 261 1958.98 198 2047.48 198C2137.48 198 2203.48 255 2203.48 355.5V810H2423.98V312C2423.98 127.5 2303.98 -3.21865e-05 2114.98 -3.21865e-05Z" fill="#171717"/>
</svg>
