<svg width="147" height="27" viewBox="0 0 147 27" fill="none" xmlns="http://www.w3.org/2000/svg">
<rect x="1" y="5" width="35" height="17" rx="8.5" fill="white" stroke="white" stroke-width="2"/>
<path d="M16 13.5C16 17.0899 13.0899 20 9.5 20C5.91015 20 3 17.0899 3 13.5C3 9.91015 5.91015 7 9.5 7C13.0899 7 16 9.91015 16 13.5Z" fill="#2A2A2A"/>
<path d="M54.464 22.299C52.946 22.299 51.6273 22.0153 50.508 21.448C49.3887 20.8807 48.5223 20.0067 47.909 18.826C47.2957 17.6453 46.989 16.1503 46.989 14.341C46.989 11.719 47.6407 9.73333 48.944 8.384C50.2473 7.03467 52.0873 6.36 54.464 6.36C55.982 6.36 57.3007 6.64367 58.42 7.211C59.5547 7.77833 60.4287 8.65233 61.042 9.833C61.6553 11.0137 61.962 12.5087 61.962 14.318C61.962 16.9553 61.3027 18.9487 59.984 20.298C58.6807 21.632 56.8407 22.299 54.464 22.299ZM54.464 19.263C55.6447 19.263 56.5493 18.895 57.178 18.159C57.8067 17.4077 58.121 16.1273 58.121 14.318C58.121 12.4933 57.8067 11.2207 57.178 10.5C56.5493 9.764 55.6447 9.396 54.464 9.396C53.2987 9.396 52.4017 9.77167 51.773 10.523C51.1443 11.259 50.83 12.5393 50.83 14.364C50.83 16.1733 51.1443 17.446 51.773 18.182C52.4017 18.9027 53.2987 19.263 54.464 19.263ZM77.3562 22H72.7332L69.4212 17.147L66.4772 22H62.4522L67.5122 14.364L62.2682 6.659H66.8912L70.2032 11.535L73.0782 6.659H77.1952L72.1582 14.387L77.3562 22ZM83.9045 22V15.353L78.0855 6.659H82.6625L86.1355 12.478L89.2865 6.659H92.9895L87.6305 15.422V22H83.9045ZM95.1603 22V6.659H98.3343L105.119 15.79V6.659H108.546V22H105.74L98.5873 12.639V22H95.1603ZM118.865 22.46C116.504 22.46 114.733 21.9617 113.552 20.965C112.387 19.9683 111.804 18.4043 111.804 16.273V6.659H115.691V16.112C115.691 17.2927 115.929 18.1667 116.404 18.734C116.879 19.3013 117.638 19.585 118.681 19.585C119.632 19.585 120.368 19.3013 120.889 18.734C121.426 18.1667 121.694 17.2927 121.694 16.112V6.659H125.236V16.273C125.236 17.699 124.96 18.872 124.408 19.792C123.871 20.6967 123.12 21.3713 122.154 21.816C121.203 22.2453 120.107 22.46 118.865 22.46ZM128.492 22V6.659H132.287L136.588 12.639L140.981 6.659H144.684V22H140.958V11.604L136.45 17.63L132.057 11.627V22H128.492Z" fill="white"/>
</svg>
