<svg xmlns="http://www.w3.org/2000/svg" width="1920.175" height="903.989" viewBox="0 0 1920.175 903.989">
  <g id="fdj" transform="translate(-46.6 -93.45)">
    <path id="Tracé_1" data-name="Tracé 1" d="M1513.467,997.438a128.174,128.174,0,0,1-91.26-37.708l-95.186-94.89a33.536,33.536,0,0,0-23.653-9.737H175.686C104.535,855.1,46.6,797.347,46.6,726.418v-362c0-70.929,57.84-128.684,129.086-128.684H1303.367A33.48,33.48,0,0,0,1326.924,226l95.187-94.89a129.519,129.519,0,0,1,182.616,0l324.342,323.334a128.722,128.722,0,0,1,0,182.048L1604.727,959.826a128.645,128.645,0,0,1-91.26,37.612Z" fill="#fff"/>
    <path id="Tracé_2" data-name="Tracé 2" d="M1906.488,480.025,1581.919,156.392a95.657,95.657,0,0,0-134.982-.1l-.1.1L1332.073,270.924H177.208c-52.786,0-95.608,42.7-95.608,95.332h0V728.481c0,52.633,42.822,95.332,95.608,95.332H1332.073l114.864,114.533a95.512,95.512,0,0,0,134.79.191l.192-.191,324.569-323.633a94.848,94.848,0,0,0,.192-134.4A1.183,1.183,0,0,0,1906.488,480.025Z" transform="translate(-1.853 -1.854)" fill="#591c8a"/>
    <path id="Tracé_3" data-name="Tracé 3" d="M1151.858,472.841a112.95,112.95,0,0,0,0,159.487L1256.13,736.6a219.064,219.064,0,0,0,154.941,64.211H1702.2V303.6H1411.829a219.063,219.063,0,0,0-154.941,64.211Z" transform="translate(-40.445 -7.557)" fill="#b04cb2"/>
    <path id="Tracé_4" data-name="Tracé 4" d="M1166.164,479.812,1487.6,155.7a93.462,93.462,0,0,1,132.874,0l321.436,324.206a95.42,95.42,0,0,1,0,134.019L1620.473,938.037a93.462,93.462,0,0,1-132.874,0L1166.164,613.831C1129.512,576.863,1129.512,516.875,1166.164,479.812Z" transform="translate(-36.67 -1.827)" fill="#591c8a"/>
    <path id="Tracé_5" data-name="Tracé 5" d="M773.265,532.221c0,91.866-67.81,182.027-164.79,198.032q-30.685,4.972-73.4,5.019h-111s37.22-160.718,42.713-184.584c6.819-29.549,49.627-51.426,97.927-51.426L524,674.187h30.5c49.248,0,87.888-17.615,111.47-62.412q17.331-32.816,17.331-71.788c0-15.911-7.1-38.262-20.457-51.047-16.29-15.627-33.053-22.446-70.936-22.446H306.643L288.08,547H389.8l-14.774,64.4H273.211L244.7,735.178H158.9l76.807-332.99H599.193c59.476,0,97.548,9,123.687,27.276C758.017,453.709,773.265,488.561,773.265,532.221ZM856.986,398.4l-14.774,64.4h78.228l-28.886,125.96c-18.089,79.175-61.844,95.844-107.492,66.295l-45.838,53.6c61.465,52.184,201.442,42.334,232.411-90.729L1021.4,398.4Z" transform="translate(-5.944 -12.43)" fill="#b04cb2"/>
    <path id="Tracé_6" data-name="Tracé 6" d="M789.265,517.433c0,91.866-67.81,182.027-164.79,198.032q-30.685,4.972-73.4,5.019h-111S477.3,559.767,482.793,535.9c6.819-29.549,49.627-51.426,97.927-51.426L540,659.4h30.5c49.248,0,87.888-17.615,111.47-62.412q17.331-32.816,17.331-71.788c0-15.911-7.1-38.262-20.457-51.047-16.29-15.627-33.053-22.446-70.936-22.446H322.643l-18.563,80.5H405.8l-14.774,64.4H289.211L260.7,720.39H174.9L251.707,387.4H615.193c59.476,0,97.548,9,123.687,27.276C774.017,438.921,789.265,473.773,789.265,517.433ZM869.2,387.4l-14.774,64.4h78.228l-28.886,125.96c-18.089,79.175-61.844,95.844-107.492,66.295l-45.838,53.6c61.465,52.184,201.442,42.334,232.411-90.729L1033.609,387.4Z" transform="translate(-6.791 -11.981)" fill="#fff"/>
    <path id="Tracé_7" data-name="Tracé 7" d="M1823.356,456.037c-1.8-5.561-.474-93.483-62.507-101.729-40.724-5.465-77.376,22.148-105.314,57.72l124.161,60.5-59.476,125.7c44.7,9.78,91.2,7.766,119.52-23.2C1881.979,528.331,1825.534,461.5,1823.356,456.037Zm-243.018,123.3c-25.476,11.889-108.629,175.94-38.546,242.673,45.649,43.434,112.038-13.136,117.437-15.245,5.588-1.822,92.529.288,101.242-62.514C1773.919,647.7,1607.613,572.435,1580.338,579.339Zm-20.457-58.87c25.476-11.889,108.818-176.036,38.641-242.769-45.649-43.338-112.133,13.231-117.531,15.341-5.588,1.822-92.339-.288-101.147,62.418-13.448,96.456,152.857,171.817,180.038,165.01ZM1539.9,559.492c-11.838-25.792-173.882-109.975-239.8-38.927-42.808,46.214,12.975,113.426,15.153,118.891,1.7,5.561-.284,93.675,61.654,102.5,95.37,13.519,169.715-154.942,162.991-182.46ZM1398.121,812.615l33.526,33.942c21.972-23.2,50.005-62.9,61.086-121.96-2.368-.863-17.994-2.685-19.6-3.356-16.763,45.543-49.437,74.595-75.008,91.374Z" transform="translate(-44.361 -8.89)" fill="#fff"/>
    <rect id="Rectangle_1" data-name="Rectangle 1" width="126.623" height="126.623" transform="translate(1547.815 530.056) rotate(-64.38)" fill="#b04cb2"/>
    <path id="Tracé_8" data-name="Tracé 8" d="M1778.168,485.341l-100.389-48.206h0l-13.638-6.535h-.095l-6.535,13.448.189.095-48.3,100.674,13.638,6.44,48.206-100.579,100.484,48.111Z" transform="translate(-61.585 -14.9)" fill="#b04cb2"/>
  </g>
</svg>
