<svg xmlns="http://www.w3.org/2000/svg" xmlns:xlink="http://www.w3.org/1999/xlink" width="1920" height="1080" viewBox="0 0 1920 1080">
  <defs>
    <clipPath id="clip-STVA_White">
      <rect width="1920" height="1080"/>
    </clipPath>
  </defs>
  <g id="STVA_White" data-name="STVA – White" clip-path="url(#clip-STVA_White)">
    <path id="stva" d="M251.713,106.665c-5.746,5.056-7.585,8.964-8.964,18.847-1.839,12.871-5.056,29.649-9.193,48.5-1.379,5.976-3.218,16.318-4.367,22.984-3.448,22.754-7.125,42.06-9.193,48.955-1.379,3.907-3.218,13.1-4.367,20.685-2.3,16.089-5.976,34.705-10.8,57.689-2.069,9.193-3.907,23.443-3.907,31.947-.46,14.25,0,15.629,5.976,20.915l6.435,5.516h95.382c102.737,0,106.644.46,109.632,11.951,1.609,5.746-1.379,27.351-6.9,49.415-2.528,9.883-5.286,15.4-8.964,17.927-4.6,2.988-26.891,3.448-164.563,3.907l-159.277.689-1.609,8.044c-.919,4.367-2.758,14.709-4.137,22.984s-3.677,18.157-4.827,22.064c-1.839,6.206-5.516,28.27-7.355,43.439-.46,4.6.919,4.6,210.3,4.6h210.99l6.9-7.125c5.286-5.056,7.814-10.343,9.193-19.536,3.907-22.984,18.847-99.979,23.213-119.745,1.379-5.976,3.218-16.318,4.367-22.984,2.528-16.548,10.343-57.229,16.089-83.89,2.758-12.411-1.839-23.9-12.181-30.338-7.585-4.6-10.343-4.827-104.576-4.827H328.248l-3.448-6.435c-2.758-5.286-2.758-8.964,0-24.592,4.6-27.121,6.9-35.395,11.492-40.451,3.677-4.137,8.274-4.367,113.539-4.367,87.338,0,110.321-.69,112.16-2.988,1.379-1.609,3.677-10.113,4.827-19.076,3.448-23.213,8.5-51.024,11.492-63.895,1.609-6.206,2.3-12.641,1.609-14.48C579,100.46,549.811,100,418.8,100H259.068Zm350.96-3.907a94.153,94.153,0,0,0-1.839,12.181c-.919,8.964-3.218,20.685-9.653,52.862-1.839,8.734-3.677,20.226-3.907,25.282l-.69,9.193,69.64.69,69.87.46-1.149,12.181c-.919,11.492-3.677,27.351-8.734,50.334-1.379,5.976-3.218,16.318-4.367,22.984-2.3,14.02-5.976,32.867-9.423,48.266-1.379,5.976-3.218,16.318-4.367,22.984-1.839,11.262-4.6,26.431-11.262,62.745-1.379,7.585-3.677,18.387-5.056,24.133s-3.448,16.089-4.367,22.984c-2.068,13.56-5.516,31.258-9.423,48.5-2.528,11.262-6.665,37-7.355,44.588-.46,4.367,1.149,4.6,55.161,5.286,63.665.69,61.6,1.379,63.894-19.536.919-7.355,3.218-19.076,4.827-25.971,1.839-6.9,3.218-15.169,3.218-18.617a43.341,43.341,0,0,1,2.3-12.641c1.149-3.677,3.218-12.871,4.6-20.455,1.149-7.585,3.677-21.6,5.516-31.028s4.367-23.443,5.746-31.028c1.609-7.585,3.677-18.617,5.056-24.592s3.218-16.318,4.367-22.984c3.448-22.754,7.125-42.06,9.193-48.955,1.379-3.907,3.218-13.1,4.367-20.685,2.528-16.318,6.206-35.625,10.572-56.54,1.839-8.5,3.448-17.927,3.448-20.915s1.149-6.665,2.758-8.274c4.137-4.137,115.838-3.907,118.366,0,2.3,3.677,6.665,50.794,9.883,105.265,1.149,23.443,2.758,44.588,3.448,47.116s2.3,21.145,3.448,41.371c1.149,20.455,2.988,47.346,4.367,59.757,1.379,12.641,3.448,40.911,4.827,62.975,1.379,22.294,3.448,41.371,4.827,43.209,2.069,2.3,19.536,2.988,87.108,2.988,46.657,0,86.189-.69,88.257-1.379s3.677-2.528,3.677-3.907,3.218-9.193,7.125-17.468c7.355-15.629,15.629-33.326,25.742-55.391,2.988-6.9,8.964-20,13.1-28.73,3.907-8.964,9.423-20.685,11.951-26.431,5.286-11.492,14.48-31.258,24.822-53.322,3.677-8.044,9.653-21.145,13.33-29.419,13.1-28.73,18.387-40.221,25.282-55.161,3.677-8.274,8.964-20.226,11.952-26.431,2.758-6.435,7.814-17.7,11.492-25.282s9.653-20.685,13.56-29.419c3.907-8.5,10.113-21.834,13.79-29.879,10.343-22.294,17.7-38.613,23.214-51.024,2.528-6.435,7.355-16.318,10.343-22.294,2.988-5.746,4.826-11.262,3.907-11.951-.689-.69-25.742-1.379-55.85-1.379h-54.7l-4.6,9.653c-2.3,5.516-7.585,16.548-11.262,24.822S1246.9,156.31,1243,164.814c-3.907,8.734-10.343,22.524-14.25,31.028-3.907,8.734-9.653,20.685-12.641,27.121-2.758,6.206-7.814,17.468-11.032,24.592-9.883,22.294-17.468,39.072-24.822,54.7-8.5,18.157-17.7,38.153-25.512,55.161-2.988,6.9-8.734,19.306-12.641,27.58-3.677,8.274-9.193,20-11.952,26.431-2.758,6.206-7.814,17.7-11.492,25.282-3.448,7.585-6.9,15.629-7.814,17.927-2.069,5.976-6.435,3.677-8.734-4.367-1.149-3.677-2.988-26.431-4.137-50.334-1.379-24.133-2.758-45.737-3.448-48.266s-2.3-21.145-3.448-41.371-3.218-47.116-4.367-59.757c-2.528-24.133-6.9-84.35-9.193-125.261l-1.379-24.133-236.272-.69c-187.776-.46-236.272,0-237.191,2.3Zm851.774,6.9c-2.3,5.516-7.585,16.778-11.492,25.282-11.032,24.133-32.177,70.1-40.681,88.027-2.758,6.206-8.044,17.7-11.262,25.282-3.448,7.585-8.734,19.536-11.952,26.431s-8.274,17.7-11.262,24.133c-11.262,24.592-30.568,66.882-41.371,89.636-2.758,6.206-7.814,17.468-11.032,24.592-9.883,22.294-17.467,39.072-24.822,54.7-9.653,20.685-18.617,39.992-25.971,56.31-3.448,7.585-9.193,19.766-12.871,27.351-3.677,7.355-5.976,14.25-5.286,15.4s25.972,2.069,56.31,2.069c50.334,0,55.161-.23,56.54-3.907,1.149-3.907,4.827-12.181,21.6-48.266,7.585-15.859,8.274-16.778,17.008-17.927,17.7-2.758,147.785-.23,150.773,2.758,1.839,1.839,3.218,14.71,4.137,34.475l1.379,31.717h114.918l.689-11.951c.46-6.665-.23-21.145-1.609-32.177-2.069-17.927-1.839-20.455,1.609-23.213,2.988-2.3,14.939-2.988,48.266-2.528,24.592.23,45.278-.689,46.427-1.609.919-1.149,2.3-6.206,2.988-11.262.919-8.964,2.988-20.226,9.653-52.862,1.839-8.964,3.677-20.685,3.907-26.431l.689-10.343-61.366-1.149c-33.556-.69-61.6-1.609-62.286-2.3-1.379-1.609-6.206-52.862-8.5-87.338-.919-15.859-2.758-39.532-4.137-52.862-3.448-31.717-7.125-76.306-9.653-115.608-1.149-17.238-2.758-32.637-3.448-33.786-.919-1.379-34.016-2.3-87.338-2.3h-85.959Zm78.834,134.914c.919,22.524,2.528,47.116,3.677,54.471.919,7.585,2.3,31.717,2.758,53.782l.689,40.221-48.725.69c-46.887.46-48.725.46-50.1-4.137-.689-2.528.23-7.355,2.069-10.8,1.839-3.677,7.125-14.71,11.722-24.822s9.883-21.6,11.492-25.282c1.839-3.907,7.355-15.629,12.181-26.431,5.056-10.8,11.262-24.822,14.25-31.028,8.734-20.226,18.617-41.141,22.064-47.576,1.839-3.218,3.218-7.125,3.218-8.5,0-3.218,7.355-11.262,10.573-11.492,1.609-.23,2.988,13.331,4.137,40.911Z" transform="translate(23.93 201.407)" fill="#fff"/>
  </g>
</svg>
