<svg xmlns="http://www.w3.org/2000/svg" xmlns:xlink="http://www.w3.org/1999/xlink" width="1920" height="1080" viewBox="0 0 1920 1080">
  <defs>
    <clipPath id="clip-Accor_White">
      <rect width="1920" height="1080"/>
    </clipPath>
  </defs>
  <g id="Accor_White" data-name="Accor – White" clip-path="url(#clip-Accor_White)">
    <g id="Accor" transform="translate(100.121 247.813)">
      <path id="_1_L" data-name="1 L" d="M282.863,8.383H382.88V492.354s-4.03,46.318,54.37,55.713c-102.7,0-154.386,14.491-154.386-54.37Zm0,0" transform="translate(283.739 0)" fill="#fff"/>
      <path id="_2_L" data-name="2 L" d="M383.137,8.383H483.153V492.354s-4.03,46.318,54.37,55.713c-102.7,0-154.386,10.074-154.386-54.37Zm0,0" transform="translate(386.295 0)" fill="#fff"/>
      <path id="A" d="M514.7,548.067S307.948,115.787,255.143,8.383c2.291,4.67-82.341,84.135-42.96,168.261,15.171,32.4,44.936,94.936,75.806,159.585-27.126,20.71-51.438,34.94-81.172,52.078,17.454-73.167-77.2-163.109-77.2-163.109-3.35,41.617-12.753,70.481-43.632,124.179S56.453,444.021,77.937,479.6s-53.7,67.794-72.5,76.518c105.389-4.693,185.265-87.935,193.317-98.673,61.758-82.562,98.326-102.181,98.326-102.181,46.4,97.109,92.313,192.8,92.313,192.8Zm0,0" transform="translate(0 0)" fill="#fff"/>
      <path id="Tracé_13" data-name="Tracé 13" d="M141.332,179.053s32.72-31.629,55.041-31.124,33.715,21.31,51.012,23.491c-4.306,3.113-8.889,4.03-17.462,1.185-5.128-1.541-8.028-4.211-14.017-6.527a44.349,44.349,0,0,0-10.6-2.489c-7.19-.869-21.057-.229-31.029,9.395-11.884,10.224-25.719,20.876-25.719,20.876Zm0,0" transform="translate(138.985 142.717)" fill="#fff"/>
      <path id="Tracé_14" data-name="Tracé 14" d="M201.415,155.781c-7.159-.64-20.243-.561-31.021,9.395C158.51,175.4,145.125,185.7,145.125,185.7" transform="translate(142.864 150.525)" fill="#fff"/>
      <path id="Tracé_15" data-name="Tracé 15" d="M520.206,108.023l-9.411,24.02h18.829Zm14.61,36.031H505.6l-4.006,9.308H485.906l31.922-72.717H522.7l31.811,72.717H538.822Zm0,0" transform="translate(491.405 73.907)" fill="#fff"/>
      <path id="Tracé_16" data-name="Tracé 16" d="M603.26,98.391l-11.038,7.791c-4.757-7.577-11.465-12.01-20.449-12.01-13.306,0-23.048,9.742-23.048,23.586,0,13.749,9.742,23.372,23.048,23.372,8.984,0,15.692-4.433,20.449-12.01l11.038,7.791c-6.163,10.936-17.747,17.755-31.6,17.755-21.207,0-37.982-16.016-37.982-37.01s16.775-37.01,38.093-37.01c13.741,0,25.214,6.819,31.487,17.747" transform="translate(540.266 73.907)" fill="#fff"/>
      <path id="Tracé_17" data-name="Tracé 17" d="M653.553,98.391l-11.038,7.791c-4.764-7.577-11.473-12.01-20.449-12.01-13.314,0-23.056,9.742-23.056,23.586,0,13.749,9.742,23.372,23.056,23.372,8.976,0,15.684-4.433,20.449-12.01l11.038,7.791c-6.171,10.936-17.747,17.755-31.6,17.755-21.207,0-37.982-16.016-37.982-37.01s16.775-37.01,38.093-37.01c13.741,0,25.214,6.819,31.487,17.747" transform="translate(591.704 73.907)" fill="#fff"/>
      <path id="Tracé_18" data-name="Tracé 18" d="M649.306,117.655c0,13.851,9.632,23.483,22.938,23.483,13.093,0,22.946-9.632,22.946-23.483,0-13.749-9.853-23.483-22.946-23.483-13.306,0-22.938,9.735-22.938,23.483m60.92,0c0,20.986-17.1,37-38.093,37s-37.872-16.016-37.872-37,16.885-37.01,37.872-37.01,38.093,16.016,38.093,37.01" transform="translate(643.138 73.907)" fill="#fff"/>
      <path id="Tracé_19" data-name="Tracé 19" d="M704.567,114.613H716.79c6.819,0,10.825-4.109,10.825-10.28,0-5.95-4.006-10.169-10.825-10.169H704.567Zm29.219,38.093-18.505-25.214H704.567v25.214h-14.61V81.285H716.79c15.044,0,25.759,9.095,25.759,23.049a21.9,21.9,0,0,1-12.555,20.236l20.236,28.137Zm0,0" transform="translate(700.102 74.562)" fill="#fff"/>
      <path id="Tracé_20" data-name="Tracé 20" d="M498.87,219.182h31.045v13.1H484.371V161.391h14.5Zm0,0" transform="translate(489.835 156.492)" fill="#fff"/>
      <path id="Tracé_21" data-name="Tracé 21" d="M538.64,232.282h-14.5V161.391h14.5Zm0,0" transform="translate(530.51 156.492)" fill="#fff"/>
      <path id="Tracé_22" data-name="Tracé 22" d="M616.028,161.391l-31.582,72.18h-4.836l-31.685-72.18h16.435l17.723,42.96,17.612-42.96Zm0,0" transform="translate(554.837 156.492)" fill="#fff"/>
      <path id="Tracé_23" data-name="Tracé 23" d="M646.006,174.5H612.82v14.389H637.2v12.35H612.82v17.944h34.474v13.1H598.313V161.391h47.693Zm0,0" transform="translate(606.371 156.492)" fill="#fff"/>
      <path id="Tracé_24" data-name="Tracé 24" d="M498.709,298.95h30.776v12.99H484.336V241.656h14.373Zm0,0" transform="translate(489.799 238.585)" fill="#fff"/>
      <path id="Tracé_25" data-name="Tracé 25" d="M538.138,311.94H523.766V241.656h14.373Zm0,0" transform="translate(530.126 238.585)" fill="#fff"/>
      <path id="Tracé_26" data-name="Tracé 26" d="M619.454,241.027v71.555H605.081V275l-17.676,22.25H582.72L565.037,275v37.587H550.664V241.027h4.686l29.709,38.117,29.709-38.117Zm0,0" transform="translate(557.637 237.942)" fill="#fff"/>
      <path id="Tracé_27" data-name="Tracé 27" d="M618.892,311.94H604.52V241.656h14.373Zm0,0" transform="translate(612.719 238.585)" fill="#fff"/>
      <path id="Tracé_28" data-name="Tracé 28" d="M687.571,254.654H665V311.94H650.624V254.654H628.152v-13h59.419Zm0,0" transform="translate(636.89 238.585)" fill="#fff"/>
      <path id="Tracé_29" data-name="Tracé 29" d="M688.431,298.95h30.776v12.99H674.059V241.656h14.373Zm0,0" transform="translate(683.841 238.585)" fill="#fff"/>
      <path id="Tracé_30" data-name="Tracé 30" d="M760.767,254.654h-32.91v14.262h24.178v12.247H727.857V298.95h34.182v12.99H713.484V241.656h47.282Zm0,0" transform="translate(724.165 238.585)" fill="#fff"/>
      <path id="Tracé_31" data-name="Tracé 31" d="M803.229,254.333l-9.8,7.562c-3.406-5.112-7.664-8.091-13.417-8.091-4.686,0-8.731,2.133-8.731,6.811,0,4.046,3.089,5.752,8.2,8.091l7.98,3.516c11.078,4.9,17.359,10.548,17.359,20.552,0,13.1-10.651,21.089-24.6,21.089-12.137,0-21.934-6.179-27.157-15.55l9.908-7.451c3.832,5.318,8.834,10.217,17.249,10.217,6.179,0,10.011-2.876,10.011-7.767,0-4.583-3.413-6.179-8.944-8.739l-7.562-3.406c-10.011-4.575-17.036-10.327-17.036-20.228,0-12.145,10.114-19.912,23.317-19.912,11.18,0,19.058,5.642,23.214,13.306" transform="translate(764.652 237.942)" fill="#fff"/>
      <path id="Tracé_32" data-name="Tracé 32" d="M844.232,254.333l-9.8,7.562c-3.406-5.112-7.664-8.091-13.417-8.091-4.686,0-8.731,2.133-8.731,6.811,0,4.046,3.089,5.752,8.2,8.091l7.988,3.516c11.07,4.9,17.351,10.548,17.351,20.552,0,13.1-10.643,21.089-24.6,21.089-12.137,0-21.934-6.179-27.149-15.55l9.9-7.451c3.832,5.318,8.842,10.217,17.249,10.217,6.179,0,10.011-2.876,10.011-7.767,0-4.583-3.406-6.179-8.944-8.739l-7.562-3.406c-10.011-4.575-17.036-10.327-17.036-20.228,0-12.145,10.114-19.912,23.317-19.912,11.181,0,19.066,5.642,23.214,13.306" transform="translate(806.598 237.942)" fill="#fff"/>
    </g>
  </g>
</svg>
