<svg xmlns="http://www.w3.org/2000/svg" width="1803.337" height="351.672" viewBox="0 0 1803.337 351.672">
  <g id="antonelle" transform="translate(-215.838 -190)">
    <path id="Tracé_39" data-name="Tracé 39" d="M3661.028,868.1c-14.994-15.539-49.889-51.8-77.7-80.966l-50.161-52.887-1.363,77.422-1.363,77.422-10.087.818-10.359.818V677l56.431,58.339c31.078,32.169,65.972,68.154,77.695,80.149L3665.39,837.3V683.27h24.535V789.59c0,58.612-.273,106.319-.818,106.319C3688.834,895.909,3676.022,883.369,3661.028,868.1Z" transform="translate(-2396.127 -354.237)" fill="#591c8a"/>
    <path id="Tracé_40" data-name="Tracé 40" d="M2575.826,894.783c-21.264-7.906-29.715-13.631-44.981-29.988-14.721-15.812-20.991-29.17-25.354-51.524-7.36-40.347,9.814-83.42,41.983-105.5,29.987-20.446,65.155-25.353,98.414-13.9,16.084,5.725,22.082,9.814,38.166,25.9,15.267,15.266,20.446,22.627,25.354,35.985,8.723,24.263,10.086,40.074,4.907,60.52-6.542,25.081-12,35.44-28.08,51.524C2656.52,897.782,2613.174,908.141,2575.826,894.783Zm71.425-26.989c41.165-20.991,56.7-69.516,35.712-112.317-29.988-61.066-117.224-59.7-147.484,2.726-10.087,20.173-10.9,47.98-2.181,67.063,8.724,18.81,18.811,30.533,33.8,39.256C2596.271,881.7,2618.081,882.515,2647.25,867.794Z" transform="translate(-1664.233 -362.107)" fill="#591c8a"/>
    <path id="Tracé_41" data-name="Tracé 41" d="M215.882,879.547c-.818-1.363,9.814-27.261,23.172-58.067,13.631-30.533,30.533-68.971,37.893-85.6,7.361-16.357,17.447-39.256,22.627-50.434L309.116,665l4.634,10.9c7.361,17.447,20.719,48.8,22.9,53.16,1.09,2.181,6.815,15.266,12.54,28.624,5.725,13.631,16.084,38.166,23.172,54.523,20.173,46.072,27.261,63.519,27.261,66.79,0,1.363-5.452,2.726-11.722,2.726-11.45,0-12.268-.545-16.9-11.45-2.726-6.543-7.361-16.9-10.087-23.172-2.726-6.543-6.27-14.721-7.633-18.538l-2.726-6.815H264.68l-10.359,23.99C248.868,859.1,244.234,871.369,244.234,873,244.234,879.82,219.7,885.545,215.882,879.547Zm123.767-81.512c0-1.363-7.088-19.083-15.539-39.8L308.3,720.341l-4.907,11.995c-3,6.543-8.724,20.446-13.358,30.805-4.362,10.632-9.814,23.172-11.995,28.079l-3.817,8.724h32.714C324.928,799.944,339.649,799.126,339.649,798.036Z" transform="translate(0 -345.508)" fill="#591c8a"/>
    <path id="Tracé_42" data-name="Tracé 42" d="M2000.979,905.551c-1.09-1.09-1.908-42.8-1.908-92.961V721.809H1950V700h122.677v21.809h-49.071l-.545,92.143-.818,91.871-9.541.818C2007.249,907.187,2002.069,906.641,2000.979,905.551Z" transform="translate(-1261.405 -370.967)" fill="#591c8a"/>
    <path id="Tracé_43" data-name="Tracé 43" d="M4452.546,901.189c-.818-3.544-1.091-49.888-.818-103.048l.818-96.778,53.978-.818,53.7-.545v21.809h-84.51v59.7l40.347.818,40.074.818.817,10.359.818,10.087h-82.057v78.785l41.71.818,41.437.818.818,9.269c.545,5.452-.545,10.087-2.727,11.45-1.908,1.363-25.9,2.453-53.159,2.453C4454.454,907.187,4453.909,907.187,4452.546,901.189Z" transform="translate(-3081.053 -370.967)" fill="#591c8a"/>
    <path id="Tracé_45" data-name="Tracé 45" d="M5741.908,905.278c-1.091-.818-1.908-47.435-1.908-103.593V700h24.535V882.651h87.236v24.535h-53.978C5768.079,907.187,5742.727,906.369,5741.908,905.278Z" transform="translate(-4018.198 -370.967)" fill="#591c8a"/>
    <path id="Tracé_47" data-name="Tracé 47" d="M4712.633,294.411c8.178-9,12-10.087,45.8-14.449,40.347-4.907,50.706-13.631,61.065-50.434,2.453-9,6.814-20.446,9.541-25.08,3-4.907,4.635-9,3.817-9-4.362,0-20.173,8.451-20.173,10.632a2.986,2.986,0,0,1-2.727,3c-5.179,0,2.454-10.632,10.9-14.994,4.362-2.181,13.085-4.089,19.355-4.089h11.722l-7.088,7.633c-4.907,4.907-9.814,16.9-15.267,35.712-13.085,44.436-22.354,50.979-81.238,56.976-17.721,1.636-30.534,4.362-35.44,7.633L4705,302.862Z" transform="translate(-3265.354 0)" fill="#591c8a"/>
    <path id="Tracé_48" data-name="Tracé 48" d="M4668.645,428.224c-1.09-1.09-10.087-2.726-19.9-3.817-14.176-1.363-19.355-3.271-23.172-7.906-7.361-9.269-6-11.45,4.089-5.452,4.635,3,12.268,5.452,16.356,5.452,9.542,0,26.443,6.815,26.443,10.632C4672.461,430.678,4671.371,430.951,4668.645,428.224Z" transform="translate(-3204.191 -158.348)" fill="#591c8a"/>
    <path id="Tracé_49" data-name="Tracé 49" d="M4747.075,258.253c-16.9-6-37.075-29.715-37.075-43.618,0-5.18.274-5.18,9.814,0,5.453,2.726,16.357,4.089,35.713,4.089,30.532,0,39.256,2.181,50.706,13.085,10.086,9.814,9.269,13.085-1.363,5.452-8.178-5.725-12.541-6.27-44.436-7.088l-35.439-1.09,9,9.542c9.814,10.087,30.26,18.265,46.617,18.265,7.361,0,8.724.818,5.725,2.726C4780.334,263.433,4759.343,262.615,4747.075,258.253Z" transform="translate(-3268.99 -15.093)" fill="#591c8a"/>
    <path id="Tracé_50" data-name="Tracé 50" d="M5741.908,905.278c-1.091-.818-1.908-47.435-1.908-103.593V700h24.535V882.651h87.236v24.535h-53.978C5768.079,907.187,5742.727,906.369,5741.908,905.278Z" transform="translate(-4184.198 -371.967)" fill="#591c8a"/>
    <path id="Tracé_51" data-name="Tracé 51" d="M4452.546,901.189c-.818-3.544-1.091-49.888-.818-103.048l.818-96.778,53.978-.818,53.7-.545v21.809h-84.51v59.7l40.347.818,40.074.818.817,10.359.818,10.087h-82.057v78.785l41.71.818,41.437.818.818,9.269c.545,5.452-.545,10.087-2.727,11.45-1.908,1.363-25.9,2.453-53.159,2.453C4454.454,907.187,4453.909,907.187,4452.546,901.189Z" transform="translate(-2541.053 -370.967)" fill="#591c8a"/>
    <path id="Tracé_52" data-name="Tracé 52" d="M3661.028,868.1c-14.994-15.539-49.889-51.8-77.7-80.966l-50.161-52.887-1.363,77.422-1.363,77.422-10.087.818-10.359.818V677l56.431,58.339c31.078,32.169,65.972,68.154,77.695,80.149L3665.39,837.3V683.27h24.535V789.59c0,58.612-.273,106.319-.818,106.319C3688.834,895.909,3676.022,883.369,3661.028,868.1Z" transform="translate(-3062.127 -354.237)" fill="#591c8a"/>
  </g>
</svg>
