<svg xmlns="http://www.w3.org/2000/svg" xmlns:xlink="http://www.w3.org/1999/xlink" width="1920" height="1080" viewBox="0 0 1920 1080">
  <defs>
    <clipPath id="clip-Antonelle_White">
      <rect width="1920" height="1080"/>
    </clipPath>
  </defs>
  <g id="Antonelle_White" data-name="Antonelle – White" clip-path="url(#clip-Antonelle_White)">
    <g id="antonelle" transform="translate(-28.349 153.111)">
      <path id="Tracé_39" data-name="Tracé 39" d="M3639.383,840.713c-12.845-13.312-42.739-44.373-66.56-69.362l-42.971-45.307-1.168,66.326-1.167,66.326-8.641.7-8.875.7V677l48.344,49.978c26.624,27.558,56.517,58.386,66.559,68.662l18.217,18.683V682.371h21.019v91.082c0,50.212-.234,91.082-.7,91.082C3663.2,864.535,3652.227,853.792,3639.383,840.713Z" transform="translate(-2524.835 -373.265)" fill="#fff"/>
      <path id="Tracé_40" data-name="Tracé 40" d="M2565.5,865.121c-18.216-6.773-25.456-11.677-38.534-25.69-12.611-13.546-17.983-24.989-21.72-44.14-6.305-34.564,8.408-71.464,35.966-90.381,25.689-17.516,55.817-21.719,84.309-11.911,13.779,4.9,18.917,8.408,32.7,22.187,13.079,13.078,17.516,19.384,21.72,30.828,7.473,20.785,8.641,34.331,4.2,51.846-5.6,21.486-10.276,30.361-24.055,44.14C2634.632,867.689,2597.5,876.564,2565.5,865.121ZM2626.691,842c35.265-17.983,48.577-59.553,30.594-96.219-25.69-52.314-100.423-51.146-126.346,2.335-8.641,17.282-9.342,41.1-1.869,57.451,7.473,16.114,16.115,26.157,28.959,33.63C2583.019,853.91,2601.7,854.611,2626.691,842Z" transform="translate(-1753.627 -381.558)" fill="#fff"/>
      <path id="Tracé_41" data-name="Tracé 41" d="M215.876,848.8c-.7-1.168,8.408-23.354,19.851-49.745,11.677-26.157,26.157-59.086,32.462-73.332,6.306-14.012,14.947-33.63,19.384-43.205L295.747,665l3.97,9.342c6.306,14.947,17.749,41.8,19.618,45.541.934,1.868,5.839,13.078,10.743,24.522,4.9,11.677,13.779,32.7,19.851,46.709,17.282,39.469,23.354,54.415,23.354,57.218,0,1.168-4.671,2.336-10.042,2.336-9.809,0-10.509-.467-14.48-9.809-2.335-5.6-6.306-14.48-8.641-19.851-2.335-5.6-5.372-12.611-6.539-15.881l-2.335-5.839H257.68l-8.875,20.552c-4.671,11.444-8.641,21.953-8.641,23.354C240.164,849.031,219.145,853.936,215.876,848.8ZM321.9,778.969c0-1.168-6.072-16.348-13.312-34.1l-13.545-32.462-4.2,10.276c-2.569,5.6-7.473,17.516-11.444,26.39-3.737,9.108-8.408,19.851-10.276,24.055l-3.27,7.473h28.025C309.293,780.6,321.9,779.9,321.9,778.969Z" transform="translate(0 -364.067)" fill="#fff"/>
      <path id="Tracé_42" data-name="Tracé 42" d="M1993.672,876.091c-.934-.934-1.635-36.666-1.635-79.638v-77.77H1950V700h105.094v18.683h-42.038l-.467,78.937-.7,78.7-8.174.7C1999.044,877.492,1994.606,877.025,1993.672,876.091Z" transform="translate(-1329.162 -390.893)" fill="#fff"/>
      <path id="Tracé_43" data-name="Tracé 43" d="M4452.414,872.354c-.7-3.036-.935-42.738-.7-88.279l.7-82.908,46.241-.7,46.008-.467v18.683h-72.4v51.146l34.564.7,34.331.7.7,8.875.7,8.641h-70.3V856.24l35.732.7,35.5.7.7,7.94c.467,4.671-.467,8.641-2.336,9.809-1.635,1.168-22.186,2.1-45.541,2.1C4454.048,877.492,4453.582,877.492,4452.414,872.354Z" transform="translate(-3246.552 -390.893)" fill="#fff"/>
      <path id="Tracé_45" data-name="Tracé 45" d="M5741.635,875.857c-.935-.7-1.635-40.636-1.635-88.746V700h21.019V856.473h74.733v21.019h-46.241C5764.055,877.492,5742.336,876.792,5741.635,875.857Z" transform="translate(-4234.036 -390.893)" fill="#fff"/>
      <path id="Tracé_47" data-name="Tracé 47" d="M4711.539,279.447c7.006-7.707,10.275-8.641,39.235-12.378,34.564-4.2,43.438-11.677,52.313-43.205,2.1-7.707,5.838-17.516,8.174-21.486,2.569-4.2,3.97-7.707,3.27-7.707-3.737,0-17.282,7.24-17.282,9.108a2.558,2.558,0,0,1-2.336,2.569c-4.437,0,2.1-9.108,9.342-12.845,3.737-1.868,11.21-3.5,16.582-3.5h10.042l-6.072,6.539c-4.2,4.2-8.408,14.48-13.079,30.594-11.21,38.067-19.15,43.672-69.6,48.81-15.181,1.4-26.158,3.737-30.361,6.539l-6.773,4.2Z" transform="translate(-3440.752 0)" fill="#fff"/>
      <path id="Tracé_48" data-name="Tracé 48" d="M4661.8,425.282c-.934-.934-8.641-2.335-17.048-3.27-12.145-1.168-16.582-2.8-19.851-6.773-6.306-7.94-5.138-9.809,3.5-4.671,3.971,2.569,10.51,4.671,14.013,4.671,8.174,0,22.653,5.839,22.653,9.108C4665.073,427.384,4664.14,427.617,4661.8,425.282Z" transform="translate(-3376.304 -166.854)" fill="#fff"/>
      <path id="Tracé_49" data-name="Tracé 49" d="M4741.761,251.445c-14.479-5.138-31.762-25.456-31.762-37.367,0-4.437.235-4.437,8.408,0,4.671,2.335,14.012,3.5,30.595,3.5,26.156,0,33.63,1.868,43.438,11.21,8.641,8.407,7.94,11.21-1.167,4.671-7.006-4.9-10.743-5.371-38.067-6.072l-30.36-.934,7.707,8.174c8.408,8.641,25.923,15.647,39.936,15.647,6.306,0,7.474.7,4.9,2.335C4770.254,255.882,4752.271,255.181,4741.761,251.445Z" transform="translate(-3444.584 -15.904)" fill="#fff"/>
      <path id="Tracé_50" data-name="Tracé 50" d="M5741.635,875.857c-.935-.7-1.635-40.636-1.635-88.746V700h21.019V856.473h74.733v21.019h-46.241C5764.055,877.492,5742.336,876.792,5741.635,875.857Z" transform="translate(-4376.244 -391.75)" fill="#fff"/>
      <path id="Tracé_51" data-name="Tracé 51" d="M4452.414,872.354c-.7-3.036-.935-42.738-.7-88.279l.7-82.908,46.241-.7,46.008-.467v18.683h-72.4v51.146l34.564.7,34.331.7.7,8.875.7,8.641h-70.3V856.24l35.732.7,35.5.7.7,7.94c.467,4.671-.467,8.641-2.336,9.809-1.635,1.168-22.186,2.1-45.541,2.1C4454.048,877.492,4453.582,877.492,4452.414,872.354Z" transform="translate(-2783.946 -390.893)" fill="#fff"/>
      <path id="Tracé_52" data-name="Tracé 52" d="M3639.383,840.713c-12.845-13.312-42.739-44.373-66.56-69.362l-42.971-45.307-1.168,66.326-1.167,66.326-8.641.7-8.875.7V677l48.344,49.978c26.624,27.558,56.517,58.386,66.559,68.662l18.217,18.683V682.371h21.019v91.082c0,50.212-.234,91.082-.7,91.082C3663.2,864.535,3652.227,853.792,3639.383,840.713Z" transform="translate(-3095.383 -373.265)" fill="#fff"/>
    </g>
  </g>
</svg>
