<svg xmlns="http://www.w3.org/2000/svg" xmlns:xlink="http://www.w3.org/1999/xlink" width="1920" height="1080" viewBox="0 0 1920 1080">
  <defs>
    <clipPath id="clip-FDJ_White">
      <rect width="1920" height="1080"/>
    </clipPath>
  </defs>
  <g id="FDJ_White" data-name="FDJ – White" clip-path="url(#clip-FDJ_White)">
    <g id="fdj" transform="translate(31.4 31.512)">
      <path id="Soustraction_6" data-name="Soustraction 6" d="M1347.728,830.772a117.685,117.685,0,0,1-83.536-34.654l-87.477-87.2a30.462,30.462,0,0,0-9.945-6.613,30.781,30.781,0,0,0-11.792-2.336H118.631A118.906,118.906,0,0,1,9.341,627.68,117.24,117.24,0,0,1,0,581.7V249.025A118.014,118.014,0,0,1,34.762,165.45a119.019,119.019,0,0,1,37.71-25.375,118.2,118.2,0,0,1,22.263-6.9,119.531,119.531,0,0,1,23.9-2.408H1154.978a30.766,30.766,0,0,0,21.648-8.949l87.477-87.2a119.656,119.656,0,0,1,18.625-15.142,118.353,118.353,0,0,1,42.629-17.305,119.431,119.431,0,0,1,67.306,6.49,118.358,118.358,0,0,1,20.642,10.815A119.642,119.642,0,0,1,1431.93,34.61L1730,331.756a118.893,118.893,0,0,1,15.16,18.545,117.6,117.6,0,0,1,17.326,42.5,118.7,118.7,0,0,1-6.5,67.136,117.578,117.578,0,0,1-10.829,20.575A118.877,118.877,0,0,1,1730,499.06L1431.93,796.206a118.266,118.266,0,0,1-83.537,34.566h-.664ZM118.327,161.4a88.677,88.677,0,0,0-17.7,1.781,87.5,87.5,0,0,0-70.162,85.831V581.894a87.926,87.926,0,0,0,1.786,17.652,86.991,86.991,0,0,0,13.224,31.325,87.8,87.8,0,0,0,72.855,38.634H1179.656l105.561,105.256a88.187,88.187,0,0,0,13.753,11.227,87.306,87.306,0,0,0,31.519,12.835,88.324,88.324,0,0,0,28.019.886A85.666,85.666,0,0,0,1412.7,774.5l282.489-284.839,12.358-12.323a86.9,86.9,0,0,0,23.469-42.033,88.563,88.563,0,0,0-.7-43.272,86.782,86.782,0,0,0-22.211-38.557L1412.7,55.529a86.921,86.921,0,0,0-13.536-11.148,85.788,85.788,0,0,0-47.517-14.333,86.567,86.567,0,0,0-10.471.638,87.338,87.338,0,0,0-55.959,25.366l-.088.088L1179.656,161.4Z" transform="translate(46.6 93.45)" fill="#fff"/>
      <path id="Soustraction_5" data-name="Soustraction 5" d="M200.216,433.051h0a201.431,201.431,0,0,1-74.1-47.07L30.289,290.152a104.755,104.755,0,0,1-13.251-16.283A103.356,103.356,0,0,1,1.893,236.624a104.056,104.056,0,0,1,5.679-58.77,103.161,103.161,0,0,1,9.465-18.018,104.43,104.43,0,0,1,13.251-16.254l96.523-96.523A201.447,201.447,0,0,1,200.878,0L46.905,155.255a87.89,87.89,0,0,0-18.947,94.377,86.756,86.756,0,0,0,18.947,28.787Z" transform="translate(994.882 291.586)" fill="#d8b7ee"/>
      <path id="Tracé_5" data-name="Tracé 5" d="M723.505,521.383c0,84.425-62.318,167.284-151.443,181.993q-28.2,4.569-67.453,4.613H402.6s34.205-147.7,39.253-169.634c6.267-27.155,45.607-47.261,90-47.261L494.426,651.85h28.026c45.259,0,80.77-16.189,102.442-57.357q15.928-30.158,15.928-65.974c0-14.622-6.528-35.163-18.8-46.913-14.97-14.361-30.376-20.628-65.19-20.628H294.677L277.618,534.96h93.477l-13.578,59.185H263.953L237.755,707.9H158.9l70.587-306.02H563.532c54.659,0,89.647,8.268,113.67,25.066C709.493,449.229,723.505,481.259,723.505,521.383ZM800.446,398.4l-13.578,59.185H858.76L832.214,573.343c-16.624,72.762-56.835,88.081-98.786,60.925L691.3,683.531c56.487,47.957,185.127,38.905,213.587-83.381L951.541,398.4Z" transform="translate(-14.558 -36.122)" fill="#d8b7ee"/>
      <path id="Tracé_6" data-name="Tracé 6" d="M739.505,506.9c0,84.425-62.318,167.284-151.443,181.993q-28.2,4.569-67.453,4.613H418.6s34.205-147.7,39.253-169.634c6.267-27.155,45.607-47.261,90-47.261L510.425,637.369h28.026c45.259,0,80.77-16.189,102.442-57.357q15.928-30.158,15.928-65.974c0-14.622-6.528-35.163-18.8-46.913-14.97-14.361-30.376-20.628-65.19-20.628H310.677l-17.059,73.981h93.477l-13.578,59.185H279.953l-26.2,113.757H174.9L245.487,387.4H579.532c54.659,0,89.648,8.268,113.67,25.066C725.492,434.748,739.505,466.777,739.505,506.9Zm73.459-119.5-13.578,59.185h71.892L844.732,562.343c-16.624,72.762-56.835,88.081-98.786,60.925L703.82,672.531c56.487,47.957,185.127,38.905,213.587-83.381L964.059,387.4Z" transform="translate(-16.632 -34.819)" fill="#fff"/>
      <path id="Tracé_7" data-name="Tracé 7" d="M1779.671,440.273c-1.654-5.111-.435-85.912-57.444-93.49-37.426-5.023-71.109,20.354-96.785,53.045l114.1,55.6-54.659,115.518c41.081,8.988,83.816,7.137,109.84-21.324C1833.546,506.711,1781.673,445.3,1779.671,440.273ZM1556.335,553.588c-23.413,10.926-99.831,161.69-35.424,223.018,41.952,39.916,102.964-12.072,107.925-14.01,5.135-1.674,85.034.264,93.042-57.451C1734.238,616.414,1581.4,547.244,1556.335,553.588Zm-18.8-54.1c23.413-10.926,100.005-161.778,35.511-223.106-41.951-39.828-103.051,12.16-108.012,14.1-5.135,1.674-84.861-.264-92.955,57.363-12.359,88.643,140.477,157.9,165.456,151.645Zm-18.365,35.863c-10.88-23.7-159.8-101.067-220.376-35.774-39.341,42.471,11.924,104.239,13.926,109.262,1.567,5.111-.261,86.088,56.661,94.195,87.646,12.424,155.969-142.393,149.79-167.682ZM1388.877,767.971l30.811,31.193c20.192-21.324,45.955-57.8,56.138-112.082-2.176-.793-16.537-2.467-18.016-3.084-15.405,41.854-45.433,68.553-68.933,83.973Z" transform="translate(-140.988 -21.773)" fill="#fff"/>
      <rect id="Rectangle_1" data-name="Rectangle 1" width="116.368" height="116.368" transform="translate(1426.227 494.694) rotate(-64.38)" fill="#d8b7ee"/>
      <path id="Tracé_8" data-name="Tracé 8" d="M1764.5,480.907l-92.259-44.3h0l-12.533-6.005h-.087l-6.005,12.359.174.087-44.388,92.52,12.533,5.918,44.3-92.433,92.346,44.215Z" transform="translate(-183.173 -41)" fill="#d8b7ee"/>
    </g>
  </g>
</svg>
