<svg xmlns="http://www.w3.org/2000/svg" width="1800.81" height="478.415" viewBox="0 0 1800.81 478.415">
  <g id="l-oreal" transform="translate(-20.6 -242.1)">
    <path id="Tracé_9" data-name="Tracé 9" d="M1295.273,548.538h-45.32l132.96-261.117h52.223L1568.1,548.538h-45.921l-34.816-68.731H1330.389Zm175.279-100.845-62.128-121.855L1346.3,447.692ZM1087.88,280.517l30.914-35.716h68.731ZM999.34,549.138h233.505V519.425H1039.558V429.084h143.465V398.47H1039.558V316.834h192.087V287.72H999.34ZM681.8,287.42H853.775c45.921,0,83.437,34.215,83.437,75.934,0,36.316-28.513,66.93-66.33,74.133l80.736,111.35H904.2L824.662,439.289H718.114V548.838H681.8V287.42Zm174.078,31.214,2.4.3,2.4.3,2.4.6,2.4.6,2.1.9,2.1.9,2.1.9,2.1,1.2,2.1,1.2,1.8,1.2,1.8,1.5,1.8,1.5,1.5,1.5,1.5,1.5,1.5,1.8,1.5,1.8,1.2,1.8,1.2,1.8,1.2,1.8.9,1.8.9,1.8.9,1.8.6,1.8.6,1.8.6,1.8.3,2.1.3,2.1.3,2.1v8.4l-.3,2.1-.3,2.1-.3,2.1-.6,2.1-.6,1.8-.6,1.8-.9,1.8-.9,1.8-.9,1.8-1.2,1.8-1.2,1.8-1.2,1.8-1.5,1.8-1.5,1.8-1.5,1.5-1.5,1.5-1.8,1.5-1.8,1.5-1.8,1.2-2.1,1.2-2.1,1.2-2.1.9-2.1.9-2.1.9-2.4.6-2.4.6-2.4.6-2.4.3-2.4.3H720.215v-90.04h133.56ZM458.5,272.114a133.56,133.56,0,1,0,133.56,133.56c0-73.833-60.027-133.56-133.56-133.56m0-30.014c-98.144,0-177.98,73.233-177.98,163.574S360.053,569.247,458.5,569.247s177.98-73.233,177.98-163.574c-.3-90.341-79.836-163.574-177.98-163.574M20.6,549.138V287.72H53.915v232.9H251.4v28.513Zm1566.4,0H1821.41V519.425H1623.921V287.72H1587.3V549.138ZM746.026,719.014H726.217l58.526-101.746h22.81L866.08,719.014H845.971L830.664,692.3H761.633ZM822.861,679.7l-27.312-47.421L768.236,679.7ZM903.6,617.269H975.93c19.209,0,35.116,13.206,35.116,29.413,0,14.106-12.005,26.112-27.912,28.813l33.915,43.22H997.239L963.624,676.1H922.506v42.919H903.3V617.269Zm72.933,12.306h.9l.9.3.9.3.9.3.9.3.9.3.9.3.9.3.9.6.9.6.6.6.6.6.6.6.6.6.6.6.6.6.6.6.6.6.6.6.3.6.3.6.3.6.3.6.3.9.3.9v9l-.3.9-.3.9-.3.6-.3.6-.3.6-.3.6-.6.6-.6.6-.6.6-.6.6-.6.6-.6.6-.6.6-.6.6-.6.6-.9.6-.9.6-.9.3-.9.3-.9.3-.9.3-.9.3-.9.3-.9.3H923.406V629.275H975.63ZM610.966,617.269H683.3c19.209,0,35.116,13.206,35.116,29.413,0,10.2-6.3,19.209-15.607,24.611-6.3,3.6-12.906,4.5-20.109,4.8H630.174v42.919H610.966V617.269ZM683.9,629.574h.9l.9.3.9.3.9.3.9.3.9.3.9.3.9.3.9.6.9.6.9.6.6.6.6.6.6.6.6.6.6.6.6.6.6.6.3.6.3.6.3.6.3.6.3.6.3.9.3.9.3.9v7.2l-.3.9-.3.9-.3.9-.3.6-.3.6-.3.6-.3.6-.3.6-.6.6-.6.6-.6.6-.6.6-.6.6-.6.6-.6.6-.9.6-.9.6-.9.6-.9.3-.9.3-.9.3-.9.3-.9.3-.9.3-.9.3H630.775V629.275H683ZM1126.3,686.3l17.408-1.2c.9,5.1,2.7,9.3,5.7,12.606s7.8,6,14.106,7.8c6.3,2.1,13.506,3,21.61,3,7.2,0,13.506-.6,18.909-2.4,5.4-1.5,9.6-3.6,12.005-6.3a11.678,11.678,0,0,0,3.9-8.7,10.638,10.638,0,0,0-3.9-8.4c-2.4-2.4-6.9-4.5-12.606-6-3.9-1.2-12.005-2.7-25.211-5.1q-19.359-3.151-27.012-6.3c-6.6-2.4-11.705-5.7-15.007-9.3a18.983,18.983,0,0,1-4.8-12.606c0-5.1,2.1-9.9,6-14.406s9.9-7.8,17.708-10.2,16.507-3.3,25.812-3.3a96.242,96.242,0,0,1,27.612,3.6c8.1,2.4,14.106,6,18.308,10.8a26.168,26.168,0,0,1,6.9,15.907l-17.408,1.2a19.577,19.577,0,0,0-9.9-14.707c-5.4-3.3-13.806-4.8-24.611-4.8-11.405,0-19.509,1.5-24.611,4.5s-7.8,6.6-7.8,10.8q0,5.4,5.4,9c3.6,2.4,12.906,4.8,28.213,7.2,15.007,2.4,25.511,4.8,31.214,6.6,8.1,2.7,14.106,6.3,18.308,10.2a20.422,20.422,0,0,1,5.7,14.406q0,8.1-6.3,15.307c-4.2,4.8-10.5,8.4-18.608,11.105a85.146,85.146,0,0,1-27.012,3.9c-12.606,0-23.41-1.2-32.114-3.9s-15.307-6.6-20.409-12.006c-4.5-5.4-7.2-11.405-7.5-18.308m-62.728-39.018h18.909v71.732h-18.909Zm0-30.013h18.909v18.909h-18.909Zm-880-238.007h30.914l46.221-89.74H221.39Z" transform="translate(0 0)" fill="#591c8a" fill-rule="evenodd"/>
  </g>
</svg>
