<svg xmlns="http://www.w3.org/2000/svg" xmlns:xlink="http://www.w3.org/1999/xlink" width="1920" height="1080" viewBox="0 0 1920 1080">
  <defs>
    <clipPath id="clip-Run2Meet_White">
      <rect width="1920" height="1080"/>
    </clipPath>
  </defs>
  <g id="Run2Meet_White" data-name="Run2Meet – White" clip-path="url(#clip-Run2Meet_White)">
    <g id="R2M">
      <g id="Logo" transform="translate(155.199 341)">
        <path id="Low_Shoe" data-name="Low Shoe" d="M558.97,1287.489c-6.5-13-8.749-30-5.249-40.245,2-6,2-10,0-16-1.75-4.749-2.25-12.5-1.25-19.5,1.75-11.5,2-11.749,11-11.749,11.5,0,28,4.5,28,7.5,0,1.25-2.25,3.5-5,5s-5,4.249-5,6.249c0,3.25,9.749,12.5,15.5,14.248,1.5.5-1.5,8.249-7.5,18.248-8.249,13.5-10.5,19.5-10.5,28.746C578.968,1299.737,567.469,1304.236,558.97,1287.489Z" transform="translate(-413.388 -900.039)" fill="#d8b7ee"/>
        <path id="Body_Arc" data-name="Body &amp; Arc" d="M399.6,325.208l-8.5-7,16.748-16c9.249-9,16.748-17.248,16.748-18.5-.25-1.5-7.249-10-15.748-19.248l-15.5-16.748-15,7.249c-15.748,7.749-35.245,12.5-51.743,12.5-17.5,0-28.5-17.5-33.246-52.743-1.25-9.249-.5-12.5,3.749-18,9-11.5,16.248-9.249,25,8,4,8.249,8.249,15.5,9.5,16.248s11.748-7.249,23.247-17.748S385.6,175.977,397.6,165.979c19.747-16.5,21.247-18.5,18.248-22.747-2-2.5-3.749-7-3.749-9.749,0-11.249,11.748-14.5,42.994-11.249,12.748,1.5,37.245,3.25,54.493,4l31.246,1.5,25-34.746c13.5-19.248,25.247-36,25.5-37.245.5-1.5-4.249-6.749-10.749-12-11-9-18.5-21.247-18.5-30C562.075,8,571.324,0,577.823,0c7,0,14.248,7.249,14.248,14.248,0,5.5-7.249,13.248-12.248,13.248-5.5,0-.25,4.749,20,19,25,17.5,31.246,25.747,41.245,54.243l7.749,23,12.248.75c5.213.118,12.321,0,12.321,0s.721,9.675,0,10.058c-.992.555-6.041.441-12.321.441-12.748,0-12.248-.75-16.5,28.746-3.5,24.247-10.249,37.245-30,58.492-8.249,8.749-15,16.748-15,17.748s2.25,2.5,4.749,3.25c2.5.5,6.749,4.249,9.249,7.749,4,6.5,4,7-.75,13.5-14.748,20-34-4-21.747-27.246,2-4.249,7.5-11.748,12-16.748l8.249-9.249-24.747-23.5-25-23.747-12.748,2.75c-21.5,4.5-55.993,18.248-70.491,27.746-10.749,7-15.248,12.248-21.5,24.247-9.249,18-9.5,16.248,13,46.744,8.249,11,14.748,21.247,14.748,23.247,0,10-22.747,25-56.993,37.245-10,3.5-18.5,6.5-18.748,6.5C408.345,332.457,404.345,329.207,399.6,325.208ZM625.817,193.975c5.5-9.5,13.5-42.744,10.749-44.994-1-1-65.242,10.749-66.491,12.248-1.5,1.5,42.994,43.494,46.244,43.744C618.068,204.973,622.317,199.974,625.817,193.975Zm-18-70.491c14.748-.75,27.246-2.5,28-3.5s-1.75-10.749-5.749-21.5c-5-14.748-9.5-22.5-17.248-30.246-5.749-6-11.5-10.749-12.5-10.749-1.75.25-43.494,56.993-48.994,66.491-1.75,3,.5,3.5,13.748,2.25C573.823,125.734,592.821,124.484,607.819,123.484Z" transform="translate(-219.019)" fill="#fff"/>
        <path id="High_Shoe" data-name="High Shoe" d="M3.85,652.11c-5-2.25-3.75-10,3-18,8-9.5,27.246-18.748,39.495-18.748,5.5,0,10.249-1.25,10.749-3,1.5-3.75,26.5-12,32.746-10.749,3.25.5,5.249,4.749,7.249,17,1.75,9,2.5,17,2,18-.75,1-4.5.5-8.749-1-6-2-8.249-1.75-12.248,1.75-2.75,2.5-5.5,6.5-6.249,8.749-1.25,3.75-4.749,4.5-25.747,4.249-13.248,0-27.5.5-31.746,1.5C10.349,652.61,5.35,652.86,3.85,652.11Z" transform="translate(0 -451.137)" fill="#d8b7ee"/>
        <path id="Heart" d="M1849.757,462.341c-5.749-4-7.249-13.248-3-17.5,8.154-6.3,4.716-2.46,0-8.75-4.5-7.749-1.75-14.286,3-18.035,7.5-5.749,23,1.039,31,8.538,14,13,13,19.5-4.5,32.246C1864.755,467.341,1858.006,468.091,1849.757,462.341Z" transform="translate(-1381.217 -313.861)" fill="#d8b7ee"/>
        <path id="Head" d="M971.609,190.877c-19.248-13.248-24.5-32.5-14.5-51.993,8.5-16.748,18-21,49.494-22.747,14.5-.75,28.246-2.25,30.746-3.5,4.249-1.75,4.249-1.25-.75,8.5l-5.249,10.749,5.749-1.75a35.522,35.522,0,0,0,9.249-4.749c5.749-4.5-.5,6.249-7,12-3.623,2.612-4.016,4.986-4.016,4.986.246.652,2.751-.342,3,.275.75,1-2.731,3.988-4.231,4.988-1.25.75-2.5,5.749-2.5,11,0,11.249-7.749,24-19.747,32C1000.355,198.376,982.857,198.376,971.609,190.877Z" transform="translate(-713.541 -83.89)" fill="#fff"/>
        <path id="Large_Wing" data-name="Large Wing" d="M443.738,170.209c-5.249-1.25-13.2-7.421-15.954-10.171-3-2.75-7.793-2.078-12.292-2.078-13,0-25.551-9.831-28.55-17.83-1.5-4-10.692-9.09-15.191-11.59-10-5.5-21.75-19.074-21.75-24.073,0-10.249,15-15.248,41.995-13.5,25,1.5,30,5,41.745,28.246,5.5,11,14.748,27,20.747,35.5,5.749,8.5,10.5,16,10.5,16.748C464.985,173.458,455.486,172.958,443.738,170.209Z" transform="translate(-261.911 -67.972)" fill="#fff"/>
        <path id="Little_Wing" data-name="Little Wing" d="M783.415,193.519c-2.25-3.25,0-6.31,0-7.81s-4.787-5.379-7.536-9.128c-3.25-4.5-3.712-9.619-3.212-15.369.5-8.249,1-8.749,10.749-9.5,13-1,23,6,19,13.5-1.25,2.5-4,11.748-5.5,20.5-1.75,8.5-4,15.5-5,15.5S785.665,197.018,783.415,193.519Z" transform="translate(-578.841 -113.718)" fill="#fff"/>
      </g>
      <path id="Tracé_59" data-name="Tracé 59" d="M38.72,0H20.24V-154H80.52a87.351,87.351,0,0,1,27.5,4.07,45.656,45.656,0,0,1,21.23,14.96q8.91,10.89,8.91,27.61,0,19.8-11.44,30.8t-29.7,14.3L149.16,0h-23.1L75.68-60.72H38.72Zm0-136.4v58.08H81.4q16.28,0,27.17-6.71t10.89-22.33q0-15.84-10.89-22.44T81.4-136.4Zm206.14,30.8h17.6V0H246.62V-15.62A45.252,45.252,0,0,1,230.67-2.64a47.5,47.5,0,0,1-22.11,5.28q-20.46,0-32.23-11.77T164.56-40.48V-105.6h17.6v62.92q0,29.04,28.38,29.04,20.24,0,34.32-21.12Zm66,15.62a45.252,45.252,0,0,1,15.95-12.98,47.5,47.5,0,0,1,22.11-5.28q19.14,0,31.57,11.99t12.43,31.13V0h-17.6V-62.92q0-14.3-7.81-21.67t-20.57-7.37q-20.24,0-34.32,21.12V0h-17.6V-105.6h15.84Zm111.98-47.74q20.9-14.52,47.96-14.52,23.32,0,37.18,10.56t13.86,29.48a42.375,42.375,0,0,1-3.41,16.94,45.649,45.649,0,0,1-10.12,14.52,112.017,112.017,0,0,1-12.98,11.11q-6.27,4.51-15.73,10.01-1.1.66-6.71,3.96t-7.04,4.18q-1.43.88-6.16,3.85a49.911,49.911,0,0,0-6.16,4.29q-1.43,1.32-4.84,4.18a22.293,22.293,0,0,0-4.62,4.84q-1.21,1.98-3.08,4.95a19.035,19.035,0,0,0-2.53,5.83,27.359,27.359,0,0,0-.66,6.16l85.14-.22V0H417.56V-8.8a60.234,60.234,0,0,1,3.96-22.33,48.361,48.361,0,0,1,11.33-17.16,110.927,110.927,0,0,1,14.63-12.1q7.26-4.95,16.94-10.67,2.2-1.1,3.3-1.76,20.02-11.66,26.18-17.82,9.46-9.68,9.46-21.78,0-11-8.91-16.83t-25.19-5.83q-23.76,0-46.42,15.84ZM697.4-154h15.84V0H694.76V-119.02L639.54-36.3H628.1l-55.22-82.72V0H554.4V-154h15.84l63.58,95.04ZM740.08-52.8q0-25.96,15.95-40.7t36.63-14.74q19.36,0,32.01,9.68t16.61,23.87a59.324,59.324,0,0,1,.44,29.59H757.68q1.54,15.62,13.86,23.54t29.7,7.92q19.36,0,34.76-8.58V-5.06q-14.74,7.7-37.4,7.7-25.08,0-41.8-14.3T740.08-52.8Zm86.02-7.7a24.416,24.416,0,0,0-.66-9.68,33.139,33.139,0,0,0-4.73-10.12,24.943,24.943,0,0,0-10.45-8.36,38.52,38.52,0,0,0-16.5-3.3,38.415,38.415,0,0,0-24.75,8.36q-10.45,8.36-11.33,23.1Zm34.54,7.7q0-25.96,15.95-40.7t36.63-14.74q19.36,0,32.01,9.68t16.61,23.87a59.324,59.324,0,0,1,.44,29.59H878.24q1.54,15.62,13.86,23.54t29.7,7.92q19.36,0,34.76-8.58V-5.06q-14.74,7.7-37.4,7.7-25.08,0-41.8-14.3T860.64-52.8Zm86.02-7.7a24.416,24.416,0,0,0-.66-9.68,33.139,33.139,0,0,0-4.73-10.12,24.943,24.943,0,0,0-10.45-8.36,38.519,38.519,0,0,0-16.5-3.3,38.415,38.415,0,0,0-24.75,8.36q-10.45,8.36-11.33,23.1Zm47.74-77.88,17.38-4.4v37.18h42.24v16.28h-42.24v54.56q0,11.66,5.39,16.28t17.27,4.62a61.528,61.528,0,0,0,23.32-4.84V-2.42a83.007,83.007,0,0,1-28.38,4.84q-16.06,0-25.52-8.69T994.4-31.68V-89.32H974.6V-105.6h19.8Z" transform="translate(697 610)" fill="#fff"/>
    </g>
  </g>
</svg>
