<svg xmlns="http://www.w3.org/2000/svg" width="1603" height="397.753" viewBox="0 0 1603 397.753">
  <g id="R2M" transform="translate(-156 -341)">
    <g id="Logo" transform="translate(155.199 341)">
      <path id="Low_Shoe" data-name="Low Shoe" d="M558.97,1287.489c-6.5-13-8.749-30-5.249-40.245,2-6,2-10,0-16-1.75-4.749-2.25-12.5-1.25-19.5,1.75-11.5,2-11.749,11-11.749,11.5,0,28,4.5,28,7.5,0,1.25-2.25,3.5-5,5s-5,4.249-5,6.249c0,3.25,9.749,12.5,15.5,14.248,1.5.5-1.5,8.249-7.5,18.248-8.249,13.5-10.5,19.5-10.5,28.746C578.968,1299.737,567.469,1304.236,558.97,1287.489Z" transform="translate(-413.388 -900.039)" fill="#b04cb2"/>
      <path id="Body_Arc" data-name="Body &amp; Arc" d="M399.6,325.208l-8.5-7,16.748-16c9.249-9,16.748-17.248,16.748-18.5-.25-1.5-7.249-10-15.748-19.248l-15.5-16.748-15,7.249c-15.748,7.749-35.245,12.5-51.743,12.5-17.5,0-28.5-17.5-33.246-52.743-1.25-9.249-.5-12.5,3.749-18,9-11.5,16.248-9.249,25,8,4,8.249,8.249,15.5,9.5,16.248s11.748-7.249,23.247-17.748S385.6,175.977,397.6,165.979c19.747-16.5,21.247-18.5,18.248-22.747-2-2.5-3.749-7-3.749-9.749,0-11.249,11.748-14.5,42.994-11.249,12.748,1.5,37.245,3.25,54.493,4l31.246,1.5,25-34.746c13.5-19.248,25.247-36,25.5-37.245.5-1.5-4.249-6.749-10.749-12-11-9-18.5-21.247-18.5-30C562.075,8,571.324,0,577.823,0c7,0,14.248,7.249,14.248,14.248,0,5.5-7.249,13.248-12.248,13.248-5.5,0-.25,4.749,20,19,25,17.5,31.246,25.747,41.245,54.243l7.749,23,12.248.75c5.213.118,12.321,0,12.321,0s.721,9.675,0,10.058c-.992.555-6.041.441-12.321.441-12.748,0-12.248-.75-16.5,28.746-3.5,24.247-10.249,37.245-30,58.492-8.249,8.749-15,16.748-15,17.748s2.25,2.5,4.749,3.25c2.5.5,6.749,4.249,9.249,7.749,4,6.5,4,7-.75,13.5-14.748,20-34-4-21.747-27.246,2-4.249,7.5-11.748,12-16.748l8.249-9.249-24.747-23.5-25-23.747-12.748,2.75c-21.5,4.5-55.993,18.248-70.491,27.746-10.749,7-15.248,12.248-21.5,24.247-9.249,18-9.5,16.248,13,46.744,8.249,11,14.748,21.247,14.748,23.247,0,10-22.747,25-56.993,37.245-10,3.5-18.5,6.5-18.748,6.5C408.345,332.457,404.345,329.207,399.6,325.208ZM625.817,193.975c5.5-9.5,13.5-42.744,10.749-44.994-1-1-65.242,10.749-66.491,12.248-1.5,1.5,42.994,43.494,46.244,43.744C618.068,204.973,622.317,199.974,625.817,193.975Zm-18-70.491c14.748-.75,27.246-2.5,28-3.5s-1.75-10.749-5.749-21.5c-5-14.748-9.5-22.5-17.248-30.246-5.749-6-11.5-10.749-12.5-10.749-1.75.25-43.494,56.993-48.994,66.491-1.75,3,.5,3.5,13.748,2.25C573.823,125.734,592.821,124.484,607.819,123.484Z" transform="translate(-219.019)" fill="#591c8a"/>
      <path id="High_Shoe" data-name="High Shoe" d="M3.85,652.11c-5-2.25-3.75-10,3-18,8-9.5,27.246-18.748,39.495-18.748,5.5,0,10.249-1.25,10.749-3,1.5-3.75,26.5-12,32.746-10.749,3.25.5,5.249,4.749,7.249,17,1.75,9,2.5,17,2,18-.75,1-4.5.5-8.749-1-6-2-8.249-1.75-12.248,1.75-2.75,2.5-5.5,6.5-6.249,8.749-1.25,3.75-4.749,4.5-25.747,4.249-13.248,0-27.5.5-31.746,1.5C10.349,652.61,5.35,652.86,3.85,652.11Z" transform="translate(0 -451.137)" fill="#b04cb2"/>
      <path id="Heart" d="M1849.757,462.341c-5.749-4-7.249-13.248-3-17.5,8.154-6.3,4.716-2.46,0-8.75-4.5-7.749-1.75-14.286,3-18.035,7.5-5.749,23,1.039,31,8.538,14,13,13,19.5-4.5,32.246C1864.755,467.341,1858.006,468.091,1849.757,462.341Z" transform="translate(-1381.217 -313.861)" fill="#b04cb2"/>
      <path id="Head" d="M971.609,190.877c-19.248-13.248-24.5-32.5-14.5-51.993,8.5-16.748,18-21,49.494-22.747,14.5-.75,28.246-2.25,30.746-3.5,4.249-1.75,4.249-1.25-.75,8.5l-5.249,10.749,5.749-1.75a35.522,35.522,0,0,0,9.249-4.749c5.749-4.5-.5,6.249-7,12-3.623,2.612-4.016,4.986-4.016,4.986.246.652,2.751-.342,3,.275.75,1-2.731,3.988-4.231,4.988-1.25.75-2.5,5.749-2.5,11,0,11.249-7.749,24-19.747,32C1000.355,198.376,982.857,198.376,971.609,190.877Z" transform="translate(-713.541 -83.89)" fill="#591c8a"/>
      <path id="Large_Wing" data-name="Large Wing" d="M443.738,170.209c-5.249-1.25-13.2-7.421-15.954-10.171-3-2.75-7.793-2.078-12.292-2.078-13,0-25.551-9.831-28.55-17.83-1.5-4-10.692-9.09-15.191-11.59-10-5.5-21.75-19.074-21.75-24.073,0-10.249,15-15.248,41.995-13.5,25,1.5,30,5,41.745,28.246,5.5,11,14.748,27,20.747,35.5,5.749,8.5,10.5,16,10.5,16.748C464.985,173.458,455.486,172.958,443.738,170.209Z" transform="translate(-261.911 -67.972)" fill="#591c8a"/>
      <path id="Little_Wing" data-name="Little Wing" d="M783.415,193.519c-2.25-3.25,0-6.31,0-7.81s-4.787-5.379-7.536-9.128c-3.25-4.5-3.712-9.619-3.212-15.369.5-8.249,1-8.749,10.749-9.5,13-1,23,6,19,13.5-1.25,2.5-4,11.748-5.5,20.5-1.75,8.5-4,15.5-5,15.5S785.665,197.018,783.415,193.519Z" transform="translate(-578.841 -113.718)" fill="#591c8a"/>
    </g>
    <text id="Run2Meet" transform="translate(697 610)" fill="#591c8a" font-size="220" font-family="MullerRegular, Muller"><tspan x="0" y="0">Run2Meet</tspan></text>
  </g>
</svg>
