<?xml version="1.0" standalone="no"?>
<!DOCTYPE svg PUBLIC "-//W3C//DTD SVG 1.1//EN" "http://www.w3.org/Graphics/SVG/1.1/DTD/svg11.dtd" >
<svg xmlns="http://www.w3.org/2000/svg" xmlns:xlink="http://www.w3.org/1999/xlink" version="1.1">
<metadata>
Created by FontForge 20170731 at Sun Jan 29 00:49:18 2023
 By Aleksey,,,
Copyright (c) 2019 by Daniel Hernandez &#38; Rodrigo Fuenzalida. All rights reserved.
</metadata>
<defs>
<font id="Biennale-Bold" horiz-adv-x="0" >
  <font-face 
    font-family="Biennale Bold"
    font-weight="700"
    font-stretch="normal"
    units-per-em="2048"
    panose-1="0 0 8 0 0 0 0 0 0 0"
    ascent="1638"
    descent="-410"
    x-height="1079"
    cap-height="1423"
    bbox="-1561 -600 4520 2032"
    underline-thickness="102"
    underline-position="-307"
    unicode-range="U+0020-FB02"
  />
<missing-glyph horiz-adv-x="1290" 
d="M205 1495h880v-1495h-880v1495zM338 1423l307 -587l307 587h-614zM600 748l-313 598v-1196zM692 748l312 -598v1196zM645 659l-307 -587h614z" />
    <glyph glyph-name="fi" unicode="fi" horiz-adv-x="1163" 
d="M674 1284q-82 0 -126 -45.5t-44 -128.5v-31h551v-1079h-303v821h-248v-821h-303v821h-164v258h164q0 207 119.5 325t343.5 118h391v-238h-381z" />
    <glyph glyph-name="fl" unicode="fl" horiz-adv-x="1214" 
d="M1106 1497v-1497h-303v1260h-129q-81 0 -125.5 -46.5t-44.5 -128.5v-20h170v-244h-170v-821h-303v821h-164v258h164q8 196 127 307t336 111h442z" />
    <glyph glyph-name=".notdef" horiz-adv-x="1290" 
d="M205 1495h880v-1495h-880v1495zM338 1423l307 -587l307 587h-614zM600 748l-313 598v-1196zM692 748l312 -598v1196zM645 659l-307 -587h614z" />
    <glyph glyph-name=".null" 
 />
    <glyph glyph-name="nonmarkingreturn" horiz-adv-x="682" 
 />
    <glyph glyph-name="space" unicode=" " horiz-adv-x="401" 
 />
    <glyph glyph-name="exclam" unicode="!" horiz-adv-x="557" 
d="M158 496l-52 1001h347l-56 -1001h-239zM279 -20q-72 0 -120 48t-48 119q0 75 48 125t120 50q74 0 123 -50t49 -125q0 -71 -49.5 -119t-122.5 -48z" />
    <glyph glyph-name="quotedbl" unicode="&#x22;" horiz-adv-x="798" 
d="M109 926l-23 538h264l-24 -538h-217zM475 926l-20 538h260l-23 -538h-217z" />
    <glyph glyph-name="numbersign" unicode="#" horiz-adv-x="1433" 
d="M1380 877h-239l-80 -295h180v-232h-242l-96 -350h-252l97 350h-256l-97 -350h-248l97 350h-187v232h250l80 295h-188v229h252l86 317h245l-86 -317h258l86 317h250l-86 -317h176v-229zM811 582l80 295h-258l-80 -295h258z" />
    <glyph glyph-name="dollar" unicode="$" horiz-adv-x="1064" 
d="M997 389q0 -138 -87 -235t-242 -129v-193h-244v186q-138 22 -237 106t-138 218l262 100q23 -93 86 -143.5t154 -50.5q79 0 122.5 36.5t43.5 98.5q0 41 -21 72.5t-56.5 53t-81.5 39t-97 35t-101.5 38t-96.5 51t-81.5 69t-56.5 97.5t-21 133q0 141 84.5 239t237.5 127v189
h244v-193q119 -26 199 -100t108 -182l-260 -101q-42 162 -187 162q-71 0 -110 -33.5t-39 -87.5q0 -39 21 -69t56.5 -50.5t82 -37.5t97.5 -35t102 -39t97.5 -53t82 -73.5t56.5 -104t21 -140.5z" />
    <glyph glyph-name="percent" unicode="%" horiz-adv-x="1585" 
d="M377 776q-140 0 -235 96.5t-95 235.5t95 235.5t235 96.5q143 0 236.5 -96t93.5 -236t-93.5 -236t-236.5 -96zM272 0l811 1423l234 2l-813 -1423zM377 965q60 0 97.5 40.5t37.5 102.5q0 61 -38 102t-97 41q-58 0 -96.5 -41.5t-38.5 -101.5q0 -62 38.5 -102.5t96.5 -40.5z
M1208 -16q-141 0 -235 96t-94 235t94 235.5t235 96.5q143 0 236.5 -96t93.5 -236t-93.5 -235.5t-236.5 -95.5zM1208 172q58 0 96.5 40.5t38.5 102.5q0 61 -38 102.5t-97 41.5t-97 -41.5t-38 -102.5q0 -62 38.5 -102.5t96.5 -40.5z" />
    <glyph glyph-name="ampersand" unicode="&#x26;" horiz-adv-x="1429" 
d="M1417 0h-327l-115 113q-168 -133 -397 -133q-141 0 -255.5 52t-181.5 146.5t-67 214.5q0 253 243 387q-86 125 -86 264q0 176 127.5 287t335.5 111q206 0 337.5 -118.5t146.5 -317.5h-316q-7 64 -50 105.5t-122 41.5q-66 0 -107.5 -39t-41.5 -96q0 -15 1.5 -27.5t7.5 -27
t10.5 -25t19 -29.5t24 -31t33 -38.5t39.5 -44t51 -55t59 -64.5l177 -189q75 128 84 314l282 -113q-20 -246 -168 -414zM582 250q103 0 188 61l-281 275q-6 6 -10 8q-49 -35 -72.5 -75t-23.5 -95q0 -76 58.5 -125t140.5 -49z" />
    <glyph glyph-name="quotesingle" unicode="'" horiz-adv-x="434" 
d="M109 926l-23 538h264l-24 -538h-217z" />
    <glyph glyph-name="parenleft" unicode="(" horiz-adv-x="708" 
d="M504 -256q-207 165 -321.5 406.5t-114.5 545.5t114.5 546.5t321.5 406.5l201 -195q-176 -156 -263.5 -340t-87.5 -418q0 -233 88 -418t263 -339z" />
    <glyph glyph-name="parenright" unicode=")" horiz-adv-x="708" 
d="M203 -256l-199 195q175 153 261.5 338t86.5 419q0 235 -86.5 419t-261.5 339l199 195q208 -164 323 -406.5t115 -546.5t-115 -546t-323 -406z" />
    <glyph glyph-name="asterisk" unicode="*" horiz-adv-x="856" 
d="M324 768l18 201l-166 -121l-108 192l192 88l-192 91l108 190l164 -121l-18 209h213l-19 -209l164 121l106 -190l-190 -91l190 -88l-106 -192l-166 121l18 -201h-208z" />
    <glyph glyph-name="plus" unicode="+" horiz-adv-x="1013" 
d="M954 799v-256h-315v-346h-266v346h-316v256h316v354h266v-354h315z" />
    <glyph glyph-name="comma" unicode="," horiz-adv-x="471" 
d="M233 324q71 0 120.5 -49t49.5 -125q0 -74 -51 -173l-114 -229h-168l123 248q-58 11 -92.5 52t-34.5 106q0 73 48.5 121.5t118.5 48.5z" />
    <glyph glyph-name="hyphen" unicode="-" horiz-adv-x="794" 
d="M104 381v246h584v-246h-584z" />
    <glyph glyph-name="period" unicode="." horiz-adv-x="475" 
d="M238 -20q-72 0 -121 48t-49 119q0 75 49 125t121 50t121 -50t49 -125q0 -71 -49 -119t-121 -48z" />
    <glyph glyph-name="slash" unicode="/" horiz-adv-x="765" 
d="M53 -102l393 1558h263l-390 -1558h-266z" />
    <glyph glyph-name="zero" unicode="0" horiz-adv-x="1441" 
d="M721 -25q-292 0 -464.5 198.5t-172.5 541.5q0 346 171.5 539.5t465.5 193.5q295 0 467 -193t172 -540q0 -342 -174 -541t-465 -199zM721 262q151 0 240.5 118t89.5 331q0 214 -89.5 331t-240.5 117t-239.5 -117t-88.5 -331t88.5 -331.5t239.5 -117.5z" />
    <glyph glyph-name="one" unicode="1" horiz-adv-x="847" 
d="M621 252h170v-252h-703v252h229v719h-225v250h225v202h304v-1171z" />
    <glyph glyph-name="two" unicode="2" horiz-adv-x="1191" 
d="M510 252h600v-252h-1042v201l497 473q211 191 211 344q0 77 -52.5 124.5t-139.5 47.5q-85 0 -146.5 -51.5t-85.5 -149.5l-286 92q40 166 182.5 266.5t337.5 100.5q228 0 363.5 -113.5t135.5 -302.5q0 -135 -69.5 -252.5t-212.5 -249.5z" />
    <glyph glyph-name="three" unicode="3" horiz-adv-x="1202" 
d="M709 852q184 -10 300.5 -129.5t116.5 -296.5q0 -195 -151.5 -324t-386.5 -129q-209 0 -358.5 91t-194.5 241l278 111q25 -84 96 -133.5t171 -49.5q105 0 169 60t64 153q0 94 -64.5 150.5t-162.5 56.5h-234v201l359 332h-602v237h944v-237z" />
    <glyph glyph-name="four" unicode="4" horiz-adv-x="1247" 
d="M1182 537v-238h-156v-299h-301v299h-688v221l690 901h299v-884h156zM727 537v495l-377 -495h377z" />
    <glyph glyph-name="five" unicode="5" horiz-adv-x="1175" 
d="M565 911q246 0 392.5 -126.5t146.5 -340.5q0 -210 -147 -340.5t-400 -130.5q-197 0 -332.5 86t-193.5 252l276 111q24 -92 92.5 -141.5t161.5 -49.5q106 0 170 61.5t64 156.5q0 98 -65 161.5t-175 63.5h-389l41 749h801v-237h-543l-16 -275h116z" />
    <glyph glyph-name="six" unicode="6" horiz-adv-x="1212" 
d="M635 956q231 -5 377.5 -135.5t146.5 -345.5q0 -148 -72 -263.5t-196 -177t-277 -61.5q-235 0 -391.5 139.5t-156.5 360.5q0 184 133 363l438 587h352zM614 233q101 0 168.5 68.5t67.5 171.5q0 104 -67 172t-169 68t-170.5 -68t-68.5 -172q0 -103 68.5 -171.5t170.5 -68.5
z" />
    <glyph glyph-name="seven" unicode="7" horiz-adv-x="1048" 
d="M33 1421h975v-227l-469 -1194h-338l469 1169h-637v252z" />
    <glyph glyph-name="eight" unicode="8" horiz-adv-x="1212" 
d="M862 750q124 -44 199.5 -141t75.5 -222q0 -184 -149 -299t-380 -115q-232 0 -381 114.5t-149 299.5q0 127 72 224.5t192 140.5q-93 42 -149 124t-56 195q0 164 124.5 270.5t346.5 106.5q220 0 344.5 -106.5t124.5 -272.5q0 -114 -58 -196t-157 -123zM608 1202
q-83 0 -133.5 -47.5t-50.5 -124.5q0 -76 51.5 -125t132.5 -49q79 0 131 49.5t52 124.5q0 77 -50.5 124.5t-132.5 47.5zM608 219q102 0 164 57.5t62 147.5t-63 148.5t-163 58.5q-102 0 -164.5 -58.5t-62.5 -148.5t62 -147.5t165 -57.5z" />
    <glyph glyph-name="nine" unicode="9" horiz-adv-x="1210" 
d="M598 1450q153 0 278 -62t198 -177t73 -261q0 -181 -135 -362l-439 -588h-352l354 467q-232 6 -377 136t-145 345q0 148 72 263.5t196 177t277 61.5zM598 711q102 0 171 68t69 171q0 102 -69 171t-171 69t-169 -68t-67 -172t67 -171.5t169 -67.5z" />
    <glyph glyph-name="colon" unicode=":" horiz-adv-x="524" 
d="M262 614q-72 0 -121 49t-49 121q0 73 49 122.5t121 49.5t121 -49.5t49 -122.5q0 -72 -49 -121t-121 -49zM262 -20q-72 0 -121 48t-49 119q0 75 49 125t121 50t121 -50t49 -125q0 -71 -49 -119t-121 -48z" />
    <glyph glyph-name="semicolon" unicode=";" horiz-adv-x="526" 
d="M262 612q-72 0 -121 49t-49 121q0 73 49 122.5t121 49.5q74 0 123 -49t49 -123q0 -72 -49.5 -121t-122.5 -49zM264 324q70 0 119 -49.5t49 -124.5q0 -78 -49 -173l-115 -229h-170l125 248q-59 11 -94 51.5t-35 106.5q0 73 49.5 121.5t120.5 48.5z" />
    <glyph glyph-name="less" unicode="&#x3c;" horiz-adv-x="890" 
d="M788 1133v-273l-428 -215l428 -215v-274l-737 399v180z" />
    <glyph glyph-name="equal" unicode="=" horiz-adv-x="1091" 
d="M115 745v256h862v-256h-862zM115 270v254h862v-254h-862z" />
    <glyph glyph-name="greater" unicode="&#x3e;" horiz-adv-x="890" 
d="M102 1133l738 -398v-180l-738 -399v272l430 217l-430 213v275z" />
    <glyph glyph-name="question" unicode="?" horiz-adv-x="991" 
d="M305 496v75q0 70 23 130t57.5 99.5t75 79t75 69.5t57.5 70t23 83q0 60 -35 92.5t-96 32.5t-103.5 -39t-53.5 -103l-285 93q34 156 157 248t304 92q199 0 313.5 -101.5t114.5 -279.5q0 -68 -20 -125.5t-52.5 -98.5t-71.5 -77t-78.5 -67.5t-72 -62.5t-52.5 -70.5t-20 -84.5
v-55h-260zM436 -20q-72 0 -120 48t-48 119q0 75 48 125t120 50q74 0 123 -49t49 -121q0 -74 -49 -123t-123 -49z" />
    <glyph glyph-name="at" unicode="@" horiz-adv-x="1642" 
d="M825 1198q168 0 308.5 -53t236.5 -145.5t149.5 -220.5t53.5 -277q0 -158 -94 -269.5t-226 -111.5q-82 0 -140.5 35t-86.5 96q-77 -137 -258 -137q-141 0 -236.5 103t-95.5 249q0 153 91.5 254.5t240.5 101.5q152 0 236 -114v86h174v-389q0 -43 18.5 -68t54.5 -25
q53 0 83 48.5t30 140.5q0 222 -143.5 365t-395.5 143q-125 0 -230 -43t-175 -116.5t-109 -170.5t-39 -205q0 -231 141.5 -374.5t387.5 -143.5q100 0 180 26.5t121 75.5l123 -149q-71 -66 -181 -106t-243 -40q-167 0 -305.5 53.5t-232.5 147.5t-145.5 225t-51.5 285
q0 149 54.5 281t152 230t241 155t311.5 57zM807 317q65 0 106 43.5t41 108.5t-41 108.5t-106 43.5t-106.5 -44t-41.5 -108q0 -63 41.5 -107.5t106.5 -44.5z" />
    <glyph glyph-name="A" unicode="A" horiz-adv-x="1337" 
d="M1034 0l-100 305h-528l-101 -305h-301l479 1423h371l479 -1423h-299zM487 553h365l-182 551z" />
    <glyph glyph-name="B" unicode="B" horiz-adv-x="1290" 
d="M981 758q115 -47 178.5 -140t63.5 -215q0 -183 -123 -293t-344 -110h-625v1423h647q183 0 289.5 -93.5t106.5 -252.5q0 -100 -51.5 -183.5t-141.5 -135.5zM870 1016q0 76 -46.5 120t-135.5 44h-256v-328h252q84 0 135 44.5t51 119.5zM711 244q100 0 154.5 48t54.5 136
q0 86 -57 133t-154 47h-277v-364h279z" />
    <glyph glyph-name="C" unicode="C" horiz-adv-x="1501" 
d="M801 -27q-154 0 -289.5 55.5t-232.5 152.5t-153 234.5t-56 295.5q0 212 95.5 381t263 263.5t374.5 94.5q133 0 247.5 -38.5t196 -104.5t138 -147.5t85.5 -174.5l-292 -119q-38 139 -134.5 217t-248.5 78q-184 0 -300 -124.5t-116 -325.5q0 -200 116.5 -324.5
t301.5 -124.5q152 0 247.5 77.5t133.5 217.5l292 -119q-30 -95 -87 -177.5t-139 -147.5t-196 -102.5t-247 -37.5z" />
    <glyph glyph-name="D" unicode="D" horiz-adv-x="1482" 
d="M686 1423q212 0 376 -86t256.5 -248t92.5 -376t-92 -376.5t-256.5 -249.5t-376.5 -87h-555v1423h555zM676 270q193 0 309.5 116t116.5 323q0 210 -116.5 327t-309.5 117h-240v-883h240z" />
    <glyph glyph-name="E" unicode="E" horiz-adv-x="1171" 
d="M436 264h662v-264h-967v1423h954v-264h-649v-303h574v-264h-574v-328z" />
    <glyph glyph-name="F" unicode="F" horiz-adv-x="1126" 
d="M1077 1159h-641v-315h565v-264h-565v-580h-305v1423h946v-264z" />
    <glyph glyph-name="G" unicode="G" horiz-adv-x="1587" 
d="M1528 764q0 -186 -55 -336.5t-152.5 -249.5t-229 -152t-284.5 -53q-210 0 -378.5 95.5t-263.5 264.5t-95 378q0 158 56 295.5t153.5 235t234.5 153t293 55.5q127 0 238.5 -35t193 -96t140 -137t91.5 -164l-290 -121q-42 125 -139.5 194.5t-239.5 69.5q-190 0 -306 -126
t-116 -330q0 -208 121.5 -332.5t333.5 -124.5q151 0 253 71t144 216h-432v229h729z" />
    <glyph glyph-name="H" unicode="H" horiz-adv-x="1415" 
d="M979 1423h305v-1423h-305v590h-543v-590h-305v1423h305v-561h543v561z" />
    <glyph glyph-name="I" unicode="I" horiz-adv-x="567" 
d="M131 0v1423h305v-1423h-305z" />
    <glyph glyph-name="J" unicode="J" horiz-adv-x="710" 
d="M43 0v270h82q79 0 120.5 45t41.5 129v979h305v-983q0 -206 -113.5 -323t-328.5 -117h-107z" />
    <glyph glyph-name="K" unicode="K" horiz-adv-x="1323" 
d="M1335 0h-350l-549 659v-659h-305v1423h305v-624l529 624h350l-578 -690z" />
    <glyph glyph-name="L" unicode="L" horiz-adv-x="1112" 
d="M436 270h651v-270h-956v1423h305v-1153z" />
    <glyph glyph-name="M" unicode="M" horiz-adv-x="1753" 
d="M1665 0h-283l-71 981l-307 -934h-252l-308 936l-73 -983h-281l103 1423h284v-2l70 2l332 -1005l329 1005l70 -2v2h283z" />
    <glyph glyph-name="N" unicode="N" horiz-adv-x="1417" 
d="M983 1423h303v-1423h-254l-598 899v-899h-303v1423h252l600 -905v905z" />
    <glyph glyph-name="O" unicode="O" horiz-adv-x="1622" 
d="M811 -27q-154 0 -292 57t-237 155t-156.5 235t-57.5 291q0 207 98 376.5t268.5 266t376.5 96.5t376 -96.5t267.5 -266t97.5 -376.5q0 -154 -57.5 -291t-156 -235t-236 -155t-291.5 -57zM811 262q193 0 312.5 126t119.5 325q0 197 -118.5 322.5t-313.5 125.5
t-314.5 -125.5t-119.5 -322.5q0 -199 120.5 -325t313.5 -126z" />
    <glyph glyph-name="P" unicode="P" horiz-adv-x="1251" 
d="M713 1423q228 0 362.5 -121.5t134.5 -326.5q0 -203 -135 -326t-362 -123h-277v-526h-305v1423h582zM696 793q98 0 151.5 50t53.5 132t-53.5 132t-151.5 50h-260v-364h260z" />
    <glyph glyph-name="Q" unicode="Q" horiz-adv-x="1622" 
d="M1552 711q0 -184 -79 -339t-218 -257l269 -252l-209 -219l-361 342q-76 -13 -143 -13q-154 0 -292 57t-237 155t-156.5 235t-57.5 291q0 207 98 376.5t268.5 266t376.5 96.5t376 -96.5t267.5 -266t97.5 -376.5zM377 713q0 -199 120.5 -325t313.5 -126t312.5 126
t119.5 325q0 197 -118.5 322.5t-313.5 125.5t-314.5 -125.5t-119.5 -322.5z" />
    <glyph glyph-name="R" unicode="R" horiz-adv-x="1282" 
d="M897 0l-405 584h-60v-584h-301v1423h582q226 0 361.5 -117t135.5 -302q0 -163 -107.5 -275.5t-291.5 -138.5l424 -590h-338zM432 1157v-358h273q99 0 153.5 47.5t54.5 130.5q0 84 -54.5 132t-153.5 48h-273z" />
    <glyph glyph-name="S" unicode="S" horiz-adv-x="1200" 
d="M590 -25q-205 0 -349 95.5t-196 269.5l287 111q28 -102 104 -157.5t185 -55.5q97 0 150.5 39t53.5 108q0 45 -24.5 80t-66 58.5t-95.5 43t-114 39t-119.5 42t-113.5 55.5t-95.5 75.5t-66 107.5t-24.5 146q0 187 133.5 301.5t368.5 114.5q195 0 328.5 -88.5t173.5 -237.5
l-287 -110q-51 178 -229 178q-88 0 -135 -36.5t-47 -96.5q0 -43 24.5 -76t66.5 -55.5t96 -41.5t114 -38.5t119.5 -43t113.5 -58.5t96 -80.5t66.5 -115t24.5 -155.5q0 -188 -146.5 -303t-396.5 -115z" />
    <glyph glyph-name="T" unicode="T" horiz-adv-x="1198" 
d="M1171 1423v-270h-419v-1153h-306v1153h-419v270h1144z" />
    <glyph glyph-name="U" unicode="U" horiz-adv-x="1382" 
d="M963 1423h303v-870q0 -95 -22.5 -181t-69 -159t-113.5 -126.5t-161.5 -83.5t-207.5 -30q-140 0 -251.5 46t-181 126t-106 184t-36.5 224v870h305v-870q0 -132 69.5 -212.5t200.5 -80.5t201 80.5t70 212.5v870z" />
    <glyph glyph-name="V" unicode="V" horiz-adv-x="1355" 
d="M1038 1423h316l-490 -1423h-372l-490 1423h315l361 -1065z" />
    <glyph glyph-name="W" unicode="W" horiz-adv-x="1871" 
d="M1561 1423h299l-326 -1423h-358l-240 1001l-240 -1001h-354l-328 1423h301l211 -1067l246 1067h330l248 -1071z" />
    <glyph glyph-name="X" unicode="X" horiz-adv-x="1368" 
d="M1376 0h-350l-354 502l-336 -502h-348l518 739l-483 686h350l325 -462l306 462h350l-486 -704z" />
    <glyph glyph-name="Y" unicode="Y" horiz-adv-x="1331" 
d="M1337 1423l-520 -843v-580h-303v580l-520 843h340l332 -581l331 581h340z" />
    <glyph glyph-name="Z" unicode="Z" horiz-adv-x="1193" 
d="M1130 272l7 -272h-1078v207l672 950h-657v266h1052v-206l-682 -945h686z" />
    <glyph glyph-name="bracketleft" unicode="[" horiz-adv-x="667" 
d="M612 1397h-200v-1401h200v-250h-483v1901h483v-250z" />
    <glyph glyph-name="backslash" unicode="\" horiz-adv-x="770" 
d="M455 -102l-400 1558h262l402 -1558h-264z" />
    <glyph glyph-name="bracketright" unicode="]" horiz-adv-x="667" 
d="M55 1647h484v-1901h-484v250h201v1401h-201v250z" />
    <glyph glyph-name="asciicircum" unicode="^" horiz-adv-x="1093" 
d="M1036 731h-295l-194 338l-195 -338h-295l394 660h182z" />
    <glyph glyph-name="underscore" unicode="_" horiz-adv-x="1153" 
d="M53 -289v246h1047v-246h-1047z" />
    <glyph glyph-name="grave" unicode="`" horiz-adv-x="675" 
d="M565 1171l-504 291l138 221l487 -317z" />
    <glyph glyph-name="a" unicode="a" horiz-adv-x="1316" 
d="M928 1079h280v-1079h-280v119q-124 -146 -332 -146q-153 0 -276 74t-192 203.5t-69 288.5q0 242 151 394t386 152q211 0 332 -137v131zM639 242q124 0 201.5 82.5t77.5 214.5t-77.5 215.5t-201.5 83.5q-121 0 -200 -85t-79 -214t79 -213t200 -84z" />
    <glyph glyph-name="b" unicode="b" horiz-adv-x="1316" 
d="M729 1104q153 0 274 -73.5t187.5 -202t66.5 -289.5q0 -159 -68.5 -288.5t-191.5 -203.5t-276 -74q-205 0 -332 140v-113h-280v1497h303v-512q125 119 317 119zM680 242q120 0 198 84t78 213t-78 214t-198 85q-126 0 -203.5 -83.5t-77.5 -215.5t77.5 -214.5t203.5 -82.5z
" />
    <glyph glyph-name="c" unicode="c" horiz-adv-x="1179" 
d="M627 -27q-160 0 -290.5 74t-205 203.5t-74.5 286.5q0 158 73.5 287.5t204.5 204.5t292 75q105 0 197.5 -32t156 -84.5t106 -113.5t60.5 -124l-270 -107q-24 87 -87.5 139t-156.5 52q-116 0 -193.5 -81.5t-77.5 -213.5t77.5 -213.5t193.5 -81.5q95 0 160.5 51.5
t89.5 136.5l270 -108q-18 -62 -60.5 -122t-107 -112.5t-158 -84.5t-200.5 -32z" />
    <glyph glyph-name="d" unicode="d" horiz-adv-x="1316" 
d="M905 1497h303v-1497h-280v111q-128 -138 -332 -138q-153 0 -276 74t-192 203.5t-69 288.5q0 160 67.5 289t188.5 202.5t273 73.5q192 0 317 -119v512zM639 242q124 0 201.5 82.5t77.5 214.5t-77.5 215.5t-201.5 83.5q-121 0 -200 -85t-79 -214t79 -213t200 -84z" />
    <glyph glyph-name="e" unicode="e" horiz-adv-x="1216" 
d="M350 446q26 -105 103.5 -163t185.5 -58q96 0 153.5 32.5t94.5 100.5l231 -153q-158 -232 -487 -232q-171 0 -304 74.5t-203.5 202.5t-70.5 289q0 115 44 220t118.5 180.5t177.5 120t217 44.5q101 0 190.5 -30.5t155.5 -83t113.5 -121.5t71.5 -148t24 -160q0 -74 -6 -115
h-809zM346 645h535q-22 107 -91 168t-172 61q-105 0 -177 -60t-95 -169z" />
    <glyph glyph-name="f" unicode="f" horiz-adv-x="763" 
d="M674 1284q-82 0 -126 -45.5t-44 -128.5v-31h233v-258h-233v-821h-303v821h-164v258h164q0 207 119.5 325t343.5 118h75v-238h-65z" />
    <glyph glyph-name="g" unicode="g" horiz-adv-x="1314" 
d="M928 1079h280v-915q0 -252 -157.5 -404.5t-434.5 -152.5q-217 0 -351 84t-191 233l258 101q33 -82 107 -123t179 -41q145 0 227.5 74t82.5 200v45q-124 -143 -334 -143q-114 0 -214 41.5t-170.5 112.5t-110.5 169t-40 207q0 146 68.5 269t192 195.5t274.5 72.5
q210 0 334 -143v118zM633 268q122 0 199 81t77 204q0 124 -76.5 204.5t-197.5 80.5q-118 0 -196.5 -82t-78.5 -203t78 -203t195 -82z" />
    <glyph glyph-name="h" unicode="h" horiz-adv-x="1241" 
d="M721 1106q192 0 307 -117.5t115 -308.5v-680h-301v621q0 100 -59 157.5t-154 57.5q-91 0 -153 -57t-64 -140v-639h-303v1497h303v-502q124 111 309 111z" />
    <glyph glyph-name="i" unicode="i" horiz-adv-x="520" 
d="M262 1237q-84 0 -141.5 54.5t-57.5 138.5q0 83 57.5 137.5t141.5 54.5t140.5 -54.5t56.5 -137.5q0 -84 -56.5 -138.5t-140.5 -54.5zM109 0v1079h303v-1079h-303z" />
    <glyph glyph-name="j" unicode="j" horiz-adv-x="526" 
d="M272 1239q-84 0 -140 53.5t-56 137.5t56 139t140 55t140.5 -55t56.5 -139t-56.5 -137.5t-140.5 -53.5zM-80 -379v260h21q78 0 126 52t48 139v1007h303v-1003q0 -210 -123 -332.5t-315 -122.5h-60z" />
    <glyph glyph-name="k" unicode="k" horiz-adv-x="1112" 
d="M1128 0h-329l-387 489v-489h-303v1497h303v-844l372 426h338l-430 -499z" />
    <glyph glyph-name="l" unicode="l" horiz-adv-x="520" 
d="M109 0v1497h303v-1497h-303z" />
    <glyph glyph-name="m" unicode="m" horiz-adv-x="1898" 
d="M1389 1106q195 0 303 -123t108 -311v-670h-303v612q0 96 -49.5 159t-140.5 63q-94 0 -146.5 -58.5t-54.5 -134.5v-641h-303v612q0 95 -50.5 158.5t-142.5 63.5t-144 -59t-54 -134v-641h-303v1077h286v-102q53 59 133.5 94t178.5 35q234 0 327 -158q50 72 140.5 115
t214.5 43z" />
    <glyph glyph-name="n" unicode="n" horiz-adv-x="1241" 
d="M721 1106q192 0 307 -117.5t115 -308.5v-680h-301v621q0 100 -59 157.5t-154 57.5q-91 0 -153 -57t-64 -140v-639h-303v1079h286v-100q124 127 326 127z" />
    <glyph glyph-name="o" unicode="o" horiz-adv-x="1282" 
d="M641 -27q-126 0 -235 43.5t-185.5 118.5t-120 180t-43.5 224q0 244 164.5 404.5t419.5 160.5q254 0 419 -160.5t165 -404.5q0 -159 -74.5 -288.5t-208.5 -203.5t-301 -74zM643 244q123 0 201 83t78 214q0 130 -77 211.5t-202 81.5q-126 0 -203.5 -82t-77.5 -213
q0 -130 78 -212.5t203 -82.5z" />
    <glyph glyph-name="p" unicode="p" horiz-adv-x="1316" 
d="M729 1104q153 0 274 -73.5t187.5 -202t66.5 -289.5q0 -159 -68.5 -288.5t-191.5 -203.5t-276 -74q-189 0 -309 117v-457h-303v1446h280v-118q127 143 340 143zM680 242q120 0 198 84t78 213t-78 214t-198 85q-126 0 -203.5 -83.5t-77.5 -215.5t77.5 -214.5t203.5 -82.5z
" />
    <glyph glyph-name="q" unicode="q" horiz-adv-x="1316" 
d="M928 1079h280v-1446h-303v455q-121 -115 -309 -115q-153 0 -276 74t-192 203.5t-69 288.5q0 244 148.5 404.5t380.5 160.5q212 0 340 -141v116zM639 242q124 0 201.5 82.5t77.5 214.5t-77.5 215.5t-201.5 83.5q-121 0 -200 -85t-79 -214t79 -213t200 -84z" />
    <glyph glyph-name="r" unicode="r" horiz-adv-x="735" 
d="M395 975q58 61 138 96t172 35v-285q-138 0 -215.5 -60t-77.5 -167v-594h-303v1079h286v-104z" />
    <glyph glyph-name="s" unicode="s" horiz-adv-x="1013" 
d="M508 -27q-181 0 -304.5 73.5t-168.5 211.5l256 98q22 -72 79.5 -110.5t147.5 -38.5q67 0 105.5 26t38.5 72q0 38 -32 65.5t-82.5 45.5t-112 35.5t-123 42t-112 57.5t-82.5 90.5t-32 132.5q0 153 116.5 241.5t313.5 88.5q162 0 272 -63t144 -175l-256 -98
q-40 111 -164 111q-61 0 -94 -23t-33 -65q0 -35 32 -59.5t83 -40.5t112.5 -31.5t123 -40t112.5 -59t83 -95t32 -141.5q0 -162 -123.5 -256.5t-331.5 -94.5z" />
    <glyph glyph-name="t" unicode="t" horiz-adv-x="825" 
d="M612 0q-197 0 -301 108t-104 295v418h-184v258h92q110 0 110 117v168h295v-285h262v-258h-272v-381q0 -86 43 -131t123 -45h115v-264h-179z" />
    <glyph glyph-name="u" unicode="u" horiz-adv-x="1224" 
d="M813 1079h303v-1079h-285v102q-126 -129 -315 -129q-199 0 -308.5 121.5t-109.5 313.5v671h303v-633q0 -90 55.5 -146t149.5 -56q93 0 150 55t57 141v639z" />
    <glyph glyph-name="v" unicode="v" horiz-adv-x="1153" 
d="M836 1079h313l-397 -1079h-353l-395 1079h313l258 -784z" />
    <glyph glyph-name="w" unicode="w" horiz-adv-x="1667" 
d="M1346 1079h309l-279 -1079h-358l-184 735l-179 -735h-358l-283 1079h310l165 -778l177 778h338l178 -778z" />
    <glyph glyph-name="x" unicode="x" horiz-adv-x="1142" 
d="M1155 0h-334l-258 342l-262 -342h-321l421 557l-393 522h336l242 -321l239 321h322l-399 -536z" />
    <glyph glyph-name="y" unicode="y" horiz-adv-x="1157" 
d="M840 1079h313l-397 -1079l-133 -367h-299l145 367h-100l-361 1079h314l243 -837z" />
    <glyph glyph-name="z" unicode="z" horiz-adv-x="1011" 
d="M432 244h529v-244h-908v213l516 623h-493v243h864v-223z" />
    <glyph glyph-name="braceleft" unicode="{" horiz-adv-x="710" 
d="M571 -254q-179 0 -276.5 103t-97.5 290v316q0 112 -113 112h-49v258h49q113 0 113 111v315q0 187 97.5 291.5t276.5 104.5h82v-250h-41q-63 0 -97 -39t-34 -109v-307q0 -95 -35 -151.5t-110 -94.5q75 -38 110 -94t35 -151v-308q0 -71 34 -109t97 -38h41v-250h-82z" />
    <glyph glyph-name="bar" unicode="|" horiz-adv-x="481" 
d="M129 -193v1668h223v-1668h-223z" />
    <glyph glyph-name="braceright" unicode="}" horiz-adv-x="710" 
d="M59 -254v250h39q63 0 97 38t34 109v308q0 94 36 150t110 95q-74 39 -110 95.5t-36 150.5v307q0 70 -34 109t-97 39h-39v250h80q179 0 277 -104.5t98 -291.5v-315q0 -111 113 -111h49v-258h-49q-113 0 -113 -112v-316q0 -187 -98 -290t-277 -103h-80z" />
    <glyph glyph-name="asciitilde" unicode="~" horiz-adv-x="1073" 
d="M729 489q-56 0 -106.5 17t-81.5 37.5t-73 37.5t-85 17q-113 0 -164 -80l-143 164q46 78 116 120t152 42q56 0 106.5 -16.5t81.5 -37t74 -37t86 -16.5q51 0 95 19.5t67 58.5l145 -164q-47 -78 -117 -120t-153 -42z" />
    <glyph glyph-name="uni00A0" unicode="&#xa0;" horiz-adv-x="401" 
 />
    <glyph glyph-name="exclamdown" unicode="&#xa1;" horiz-adv-x="538" 
d="M268 750q-72 0 -120 49t-48 123q0 72 48 121t120 49q73 0 122.5 -49t49.5 -121q0 -74 -49 -123t-123 -49zM96 -367l51 942h242l53 -942h-346z" />
    <glyph glyph-name="cent" unicode="&#xa2;" horiz-adv-x="1093" 
d="M1038 492q-28 -95 -119 -182t-227 -117v-193h-246v193q-168 38 -272 170.5t-104 310.5q0 180 103.5 314.5t272.5 172.5v193h246v-193q134 -31 223 -118.5t119 -184.5l-262 -102q-19 71 -70.5 112t-128.5 41q-93 0 -154 -63.5t-61 -169.5q0 -104 61 -167t154 -63
q78 0 131.5 41t71.5 109z" />
    <glyph glyph-name="sterling" unicode="&#xa3;" horiz-adv-x="1179" 
d="M516 537v-273h569v-264h-872v537h-147v264h147v131q0 191 129.5 320.5t331.5 129.5q189 0 302.5 -83.5t149.5 -223.5l-260 -100q-19 69 -60 107t-118 38q-85 0 -128.5 -54t-43.5 -134v-131h375v-264h-375z" />
    <glyph glyph-name="currency" unicode="&#xa4;" horiz-adv-x="1175" 
d="M1051 678q0 -121 -62 -229l103 -103l-174 -172l-107 107q-102 -54 -223 -54q-124 0 -226 54l-106 -107l-174 172l102 103q-61 106 -61 229t61 229l-102 103l174 174l104 -109q104 55 228 55q119 0 225 -53l107 107l172 -174l-103 -103q62 -108 62 -229zM588 471
q88 0 144 57.5t56 149.5t-56 149.5t-144 57.5q-90 0 -146.5 -57.5t-56.5 -149.5t57.5 -149.5t145.5 -57.5z" />
    <glyph glyph-name="yen" unicode="&#xa5;" horiz-adv-x="1255" 
d="M1214 1352l-405 -723h213v-197h-244v-80h244v-196h-244v-156h-303v156h-244v196h244v80h-244v197h215l-405 723h326l262 -518l260 518h325z" />
    <glyph glyph-name="brokenbar" unicode="&#xa6;" horiz-adv-x="481" 
d="M129 807v668h223v-668h-223zM129 -193v668h223v-668h-223z" />
    <glyph glyph-name="section" unicode="&#xa7;" horiz-adv-x="1077" 
d="M862 317q111 -82 111 -229q0 -171 -121 -267.5t-322 -96.5q-374 0 -462 270l245 94q22 -74 77 -114t138 -40q69 0 112.5 34t43.5 91q0 45 -33 78t-86 54.5t-117 42.5t-128 48.5t-117 64t-86 98.5t-33 143q0 176 158 268q-117 88 -117 238q0 161 114.5 250.5t311.5 89.5
q161 0 267 -61.5t140 -174.5l-245 -94q-43 113 -162 113q-65 0 -101 -29.5t-36 -77.5q0 -39 25.5 -68.5t67 -47t94.5 -36t109 -34.5t109 -43.5t94.5 -62t67 -92t25.5 -130.5q0 -178 -144 -279zM371 612q0 -28 13.5 -52t31.5 -40t53.5 -33t61 -26t73.5 -25q53 11 84 45t31 88
q0 34 -15 60t-48 46.5t-63.5 33t-82.5 30.5q-70 -7 -104.5 -42t-34.5 -85z" />
    <glyph glyph-name="dieresis" unicode="&#xa8;" horiz-adv-x="909" 
d="M248 1243q-77 0 -132 54t-55 137q0 80 56 131t137 51q77 0 130.5 -54t53.5 -135q0 -79 -55 -131.5t-135 -52.5zM731 1243q-77 0 -131.5 54t-54.5 137q0 80 55.5 131t136.5 51q78 0 132.5 -54t54.5 -135q0 -79 -55.5 -131.5t-137.5 -52.5z" />
    <glyph glyph-name="copyright" unicode="&#xa9;" horiz-adv-x="1562" 
d="M782 -27q-209 0 -370.5 89.5t-249.5 249t-88 362.5q0 148 51.5 278t143 224.5t224.5 149t289 54.5q208 0 370.5 -93t250.5 -253.5t88 -359.5q0 -203 -88 -362.5t-250 -249t-371 -89.5zM782 162q223 0 367.5 142.5t144.5 369.5q0 144 -66 262.5t-183.5 187t-262.5 68.5
q-222 0 -367 -149t-145 -369q0 -228 143.5 -370t368.5 -142zM786 293q-164 0 -274.5 111t-110.5 274q0 162 110 272.5t275 110.5q138 0 232.5 -73t120.5 -167l-207 -73q-12 47 -49.5 74.5t-91.5 27.5q-70 0 -114 -47.5t-44 -124.5t44.5 -124.5t115.5 -47.5q54 0 91.5 27.5
t51.5 74.5l207 -76q-26 -93 -121 -166t-236 -73z" />
    <glyph glyph-name="ordfeminine" unicode="&#xaa;" horiz-adv-x="811" 
d="M561 1681h158v-606h-158v84q-76 -102 -215 -102q-126 0 -212.5 91t-86.5 230q0 140 86.5 229t212.5 89q142 0 215 -92v77zM383 1251q59 0 94 36t35 91q0 54 -35.5 90.5t-93.5 36.5q-56 0 -91.5 -36t-35.5 -91q0 -54 35.5 -90.5t91.5 -36.5z" />
    <glyph glyph-name="guillemotleft" unicode="&#xab;" horiz-adv-x="1060" 
d="M289 147l-238 353l238 350h280l-235 -350l235 -353h-280zM692 147l-235 353l235 350h283l-238 -350l238 -353h-283z" />
    <glyph glyph-name="logicalnot" unicode="&#xac;" horiz-adv-x="1071" 
d="M92 809h860v-553h-282v297h-578v256z" />
    <glyph glyph-name="registered" unicode="&#xae;" horiz-adv-x="1060" 
d="M532 1485q190 0 321.5 -132.5t131.5 -324.5q0 -191 -131.5 -322t-321.5 -131q-195 0 -325.5 130.5t-130.5 322.5q0 193 130.5 325t325.5 132zM532 694q141 0 235.5 94.5t94.5 239.5q0 141 -95.5 237.5t-234.5 96.5q-142 0 -238.5 -95t-96.5 -239q0 -145 96.5 -239.5
t238.5 -94.5zM711 1124q0 -46 -23.5 -78.5t-64.5 -46.5l106 -184h-121l-98 174h-21v-174h-112v447h186q64 0 106 -37.5t42 -100.5zM600 1124q0 50 -57 50h-54v-97h54q57 0 57 47z" />
    <glyph glyph-name="macron" unicode="&#xaf;" horiz-adv-x="722" 
d="M61 1311v241h682v-241h-682z" />
    <glyph glyph-name="degree" unicode="&#xb0;" horiz-adv-x="802" 
d="M401 762q-151 0 -248.5 94t-97.5 240t98.5 241t249.5 95q149 0 245.5 -94.5t96.5 -239.5q0 -149 -96.5 -242.5t-247.5 -93.5zM401 940q66 0 109 43.5t43 112.5q0 66 -44.5 110.5t-107.5 44.5t-107 -44.5t-44 -110.5q0 -67 43 -111.5t108 -44.5z" />
    <glyph glyph-name="plusminus" unicode="&#xb1;" horiz-adv-x="1064" 
d="M666 973h301v-256h-301v-309h-267v309h-301v256h301v317h267v-317zM98 47v256h869v-256h-869z" />
    <glyph glyph-name="uni00B2" unicode="&#xb2;" horiz-adv-x="708" 
d="M367 870h254v-159h-533v127l229 215q97 91 97 153q0 30 -19 48t-51 18t-55.5 -22.5t-30.5 -63.5l-182 59q17 86 92 138.5t184 52.5q120 0 188 -58t68 -157q0 -70 -32 -128.5t-109 -127.5z" />
    <glyph glyph-name="uni00B3" unicode="&#xb3;" horiz-adv-x="665" 
d="M416 1141q83 -14 134.5 -71.5t51.5 -141.5q0 -99 -78.5 -165.5t-197.5 -66.5q-105 0 -179 44.5t-96 115.5l176 72q19 -68 95 -68q38 0 61 23t23 57q0 36 -23.5 57t-60.5 21h-119v125l151 129h-264v151h471v-149z" />
    <glyph glyph-name="acute" unicode="&#xb4;" horiz-adv-x="681" 
d="M182 1171l-121 195l488 317l137 -221z" />
    <glyph glyph-name="paragraph" unicode="&#xb6;" horiz-adv-x="1325" 
d="M1178 1423v-1628h-160v1376h-84v-1376h-160v1376h-84v-645h-145q-227 0 -362.5 123t-135.5 326q0 204 135 326t363 122h633z" />
    <glyph glyph-name="periodcentered" unicode="&#xb7;" horiz-adv-x="497" 
d="M248 516q-72 0 -121 49t-49 121q0 73 49 122.5t121 49.5q73 0 121.5 -49t48.5 -123q0 -72 -48.5 -121t-121.5 -49z" />
    <glyph glyph-name="cedilla" unicode="&#xb8;" horiz-adv-x="559" 
d="M313 -496q-81 0 -148 28t-104 71l101 123q45 -56 110 -56q42 0 67.5 22.5t25.5 55.5q0 35 -26.5 59.5t-70.5 24.5h-32l-15 14l68 189h182l-47 -123q68 -8 113 -61.5t45 -129.5q0 -97 -74.5 -157t-194.5 -60z" />
    <glyph glyph-name="uni00B9" unicode="&#xb9;" horiz-adv-x="598" 
d="M432 881h100v-170h-440v170h137v266h-135v170h135v106h203v-542z" />
    <glyph glyph-name="ordmasculine" unicode="&#xba;" horiz-adv-x="755" 
d="M377 1057q-145 0 -237.5 91.5t-92.5 229.5q0 139 92.5 231.5t237.5 92.5q146 0 240 -92.5t94 -231.5q0 -138 -94 -229.5t-240 -91.5zM377 1249q60 0 92.5 35t32.5 94q0 60 -32.5 96.5t-92.5 36.5t-92.5 -36.5t-32.5 -96.5q0 -59 32.5 -94t92.5 -35z" />
    <glyph glyph-name="guillemotright" unicode="&#xbb;" horiz-adv-x="1060" 
d="M86 147l236 353l-236 350h281l237 -350l-237 -353h-281zM492 147l235 353l-235 350h280l236 -350l-236 -353h-280z" />
    <glyph glyph-name="onequarter" unicode="&#xbc;" horiz-adv-x="1382" 
d="M508 711h-440v170h137v266h-135v170h135v106h203v-542h100v-170zM965 1423h223l-705 -1423h-219zM1325 272v-137h-65v-135h-191v135h-313v141l315 437h189v-441h65zM1071 272v230l-166 -230h166z" />
    <glyph glyph-name="onehalf" unicode="&#xbd;" horiz-adv-x="1456" 
d="M508 711h-440v170h137v266h-135v170h135v106h203v-542h100v-170zM963 1423h221l-705 -1423h-219zM1147 160h254v-160h-533v127l228 215q98 89 98 154q0 29 -19.5 47t-50.5 18q-32 0 -55.5 -22.5t-30.5 -63.5l-182 60q17 85 91.5 137.5t182.5 52.5q121 0 190 -58t69 -157
q0 -70 -32.5 -128.5t-109.5 -127.5z" />
    <glyph glyph-name="threequarters" unicode="&#xbe;" horiz-adv-x="1425" 
d="M596 928q0 -99 -79 -165.5t-198 -66.5q-105 0 -178 44.5t-94 115.5l174 72q22 -68 94 -68q39 0 62.5 23.5t23.5 56.5q0 36 -23.5 57t-60.5 21h-120v125l153 129h-266v151h471v-149l-143 -133q81 -12 132.5 -70.5t51.5 -142.5zM1008 1423h221l-705 -1423h-219zM1356 272
v-137h-68v-135h-190v135h-312v141l314 437h188v-441h68zM1100 272v228l-164 -228h164z" />
    <glyph glyph-name="questiondown" unicode="&#xbf;" horiz-adv-x="987" 
d="M551 748q-73 0 -121.5 49.5t-48.5 122.5q0 72 49 121t121 49t121 -48.5t49 -119.5q0 -75 -49 -124.5t-121 -49.5zM483 -387q-198 0 -312 95t-114 261q0 69 20 127.5t52.5 98.5t71 75t77.5 65t71.5 59.5t52.5 66t20 78.5v36h260v-57q0 -66 -23 -121.5t-57 -91t-74.5 -70.5
t-74.5 -62t-57 -64.5t-23 -79.5q0 -61 34.5 -93t96.5 -32q61 0 103.5 38.5t54.5 102.5l284 -92q-34 -156 -157.5 -248t-305.5 -92z" />
    <glyph glyph-name="Agrave" unicode="&#xc0;" horiz-adv-x="1337" 
d="M1006 1749l-68 -219l-606 180l76 248zM1034 0l-100 305h-528l-101 -305h-301l479 1423h371l479 -1423h-299zM487 553h365l-182 551z" />
    <glyph glyph-name="Aacute" unicode="&#xc1;" horiz-adv-x="1337" 
d="M1026 1710l-606 -180l-68 219l600 209zM1034 0l-100 305h-528l-101 -305h-301l479 1423h371l479 -1423h-299zM487 553h365l-182 551z" />
    <glyph glyph-name="Acircumflex" unicode="&#xc2;" horiz-adv-x="1337" 
d="M668 1729l-148 -173h-272l301 371h246l292 -371h-268zM1034 0l-100 305h-528l-101 -305h-301l479 1423h371l479 -1423h-299zM487 553h365l-182 551z" />
    <glyph glyph-name="Atilde" unicode="&#xc3;" horiz-adv-x="1337" 
d="M563 1653q-81 0 -100 -88l-207 88q11 46 32.5 88t55 79.5t83 60t108.5 22.5q46 0 87.5 -16t66.5 -34.5t56.5 -34.5t61.5 -16q76 0 98 88l209 -86q-28 -107 -98 -178.5t-182 -71.5q-46 0 -86.5 15.5t-65 34t-56.5 34t-63 15.5zM1034 0l-100 305h-528l-101 -305h-301
l479 1423h371l479 -1423h-299zM487 553h365l-182 551z" />
    <glyph glyph-name="Adieresis" unicode="&#xc4;" horiz-adv-x="1337" 
d="M416 1548q-80 0 -136.5 55t-56.5 140t57 137.5t142 52.5q80 0 135 -55t55 -139q0 -82 -56.5 -136.5t-139.5 -54.5zM915 1548q-80 0 -136 55t-56 140t56.5 137.5t140.5 52.5q82 0 137 -55t55 -139q0 -83 -56.5 -137t-140.5 -54zM1034 0l-100 305h-528l-101 -305h-301
l479 1423h371l479 -1423h-299zM487 553h365l-182 551z" />
    <glyph glyph-name="Aring" unicode="&#xc5;" horiz-adv-x="1337" 
d="M1034 0l-100 305h-528l-101 -305h-301l479 1423h150q-107 12 -172.5 82.5t-65.5 175.5q0 113 77.5 185.5t197.5 72.5q119 0 194.5 -72.5t75.5 -185.5q0 -105 -64 -175.5t-169 -82.5h147l479 -1423h-299zM573 1681q0 -41 27 -66.5t70 -25.5q40 0 67 25.5t27 66.5
q0 39 -27 65t-67 26q-43 0 -70 -25.5t-27 -65.5zM487 553h365l-182 551z" />
    <glyph glyph-name="AE" unicode="&#xc6;" horiz-adv-x="1941" 
d="M1208 264h660v-264h-965v293h-479l-139 -293h-318l676 1423h1215v-264h-650v-303h574v-264h-574v-328zM549 553h354v606h-63z" />
    <glyph glyph-name="Ccedilla" unicode="&#xc7;" horiz-adv-x="1503" 
d="M797 262q152 0 247.5 77.5t135.5 217.5l290 -119q-58 -180 -206.5 -308t-368.5 -153l-25 -65q68 -8 113 -61.5t45 -129.5q0 -97 -73.5 -157t-192.5 -60q-82 0 -148.5 27.5t-105.5 71.5l100 123q45 -56 113 -56q42 0 67 22.5t25 55.5q0 35 -26.5 59.5t-69.5 24.5h-33
l-16 14l47 131q-282 31 -463.5 235t-181.5 499q0 212 95.5 381t263 263.5t374.5 94.5q133 0 247.5 -38.5t196 -104.5t138 -147.5t85.5 -174.5l-290 -119q-40 139 -136.5 217t-246.5 78q-184 0 -301 -124.5t-117 -325.5q0 -200 117 -324.5t301 -124.5z" />
    <glyph glyph-name="Egrave" unicode="&#xc8;" horiz-adv-x="1171" 
d="M946 1749l-67 -219l-607 180l74 248zM436 264h662v-264h-967v1423h954v-264h-649v-303h574v-264h-574v-328z" />
    <glyph glyph-name="Eacute" unicode="&#xc9;" horiz-adv-x="1171" 
d="M967 1710l-607 -180l-67 219l598 209zM436 264h662v-264h-967v1423h954v-264h-649v-303h574v-264h-574v-328z" />
    <glyph glyph-name="Ecircumflex" unicode="&#xca;" horiz-adv-x="1171" 
d="M608 1729l-149 -173h-271l301 371h246l293 -371h-270zM436 264h662v-264h-967v1423h954v-264h-649v-303h574v-264h-574v-328z" />
    <glyph glyph-name="Edieresis" unicode="&#xcb;" horiz-adv-x="1171" 
d="M354 1548q-79 0 -134.5 55t-55.5 140t55.5 137.5t140.5 52.5q80 0 135.5 -55t55.5 -139q0 -83 -56.5 -137t-140.5 -54zM856 1548q-81 0 -136.5 55t-55.5 140t55.5 137.5t140.5 52.5q81 0 137 -55t56 -139q0 -83 -56.5 -137t-140.5 -54zM436 264h662v-264h-967v1423h954
v-264h-649v-303h574v-264h-574v-328z" />
    <glyph glyph-name="Igrave" unicode="&#xcc;" horiz-adv-x="567" 
d="M555 1530l-608 180l76 248l600 -209zM131 0v1423h305v-1423h-305z" />
    <glyph glyph-name="Iacute" unicode="&#xcd;" horiz-adv-x="567" 
d="M35 1530l-68 219l600 209l76 -248zM131 0v1423h305v-1423h-305z" />
    <glyph glyph-name="Icircumflex" unicode="&#xce;" horiz-adv-x="567" 
d="M285 1729l-150 -173h-270l301 371h246l293 -371h-271zM131 0v1423h305v-1423h-305z" />
    <glyph glyph-name="Idieresis" unicode="&#xcf;" horiz-adv-x="567" 
d="M31 1548q-80 0 -136.5 55t-56.5 140t57 137.5t142 52.5q80 0 135 -55t55 -139q0 -83 -56 -137t-140 -54zM532 1548q-81 0 -137.5 55t-56.5 140t57 137.5t142 52.5q81 0 136.5 -55t55.5 -139q0 -82 -57 -136.5t-140 -54.5zM131 0v1423h305v-1423h-305z" />
    <glyph glyph-name="Eth" unicode="&#xd0;" horiz-adv-x="1505" 
d="M709 1423q213 0 377 -86.5t256 -248t92 -375.5q0 -323 -201 -518t-524 -195h-553v621h-123v208h123v594h553zM700 270q193 0 309.5 116t116.5 323q0 210 -116.5 327t-309.5 117h-241v-324h309v-208h-309v-351h241z" />
    <glyph glyph-name="Ntilde" unicode="&#xd1;" horiz-adv-x="1417" 
d="M575 1653q-78 0 -100 -88l-207 88q12 46 34 88t55.5 79.5t83 60t108.5 22.5q46 0 87.5 -16t66 -34.5t56 -34.5t60.5 -16q38 0 64 23t37 65l206 -86q-13 -50 -35.5 -92.5t-55.5 -79t-81 -57.5t-106 -21q-47 0 -88 15.5t-65.5 34t-56.5 34t-63 15.5zM983 1423h303v-1423
h-254l-598 899v-899h-303v1423h252l600 -905v905z" />
    <glyph glyph-name="Ograve" unicode="&#xd2;" horiz-adv-x="1622" 
d="M1081 1530l-606 180l74 248l600 -209zM811 -27q-154 0 -292 57t-237 155t-156.5 235t-57.5 291q0 207 98 376.5t268.5 266t376.5 96.5t376 -96.5t267.5 -266t97.5 -376.5q0 -154 -57.5 -291t-156 -235t-236 -155t-291.5 -57zM811 262q193 0 312.5 126t119.5 325
q0 197 -118.5 322.5t-313.5 125.5t-314.5 -125.5t-119.5 -322.5q0 -199 120.5 -325t313.5 -126z" />
    <glyph glyph-name="Oacute" unicode="&#xd3;" horiz-adv-x="1622" 
d="M561 1530l-65 219l598 209l75 -248zM811 -27q-154 0 -292 57t-237 155t-156.5 235t-57.5 291q0 207 98 376.5t268.5 266t376.5 96.5t376 -96.5t267.5 -266t97.5 -376.5q0 -154 -57.5 -291t-156 -235t-236 -155t-291.5 -57zM811 262q193 0 312.5 126t119.5 325
q0 197 -118.5 322.5t-313.5 125.5t-314.5 -125.5t-119.5 -322.5q0 -199 120.5 -325t313.5 -126z" />
    <glyph glyph-name="Ocircumflex" unicode="&#xd4;" horiz-adv-x="1622" 
d="M811 1729l-149 -173h-271l301 371h246l293 -371h-270zM811 1450q206 0 376 -96.5t267.5 -266t97.5 -376.5q0 -154 -57.5 -291t-156 -235t-236 -155t-291.5 -57t-292 57t-237 155t-156.5 235t-57.5 291q0 207 98 376.5t268.5 266t376.5 96.5zM811 262q193 0 312.5 126
t119.5 325q0 197 -118.5 322.5t-313.5 125.5t-314.5 -125.5t-119.5 -322.5q0 -199 120.5 -325t313.5 -126z" />
    <glyph glyph-name="Otilde" unicode="&#xd5;" horiz-adv-x="1622" 
d="M977 1554q-47 0 -88 15.5t-65 34t-56 34t-63 15.5q-79 0 -101 -88l-207 88q12 46 34 88t55.5 79.5t83 60t108.5 22.5q46 0 87.5 -16t66 -34.5t56 -34.5t60.5 -16q38 0 64 23t37 65l206 -86q-13 -50 -35.5 -92.5t-55.5 -79t-81 -57.5t-106 -21zM811 -27q-154 0 -292 57
t-237 155t-156.5 235t-57.5 291q0 207 98 376.5t268.5 266t376.5 96.5t376 -96.5t267.5 -266t97.5 -376.5q0 -154 -57.5 -291t-156 -235t-236 -155t-291.5 -57zM811 262q193 0 312.5 126t119.5 325q0 197 -118.5 322.5t-313.5 125.5t-314.5 -125.5t-119.5 -322.5
q0 -199 120.5 -325t313.5 -126z" />
    <glyph glyph-name="Odieresis" unicode="&#xd6;" horiz-adv-x="1622" 
d="M557 1548q-80 0 -136 55t-56 140t56.5 137.5t141.5 52.5q80 0 135.5 -55t55.5 -139q0 -83 -56.5 -137t-140.5 -54zM1059 1548q-81 0 -138 55t-57 140t57 137.5t142 52.5q81 0 136.5 -55t55.5 -139q0 -83 -56 -137t-140 -54zM811 -27q-154 0 -292 57t-237 155t-156.5 235
t-57.5 291q0 207 98 376.5t268.5 266t376.5 96.5t376 -96.5t267.5 -266t97.5 -376.5q0 -154 -57.5 -291t-156 -235t-236 -155t-291.5 -57zM811 262q193 0 312.5 126t119.5 325q0 197 -118.5 322.5t-313.5 125.5t-314.5 -125.5t-119.5 -322.5q0 -199 120.5 -325t313.5 -126z
" />
    <glyph glyph-name="multiply" unicode="&#xd7;" horiz-adv-x="1038" 
d="M963 926l-254 -254l254 -254l-189 -187l-254 254l-256 -254l-188 187l254 256l-254 254l188 188l254 -254l254 254z" />
    <glyph glyph-name="Oslash" unicode="&#xd8;" horiz-adv-x="1628" 
d="M1409 1159q147 -192 147 -448q0 -154 -57.5 -291t-156.5 -235t-237 -155t-292 -57q-230 0 -416 121l-145 -151l-178 168l145 151q-147 192 -147 449q0 207 97.5 376.5t267.5 266t376 96.5q233 0 418 -123l147 154l174 -172zM381 713q0 -126 51 -228l594 627
q-96 49 -213 49q-195 0 -313.5 -125.5t-118.5 -322.5zM813 262q193 0 313.5 126t120.5 325q0 119 -49 223l-596 -625q91 -49 211 -49z" />
    <glyph glyph-name="Ugrave" unicode="&#xd9;" horiz-adv-x="1382" 
d="M1030 1749l-67 -219l-607 180l74 248zM963 1423h303v-870q0 -95 -22.5 -181t-69 -159t-113.5 -126.5t-161.5 -83.5t-207.5 -30q-140 0 -251.5 46t-181 126t-106 184t-36.5 224v870h305v-870q0 -132 69.5 -212.5t200.5 -80.5t201 80.5t70 212.5v870z" />
    <glyph glyph-name="Uacute" unicode="&#xda;" horiz-adv-x="1382" 
d="M1051 1710l-609 -180l-65 219l598 209zM963 1423h303v-870q0 -95 -22.5 -181t-69 -159t-113.5 -126.5t-161.5 -83.5t-207.5 -30q-140 0 -251.5 46t-181 126t-106 184t-36.5 224v870h305v-870q0 -132 69.5 -212.5t200.5 -80.5t201 80.5t70 212.5v870z" />
    <glyph glyph-name="Ucircumflex" unicode="&#xdb;" horiz-adv-x="1382" 
d="M692 1729l-149 -173h-271l301 371h246l293 -371h-270zM963 1423h303v-870q0 -95 -22.5 -181t-69 -159t-113.5 -126.5t-161.5 -83.5t-207.5 -30q-140 0 -251.5 46t-181 126t-106 184t-36.5 224v870h305v-870q0 -132 69.5 -212.5t200.5 -80.5t201 80.5t70 212.5v870z" />
    <glyph glyph-name="Udieresis" unicode="&#xdc;" horiz-adv-x="1382" 
d="M438 1548q-80 0 -136 55t-56 140t56.5 137.5t141.5 52.5q80 0 135.5 -55t55.5 -139q0 -83 -56.5 -137t-140.5 -54zM940 1548q-81 0 -138 55t-57 140t57 137.5t142 52.5q81 0 137 -55t56 -139q0 -83 -56.5 -137t-140.5 -54zM963 1423h303v-870q0 -95 -22.5 -181t-69 -159
t-113.5 -126.5t-161.5 -83.5t-207.5 -30q-140 0 -251.5 46t-181 126t-106 184t-36.5 224v870h305v-870q0 -132 69.5 -212.5t200.5 -80.5t201 80.5t70 212.5v870z" />
    <glyph glyph-name="Yacute" unicode="&#xdd;" horiz-adv-x="1331" 
d="M1026 1710l-606 -180l-68 219l598 209zM1337 1423l-520 -843v-580h-303v580l-520 843h340l332 -581l331 581h340z" />
    <glyph glyph-name="Thorn" unicode="&#xde;" horiz-adv-x="1271" 
d="M713 1167q228 0 362.5 -121t134.5 -325t-135 -326.5t-362 -122.5h-277v-272h-305v1423h305v-256h277zM696 539q98 0 151.5 50t53.5 132q0 81 -53.5 131.5t-151.5 50.5h-260v-364h260z" />
    <glyph glyph-name="germandbls" unicode="&#xdf;" horiz-adv-x="1286" 
d="M979 793q108 -46 178 -153.5t70 -242.5q0 -200 -130.5 -312t-340.5 -112q-202 0 -299 140l55 229q70 -117 199 -117q94 0 150.5 56t56.5 151q0 101 -66.5 163t-192.5 62v236q96 0 150.5 55t54.5 135q0 84 -58.5 135.5t-150.5 51.5q-116 0 -179.5 -69.5t-63.5 -199.5
v-1001h-303v985q0 251 149.5 394t415.5 143q227 0 362 -114.5t135 -291.5q0 -104 -53 -192t-139 -131z" />
    <glyph glyph-name="agrave" unicode="&#xe0;" horiz-adv-x="1316" 
d="M963 1366l-121 -195l-504 291l135 221zM928 1079h280v-1079h-280v119q-124 -146 -332 -146q-153 0 -276 74t-192 203.5t-69 288.5q0 242 151 394t386 152q211 0 332 -137v131zM639 242q124 0 201.5 82.5t77.5 214.5t-77.5 215.5t-201.5 83.5q-121 0 -200 -85t-79 -214
t79 -213t200 -84z" />
    <glyph glyph-name="aacute" unicode="&#xe1;" horiz-adv-x="1316" 
d="M979 1462l-502 -291l-123 195l490 317zM928 1079h280v-1079h-280v119q-124 -146 -332 -146q-153 0 -276 74t-192 203.5t-69 288.5q0 242 151 394t386 152q211 0 332 -137v131zM639 242q124 0 201.5 82.5t77.5 214.5t-77.5 215.5t-201.5 83.5q-121 0 -200 -85t-79 -214
t79 -213t200 -84z" />
    <glyph glyph-name="acircumflex" unicode="&#xe2;" horiz-adv-x="1316" 
d="M670 1440l-148 -209h-262l283 397h260l274 -397h-262zM928 1079h280v-1079h-280v119q-124 -146 -332 -146q-153 0 -276 74t-192 203.5t-69 288.5q0 242 151 394t386 152q211 0 332 -137v131zM639 242q124 0 201.5 82.5t77.5 214.5t-77.5 215.5t-201.5 83.5
q-121 0 -200 -85t-79 -214t79 -213t200 -84z" />
    <glyph glyph-name="atilde" unicode="&#xe3;" horiz-adv-x="1316" 
d="M561 1356q-37 0 -63 -23t-35 -65l-207 88q26 105 88.5 177.5t167.5 72.5q43 0 82.5 -16t64 -34.5t56.5 -34.5t63 -16q34 0 58.5 23.5t35.5 64.5l207 -86q-62 -250 -254 -250q-44 0 -84 15.5t-65 34t-56 34t-59 15.5zM928 1079h280v-1079h-280v119q-124 -146 -332 -146
q-153 0 -276 74t-192 203.5t-69 288.5q0 242 151 394t386 152q211 0 332 -137v131zM639 242q124 0 201.5 82.5t77.5 214.5t-77.5 215.5t-201.5 83.5q-121 0 -200 -85t-79 -214t79 -213t200 -84z" />
    <glyph glyph-name="adieresis" unicode="&#xe4;" horiz-adv-x="1316" 
d="M424 1243q-77 0 -131.5 54t-54.5 137q0 80 55.5 131t136.5 51q77 0 130.5 -54t53.5 -135q0 -79 -55 -131.5t-135 -52.5zM907 1243q-77 0 -131.5 54t-54.5 137q0 80 55 131t135 51q79 0 134 -54t55 -135q0 -79 -56.5 -131.5t-136.5 -52.5zM928 1079h280v-1079h-280v119
q-124 -146 -332 -146q-153 0 -276 74t-192 203.5t-69 288.5q0 242 151 394t386 152q211 0 332 -137v131zM639 242q124 0 201.5 82.5t77.5 214.5t-77.5 215.5t-201.5 83.5q-121 0 -200 -85t-79 -214t79 -213t200 -84z" />
    <glyph glyph-name="aring" unicode="&#xe5;" horiz-adv-x="1316" 
d="M670 1163q-120 0 -196.5 72.5t-76.5 189.5q0 113 76.5 185.5t196.5 72.5q119 0 194.5 -72.5t75.5 -185.5q0 -117 -75 -189.5t-195 -72.5zM670 1516q-42 0 -69.5 -26t-27.5 -65q0 -41 27 -67.5t70 -26.5q41 0 67.5 26.5t26.5 67.5q0 39 -26.5 65t-67.5 26zM928 1079h280
v-1079h-280v119q-124 -146 -332 -146q-153 0 -276 74t-192 203.5t-69 288.5q0 242 151 394t386 152q211 0 332 -137v131zM639 242q124 0 201.5 82.5t77.5 214.5t-77.5 215.5t-201.5 83.5q-121 0 -200 -85t-79 -214t79 -213t200 -84z" />
    <glyph glyph-name="ae" unicode="&#xe6;" horiz-adv-x="2129" 
d="M1257 455q23 -113 98 -176.5t183 -63.5q196 0 268 145l248 -106q-136 -281 -459 -281q-262 0 -387 160v-133h-280v119q-124 -146 -332 -146q-153 0 -276 74t-192 203.5t-69 288.5q0 160 69 289t192 202.5t276 73.5q208 0 332 -146v121h280v-143q123 168 357 168
q120 0 218 -46t160.5 -122.5t96 -173t33.5 -199.5q0 -21 -7 -108h-809zM1255 631h545q-19 117 -89 184.5t-181 67.5q-113 0 -184.5 -66.5t-90.5 -185.5zM639 242q124 0 201.5 82.5t77.5 214.5t-77.5 215.5t-201.5 83.5q-121 0 -200 -85t-79 -214t79 -213t200 -84z" />
    <glyph glyph-name="ccedilla" unicode="&#xe7;" horiz-adv-x="1179" 
d="M1153 324q-16 -53 -50 -105.5t-85 -100.5t-124 -84t-157 -50l-26 -72q68 -8 112.5 -61.5t44.5 -129.5q0 -97 -74 -157t-194 -60q-82 0 -148.5 27.5t-103.5 71.5l101 123q42 -56 110 -56q42 0 67 22.5t25 55.5q0 35 -26 59.5t-70 24.5h-33l-16 14l49 131
q-217 25 -357.5 182t-140.5 378q0 158 73.5 287.5t204.5 204.5t292 75q105 0 197.5 -32t156 -84.5t106 -113.5t60.5 -124l-270 -107q-24 87 -87.5 139t-156.5 52q-116 0 -193.5 -81.5t-77.5 -213.5t77.5 -213.5t193.5 -81.5q95 0 160.5 51.5t89.5 136.5z" />
    <glyph glyph-name="egrave" unicode="&#xe8;" horiz-adv-x="1216" 
d="M909 1364l-121 -195l-503 291l137 221zM350 446q26 -105 103.5 -163t185.5 -58q96 0 153.5 32.5t94.5 100.5l231 -153q-158 -232 -487 -232q-171 0 -304 74.5t-203.5 202.5t-70.5 289q0 115 44 220t118.5 180.5t177.5 120t217 44.5q101 0 190.5 -30.5t155.5 -83
t113.5 -121.5t71.5 -148t24 -160q0 -74 -6 -115h-809zM346 645h535q-22 107 -91 168t-172 61q-105 0 -177 -60t-95 -169z" />
    <glyph glyph-name="eacute" unicode="&#xe9;" horiz-adv-x="1216" 
d="M928 1460l-504 -291l-121 195l488 317zM350 446q26 -105 103.5 -163t185.5 -58q96 0 153.5 32.5t94.5 100.5l231 -153q-158 -232 -487 -232q-171 0 -304 74.5t-203.5 202.5t-70.5 289q0 115 44 220t118.5 180.5t177.5 120t217 44.5q101 0 190.5 -30.5t155.5 -83
t113.5 -121.5t71.5 -148t24 -160q0 -74 -6 -115h-809zM346 645h535q-22 107 -91 168t-172 61q-105 0 -177 -60t-95 -169z" />
    <glyph glyph-name="ecircumflex" unicode="&#xea;" horiz-adv-x="1216" 
d="M616 1438l-145 -209h-264l282 397h261l276 -397h-262zM350 446q26 -105 103.5 -163t185.5 -58q96 0 153.5 32.5t94.5 100.5l231 -153q-158 -232 -487 -232q-171 0 -304 74.5t-203.5 202.5t-70.5 289q0 115 44 220t118.5 180.5t177.5 120t217 44.5q101 0 190.5 -30.5
t155.5 -83t113.5 -121.5t71.5 -148t24 -160q0 -74 -6 -115h-809zM346 645h535q-22 107 -91 168t-172 61q-105 0 -177 -60t-95 -169z" />
    <glyph glyph-name="edieresis" unicode="&#xeb;" horiz-adv-x="1216" 
d="M371 1241q-77 0 -132 54t-55 137q0 80 56 131t137 51q78 0 131 -54t53 -135q0 -79 -55 -131.5t-135 -52.5zM856 1241q-78 0 -133 54t-55 137q0 80 55.5 131t136.5 51q79 0 133 -54t54 -135q0 -79 -55.5 -131.5t-135.5 -52.5zM350 446q26 -105 103.5 -163t185.5 -58
q96 0 153.5 32.5t94.5 100.5l231 -153q-158 -232 -487 -232q-171 0 -304 74.5t-203.5 202.5t-70.5 289q0 115 44 220t118.5 180.5t177.5 120t217 44.5q101 0 190.5 -30.5t155.5 -83t113.5 -121.5t71.5 -148t24 -160q0 -74 -6 -115h-809zM346 645h535q-22 107 -91 168
t-172 61q-105 0 -177 -60t-95 -169z" />
    <glyph glyph-name="igrave" unicode="&#xec;" horiz-adv-x="520" 
d="M432 1171l-502 289l136 221l489 -317zM109 0v1079h303v-1079h-303z" />
    <glyph glyph-name="iacute" unicode="&#xed;" horiz-adv-x="520" 
d="M68 1171l-121 193l487 317l137 -221zM109 0v1079h303v-1079h-303z" />
    <glyph glyph-name="icircumflex" unicode="&#xee;" horiz-adv-x="520" 
d="M260 1440l-145 -209h-265l285 397h260l275 -397h-262zM109 0v1079h303v-1079h-303z" />
    <glyph glyph-name="idieresis" unicode="&#xef;" horiz-adv-x="520" 
d="M16 1243q-77 0 -131.5 53t-54.5 136q0 80 56 131t137 51q78 0 131 -53.5t53 -135.5q0 -79 -55.5 -130.5t-135.5 -51.5zM500 1243q-77 0 -132 53t-55 136q0 80 55.5 131t135.5 51q79 0 132.5 -53.5t53.5 -135.5q0 -79 -55 -130.5t-135 -51.5zM109 0v1079h303v-1079h-303z
" />
    <glyph glyph-name="eth" unicode="&#xf0;" horiz-adv-x="1290" 
d="M733 1481q229 -140 360.5 -373.5t131.5 -501.5q0 -300 -161 -466.5t-423 -166.5q-168 0 -302 73.5t-208 199.5t-74 278q0 235 164.5 394t409.5 159q119 0 203 -47q-102 159 -297 254l-199 -199l-148 152l127 127q-145 33 -278 33l117 243q199 0 376 -63l150 149l147 -149
zM643 244q123 0 200 79t77 205q0 121 -76.5 200t-200.5 79q-125 0 -203 -80t-78 -203q0 -120 78.5 -200t202.5 -80z" />
    <glyph glyph-name="ntilde" unicode="&#xf1;" horiz-adv-x="1241" 
d="M532 1354q-37 0 -63 -23t-35 -65l-207 88q12 49 31 90t49 79t75 59.5t101 21.5q43 0 82.5 -16t64 -34.5t56.5 -34.5t62 -16q35 0 60 23.5t36 64.5l207 -86q-66 -250 -256 -250q-43 0 -83 15.5t-64.5 34t-56 34t-59.5 15.5zM721 1106q192 0 307 -117.5t115 -308.5v-680
h-301v621q0 100 -59 157.5t-154 57.5q-91 0 -153 -57t-64 -140v-639h-303v1079h286v-100q124 127 326 127z" />
    <glyph glyph-name="ograve" unicode="&#xf2;" horiz-adv-x="1282" 
d="M819 1169l-504 291l138 221l487 -317zM641 -27q-126 0 -235 43.5t-185.5 118.5t-120 180t-43.5 224q0 244 164.5 404.5t419.5 160.5q254 0 419 -160.5t165 -404.5q0 -159 -74.5 -288.5t-208.5 -203.5t-301 -74zM643 244q123 0 201 83t78 214q0 130 -77 211.5t-202 81.5
q-126 0 -203.5 -82t-77.5 -213q0 -130 78 -212.5t203 -82.5z" />
    <glyph glyph-name="oacute" unicode="&#xf3;" horiz-adv-x="1282" 
d="M455 1169l-121 195l487 317l135 -221zM641 -27q-126 0 -235 43.5t-185.5 118.5t-120 180t-43.5 224q0 244 164.5 404.5t419.5 160.5q254 0 419 -160.5t165 -404.5q0 -159 -74.5 -288.5t-208.5 -203.5t-301 -74zM643 244q123 0 201 83t78 214q0 130 -77 211.5t-202 81.5
q-126 0 -203.5 -82t-77.5 -213q0 -130 78 -212.5t203 -82.5z" />
    <glyph glyph-name="ocircumflex" unicode="&#xf4;" horiz-adv-x="1282" 
d="M647 1438l-145 -209h-264l282 397h260l277 -397h-262zM641 1104q254 0 419 -160.5t165 -404.5q0 -159 -74.5 -288.5t-208.5 -203.5t-301 -74q-126 0 -235 43.5t-185.5 118.5t-120 180t-43.5 224q0 244 164.5 404.5t419.5 160.5zM643 244q123 0 201 83t78 214
q0 130 -77 211.5t-202 81.5q-126 0 -203.5 -82t-77.5 -213q0 -130 78 -212.5t203 -82.5z" />
    <glyph glyph-name="otilde" unicode="&#xf5;" horiz-adv-x="1282" 
d="M803 1255q-44 0 -84 15.5t-65 34t-56 34t-59 15.5q-36 0 -62.5 -23t-36.5 -65l-204 88q11 48 30 90t49 79.5t75.5 59t101.5 21.5q43 0 82 -16t63.5 -34.5t56.5 -34.5t62 -16q34 0 59.5 23.5t34.5 64.5l209 -86q-66 -250 -256 -250zM641 -27q-126 0 -235 43.5
t-185.5 118.5t-120 180t-43.5 224q0 244 164.5 404.5t419.5 160.5q254 0 419 -160.5t165 -404.5q0 -159 -74.5 -288.5t-208.5 -203.5t-301 -74zM643 244q123 0 201 83t78 214q0 130 -77 211.5t-202 81.5q-126 0 -203.5 -82t-77.5 -213q0 -130 78 -212.5t203 -82.5z" />
    <glyph glyph-name="odieresis" unicode="&#xf6;" horiz-adv-x="1282" 
d="M401 1241q-77 0 -131.5 54t-54.5 137q0 80 56 131t137 51q78 0 131 -54t53 -135q0 -79 -55.5 -131.5t-135.5 -52.5zM887 1241q-78 0 -133.5 54t-55.5 137q0 80 56 131t137 51q79 0 132.5 -54t53.5 -135q0 -79 -55 -131.5t-135 -52.5zM641 -27q-126 0 -235 43.5
t-185.5 118.5t-120 180t-43.5 224q0 244 164.5 404.5t419.5 160.5q254 0 419 -160.5t165 -404.5q0 -159 -74.5 -288.5t-208.5 -203.5t-301 -74zM643 244q123 0 201 83t78 214q0 130 -77 211.5t-202 81.5q-126 0 -203.5 -82t-77.5 -213q0 -130 78 -212.5t203 -82.5z" />
    <glyph glyph-name="divide" unicode="&#xf7;" horiz-adv-x="1026" 
d="M516 920q-72 0 -121 48t-49 119q0 75 49 125t121 50q73 0 121.5 -50t48.5 -125q0 -71 -48.5 -119t-121.5 -48zM82 541v256h862v-256h-862zM518 72q-72 0 -121 48.5t-49 119.5q0 76 48.5 125t121.5 49t121.5 -49t48.5 -125q0 -71 -49 -119.5t-121 -48.5z" />
    <glyph glyph-name="oslash" unicode="&#xf8;" horiz-adv-x="1327" 
d="M1300 948l-133 -117q78 -134 78 -292q0 -159 -74.5 -288.5t-209 -203.5t-302.5 -74q-208 0 -354 109l-135 -117l-143 160l133 115q-82 133 -82 299q0 160 74 289t207 202.5t300 73.5q216 0 365 -115l137 119zM383 539q0 -51 12 -95l410 355q-62 35 -141 35
q-126 0 -203.5 -82t-77.5 -213zM940 541q0 41 -10 86l-404 -351q66 -32 138 -32q123 0 199.5 83t76.5 214z" />
    <glyph glyph-name="ugrave" unicode="&#xf9;" horiz-adv-x="1224" 
d="M893 1366l-123 -195l-502 291l135 221zM813 1079h303v-1079h-285v102q-126 -129 -315 -129q-199 0 -308.5 121.5t-109.5 313.5v671h303v-633q0 -90 55.5 -146t149.5 -56q93 0 150 55t57 141v639z" />
    <glyph glyph-name="uacute" unicode="&#xfa;" horiz-adv-x="1224" 
d="M909 1462l-503 -291l-121 195l487 317zM813 1079h303v-1079h-285v102q-126 -129 -315 -129q-199 0 -308.5 121.5t-109.5 313.5v671h303v-633q0 -90 55.5 -146t149.5 -56q93 0 150 55t57 141v639z" />
    <glyph glyph-name="ucircumflex" unicode="&#xfb;" horiz-adv-x="1224" 
d="M598 1440l-145 -209h-265l285 397h260l275 -397h-263zM813 1079h303v-1079h-285v102q-126 -129 -315 -129q-199 0 -308.5 121.5t-109.5 313.5v671h303v-633q0 -90 55.5 -146t149.5 -56q93 0 150 55t57 141v639z" />
    <glyph glyph-name="udieresis" unicode="&#xfc;" horiz-adv-x="1224" 
d="M354 1243q-77 0 -131.5 54t-54.5 137q0 80 55.5 131t136.5 51q77 0 131 -54t54 -135q0 -79 -55.5 -131.5t-135.5 -52.5zM838 1243q-78 0 -132.5 54t-54.5 137q0 80 55 131t136 51q79 0 132.5 -54t53.5 -135q0 -79 -55 -131.5t-135 -52.5zM813 1079h303v-1079h-285v102
q-126 -129 -315 -129q-199 0 -308.5 121.5t-109.5 313.5v671h303v-633q0 -90 55.5 -146t149.5 -56q93 0 150 55t57 141v639z" />
    <glyph glyph-name="yacute" unicode="&#xfd;" horiz-adv-x="1157" 
d="M889 1462l-502 -291l-123 195l490 317zM840 1079h313l-397 -1079l-133 -367h-299l145 367h-100l-361 1079h314l243 -837z" />
    <glyph glyph-name="thorn" unicode="&#xfe;" horiz-adv-x="1316" 
d="M729 1104q153 0 274 -73.5t187.5 -202t66.5 -289.5q0 -159 -68.5 -288.5t-191.5 -203.5t-276 -74q-189 0 -309 117v-457h-303v1864h303v-512q125 119 317 119zM680 244q118 0 196 83.5t78 211.5q0 129 -77.5 212t-196.5 83q-124 0 -201.5 -82t-77.5 -213t77.5 -213
t201.5 -82z" />
    <glyph glyph-name="ydieresis" unicode="&#xff;" horiz-adv-x="1157" 
d="M334 1243q-77 0 -132 54t-55 137q0 80 56 131t137 51q77 0 130.5 -54t53.5 -135q0 -79 -55 -131.5t-135 -52.5zM817 1243q-77 0 -131.5 54t-54.5 137q0 80 55 131t135 51q79 0 134 -54t55 -135q0 -79 -56.5 -131.5t-136.5 -52.5zM840 1079h313l-397 -1079l-133 -367h-299
l145 367h-100l-361 1079h314l243 -837z" />
    <glyph glyph-name="Amacron" unicode="&#x100;" horiz-adv-x="1337" 
d="M1038 1866v-248h-741v248h741zM1034 0l-100 305h-528l-101 -305h-301l479 1423h371l479 -1423h-299zM487 553h365l-182 551z" />
    <glyph glyph-name="amacron" unicode="&#x101;" horiz-adv-x="1316" 
d="M1010 1552v-241h-682v241h682zM928 1079h280v-1079h-280v119q-124 -146 -332 -146q-153 0 -276 74t-192 203.5t-69 288.5q0 242 151 394t386 152q211 0 332 -137v131zM639 242q124 0 201.5 82.5t77.5 214.5t-77.5 215.5t-201.5 83.5q-121 0 -200 -85t-79 -214t79 -213
t200 -84z" />
    <glyph glyph-name="Abreve" unicode="&#x102;" horiz-adv-x="1337" 
d="M668 1556q-171 0 -274 104t-103 267h248q0 -65 35 -106t94 -41t94 41t35 106h247q0 -164 -102.5 -267.5t-273.5 -103.5zM1034 0l-100 305h-528l-101 -305h-301l479 1423h371l479 -1423h-299zM487 553h365l-182 551z" />
    <glyph glyph-name="abreve" unicode="&#x103;" horiz-adv-x="1316" 
d="M670 1231q-177 0 -279 108t-102 289h237q0 -84 39.5 -129t104.5 -45q64 0 103.5 45t39.5 129h238q0 -181 -102.5 -289t-278.5 -108zM928 1079h280v-1079h-280v119q-124 -146 -332 -146q-153 0 -276 74t-192 203.5t-69 288.5q0 242 151 394t386 152q211 0 332 -137v131z
M639 242q124 0 201.5 82.5t77.5 214.5t-77.5 215.5t-201.5 83.5q-121 0 -200 -85t-79 -214t79 -213t200 -84z" />
    <glyph glyph-name="Aogonek" unicode="&#x104;" horiz-adv-x="1337" 
d="M1307 -260l108 -141q-36 -39 -96.5 -61.5t-132.5 -22.5q-110 0 -178 59t-68 156q0 135 172 270h-78l-100 305h-528l-101 -305h-301l479 1423h371l479 -1423l-82 -80q-48 -50 -66 -80.5t-18 -62.5q0 -31 18.5 -50.5t49.5 -19.5q43 0 72 33zM487 553h365l-182 551z" />
    <glyph glyph-name="aogonek" unicode="&#x105;" horiz-adv-x="1316" 
d="M1182 -260l108 -141q-36 -39 -96.5 -61.5t-132.5 -22.5q-110 0 -178 59t-68 156q0 135 172 270h-59v119q-124 -146 -332 -146q-153 0 -276 74t-192 203.5t-69 288.5q0 242 151 394t386 152q211 0 332 -137v131h280v-1079l-82 -80q-48 -50 -66 -80.5t-18 -62.5
q0 -31 18.5 -50.5t49.5 -19.5q43 0 72 33zM639 242q124 0 201.5 82.5t77.5 214.5t-77.5 215.5t-201.5 83.5q-121 0 -200 -85t-79 -214t79 -213t200 -84z" />
    <glyph glyph-name="Cacute" unicode="&#x106;" horiz-adv-x="1501" 
d="M543 1530l-68 219l598 209l76 -248zM801 -27q-154 0 -289.5 55.5t-232.5 152.5t-153 234.5t-56 295.5q0 212 95.5 381t263 263.5t374.5 94.5q133 0 247.5 -38.5t196 -104.5t138 -147.5t85.5 -174.5l-292 -119q-38 139 -134.5 217t-248.5 78q-184 0 -300 -124.5
t-116 -325.5q0 -200 116.5 -324.5t301.5 -124.5q152 0 247.5 77.5t133.5 217.5l292 -119q-30 -95 -87 -177.5t-139 -147.5t-196 -102.5t-247 -37.5z" />
    <glyph glyph-name="cacute" unicode="&#x107;" horiz-adv-x="1179" 
d="M434 1171l-121 195l488 317l137 -221zM627 -27q-160 0 -290.5 74t-205 203.5t-74.5 286.5q0 158 73.5 287.5t204.5 204.5t292 75q105 0 197.5 -32t156 -84.5t106 -113.5t60.5 -124l-270 -107q-24 87 -87.5 139t-156.5 52q-116 0 -193.5 -81.5t-77.5 -213.5t77.5 -213.5
t193.5 -81.5q95 0 160.5 51.5t89.5 136.5l270 -108q-18 -62 -60.5 -122t-107 -112.5t-158 -84.5t-200.5 -32z" />
    <glyph glyph-name="Cdotaccent" unicode="&#x10a;" horiz-adv-x="1501" 
d="M791 1548q-81 0 -138 55t-57 140q0 84 57 136t142 52q81 0 135.5 -53.5t54.5 -138.5q0 -83 -55 -137t-139 -54zM801 -27q-154 0 -289.5 55.5t-232.5 152.5t-153 234.5t-56 295.5q0 212 95.5 381t263 263.5t374.5 94.5q133 0 247.5 -38.5t196 -104.5t138 -147.5
t85.5 -174.5l-292 -119q-38 139 -134.5 217t-248.5 78q-184 0 -300 -124.5t-116 -325.5q0 -200 116.5 -324.5t301.5 -124.5q152 0 247.5 77.5t133.5 217.5l292 -119q-30 -95 -87 -177.5t-139 -147.5t-196 -102.5t-247 -37.5z" />
    <glyph glyph-name="cdotaccent" unicode="&#x10b;" horiz-adv-x="1179" 
d="M627 1239q-84 0 -140.5 53.5t-56.5 137.5t56.5 139t140.5 55q85 0 141.5 -55t56.5 -139t-56.5 -137.5t-141.5 -53.5zM627 -27q-160 0 -290.5 74t-205 203.5t-74.5 286.5q0 158 73.5 287.5t204.5 204.5t292 75q105 0 197.5 -32t156 -84.5t106 -113.5t60.5 -124l-270 -107
q-24 87 -87.5 139t-156.5 52q-116 0 -193.5 -81.5t-77.5 -213.5t77.5 -213.5t193.5 -81.5q95 0 160.5 51.5t89.5 136.5l270 -108q-18 -62 -60.5 -122t-107 -112.5t-158 -84.5t-200.5 -32z" />
    <glyph glyph-name="Ccaron" unicode="&#x10c;" horiz-adv-x="1501" 
d="M918 1556h-246l-301 371h270l150 -174l151 174h268zM797 262q152 0 247.5 77.5t133.5 217.5l292 -119q-30 -95 -87 -177.5t-139 -147.5t-196 -102.5t-247 -37.5q-154 0 -289.5 55.5t-232.5 152.5t-153 234.5t-56 295.5q0 212 95.5 381t263 263.5t374.5 94.5
q133 0 247.5 -38.5t196 -104.5t138 -147.5t85.5 -174.5l-292 -119q-38 139 -134.5 217t-248.5 78q-184 0 -300 -124.5t-116 -325.5q0 -200 116.5 -324.5t301.5 -124.5z" />
    <glyph glyph-name="ccaron" unicode="&#x10d;" horiz-adv-x="1179" 
d="M762 1231h-260l-285 397h264l146 -207l147 207h262zM883 432l270 -108q-18 -62 -60.5 -122t-107 -112.5t-158 -84.5t-200.5 -32q-160 0 -290.5 74t-205 203.5t-74.5 286.5q0 158 73.5 287.5t204.5 204.5t292 75q105 0 197.5 -32t156 -84.5t106 -113.5t60.5 -124
l-270 -107q-24 87 -87.5 139t-156.5 52q-116 0 -193.5 -81.5t-77.5 -213.5t77.5 -213.5t193.5 -81.5q95 0 160.5 51.5t89.5 136.5z" />
    <glyph glyph-name="Dcaron" unicode="&#x10e;" horiz-adv-x="1482" 
d="M819 1554h-246l-301 371h273l147 -174l152 174h268zM686 1423q212 0 376 -86t256.5 -248t92.5 -376t-92 -376.5t-256.5 -249.5t-376.5 -87h-555v1423h555zM676 270q193 0 309.5 116t116.5 323q0 210 -116.5 327t-309.5 117h-240v-883h240z" />
    <glyph glyph-name="dcaron" unicode="&#x10f;" horiz-adv-x="1513" 
d="M1360 1499h215l-62 -516h-194zM905 985v512h303v-1497h-280v111q-128 -138 -332 -138q-153 0 -276 74t-192 203.5t-69 288.5q0 160 67.5 289t188.5 202.5t273 73.5q192 0 317 -119zM639 242q124 0 201.5 82.5t77.5 214.5t-77.5 215.5t-201.5 83.5q-121 0 -200 -85
t-79 -214t79 -213t200 -84z" />
    <glyph glyph-name="Dcroat" unicode="&#x110;" horiz-adv-x="1505" 
d="M709 1423q213 0 377 -86.5t256 -248t92 -375.5q0 -323 -201 -518t-524 -195h-553v621h-123v208h123v594h553zM700 270q193 0 309.5 116t116.5 323q0 210 -116.5 327t-309.5 117h-241v-324h309v-208h-309v-351h241z" />
    <glyph glyph-name="dcroat" unicode="&#x111;" horiz-adv-x="1316" 
d="M1339 1391v-209h-131v-1182h-280v111q-128 -138 -332 -138q-153 0 -276 74t-192 203.5t-69 288.5q0 160 67.5 289t188.5 202.5t273 73.5q192 0 317 -119v197h-301v209h301v106h303v-106h131zM639 242q124 0 201.5 82.5t77.5 214.5t-77.5 215.5t-201.5 83.5
q-121 0 -200 -85t-79 -214t79 -213t200 -84z" />
    <glyph glyph-name="Emacron" unicode="&#x112;" horiz-adv-x="1171" 
d="M979 1866v-248h-741v248h741zM436 264h662v-264h-967v1423h954v-264h-649v-303h574v-264h-574v-328z" />
    <glyph glyph-name="emacron" unicode="&#x113;" horiz-adv-x="1216" 
d="M956 1550v-241h-682v241h682zM350 446q26 -105 103.5 -163t185.5 -58q96 0 153.5 32.5t94.5 100.5l231 -153q-158 -232 -487 -232q-171 0 -304 74.5t-203.5 202.5t-70.5 289q0 115 44 220t118.5 180.5t177.5 120t217 44.5q101 0 190.5 -30.5t155.5 -83t113.5 -121.5
t71.5 -148t24 -160q0 -74 -6 -115h-809zM346 645h535q-22 107 -91 168t-172 61q-105 0 -177 -60t-95 -169z" />
    <glyph glyph-name="Edotaccent" unicode="&#x116;" horiz-adv-x="1171" 
d="M608 1548q-81 0 -137.5 55t-56.5 140t56.5 136.5t141.5 51.5q81 0 136 -53.5t55 -138.5q0 -83 -56 -137t-139 -54zM436 264h662v-264h-967v1423h954v-264h-649v-303h574v-264h-574v-328z" />
    <glyph glyph-name="edotaccent" unicode="&#x117;" horiz-adv-x="1216" 
d="M616 1237q-84 0 -140 53t-56 137t56 139.5t140 55.5t140.5 -55.5t56.5 -139.5t-56.5 -137t-140.5 -53zM350 446q26 -105 103.5 -163t185.5 -58q96 0 153.5 32.5t94.5 100.5l231 -153q-158 -232 -487 -232q-171 0 -304 74.5t-203.5 202.5t-70.5 289q0 115 44 220
t118.5 180.5t177.5 120t217 44.5q101 0 190.5 -30.5t155.5 -83t113.5 -121.5t71.5 -148t24 -160q0 -74 -6 -115h-809zM346 645h535q-22 107 -91 168t-172 61q-105 0 -177 -60t-95 -169z" />
    <glyph glyph-name="Eogonek" unicode="&#x118;" horiz-adv-x="1171" 
d="M1071 -260l107 -141q-34 -39 -94.5 -61.5t-133.5 -22.5q-110 0 -177.5 59t-67.5 156q0 135 172 270h-746v1423h954v-264h-649v-303h574v-264h-574v-328h662v-264l-82 -80q-48 -50 -66 -80.5t-18 -62.5q0 -31 18.5 -50.5t48.5 -19.5q43 0 72 33z" />
    <glyph glyph-name="eogonek" unicode="&#x119;" horiz-adv-x="1216" 
d="M350 446q26 -105 103.5 -163t185.5 -58q96 0 153.5 32.5t94.5 100.5l231 -153q-85 -128 -223 -185l-68 -67q-48 -50 -66 -80.5t-18 -60.5q0 -32 19 -51t49 -19q46 0 72 33l108 -142q-74 -84 -227 -84q-112 0 -180 59t-68 156q0 104 105 209q-168 2 -298.5 77t-200 203
t-69.5 286q0 115 44 220t118.5 180.5t177.5 120t217 44.5q101 0 190.5 -30.5t155.5 -83t113.5 -121.5t71.5 -148t24 -160q0 -74 -6 -115h-809zM346 645h535q-22 107 -91 168t-172 61q-105 0 -177 -60t-95 -169z" />
    <glyph glyph-name="Ecaron" unicode="&#x11a;" horiz-adv-x="1171" 
d="M735 1556h-246l-301 371h271l149 -172l150 172h270zM436 264h662v-264h-967v1423h954v-264h-649v-303h574v-264h-574v-328z" />
    <glyph glyph-name="ecaron" unicode="&#x11b;" horiz-adv-x="1216" 
d="M750 1229h-261l-282 397h264l145 -207l148 207h262zM350 446q26 -105 103.5 -163t185.5 -58q96 0 153.5 32.5t94.5 100.5l231 -153q-158 -232 -487 -232q-171 0 -304 74.5t-203.5 202.5t-70.5 289q0 115 44 220t118.5 180.5t177.5 120t217 44.5q101 0 190.5 -30.5
t155.5 -83t113.5 -121.5t71.5 -148t24 -160q0 -74 -6 -115h-809zM346 645h535q-22 107 -91 168t-172 61q-105 0 -177 -60t-95 -169z" />
    <glyph glyph-name="Gbreve" unicode="&#x11e;" horiz-adv-x="1587" 
d="M799 1556q-171 0 -274 104t-103 267h248q0 -65 35 -106t94 -41t94 41t35 106h248q0 -164 -102.5 -267.5t-274.5 -103.5zM1528 764q0 -186 -55 -336.5t-152.5 -249.5t-229 -152t-284.5 -53q-210 0 -378.5 95.5t-263.5 264.5t-95 378q0 158 56 295.5t153.5 235t234.5 153
t293 55.5q127 0 238.5 -35t193 -96t140 -137t91.5 -164l-290 -121q-42 125 -139.5 194.5t-239.5 69.5q-190 0 -306 -126t-116 -330q0 -208 121.5 -332.5t333.5 -124.5q151 0 253 71t144 216h-432v229h729z" />
    <glyph glyph-name="gbreve" unicode="&#x11f;" horiz-adv-x="1314" 
d="M641 1231q-176 0 -278.5 108t-102.5 289h238q0 -84 39.5 -129t103.5 -45q65 0 104 45t39 129h238q0 -181 -102 -289t-279 -108zM928 1079h280v-915q0 -252 -157.5 -404.5t-434.5 -152.5q-217 0 -351 84t-191 233l258 101q33 -82 107 -123t179 -41q145 0 227.5 74
t82.5 200v45q-124 -143 -334 -143q-114 0 -214 41.5t-170.5 112.5t-110.5 169t-40 207q0 146 68.5 269t192 195.5t274.5 72.5q210 0 334 -143v118zM633 268q122 0 199 81t77 204q0 124 -76.5 204.5t-197.5 80.5q-118 0 -196.5 -82t-78.5 -203t78 -203t195 -82z" />
    <glyph glyph-name="Gdotaccent" unicode="&#x120;" horiz-adv-x="1587" 
d="M799 1548q-80 0 -136.5 55t-56.5 140q0 84 56.5 136t140.5 52q83 0 137.5 -53.5t54.5 -138.5q0 -83 -56 -137t-140 -54zM1528 764q0 -186 -55 -336.5t-152.5 -249.5t-229 -152t-284.5 -53q-210 0 -378.5 95.5t-263.5 264.5t-95 378q0 158 56 295.5t153.5 235t234.5 153
t293 55.5q127 0 238.5 -35t193 -96t140 -137t91.5 -164l-290 -121q-42 125 -139.5 194.5t-239.5 69.5q-190 0 -306 -126t-116 -330q0 -208 121.5 -332.5t333.5 -124.5q151 0 253 71t144 216h-432v229h729z" />
    <glyph glyph-name="gdotaccent" unicode="&#x121;" horiz-adv-x="1314" 
d="M641 1239q-84 0 -140.5 53.5t-56.5 137.5t56.5 139t140.5 55t141.5 -55t57.5 -139t-57.5 -137.5t-141.5 -53.5zM928 1079h280v-915q0 -252 -157.5 -404.5t-434.5 -152.5q-217 0 -351 84t-191 233l258 101q33 -82 107 -123t179 -41q145 0 227.5 74t82.5 200v45
q-124 -143 -334 -143q-114 0 -214 41.5t-170.5 112.5t-110.5 169t-40 207q0 146 68.5 269t192 195.5t274.5 72.5q210 0 334 -143v118zM633 268q122 0 199 81t77 204q0 124 -76.5 204.5t-197.5 80.5q-118 0 -196.5 -82t-78.5 -203t78 -203t195 -82z" />
    <glyph glyph-name="uni0122" unicode="&#x122;" horiz-adv-x="1587" 
d="M1528 764q0 -186 -55 -336.5t-152.5 -249.5t-229 -152t-284.5 -53q-210 0 -378.5 95.5t-263.5 264.5t-95 378q0 158 56 295.5t153.5 235t234.5 153t293 55.5q127 0 238.5 -35t193 -96t140 -137t91.5 -164l-290 -121q-42 125 -139.5 194.5t-239.5 69.5q-190 0 -306 -126
t-116 -330q0 -208 121.5 -332.5t333.5 -124.5q151 0 253 71t144 216h-432v229h729zM797 -98q66 0 109.5 -42.5t43.5 -109.5q0 -50 -20 -98.5t-72 -124.5l-70 -115l-137 51l72 123l12 25q-41 18 -66.5 56t-25.5 87q0 65 44.5 106.5t109.5 41.5z" />
    <glyph glyph-name="uni0123" unicode="&#x123;" horiz-adv-x="1314" 
d="M639 1212q-65 0 -108.5 42.5t-43.5 109.5q0 50 20 98t71 125l69 115l139 -51l-71 -123l-13 -25q41 -18 67 -56t26 -87q0 -65 -44.5 -106.5t-111.5 -41.5zM928 1079h280v-915q0 -252 -157.5 -404.5t-434.5 -152.5q-217 0 -351 84t-191 233l258 101q33 -82 107 -123
t179 -41q145 0 227.5 74t82.5 200v45q-124 -143 -334 -143q-114 0 -214 41.5t-170.5 112.5t-110.5 169t-40 207q0 146 68.5 269t192 195.5t274.5 72.5q210 0 334 -143v118zM633 268q122 0 199 81t77 204q0 124 -76.5 204.5t-197.5 80.5q-118 0 -196.5 -82t-78.5 -203
t78 -203t195 -82z" />
    <glyph glyph-name="Hbar" unicode="&#x126;" horiz-adv-x="1499" 
d="M1454 1270v-238h-127v-1032h-305v590h-545v-590h-303v1032h-127v238h127v153h303v-153h545v153h305v-153h127zM1022 862v170h-545v-170h545z" />
    <glyph glyph-name="hbar" unicode="&#x127;" horiz-adv-x="1241" 
d="M721 1106q192 0 307 -117.5t115 -308.5v-680h-301v621q0 100 -59 157.5t-154 57.5q-91 0 -153 -57t-64 -140v-639h-303v1182h-132v209h132v106h303v-106h301v-209h-301v-187q124 111 309 111z" />
    <glyph glyph-name="Itilde" unicode="&#x128;" horiz-adv-x="567" 
d="M436 1554q-46 0 -86 15.5t-63.5 34t-54 34t-60.5 15.5q-79 0 -98 -88l-203 88q11 46 32 88t53.5 79.5t81 60t105.5 22.5t105 -25.5t86.5 -50.5t73.5 -25q76 0 98 88l201 -86q-26 -106 -94.5 -178t-176.5 -72zM131 0v1423h305v-1423h-305z" />
    <glyph glyph-name="itilde" unicode="&#x129;" horiz-adv-x="520" 
d="M391 1255q-37 0 -71 16t-54.5 34.5t-47 34.5t-50.5 16q-31 0 -53 -23.5t-29 -64.5l-174 88q9 48 25 89t41.5 78.5t63.5 59t85 21.5q37 0 70 -15.5t53.5 -34t47 -34t52.5 -15.5q30 0 51.5 23t28.5 65l176 -88q-55 -250 -215 -250zM109 0v1079h303v-1079h-303z" />
    <glyph glyph-name="Imacron" unicode="&#x12a;" horiz-adv-x="567" 
d="M14 1618v248h547v-248h-547zM131 0v1423h305v-1423h-305z" />
    <glyph glyph-name="imacron" unicode="&#x12b;" horiz-adv-x="520" 
d="M-12 1311v239h544v-239h-544zM109 0v1079h303v-1079h-303z" />
    <glyph glyph-name="Iogonek" unicode="&#x12e;" horiz-adv-x="567" 
d="M410 -260l106 -141q-34 -39 -94 -61.5t-133 -22.5q-111 0 -179.5 59.5t-68.5 155.5q0 69 42 134.5t130 135.5h-82v1423h305v-1423l-82 -80q-49 -49 -66.5 -79.5t-17.5 -63.5q0 -31 18.5 -50.5t47.5 -19.5q45 0 74 33z" />
    <glyph glyph-name="iogonek" unicode="&#x12f;" horiz-adv-x="522" 
d="M262 1237q-84 0 -141.5 54.5t-57.5 138.5q0 83 57.5 137.5t141.5 54.5t140.5 -54.5t56.5 -137.5q0 -84 -56.5 -138.5t-140.5 -54.5zM379 -260l108 -141q-77 -84 -229 -84q-110 0 -178 59t-68 156q0 135 172 270h-75v1079h303v-1079h-6l-82 -80q-48 -50 -66 -80.5
t-18 -62.5q0 -31 19 -50.5t48 -19.5q43 0 72 33z" />
    <glyph glyph-name="Idotaccent" unicode="&#x130;" horiz-adv-x="567" 
d="M283 1548q-80 0 -136.5 55t-56.5 140q0 84 56.5 136t140.5 52q83 0 137.5 -53.5t54.5 -138.5q0 -83 -56 -137t-140 -54zM131 0v1423h305v-1423h-305z" />
    <glyph glyph-name="dotlessi" unicode="&#x131;" horiz-adv-x="520" 
d="M109 0v1079h303v-1079h-303z" />
    <glyph glyph-name="IJ" unicode="&#x132;" horiz-adv-x="1271" 
d="M131 0v1423h305v-1423h-305zM604 0v270h82q78 0 119 45t41 129v979h305v-983q0 -206 -113.5 -323t-326.5 -117h-107z" />
    <glyph glyph-name="ij" unicode="&#x133;" horiz-adv-x="1112" 
d="M858 1239q-84 0 -140 53.5t-56 137.5t56 139t140 55t141.5 -55t57.5 -139t-57.5 -137.5t-141.5 -53.5zM262 1237q-84 0 -141.5 54.5t-57.5 138.5q0 83 57.5 137.5t141.5 54.5t140.5 -54.5t56.5 -137.5q0 -84 -56.5 -138.5t-140.5 -54.5zM109 0v1079h303v-1079h-303z
M506 -379v260h20q78 0 126 52t48 139v1007h304v-1003q0 -210 -123.5 -332.5t-315.5 -122.5h-59z" />
    <glyph glyph-name="uni0136" unicode="&#x136;" horiz-adv-x="1323" 
d="M737 733l598 -733h-350l-549 659v-659h-305v1423h305v-624l529 624h350zM717 -98q65 0 108 -42.5t43 -109.5q0 -50 -20 -98.5t-70 -124.5l-71 -115l-138 51l72 123l12 25q-41 18 -66.5 56t-25.5 87q0 65 44.5 106.5t111.5 41.5z" />
    <glyph glyph-name="uni0137" unicode="&#x137;" horiz-adv-x="1112" 
d="M692 580l436 -580h-329l-387 489v-489h-303v1497h303v-844l372 426h338zM563 -98q65 0 108.5 -42.5t43.5 -109.5q0 -50 -20 -98.5t-70 -124.5l-70 -115l-139 51l71 123l13 25q-41 18 -66.5 56t-25.5 87q0 65 44 106.5t111 41.5z" />
    <glyph glyph-name="kgreenlandic" unicode="&#x138;" horiz-adv-x="1112" 
d="M1128 0h-327l-389 463v-463h-303v1079h303v-450l372 450h340l-438 -516z" />
    <glyph glyph-name="Lacute" unicode="&#x139;" horiz-adv-x="1112" 
d="M567 1958l76 -248l-608 -180l-68 219zM436 270h651v-270h-956v1423h305v-1153z" />
    <glyph glyph-name="lacute" unicode="&#x13a;" horiz-adv-x="520" 
d="M12 1604l-67 219l598 209l75 -248zM109 0v1497h303v-1497h-303z" />
    <glyph glyph-name="uni013B" unicode="&#x13b;" horiz-adv-x="1112" 
d="M436 270h651v-270h-956v1423h305v-1153zM610 -98q65 0 108.5 -42.5t43.5 -109.5q0 -50 -20 -98.5t-70 -124.5l-70 -115l-139 51l72 123l12 25q-41 18 -66.5 56t-25.5 87q0 65 44 106.5t111 41.5z" />
    <glyph glyph-name="uni013C" unicode="&#x13c;" horiz-adv-x="520" 
d="M109 1497h303v-1497h-303v1497zM258 -98q65 0 108.5 -42.5t43.5 -109.5q0 -50 -20 -98t-71 -125l-71 -115l-137 51l71 123l13 25q-41 18 -67 56t-26 87q0 65 44.5 106.5t111.5 41.5z" />
    <glyph glyph-name="Lcaron" unicode="&#x13d;" horiz-adv-x="1122" 
d="M983 1446l-59 -516h-195l41 516h213zM436 270h651v-270h-956v1423h305v-1153z" />
    <glyph glyph-name="lcaron" unicode="&#x13e;" horiz-adv-x="716" 
d="M522 983l41 516h215l-61 -516h-195zM109 0v1497h303v-1497h-303z" />
    <glyph glyph-name="Ldot" unicode="&#x13f;" horiz-adv-x="1140" 
d="M436 270h651v-270h-956v1423h305v-1153zM866 688q-72 0 -120 49t-48 121q0 74 48 123t120 49q74 0 123 -49t49 -123q0 -72 -49.5 -121t-122.5 -49z" />
    <glyph glyph-name="ldot" unicode="&#x140;" horiz-adv-x="806" 
d="M109 0v1497h303v-1497h-303zM666 592q-72 0 -121 49t-49 121q0 73 49 122.5t121 49.5q73 0 121.5 -49t48.5 -123q0 -72 -48.5 -121t-121.5 -49z" />
    <glyph glyph-name="Lslash" unicode="&#x141;" horiz-adv-x="1224" 
d="M547 270h651v-270h-954v588l-152 -53l-61 190l213 76v622h303v-514l182 66l62 -191l-244 -88v-426z" />
    <glyph glyph-name="lslash" unicode="&#x142;" horiz-adv-x="763" 
d="M768 836l-231 -129v-707h-304v539l-116 -66l-113 191l229 127v706h304v-536l118 65z" />
    <glyph glyph-name="Nacute" unicode="&#x143;" horiz-adv-x="1417" 
d="M1040 1710l-608 -180l-65 219l598 209zM983 1423h303v-1423h-254l-598 899v-899h-303v1423h252l600 -905v905z" />
    <glyph glyph-name="nacute" unicode="&#x144;" horiz-adv-x="1241" 
d="M950 1460l-504 -291l-120 195l487 317zM721 1106q192 0 307 -117.5t115 -308.5v-680h-301v621q0 100 -59 157.5t-154 57.5q-91 0 -153 -57t-64 -140v-639h-303v1079h286v-100q124 127 326 127z" />
    <glyph glyph-name="uni0145" unicode="&#x145;" horiz-adv-x="1417" 
d="M983 1423h303v-1423h-254l-598 899v-899h-303v1423h252l600 -905v905zM729 -98q65 0 108.5 -42.5t43.5 -109.5q0 -51 -19.5 -99.5t-70.5 -123.5l-70 -115l-137 51l69 123q10 14 13 25q-41 18 -67 56t-26 87q0 65 45 106.5t111 41.5z" />
    <glyph glyph-name="uni0146" unicode="&#x146;" horiz-adv-x="1241" 
d="M721 1106q192 0 307 -117.5t115 -308.5v-680h-301v621q0 100 -59 157.5t-154 57.5q-91 0 -153 -57t-64 -140v-639h-303v1079h286v-100q124 127 326 127zM616 -98q65 0 108.5 -42.5t43.5 -109.5q0 -51 -19.5 -99.5t-70.5 -123.5l-70 -115l-137 51l72 123l12 25
q-41 18 -66.5 56t-25.5 87q0 65 44 106.5t109 41.5z" />
    <glyph glyph-name="Ncaron" unicode="&#x147;" horiz-adv-x="1417" 
d="M809 1556h-246l-301 371h270l150 -172l149 172h271zM983 1423h303v-1423h-254l-598 899v-899h-303v1423h252l600 -905v905z" />
    <glyph glyph-name="ncaron" unicode="&#x148;" horiz-adv-x="1241" 
d="M774 1229h-260l-285 397h265l145 -207l147 207h263zM721 1106q192 0 307 -117.5t115 -308.5v-680h-301v621q0 100 -59 157.5t-154 57.5q-91 0 -153 -57t-64 -140v-639h-303v1079h286v-100q124 127 326 127z" />
    <glyph glyph-name="napostrophe" unicode="&#x149;" horiz-adv-x="1486" 
d="M29 1044l41 517h215l-62 -517h-194zM965 1106q193 0 308.5 -117.5t115.5 -308.5v-680h-304v621q0 101 -58.5 158t-154.5 57q-90 0 -152.5 -57t-62.5 -140v-639h-303v1079h285v-100q124 127 326 127z" />
    <glyph glyph-name="Eng" unicode="&#x14a;" horiz-adv-x="1417" 
d="M983 1423h303v-1441q0 -204 -111 -321.5t-313 -117.5h-51v271h55q79 0 120.5 45t41.5 127v20l-594 893v-899h-303v1423h252l600 -905v905z" />
    <glyph glyph-name="eng" unicode="&#x14b;" horiz-adv-x="1241" 
d="M721 1106q192 0 307 -117.5t115 -308.5v-619q0 -200 -121.5 -320t-308.5 -120h-47v260h20q71 0 113.5 47.5t42.5 128.5v564q0 100 -59 157.5t-154 57.5q-91 0 -153 -57t-64 -140v-639h-303v1079h286v-100q124 127 326 127z" />
    <glyph glyph-name="Omacron" unicode="&#x14c;" horiz-adv-x="1622" 
d="M440 1618v248h742v-248h-742zM811 -27q-154 0 -292 57t-237 155t-156.5 235t-57.5 291q0 207 98 376.5t268.5 266t376.5 96.5t376 -96.5t267.5 -266t97.5 -376.5q0 -154 -57.5 -291t-156 -235t-236 -155t-291.5 -57zM811 262q193 0 312.5 126t119.5 325
q0 197 -118.5 322.5t-313.5 125.5t-314.5 -125.5t-119.5 -322.5q0 -199 120.5 -325t313.5 -126z" />
    <glyph glyph-name="omacron" unicode="&#x14d;" horiz-adv-x="1282" 
d="M305 1309v241h682v-241h-682zM641 -27q-126 0 -235 43.5t-185.5 118.5t-120 180t-43.5 224q0 244 164.5 404.5t419.5 160.5q254 0 419 -160.5t165 -404.5q0 -159 -74.5 -288.5t-208.5 -203.5t-301 -74zM643 244q123 0 201 83t78 214q0 130 -77 211.5t-202 81.5
q-126 0 -203.5 -82t-77.5 -213q0 -130 78 -212.5t203 -82.5z" />
    <glyph glyph-name="Ohungarumlaut" unicode="&#x150;" horiz-adv-x="1622" 
d="M555 1509l-184 136l264 385l209 -152zM1034 1509l-186 136l264 385l211 -152zM811 -27q-154 0 -292 57t-237 155t-156.5 235t-57.5 291q0 207 98 376.5t268.5 266t376.5 96.5t376 -96.5t267.5 -266t97.5 -376.5q0 -154 -57.5 -291t-156 -235t-236 -155t-291.5 -57z
M811 262q193 0 312.5 126t119.5 325q0 197 -118.5 322.5t-313.5 125.5t-314.5 -125.5t-119.5 -322.5q0 -199 120.5 -325t313.5 -126z" />
    <glyph glyph-name="ohungarumlaut" unicode="&#x151;" horiz-adv-x="1282" 
d="M406 1169l-187 136l264 374l209 -153zM877 1169l-187 136l264 374l211 -153zM641 -27q-126 0 -235 43.5t-185.5 118.5t-120 180t-43.5 224q0 244 164.5 404.5t419.5 160.5q254 0 419 -160.5t165 -404.5q0 -159 -74.5 -288.5t-208.5 -203.5t-301 -74zM643 244
q123 0 201 83t78 214q0 130 -77 211.5t-202 81.5q-126 0 -203.5 -82t-77.5 -213q0 -130 78 -212.5t203 -82.5z" />
    <glyph glyph-name="OE" unicode="&#x152;" horiz-adv-x="2283" 
d="M1548 264h662v-264h-967v123q-180 -150 -432 -150q-154 0 -292 57t-237 155t-156.5 235t-57.5 291q0 207 98 376.5t268.5 266t376.5 96.5q252 0 432 -150v123h955v-264h-650v-303h574v-264h-574v-328zM811 262q193 0 312.5 126t119.5 325q0 197 -118.5 322.5
t-313.5 125.5t-314.5 -125.5t-119.5 -322.5q0 -199 120.5 -325t313.5 -126z" />
    <glyph glyph-name="oe" unicode="&#x153;" horiz-adv-x="2086" 
d="M1223 446q26 -105 102 -163t184 -58q96 0 154.5 33t93.5 100l232 -153q-158 -232 -488 -232q-132 0 -242.5 45.5t-187.5 126.5q-80 -81 -190.5 -126.5t-239.5 -45.5q-126 0 -235 43.5t-185.5 118.5t-120 180t-43.5 224q0 244 164.5 404.5t419.5 160.5q131 0 242.5 -46.5
t191.5 -129.5q78 83 183.5 129.5t224.5 46.5q101 0 190 -30.5t154.5 -83t113 -121.5t71.5 -148t24 -160q0 -74 -6 -115h-807zM1219 645h532q-22 107 -90 168t-170 61q-105 0 -177 -60t-95 -169zM643 244q123 0 201 83t78 214q0 130 -77 211.5t-202 81.5q-126 0 -203.5 -82
t-77.5 -213q0 -130 78 -212.5t203 -82.5z" />
    <glyph glyph-name="Racute" unicode="&#x154;" horiz-adv-x="1282" 
d="M983 1710l-606 -180l-68 219l600 209zM897 0l-405 584h-60v-584h-301v1423h582q226 0 361.5 -117t135.5 -302q0 -163 -107.5 -275.5t-291.5 -138.5l424 -590h-338zM432 1157v-358h273q99 0 153.5 47.5t54.5 130.5q0 84 -54.5 132t-153.5 48h-273z" />
    <glyph glyph-name="racute" unicode="&#x155;" horiz-adv-x="735" 
d="M707 1460l-502 -291l-121 195l487 317zM395 975q58 61 138 96t172 35v-285q-138 0 -215.5 -60t-77.5 -167v-594h-303v1079h286v-104z" />
    <glyph glyph-name="uni0156" unicode="&#x156;" horiz-adv-x="1282" 
d="M811 590l424 -590h-338l-405 584h-60v-584h-301v1423h582q226 0 361.5 -117t135.5 -302q0 -163 -107.5 -275.5t-291.5 -138.5zM432 1157v-358h273q99 0 153.5 47.5t54.5 130.5q0 84 -54.5 132t-153.5 48h-273zM637 -98q67 0 110.5 -42.5t43.5 -109.5q0 -50 -20.5 -98
t-72.5 -125l-69 -115l-137 51l71 123l12 25q-41 18 -66.5 56t-25.5 87q0 65 44.5 106.5t109.5 41.5z" />
    <glyph glyph-name="uni0157" unicode="&#x157;" horiz-adv-x="735" 
d="M395 975q58 61 138 96t172 35v-285q-138 0 -215.5 -60t-77.5 -167v-594h-303v1079h286v-104zM258 -98q65 0 108.5 -42.5t43.5 -109.5q0 -50 -20 -98t-71 -125l-69 -115l-139 51l71 123l13 25q-41 18 -67 56t-26 87q0 65 44.5 106.5t111.5 41.5z" />
    <glyph glyph-name="Rcaron" unicode="&#x158;" horiz-adv-x="1282" 
d="M752 1556h-246l-301 371h272l148 -174l151 174h268zM897 0l-405 584h-60v-584h-301v1423h582q226 0 361.5 -117t135.5 -302q0 -163 -107.5 -275.5t-291.5 -138.5l424 -590h-338zM432 1157v-358h273q99 0 153.5 47.5t54.5 130.5q0 84 -54.5 132t-153.5 48h-273z" />
    <glyph glyph-name="rcaron" unicode="&#x159;" horiz-adv-x="735" 
d="M530 1229h-260l-282 397h264l145 -207l148 207h262zM395 975q58 61 138 96t172 35v-285q-138 0 -215.5 -60t-77.5 -167v-594h-303v1079h286v-104z" />
    <glyph glyph-name="Sacute" unicode="&#x15a;" horiz-adv-x="1200" 
d="M360 1530l-67 219l600 209l74 -248zM590 -25q-205 0 -349 95.5t-196 269.5l287 111q28 -102 104 -157.5t185 -55.5q97 0 150.5 39t53.5 108q0 45 -24.5 80t-66 58.5t-95.5 43t-114 39t-119.5 42t-113.5 55.5t-95.5 75.5t-66 107.5t-24.5 146q0 187 133.5 301.5
t368.5 114.5q195 0 328.5 -88.5t173.5 -237.5l-287 -110q-51 178 -229 178q-88 0 -135 -36.5t-47 -96.5q0 -43 24.5 -76t66.5 -55.5t96 -41.5t114 -38.5t119.5 -43t113.5 -58.5t96 -80.5t66.5 -115t24.5 -155.5q0 -188 -146.5 -303t-396.5 -115z" />
    <glyph glyph-name="sacute" unicode="&#x15b;" horiz-adv-x="1013" 
d="M328 1171l-121 193l487 317l137 -221zM508 -27q-181 0 -304.5 73.5t-168.5 211.5l256 98q22 -72 79.5 -110.5t147.5 -38.5q67 0 105.5 26t38.5 72q0 38 -32 65.5t-82.5 45.5t-112 35.5t-123 42t-112 57.5t-82.5 90.5t-32 132.5q0 153 116.5 241.5t313.5 88.5
q162 0 272 -63t144 -175l-256 -98q-40 111 -164 111q-61 0 -94 -23t-33 -65q0 -35 32 -59.5t83 -40.5t112.5 -31.5t123 -40t112.5 -59t83 -95t32 -141.5q0 -162 -123.5 -256.5t-331.5 -94.5z" />
    <glyph glyph-name="Scedilla" unicode="&#x15e;" horiz-adv-x="1200" 
d="M1133 393q0 -158 -106.5 -266t-293.5 -139l-28 -76q68 -8 112.5 -61.5t44.5 -129.5q0 -97 -74 -157t-194 -60q-81 0 -148 28t-104 71l100 123q45 -56 111 -56q42 0 67 22.5t25 55.5q0 35 -26 59.5t-70 24.5h-33l-16 14l47 131q-189 9 -321 103.5t-181 259.5l287 111
q28 -102 104 -157.5t185 -55.5q97 0 150.5 39t53.5 108q0 45 -24.5 80t-66 58.5t-95.5 43t-114 39t-119.5 42t-113.5 55.5t-95.5 75.5t-66 107.5t-24.5 146q0 187 133.5 301.5t368.5 114.5q195 0 328.5 -88.5t173.5 -237.5l-287 -110q-51 178 -229 178q-88 0 -135 -36.5
t-47 -96.5q0 -43 24.5 -76t66.5 -55.5t96 -41.5t114 -38.5t119.5 -43t113.5 -58.5t96 -80.5t66.5 -115t24.5 -155.5z" />
    <glyph glyph-name="scedilla" unicode="&#x15f;" horiz-adv-x="1013" 
d="M963 324q0 -140 -93 -230.5t-256 -113.5l-26 -68q68 -8 112.5 -61.5t44.5 -129.5q0 -97 -74 -157t-194 -60q-81 0 -148 28t-104 71l101 123q45 -56 110 -56q42 0 67 22.5t25 55.5q0 35 -26 59.5t-70 24.5h-33l-16 14l49 131q-152 14 -254 85.5t-143 195.5l256 98
q22 -72 79.5 -110.5t147.5 -38.5q67 0 105.5 26t38.5 72q0 38 -32 65.5t-82.5 45.5t-112 35.5t-123 42t-112 57.5t-82.5 90.5t-32 132.5q0 153 116.5 241.5t313.5 88.5q162 0 272 -63t144 -175l-256 -98q-40 111 -164 111q-61 0 -94 -23t-33 -65q0 -35 32 -59.5t83 -40.5
t112.5 -31.5t123 -40t112.5 -59t83 -95t32 -141.5z" />
    <glyph glyph-name="Scaron" unicode="&#x160;" horiz-adv-x="1200" 
d="M745 1556h-245l-301 371h270l149 -172l150 172h270zM412 1057q0 -43 24.5 -76t66.5 -55.5t96 -41.5t114 -38.5t119.5 -43t113.5 -58.5t96 -80.5t66.5 -115t24.5 -155.5q0 -188 -146.5 -303t-396.5 -115q-205 0 -349 95.5t-196 269.5l287 111q28 -102 104 -157.5
t185 -55.5q97 0 150.5 39t53.5 108q0 45 -24.5 80t-66 58.5t-95.5 43t-114 39t-119.5 42t-113.5 55.5t-95.5 75.5t-66 107.5t-24.5 146q0 187 133.5 301.5t368.5 114.5q195 0 328.5 -88.5t173.5 -237.5l-287 -110q-51 178 -229 178q-88 0 -135 -36.5t-47 -96.5z" />
    <glyph glyph-name="scaron" unicode="&#x161;" horiz-adv-x="1013" 
d="M655 1231h-260l-284 397h264l145 -209l148 209h262zM385 791q0 -35 32 -59.5t83 -40.5t112.5 -31.5t123 -40t112.5 -59t83 -95t32 -141.5q0 -162 -123.5 -256.5t-331.5 -94.5q-181 0 -304.5 73.5t-168.5 211.5l256 98q22 -72 79.5 -110.5t147.5 -38.5q67 0 105.5 26
t38.5 72q0 38 -32 65.5t-82.5 45.5t-112 35.5t-123 42t-112 57.5t-82.5 90.5t-32 132.5q0 153 116.5 241.5t313.5 88.5q162 0 272 -63t144 -175l-256 -98q-40 111 -164 111q-61 0 -94 -23t-33 -65z" />
    <glyph glyph-name="uni0162" unicode="&#x162;" horiz-adv-x="1198" 
d="M752 0h-56l-34 -92q66 -6 111.5 -60t45.5 -129q0 -97 -74 -157t-194 -60q-82 0 -148 27.5t-104 69.5l98 122q44 -55 113 -55q42 0 67 22.5t25 57.5t-26 58.5t-70 23.5h-33l-16 14l57 158h-68v1153h-419v270h1144v-270h-419v-1153z" />
    <glyph glyph-name="uni0163" unicode="&#x163;" horiz-adv-x="825" 
d="M612 0h-18l-27 -70q68 -8 113 -61t45 -129q0 -97 -73.5 -157t-192.5 -60q-82 0 -148 27.5t-106 70.5l100 123q44 -55 113 -55q42 0 67 22.5t25 55.5q0 35 -26.5 59t-69.5 24h-33l-16 15l59 168q-106 44 -161.5 139.5t-55.5 230.5v418h-184v258h92q110 0 110 117v168h295
v-285h262v-258h-272v-381q0 -86 43 -131t123 -45h115v-264h-179z" />
    <glyph glyph-name="Tcaron" unicode="&#x164;" horiz-adv-x="1198" 
d="M727 1556h-246l-301 371h271l147 -174l152 174h268zM1171 1423v-270h-419v-1153h-306v1153h-419v270h1144z" />
    <glyph glyph-name="tcaron" unicode="&#x165;" horiz-adv-x="825" 
d="M637 1128l41 514h215l-59 -514h-197zM612 0q-197 0 -301 108t-104 295v418h-184v258h92q110 0 110 117v168h295v-285h262v-258h-272v-381q0 -86 43 -131t123 -45h115v-264h-179z" />
    <glyph glyph-name="Tbar" unicode="&#x166;" horiz-adv-x="1214" 
d="M1180 1153h-420v-424h215v-209h-215v-520h-305v520h-215v209h215v424h-420v270h1145v-270z" />
    <glyph glyph-name="tbar" unicode="&#x167;" horiz-adv-x="835" 
d="M684 264h115v-264h-178q-197 0 -301.5 108t-104.5 295v50h-145v209h145v159h-184v258h92q110 0 110 117v168h293v-285h265v-258h-273v-159h230v-209h-230v-13q0 -86 42 -131t124 -45z" />
    <glyph glyph-name="Utilde" unicode="&#x168;" horiz-adv-x="1382" 
d="M586 1653q-79 0 -101 -88l-206 88q12 46 33.5 88t55 79.5t83 60t108.5 22.5q46 0 87.5 -16t66 -34.5t56 -34.5t60.5 -16q38 0 64 23t37 65l207 -86q-28 -106 -98 -178t-181 -72q-47 0 -88 15.5t-65 34t-56 34t-63 15.5zM963 1423h303v-870q0 -95 -22.5 -181t-69 -159
t-113.5 -126.5t-161.5 -83.5t-207.5 -30q-140 0 -251.5 46t-181 126t-106 184t-36.5 224v870h305v-870q0 -132 69.5 -212.5t200.5 -80.5t201 80.5t70 212.5v870z" />
    <glyph glyph-name="utilde" unicode="&#x169;" horiz-adv-x="1224" 
d="M489 1356q-36 0 -61.5 -23t-34.5 -65l-207 88q12 49 31 90t49 79t75 59.5t101 21.5q43 0 82.5 -16t64 -34.5t56.5 -34.5t62 -16q35 0 60 23.5t36 64.5l207 -86q-66 -250 -256 -250q-43 0 -83 15.5t-65 34t-56.5 34t-60.5 15.5zM813 1079h303v-1079h-285v102
q-126 -129 -315 -129q-199 0 -308.5 121.5t-109.5 313.5v671h303v-633q0 -90 55.5 -146t149.5 -56q93 0 150 55t57 141v639z" />
    <glyph glyph-name="Umacron" unicode="&#x16a;" horiz-adv-x="1382" 
d="M1063 1866v-248h-741v248h741zM963 1423h303v-870q0 -95 -22.5 -181t-69 -159t-113.5 -126.5t-161.5 -83.5t-207.5 -30q-140 0 -251.5 46t-181 126t-106 184t-36.5 224v870h305v-870q0 -132 69.5 -212.5t200.5 -80.5t201 80.5t70 212.5v870z" />
    <glyph glyph-name="umacron" unicode="&#x16b;" horiz-adv-x="1224" 
d="M940 1552v-241h-684v241h684zM813 1079h303v-1079h-285v102q-126 -129 -315 -129q-199 0 -308.5 121.5t-109.5 313.5v671h303v-633q0 -90 55.5 -146t149.5 -56q93 0 150 55t57 141v639z" />
    <glyph glyph-name="Uring" unicode="&#x16e;" horiz-adv-x="1382" 
d="M692 1421q-119 0 -195.5 72.5t-76.5 187.5q0 112 76.5 185t195.5 73q120 0 196.5 -72.5t76.5 -185.5q0 -115 -76.5 -187.5t-196.5 -72.5zM692 1772q-41 0 -68.5 -25.5t-27.5 -65.5q0 -41 27 -66.5t69 -25.5q41 0 67.5 25.5t26.5 66.5q0 40 -26.5 65.5t-67.5 25.5z
M963 1423h303v-870q0 -95 -22.5 -181t-69 -159t-113.5 -126.5t-161.5 -83.5t-207.5 -30q-140 0 -251.5 46t-181 126t-106 184t-36.5 224v870h305v-870q0 -132 69.5 -212.5t200.5 -80.5t201 80.5t70 212.5v870z" />
    <glyph glyph-name="uring" unicode="&#x16f;" horiz-adv-x="1224" 
d="M600 1163q-121 0 -197.5 73t-76.5 189q0 113 77 185.5t197 72.5q119 0 194.5 -72.5t75.5 -185.5q0 -117 -75 -189.5t-195 -72.5zM600 1516q-42 0 -69 -26t-27 -65q0 -41 26.5 -67.5t69.5 -26.5q40 0 67 26.5t27 67.5q0 38 -27 64.5t-67 26.5zM813 1079h303v-1079h-285
v102q-126 -129 -315 -129q-199 0 -308.5 121.5t-109.5 313.5v671h303v-633q0 -90 55.5 -146t149.5 -56q93 0 150 55t57 141v639z" />
    <glyph glyph-name="Uhungarumlaut" unicode="&#x170;" horiz-adv-x="1382" 
d="M725 1878l-289 -369l-184 136l264 385zM1204 1878l-289 -369l-186 136l264 385zM963 1423h303v-870q0 -95 -22.5 -181t-69 -159t-113.5 -126.5t-161.5 -83.5t-207.5 -30q-140 0 -251.5 46t-181 126t-106 184t-36.5 224v870h305v-870q0 -132 69.5 -212.5t200.5 -80.5
t201 80.5t70 212.5v870z" />
    <glyph glyph-name="uhungarumlaut" unicode="&#x171;" horiz-adv-x="1224" 
d="M645 1528l-289 -357l-186 136l264 374zM827 1171l-184 136l264 374l209 -153zM813 440v639h303v-1079h-285v102q-126 -129 -315 -129q-199 0 -308.5 121.5t-109.5 313.5v671h303v-633q0 -90 55.5 -146t149.5 -56q93 0 150 55t57 141z" />
    <glyph glyph-name="Uogonek" unicode="&#x172;" horiz-adv-x="1382" 
d="M963 1423h303v-870q0 -185 -83 -328t-241 -207l-76 -73q-48 -50 -66 -81t-18 -63q0 -31 19 -50t49 -19q44 0 72 32l108 -141q-77 -84 -229 -84q-110 0 -178 59t-68 156q0 112 113 219q-135 4 -241.5 51.5t-173 127t-101.5 181.5t-35 220v870h305v-870q0 -132 69.5 -212.5
t200.5 -80.5t201 80.5t70 212.5v870z" />
    <glyph glyph-name="uogonek" unicode="&#x173;" horiz-adv-x="1224" 
d="M1090 -260l106 -141q-34 -39 -94 -61.5t-133 -22.5q-110 0 -178 59t-68 156q0 135 172 270h-64v102q-126 -129 -315 -129q-199 0 -308.5 121.5t-109.5 313.5v671h303v-633q0 -90 55.5 -146t149.5 -56q93 0 150 55t57 141v639h303v-1079l-82 -80q-48 -50 -66 -80.5
t-18 -62.5q0 -31 18.5 -50.5t49.5 -19.5q43 0 72 33z" />
    <glyph glyph-name="Wcircumflex" unicode="&#x174;" horiz-adv-x="1871" 
d="M936 1729l-150 -173h-270l301 371h246l293 -371h-271zM1561 1423h299l-326 -1423h-358l-240 1001l-240 -1001h-354l-328 1423h301l211 -1067l246 1067h330l248 -1071z" />
    <glyph glyph-name="wcircumflex" unicode="&#x175;" horiz-adv-x="1656" 
d="M827 1440l-145 -209h-264l282 397h261l276 -397h-262zM1346 1079h309l-279 -1079h-358l-184 735l-179 -735h-358l-283 1079h310l165 -778l177 778h338l178 -778z" />
    <glyph glyph-name="Ycircumflex" unicode="&#x176;" horiz-adv-x="1331" 
d="M668 1729l-150 -173h-270l301 371h246l292 -371h-270zM1337 1423l-520 -843v-580h-303v580l-520 843h340l332 -581l331 581h340z" />
    <glyph glyph-name="ycircumflex" unicode="&#x177;" horiz-adv-x="1157" 
d="M578 1440l-146 -209h-264l285 397h260l274 -397h-262zM840 1079h313l-397 -1079l-133 -367h-299l145 367h-100l-361 1079h314l243 -837z" />
    <glyph glyph-name="Ydieresis" unicode="&#x178;" horiz-adv-x="1331" 
d="M414 1548q-80 0 -135.5 55t-55.5 140t56 137.5t141 52.5q80 0 135 -55t55 -139q0 -83 -56 -137t-140 -54zM915 1548q-81 0 -136.5 55t-55.5 140t56 137.5t141 52.5q81 0 136.5 -55t55.5 -139q0 -83 -56.5 -137t-140.5 -54zM1337 1423l-520 -843v-580h-303v580l-520 843
h340l332 -581l331 581h340z" />
    <glyph glyph-name="Zacute" unicode="&#x179;" horiz-adv-x="1193" 
d="M954 1710l-606 -180l-67 219l598 209zM1130 272l7 -272h-1078v207l672 950h-657v266h1052v-206l-682 -945h686z" />
    <glyph glyph-name="zacute" unicode="&#x17a;" horiz-adv-x="1011" 
d="M811 1460l-504 -291l-121 195l488 317zM432 244h529v-244h-908v213l516 623h-493v243h864v-223z" />
    <glyph glyph-name="Zdotaccent" unicode="&#x17b;" horiz-adv-x="1193" 
d="M596 1548q-81 0 -138 55t-57 140q0 84 57 136t142 52q81 0 136 -53.5t55 -138.5q0 -83 -55.5 -137t-139.5 -54zM1130 272l7 -272h-1078v207l672 950h-657v266h1052v-206l-682 -945h686z" />
    <glyph glyph-name="zdotaccent" unicode="&#x17c;" horiz-adv-x="1011" 
d="M500 1237q-84 0 -140.5 53t-56.5 137t56.5 139.5t140.5 55.5q85 0 141.5 -55.5t56.5 -139.5t-56 -137t-142 -53zM432 244h529v-244h-908v213l516 623h-493v243h864v-223z" />
    <glyph glyph-name="Zcaron" unicode="&#x17d;" horiz-adv-x="1193" 
d="M723 1556h-246l-301 371h270l150 -174l152 174h268zM1130 272l7 -272h-1078v207l672 950h-657v266h1052v-206l-682 -945h686z" />
    <glyph glyph-name="zcaron" unicode="&#x17e;" horiz-adv-x="1011" 
d="M635 1229h-260l-285 397h264l146 -207l147 207h262zM432 244h529v-244h-908v213l516 623h-493v243h864v-223z" />
    <glyph glyph-name="uni01EA" unicode="&#x1ea;" horiz-adv-x="1622" 
d="M1042 8l-77 -78q-48 -50 -66 -80t-18 -61q0 -32 18.5 -51t48.5 -19q46 0 72 33l108 -141q-36 -39 -95.5 -61.5t-131.5 -22.5q-112 0 -180 59t-68 156q0 116 127 231q-199 8 -362 106t-256.5 264.5t-93.5 367.5q0 207 98 376.5t268.5 266t376.5 96.5t376 -96.5t267.5 -266
t97.5 -376.5q0 -249 -141.5 -441t-368.5 -262zM377 713q0 -199 120.5 -325t313.5 -126t312.5 126t119.5 325q0 197 -118.5 322.5t-313.5 125.5t-314.5 -125.5t-119.5 -322.5z" />
    <glyph glyph-name="uni01EB" unicode="&#x1eb;" horiz-adv-x="1282" 
d="M854 8l-78 -78q-48 -48 -66 -78.5t-18 -62.5t18 -51t48 -19q47 0 73 33l107 -141q-34 -40 -93.5 -62t-133.5 -22q-110 0 -179 59t-69 154q0 119 131 235q-237 15 -387 174t-150 390q0 244 164.5 404.5t419.5 160.5q254 0 419 -160.5t165 -404.5q0 -186 -100.5 -328.5
t-270.5 -202.5zM362 539q0 -130 78 -212.5t203 -82.5q123 0 201 83t78 214q0 130 -77 211.5t-202 81.5q-126 0 -203.5 -82t-77.5 -213z" />
    <glyph glyph-name="AEacute" unicode="&#x1fc;" horiz-adv-x="1941" 
d="M1565 1710l-609 -180l-65 219l598 209zM1208 264h660v-264h-965v293h-479l-139 -293h-318l676 1423h1215v-264h-650v-303h574v-264h-574v-328zM549 553h354v606h-63z" />
    <glyph glyph-name="aeacute" unicode="&#x1fd;" horiz-adv-x="2129" 
d="M1380 1462l-501 -291l-121 195l487 317zM1257 455q23 -113 98 -176.5t183 -63.5q196 0 268 145l248 -106q-136 -281 -459 -281q-262 0 -387 160v-133h-280v119q-124 -146 -332 -146q-153 0 -276 74t-192 203.5t-69 288.5q0 160 69 289t192 202.5t276 73.5q208 0 332 -146
v121h280v-143q123 168 357 168q120 0 218 -46t160.5 -122.5t96 -173t33.5 -199.5q0 -21 -7 -108h-809zM1255 631h545q-19 117 -89 184.5t-181 67.5q-113 0 -184.5 -66.5t-90.5 -185.5zM639 242q124 0 201.5 82.5t77.5 214.5t-77.5 215.5t-201.5 83.5q-121 0 -200 -85
t-79 -214t79 -213t200 -84z" />
    <glyph glyph-name="Oslashacute" unicode="&#x1fe;" horiz-adv-x="1628" 
d="M1171 1710l-606 -180l-67 219l598 209zM1409 1159q147 -192 147 -448q0 -154 -57.5 -291t-156.5 -235t-237 -155t-292 -57q-230 0 -416 121l-145 -151l-178 168l145 151q-147 192 -147 449q0 207 97.5 376.5t267.5 266t376 96.5q233 0 418 -123l147 154l174 -172z
M381 713q0 -126 51 -228l594 627q-96 49 -213 49q-195 0 -313.5 -125.5t-118.5 -322.5zM813 262q193 0 313.5 126t120.5 325q0 119 -49 223l-596 -625q91 -49 211 -49z" />
    <glyph glyph-name="oslashacute" unicode="&#x1ff;" horiz-adv-x="1327" 
d="M977 1460l-502 -291l-123 195l490 317zM1300 948l-133 -117q78 -134 78 -292q0 -159 -74.5 -288.5t-209 -203.5t-302.5 -74q-208 0 -354 109l-135 -117l-143 160l133 115q-82 133 -82 299q0 160 74 289t207 202.5t300 73.5q216 0 365 -115l137 119zM383 539q0 -51 12 -95
l410 355q-62 35 -141 35q-126 0 -203.5 -82t-77.5 -213zM940 541q0 41 -10 86l-404 -351q66 -32 138 -32q123 0 199.5 83t76.5 214z" />
    <glyph glyph-name="uni0218" unicode="&#x218;" horiz-adv-x="1200" 
d="M412 1057q0 -43 24.5 -76t66.5 -55.5t96 -41.5t114 -38.5t119.5 -43t113.5 -58.5t96 -80.5t66.5 -115t24.5 -155.5q0 -188 -146.5 -303t-396.5 -115q-205 0 -349 95.5t-196 269.5l287 111q28 -102 104 -157.5t185 -55.5q97 0 150.5 39t53.5 108q0 45 -24.5 80t-66 58.5
t-95.5 43t-114 39t-119.5 42t-113.5 55.5t-95.5 75.5t-66 107.5t-24.5 146q0 187 133.5 301.5t368.5 114.5q195 0 328.5 -88.5t173.5 -237.5l-287 -110q-51 178 -229 178q-88 0 -135 -36.5t-47 -96.5zM610 -98q65 0 108.5 -42.5t43.5 -109.5q0 -51 -19.5 -99.5t-70.5 -123.5
l-70 -115l-137 51l70 123q9 12 12 25q-41 18 -66.5 56t-25.5 87q0 65 44.5 106.5t110.5 41.5z" />
    <glyph glyph-name="uni0219" unicode="&#x219;" horiz-adv-x="1013" 
d="M385 791q0 -35 32 -59.5t83 -40.5t112.5 -31.5t123 -40t112.5 -59t83 -95t32 -141.5q0 -162 -123.5 -256.5t-331.5 -94.5q-181 0 -304.5 73.5t-168.5 211.5l256 98q22 -72 79.5 -110.5t147.5 -38.5q67 0 105.5 26t38.5 72q0 38 -32 65.5t-82.5 45.5t-112 35.5t-123 42
t-112 57.5t-82.5 90.5t-32 132.5q0 153 116.5 241.5t313.5 88.5q162 0 272 -63t144 -175l-256 -98q-40 111 -164 111q-61 0 -94 -23t-33 -65zM539 -98q65 0 108 -42.5t43 -109.5q0 -51 -19.5 -99.5t-70.5 -123.5l-70 -115l-137 51l70 123q9 12 12 25q-41 18 -66.5 56
t-25.5 87q0 65 45 106.5t111 41.5z" />
    <glyph glyph-name="uni021A" unicode="&#x21a;" horiz-adv-x="1198" 
d="M1171 1423v-270h-419v-1153h-306v1153h-419v270h1144zM600 -98q65 0 108.5 -42.5t43.5 -109.5q0 -51 -19.5 -99.5t-70.5 -123.5l-70 -115l-137 51l71 123l13 25q-43 18 -69 55t-26 88q0 65 45 106.5t111 41.5z" />
    <glyph glyph-name="uni021B" unicode="&#x21b;" horiz-adv-x="825" 
d="M676 264h115v-264h-179q-197 0 -301 108t-104 295v418h-184v258h92q110 0 110 117v168h295v-285h262v-258h-272v-381q0 -86 43 -131t123 -45zM516 -80q65 0 108.5 -42t43.5 -109q0 -51 -19.5 -100t-70.5 -124l-70 -114l-137 51l71 123l13 24q-41 18 -67 56.5t-26 87.5
q0 65 44 106t110 41z" />
    <glyph glyph-name="uni0237" unicode="&#x237;" horiz-adv-x="526" 
d="M-80 -379v260h21q78 0 126 52t48 139v1007h303v-1003q0 -210 -123 -332.5t-315 -122.5h-60z" />
    <glyph glyph-name="circumflex" unicode="&#x2c6;" horiz-adv-x="784" 
d="M881 1231h-263l-147 209l-145 -209h-265l283 397h260z" />
    <glyph glyph-name="caron" unicode="&#x2c7;" horiz-adv-x="917" 
d="M618 1628h263l-277 -397h-260l-283 397h265l145 -207z" />
    <glyph glyph-name="breve" unicode="&#x2d8;" horiz-adv-x="806" 
d="M442 1231q-177 0 -279 108t-102 289h238q0 -84 39 -129t104 -45t104.5 45t39.5 129h237q0 -181 -102.5 -289t-278.5 -108z" />
    <glyph glyph-name="dotaccent" unicode="&#x2d9;" horiz-adv-x="421" 
d="M258 1239q-84 0 -140.5 53.5t-56.5 137.5t56.5 139t140.5 55t141.5 -55t57.5 -139t-57.5 -137.5t-141.5 -53.5z" />
    <glyph glyph-name="ring" unicode="&#x2da;" horiz-adv-x="577" 
d="M334 1163q-119 0 -196 73t-77 189q0 112 77 185t196 73q120 0 196 -72.5t76 -185.5q0 -117 -76 -189.5t-196 -72.5zM334 1331q41 0 68.5 26.5t27.5 67.5q0 38 -27.5 64.5t-68.5 26.5t-68.5 -26.5t-27.5 -64.5q0 -41 27.5 -67.5t68.5 -26.5z" />
    <glyph glyph-name="ogonek" unicode="&#x2db;" horiz-adv-x="598" 
d="M307 -483q-110 0 -178 59t-68 156q0 73 46.5 141t142.5 141l96 70l109 -82l-82 -80q-48 -50 -66 -80.5t-18 -62.5q0 -31 19 -50.5t48 -19.5q43 0 72 33l109 -141q-36 -39 -96 -61.5t-134 -22.5z" />
    <glyph glyph-name="tilde" unicode="&#x2dc;" horiz-adv-x="956" 
d="M629 1257q-43 0 -83 15.5t-64.5 34t-56 34t-60.5 15.5q-36 0 -62 -23t-35 -65l-207 88q12 49 31 90t49 79t75 59.5t101 21.5q43 0 82.5 -16t64 -34.5t56.5 -34.5t62 -16q34 0 59.5 23.5t34.5 64.5l209 -86q-66 -250 -256 -250z" />
    <glyph glyph-name="hungarumlaut" unicode="&#x2dd;" horiz-adv-x="841" 
d="M244 1171l-187 136l265 374l208 -153zM715 1171l-187 136l265 374l211 -153z" />
    <glyph glyph-name="gravecomb" unicode="&#x300;" 
d="M-182 1171l-504 291l137 221l488 -317z" />
    <glyph glyph-name="acutecomb" unicode="&#x301;" 
d="M-565 1171l-121 195l487 317l138 -221z" />
    <glyph glyph-name="uni0302" unicode="&#x302;" 
d="M-61 1231h-263l-147 209l-145 -209h-265l283 397h260z" />
    <glyph glyph-name="tildecomb" unicode="&#x303;" 
d="M-317 1257q-43 0 -83 15.5t-65 34t-56.5 34t-60.5 15.5q-36 0 -61.5 -23t-34.5 -65l-207 88q12 49 31 90t49 79t75 59.5t101 21.5q43 0 82.5 -16t63.5 -34.5t56 -34.5t62 -16q34 0 60 23.5t35 64.5l209 -86q-66 -250 -256 -250z" />
    <glyph glyph-name="uni0304" unicode="&#x304;" 
d="M-743 1311v241h682v-241h-682z" />
    <glyph glyph-name="uni0306" unicode="&#x306;" 
d="M-410 1231q-177 0 -279 108t-102 289h238q0 -84 39 -129t104 -45t104.5 45t39.5 129h237q0 -181 -102.5 -289t-278.5 -108z" />
    <glyph glyph-name="uni0307" unicode="&#x307;" 
d="M-260 1239q-84 0 -140.5 53.5t-56.5 137.5t56.5 139t140.5 55t141.5 -55t57.5 -139t-57.5 -137.5t-141.5 -53.5z" />
    <glyph glyph-name="uni0308" unicode="&#x308;" 
d="M-737 1243q-77 0 -132 54t-55 137q0 80 56 131t137 51q77 0 130.5 -54t53.5 -135q0 -79 -55 -131.5t-135 -52.5zM-254 1243q-77 0 -131.5 54t-54.5 137q0 80 55.5 131t136.5 51q78 0 132.5 -54t54.5 -135q0 -79 -55.5 -131.5t-137.5 -52.5z" />
    <glyph glyph-name="uni030A" unicode="&#x30a;" 
d="M-334 1163q-119 0 -195.5 73t-76.5 189q0 112 76.5 185t195.5 73q120 0 196.5 -72.5t76.5 -185.5q0 -117 -76.5 -189.5t-196.5 -72.5zM-334 1331q41 0 68.5 26.5t27.5 67.5q0 38 -27.5 64.5t-68.5 26.5t-68.5 -26.5t-27.5 -64.5q0 -41 27.5 -67.5t68.5 -26.5z" />
    <glyph glyph-name="uni030B" unicode="&#x30b;" 
d="M-821 1171l-187 136l265 374l208 -153zM-350 1171l-187 136l265 374l211 -153z" />
    <glyph glyph-name="uni030C" unicode="&#x30c;" 
d="M-324 1628h263l-277 -397h-260l-283 397h265l145 -207z" />
    <glyph glyph-name="uni0326" unicode="&#x326;" 
d="M-209 -98q65 0 108.5 -42.5t43.5 -109.5q0 -50 -20 -98.5t-70 -124.5l-70 -115l-139 51l71 123l13 25q-41 18 -67 56t-26 87q0 65 44.5 106.5t111.5 41.5z" />
    <glyph glyph-name="uni0327" unicode="&#x327;" 
d="M-330 -496q-81 0 -148 28t-104 71l101 123q45 -56 110 -56q42 0 67 22.5t25 55.5q0 35 -26 59.5t-70 24.5h-33l-14 14l68 189h182l-47 -123q68 -8 113 -61.5t45 -129.5q0 -97 -74.5 -157t-194.5 -60z" />
    <glyph glyph-name="uni0328" unicode="&#x328;" 
d="M-291 -483q-110 0 -178 59t-68 156q0 73 46.5 141t142.5 141l96 70l109 -82l-82 -80q-48 -50 -66 -80.5t-18 -62.5q0 -31 19 -50.5t48 -19.5q43 0 72 33l109 -141q-36 -39 -96 -61.5t-134 -22.5z" />
    <glyph glyph-name="uni0335" unicode="&#x335;" 
d="M-797 467v211h736v-211h-736z" />
    <glyph glyph-name="uni0336" unicode="&#x336;" 
d="M-1468 545v237h1407v-237h-1407z" />
    <glyph glyph-name="uni0337" unicode="&#x337;" 
d="M-735 348l-113 193l651 362l113 -190z" />
    <glyph glyph-name="uni0338" unicode="&#x338;" 
d="M-1192 -14l-143 159l1134 983l140 -159z" />
    <glyph glyph-name="Wgrave" unicode="&#x1e80;" horiz-adv-x="1871" 
d="M1274 1749l-68 -219l-608 180l76 248zM1561 1423h299l-326 -1423h-358l-240 1001l-240 -1001h-354l-328 1423h301l211 -1067l246 1067h330l248 -1071z" />
    <glyph glyph-name="wgrave" unicode="&#x1e81;" horiz-adv-x="1656" 
d="M1120 1366l-121 -195l-503 291l137 221zM1346 1079h309l-279 -1079h-358l-184 735l-179 -735h-358l-283 1079h310l165 -778l177 778h338l178 -778z" />
    <glyph glyph-name="Wacute" unicode="&#x1e82;" horiz-adv-x="1871" 
d="M1294 1710l-608 -180l-68 219l601 209zM1561 1423h299l-326 -1423h-358l-240 1001l-240 -1001h-354l-328 1423h301l211 -1067l246 1067h330l248 -1071z" />
    <glyph glyph-name="wacute" unicode="&#x1e83;" horiz-adv-x="1656" 
d="M1137 1462l-502 -291l-121 195l487 317zM1346 1079h309l-279 -1079h-358l-184 735l-179 -735h-358l-283 1079h310l165 -778l177 778h338l178 -778z" />
    <glyph glyph-name="Wdieresis" unicode="&#x1e84;" horiz-adv-x="1871" 
d="M682 1548q-80 0 -136.5 55t-56.5 140t57 137.5t142 52.5q80 0 135.5 -55t55.5 -139q0 -83 -56.5 -137t-140.5 -54zM1184 1548q-81 0 -138 55t-57 140t57 137.5t142 52.5q81 0 136.5 -55t55.5 -139q0 -83 -56 -137t-140 -54zM1561 1423h299l-326 -1423h-358l-240 1001
l-240 -1001h-354l-328 1423h301l211 -1067l246 1067h330l248 -1071z" />
    <glyph glyph-name="wdieresis" unicode="&#x1e85;" horiz-adv-x="1656" 
d="M582 1243q-77 0 -132 54t-55 137q0 80 56 131t137 51q78 0 131 -54t53 -135q0 -79 -55 -131.5t-135 -52.5zM1067 1243q-78 0 -133 54t-55 137q0 80 55.5 131t136.5 51q79 0 132.5 -54t53.5 -135q0 -79 -55 -131.5t-135 -52.5zM1346 1079h309l-279 -1079h-358l-184 735
l-179 -735h-358l-283 1079h310l165 -778l177 778h338l178 -778z" />
    <glyph glyph-name="uni1E9E" unicode="&#x1e9e;" horiz-adv-x="1335" 
d="M961 770q142 -34 225.5 -136.5t83.5 -250.5q0 -186 -125.5 -293.5t-339.5 -107.5q-221 0 -297 120l92 222q27 -46 72.5 -72.5t101.5 -26.5q90 0 140.5 50t50.5 137q0 88 -60 139t-164 51h-71v172l235 320q-75 88 -223 88q-123 0 -191.5 -66.5t-68.5 -181.5v-934h-303v932
q0 234 154 373t405 139q213 0 347.5 -87.5t195.5 -244.5z" />
    <glyph glyph-name="Ygrave" unicode="&#x1ef2;" horiz-adv-x="1331" 
d="M1006 1749l-68 -219l-606 180l74 248zM1337 1423l-520 -843v-580h-303v580l-520 843h340l332 -581l331 581h340z" />
    <glyph glyph-name="ygrave" unicode="&#x1ef3;" horiz-adv-x="1157" 
d="M872 1366l-122 -195l-502 291l135 221zM840 1079h313l-397 -1079l-133 -367h-299l145 367h-100l-361 1079h314l243 -837z" />
    <glyph glyph-name="uni1EF8" unicode="&#x1ef8;" horiz-adv-x="1331" 
d="M563 1653q-81 0 -100 -88l-209 88q12 46 34 88t55.5 79.5t83 60t108.5 22.5q46 0 87.5 -16t66.5 -34.5t56.5 -34.5t61.5 -16q36 0 61.5 23t36.5 65l207 -86q-26 -106 -96.5 -178t-181.5 -72q-47 0 -88 15.5t-65.5 34t-56 34t-61.5 15.5zM1337 1423l-520 -843v-580h-303
v580l-520 843h340l332 -581l331 581h340z" />
    <glyph glyph-name="uni1EF9" unicode="&#x1ef9;" horiz-adv-x="1157" 
d="M471 1356q-37 0 -63 -23t-35 -65l-207 88q26 105 88.5 177.5t167.5 72.5q43 0 82.5 -16t64 -34.5t56.5 -34.5t63 -16q34 0 58.5 23.5t35.5 64.5l207 -86q-62 -250 -254 -250q-44 0 -84 15.5t-65 34t-56 34t-59 15.5zM840 1079h313l-397 -1079l-133 -367h-299l145 367
h-100l-361 1079h314l243 -837z" />
    <glyph glyph-name="endash" unicode="&#x2013;" horiz-adv-x="1040" 
d="M104 381v246h832v-246h-832z" />
    <glyph glyph-name="emdash" unicode="&#x2014;" horiz-adv-x="1550" 
d="M104 381v246h1340v-246h-1340z" />
    <glyph glyph-name="quoteleft" unicode="&#x2018;" horiz-adv-x="458" 
d="M262 1196q60 -9 96.5 -51t36.5 -109q0 -73 -49.5 -121.5t-120.5 -48.5q-70 0 -119 49.5t-49 124.5q0 79 45 172l117 252h168z" />
    <glyph glyph-name="quoteright" unicode="&#x2019;" horiz-adv-x="462" 
d="M244 1479q72 0 121 -49.5t49 -124.5q0 -77 -45 -172l-117 -252h-168l125 268q-60 11 -96.5 52.5t-36.5 107.5q0 73 49 121.5t119 48.5z" />
    <glyph glyph-name="quotesinglbase" unicode="&#x201a;" horiz-adv-x="468" 
d="M233 309q71 0 120.5 -49.5t49.5 -124.5q0 -70 -45 -172l-116 -252h-170l125 269q-61 11 -97.5 52.5t-36.5 106.5q0 73 49.5 121.5t120.5 48.5z" />
    <glyph glyph-name="quotedblleft" unicode="&#x201c;" horiz-adv-x="864" 
d="M262 1196q60 -9 96.5 -51t36.5 -109q0 -73 -49.5 -121.5t-120.5 -48.5q-70 0 -119 49.5t-49 124.5q0 79 45 172l117 252h168zM668 1196q60 -9 96.5 -51t36.5 -109q0 -73 -49.5 -121.5t-120.5 -48.5q-70 0 -120 49.5t-50 124.5q0 73 45 172l117 252h170z" />
    <glyph glyph-name="quotedblright" unicode="&#x201d;" horiz-adv-x="868" 
d="M244 1479q72 0 121 -49.5t49 -124.5q0 -77 -45 -172l-117 -252h-168l125 268q-60 11 -96.5 52.5t-36.5 107.5q0 73 49 121.5t119 48.5zM649 1479q71 0 120.5 -49.5t49.5 -124.5q0 -70 -45 -172l-117 -252h-170l125 268q-59 9 -96 51t-37 109q0 72 50 121t120 49z" />
    <glyph glyph-name="quotedblbase" unicode="&#x201e;" horiz-adv-x="874" 
d="M233 309q71 0 120.5 -49.5t49.5 -124.5q0 -70 -45 -172l-116 -252h-170l125 269q-61 11 -97.5 52.5t-36.5 106.5q0 73 49.5 121.5t120.5 48.5zM639 309q70 0 120 -49.5t50 -124.5q0 -70 -45 -172l-119 -252h-168l125 269q-60 11 -96.5 52t-36.5 107q0 73 49.5 121.5
t120.5 48.5z" />
    <glyph glyph-name="dagger" unicode="&#x2020;" horiz-adv-x="778" 
d="M702 1264v-209h-202v-486h-226v486h-198v209h198v233h226v-233h202z" />
    <glyph glyph-name="daggerdbl" unicode="&#x2021;" horiz-adv-x="827" 
d="M727 1126h-201v-186h201v-209h-201v-162h-225v162h-201v209h201v186h-201v209h201v162h225v-162h201v-209z" />
    <glyph glyph-name="bullet" unicode="&#x2022;" horiz-adv-x="802" 
d="M401 414q-119 0 -199.5 79.5t-80.5 198.5q0 122 80.5 203.5t199.5 81.5q121 0 202 -81.5t81 -203.5q0 -120 -81 -199t-202 -79z" />
    <glyph glyph-name="ellipsis" unicode="&#x2026;" horiz-adv-x="1341" 
d="M238 -20q-72 0 -121 48t-49 119q0 75 49 125t121 50t121 -50t49 -125q0 -71 -49 -119t-121 -48zM672 -20q-72 0 -121 48t-49 119q0 75 49 125t121 50t121 -50t49 -125q0 -71 -49 -119t-121 -48zM1104 -20q-71 0 -119.5 48.5t-48.5 118.5q0 75 48.5 125t119.5 50
q74 0 123 -50t49 -125q0 -71 -49.5 -119t-122.5 -48z" />
    <glyph glyph-name="perthousand" unicode="&#x2030;" horiz-adv-x="2228" 
d="M379 776q-141 0 -235.5 96.5t-94.5 235.5t94.5 235.5t235.5 96.5q143 0 236.5 -96t93.5 -236t-93.5 -236t-236.5 -96zM246 0l809 1423l235 2l-813 -1423zM379 965q58 0 96.5 40.5t38.5 102.5q0 61 -38 102t-97 41t-97 -41t-38 -102q0 -62 38.5 -102.5t96.5 -40.5z
M1153 -16q-141 0 -235.5 96t-94.5 235t94.5 235.5t235.5 96.5q143 0 236.5 -96t93.5 -236t-93.5 -235.5t-236.5 -95.5zM1853 -16q-141 0 -235 96t-94 235t94 235.5t235 96.5q143 0 236.5 -96t93.5 -236t-93.5 -235.5t-236.5 -95.5zM1153 172q58 0 96.5 40.5t38.5 102.5
q0 61 -38 102.5t-97 41.5q-58 0 -96.5 -41.5t-38.5 -102.5q0 -62 38.5 -102.5t96.5 -40.5zM1853 172q58 0 97 40.5t39 102.5q0 61 -38.5 102.5t-97.5 41.5t-97 -41.5t-38 -102.5q0 -62 38.5 -102.5t96.5 -40.5z" />
    <glyph glyph-name="guilsinglleft" unicode="&#x2039;" horiz-adv-x="655" 
d="M289 147l-238 353l238 350h280l-235 -350l235 -353h-280z" />
    <glyph glyph-name="guilsinglright" unicode="&#x203a;" horiz-adv-x="655" 
d="M86 147l236 353l-236 350h281l237 -350l-237 -353h-281z" />
    <glyph glyph-name="fraction" unicode="&#x2044;" horiz-adv-x="851" 
d="M-33 0l703 1423h221l-705 -1423h-219z" />
    <glyph glyph-name="uni2074" unicode="&#x2074;" horiz-adv-x="684" 
d="M616 983v-137h-65v-135h-191v135h-313v141l315 436h189v-440h65zM362 983v229l-165 -229h165z" />
    <glyph glyph-name="Euro" unicode="&#x20ac;" horiz-adv-x="1548" 
d="M903 262q118 0 201.5 47t126.5 135l260 -174q-84 -132 -233.5 -214.5t-350.5 -82.5q-240 0 -423.5 126.5t-254.5 338.5h-178l19 195h123q-3 21 -3 45q0 22 3 43h-109l18 197h127q71 212 254.5 338t425.5 126q199 0 347.5 -81.5t234.5 -213.5l-260 -174q-95 181 -330 181
q-110 0 -197.5 -46t-140.5 -130h377l-18 -197h-420q-2 -14 -2 -43q0 -31 2 -45h405l-18 -195h-326q54 -84 142.5 -130t197.5 -46z" />
    <glyph glyph-name="trademark" unicode="&#x2122;" horiz-adv-x="1345" 
d="M530 1362v-141h-159v-428h-158v428h-162v141h479zM1245 793h-147l-27 325l-92 -309h-131l-94 313l-25 -329h-147l43 569h186l102 -344l103 344h184z" />
    <glyph glyph-name="minus" unicode="&#x2212;" horiz-adv-x="1089" 
d="M113 543v256h864v-256h-864z" />
    <glyph glyph-name="approxequal" unicode="&#x2248;" horiz-adv-x="1099" 
d="M743 690q-56 0 -106.5 16.5t-81.5 37t-73 37t-85 16.5q-114 0 -164 -78l-143 164q46 78 115.5 119.5t152.5 41.5q56 0 106.5 -17t81.5 -37t73.5 -37t85.5 -17q112 0 163 80l144 -164q-45 -78 -116 -120t-153 -42zM743 225q-56 0 -106.5 17t-81.5 37.5t-74 37.5t-86 17
q-113 0 -164 -80l-143 164q46 78 116.5 120t153.5 42q56 0 106.5 -16.5t81.5 -37t73.5 -37t85.5 -16.5q113 0 163 78l144 -164q-45 -78 -116 -120t-153 -42z" />
    <glyph glyph-name="notequal" unicode="&#x2260;" horiz-adv-x="1091" 
d="M977 745h-258l-70 -221h328v-254h-410l-61 -196h-281l62 196h-172v254h254l69 221h-323v256h403l62 193h280l-61 -193h178v-256z" />
    <glyph glyph-name="uniF8FF" unicode="&#xf8ff;" horiz-adv-x="4724" 
d="M1149 408q-95 0 -136.5 40t-41.5 130v466h203q0 -62 -40 -122t-98 -86l2 -9q58 35 119 35h105v-162h-86v-98q0 -35 36 -35q28 0 50 15v-154q-36 -20 -113 -20zM1303 418v626h200q0 -67 -47 -122t-115 -70l5 -6q84 16 143 16h16v-444h-202zM2808 408q-95 0 -137.5 40.5
t-42.5 129.5v466h202q0 -62 -39 -122t-98 -86l4 -9q58 35 119 35h102v-162h-86v-98q0 -35 37 -35q27 0 49 15v-154q-36 -20 -110 -20zM205 418v624h203v-624h-203zM584 408q-66 0 -105 34t-39 90q0 60 41 98t111 38q92 0 135 -43h4v71q0 24 -12 38t-35 14q-47 0 -47 -60
l-184 29q37 160 249 160q110 0 172 -50t62 -135v-274h-201v45h-6q-14 -20 -51.5 -37.5t-93.5 -17.5zM1548 418v444h199v-133h6q17 143 145 143q70 0 110 -46t40 -134v-274h-205v264q0 55 -39 55q-22 0 -32 -13t-21 -52v-254h-203zM2337 408q-123 0 -190.5 63.5t-67.5 167.5
t69 168.5t189 64.5q122 0 190 -64.5t68 -168.5q0 -103 -67.5 -167t-190.5 -64zM3463 270v592h203v-133h6q21 143 150 143q170 0 170 -233q0 -115 -51.5 -173t-125.5 -58q-105 0 -141 88h-6v-226h-205zM4274 408q-120 0 -187 63.5t-67 167.5q0 103 70 168t190 65
q107 0 173.5 -64.5t66.5 -158.5v-18h-307q0 -39 18.5 -66.5t50.5 -27.5q55 0 62 69l168 -16q-18 -95 -83 -138.5t-155 -43.5zM3015 262v135h133q115 0 137 25l-2 6h-139q-83 0 -107 80l-110 354h204q6 -37 20 -110t24 -134t14 -110h4q13 125 61 354h203l-145 -424
q-63 -176 -217 -176h-80zM4213 655h12q62 0 87.5 12t25.5 38q0 45 -49 45q-34 0 -55 -26t-21 -69zM3738 506q31 0 46 27.5t15 89.5q0 66 -12 95.5t-43 29.5q-46 0 -62 -68v-148q21 -26 56 -26zM2337 535q59 0 59 104q0 106 -59 106q-58 0 -58 -106q0 -104 58 -104zM686 469
q30 0 45 23v104q-10 16 -39 16q-25 0 -40 -19t-15 -52q0 -72 49 -72z" />
    <glyph glyph-name="uni00A40301" horiz-adv-x="710" 
d="M190 1530l-67 219l600 209l74 -248zM43 0v270h82q79 0 120.5 45t41.5 129v979h305v-983q0 -206 -113.5 -323t-328.5 -117h-107z" />
    <glyph glyph-name="Q.ss01" horiz-adv-x="1619" 
d="M1356 270h211v-270h-756q-160 0 -298.5 53.5t-236 147.5t-153 227t-55.5 287q0 205 98 373.5t268.5 265t376.5 96.5q205 0 373.5 -94.5t264 -258t95.5 -360.5q0 -285 -188 -467zM807 268q190 0 309 125.5t119 321.5q0 195 -118 320.5t-310 125.5t-311 -125.5t-119 -320.5
q0 -196 120 -321.5t310 -125.5z" />
    <glyph glyph-name="i.loclTRK" horiz-adv-x="520" 
d="M262 1237q-84 0 -141.5 54.5t-57.5 138.5q0 83 57.5 137.5t141.5 54.5t140.5 -54.5t56.5 -137.5q0 -84 -56.5 -138.5t-140.5 -54.5zM109 0v1079h303v-1079h-303z" />
    <glyph glyph-name="uni006A0301" horiz-adv-x="526" 
d="M80 1171l-121 195l487 315l136 -221zM-80 -379v260h21q78 0 126 52t48 139v1007h303v-1003q0 -210 -123 -332.5t-315 -122.5h-60z" />
    <glyph glyph-name="g.ss01" horiz-adv-x="1191" 
d="M1155 1079v-258h-160q29 -82 29 -170q0 -202 -131 -327q201 -100 201 -326q0 -169 -147.5 -280t-391.5 -111q-431 0 -549 311l275 107q63 -168 266 -168q115 0 176 47t61 123q0 77 -61.5 124.5t-175.5 47.5q-220 0 -356 126t-136 326q0 198 136.5 326.5t355.5 128.5
q89 0 178 -27h430zM340 651q0 -88 58.5 -146.5t148.5 -58.5t148.5 58.5t58.5 146.5q0 90 -57.5 147.5t-149.5 57.5t-149.5 -57.5t-57.5 -147.5z" />
    <glyph glyph-name="gbreve.ss01" horiz-adv-x="1191" 
d="M567 1231q-177 0 -279 108t-102 289h238q0 -84 39 -129t104 -45q64 0 104 45.5t40 128.5h237q0 -181 -102.5 -289t-278.5 -108zM1155 1079v-258h-160q29 -82 29 -170q0 -202 -131 -327q201 -100 201 -326q0 -169 -147.5 -280t-391.5 -111q-431 0 -549 311l275 107
q63 -168 266 -168q115 0 176 47t61 123q0 77 -61.5 124.5t-175.5 47.5q-220 0 -356 126t-136 326q0 198 136.5 326.5t355.5 128.5q89 0 178 -27h430zM340 651q0 -88 58.5 -146.5t148.5 -58.5t148.5 58.5t58.5 146.5q0 90 -57.5 147.5t-149.5 57.5t-149.5 -57.5t-57.5 -147.5
z" />
    <glyph glyph-name="uni0123.ss01" horiz-adv-x="1191" 
d="M582 1212q-65 0 -108.5 42.5t-43.5 109.5q0 51 19.5 99.5t70.5 123.5l70 115l137 -51l-70 -123q-9 -12 -12 -25q41 -18 66.5 -56t25.5 -87q0 -65 -44.5 -106.5t-110.5 -41.5zM1155 1079v-258h-160q29 -82 29 -170q0 -202 -131 -327q201 -100 201 -326q0 -169 -147.5 -280
t-391.5 -111q-431 0 -549 311l275 107q63 -168 266 -168q115 0 176 47t61 123q0 77 -61.5 124.5t-175.5 47.5q-220 0 -356 126t-136 326q0 198 136.5 326.5t355.5 128.5q89 0 178 -27h430zM340 651q0 -88 58.5 -146.5t148.5 -58.5t148.5 58.5t58.5 146.5q0 90 -57.5 147.5
t-149.5 57.5t-149.5 -57.5t-57.5 -147.5z" />
    <glyph glyph-name="gdotaccent.ss01" horiz-adv-x="1191" 
d="M567 1239q-84 0 -141 53.5t-57 137.5t57 139t141 55t140.5 -55t56.5 -139t-56.5 -137.5t-140.5 -53.5zM1155 1079v-258h-160q29 -82 29 -170q0 -202 -131 -327q201 -100 201 -326q0 -169 -147.5 -280t-391.5 -111q-431 0 -549 311l275 107q63 -168 266 -168q115 0 176 47
t61 123q0 77 -61.5 124.5t-175.5 47.5q-220 0 -356 126t-136 326q0 198 136.5 326.5t355.5 128.5q89 0 178 -27h430zM340 651q0 -88 58.5 -146.5t148.5 -58.5t148.5 58.5t58.5 146.5q0 90 -57.5 147.5t-149.5 57.5t-149.5 -57.5t-57.5 -147.5z" />
    <glyph glyph-name="t.ss01" horiz-adv-x="804" 
d="M250 0v821h-230v258h138q110 0 110 117v168h295v-285h217v-258h-227v-821h-303z" />
    <glyph glyph-name="tbar.ss01" horiz-adv-x="872" 
d="M817 821h-227v-188h213v-209h-213v-424h-303v424h-219v209h219v188h-230v258h138q110 0 110 117v168h295v-285h217v-258z" />
    <glyph glyph-name="tcaron.ss01" horiz-adv-x="804" 
d="M678 1128l41 514h215l-60 -514h-196zM250 0v821h-230v258h138q110 0 110 117v168h295v-285h217v-258h-227v-821h-303z" />
    <glyph glyph-name="uni0163.ss01" horiz-adv-x="804" 
d="M553 0h-57l-39 -100q68 -8 112.5 -61.5t44.5 -129.5q0 -95 -74 -155t-194 -60q-81 0 -148 27t-104 69l101 123q44 -55 110 -55q42 0 67 22.5t25 57.5t-26 58.5t-70 23.5h-33l-16 14l61 166h-63v821h-230v258h138q110 0 110 117v168h295v-285h217v-258h-227v-821z" />
    <glyph glyph-name="uni021B.ss01" horiz-adv-x="804" 
d="M563 1079h217v-258h-227v-821h-303v821h-230v258h138q110 0 110 117v168h295v-285zM408 -111q66 0 108.5 -41.5t42.5 -109.5q0 -51 -19.5 -99.5t-70.5 -123.5l-70 -115l-137 51l72 123l12 25q-42 18 -68 55.5t-26 87.5q0 65 45 106t111 41z" />
    <glyph glyph-name="u.ss01" horiz-adv-x="1210" 
d="M606 -27q-242 0 -376 131t-134 359v616h301v-628q0 -94 56.5 -150.5t152.5 -56.5t151.5 56.5t55.5 150.5v628h303v-616q0 -228 -134.5 -359t-375.5 -131z" />
    <glyph glyph-name="uacute.ss01" horiz-adv-x="1210" 
d="M412 1171l-121 195l487 317l137 -221zM606 -27q-242 0 -376 131t-134 359v616h301v-628q0 -94 56.5 -150.5t152.5 -56.5t151.5 56.5t55.5 150.5v628h303v-616q0 -228 -134.5 -359t-375.5 -131z" />
    <glyph glyph-name="ucircumflex.ss01" horiz-adv-x="1210" 
d="M604 1440l-145 -209h-264l284 397h260l275 -397h-262zM813 1079h303v-616q0 -228 -134.5 -359t-375.5 -131q-242 0 -376 131t-134 359v616h301v-628q0 -94 56.5 -150.5t152.5 -56.5t151.5 56.5t55.5 150.5v628z" />
    <glyph glyph-name="udieresis.ss01" horiz-adv-x="1210" 
d="M360 1243q-77 0 -131.5 54t-54.5 137q0 80 56 131t137 51q77 0 130.5 -54t53.5 -135q0 -79 -55.5 -131.5t-135.5 -52.5zM844 1243q-78 0 -132.5 54t-54.5 137q0 80 55 131t136 51q79 0 132.5 -54t53.5 -135q0 -79 -55 -131.5t-135 -52.5zM606 -27q-242 0 -376 131
t-134 359v616h301v-628q0 -94 56.5 -150.5t152.5 -56.5t151.5 56.5t55.5 150.5v628h303v-616q0 -228 -134.5 -359t-375.5 -131z" />
    <glyph glyph-name="ugrave.ss01" horiz-adv-x="1210" 
d="M776 1171l-502 291l136 221l489 -317zM606 -27q-242 0 -376 131t-134 359v616h301v-628q0 -94 56.5 -150.5t152.5 -56.5t151.5 56.5t55.5 150.5v628h303v-616q0 -228 -134.5 -359t-375.5 -131z" />
    <glyph glyph-name="uhungarumlaut.ss01" horiz-adv-x="1210" 
d="M362 1171l-186 136l264 374l211 -153zM834 1171l-185 136l264 374l209 -153zM606 -27q-242 0 -376 131t-134 359v616h301v-628q0 -94 56.5 -150.5t152.5 -56.5t151.5 56.5t55.5 150.5v628h303v-616q0 -228 -134.5 -359t-375.5 -131z" />
    <glyph glyph-name="umacron.ss01" horiz-adv-x="1210" 
d="M262 1311v241h684v-241h-684zM606 -27q-242 0 -376 131t-134 359v616h301v-628q0 -94 56.5 -150.5t152.5 -56.5t151.5 56.5t55.5 150.5v628h303v-616q0 -228 -134.5 -359t-375.5 -131z" />
    <glyph glyph-name="uogonek.ss01" horiz-adv-x="1210" 
d="M813 1079h303v-616q0 -179 -84 -300t-239 -165l-80 -78q-48 -50 -66 -80.5t-18 -62.5q0 -31 19 -50.5t48 -19.5q43 0 72 33l109 -141q-36 -39 -96 -61.5t-132 -22.5q-112 0 -180 59t-68 156q0 119 144 245q-214 17 -331.5 146t-117.5 342v616h301v-628q0 -94 56.5 -150.5
t152.5 -56.5t151.5 56.5t55.5 150.5v628z" />
    <glyph glyph-name="uring.ss01" horiz-adv-x="1210" 
d="M606 1163q-121 0 -197.5 73t-76.5 189q0 113 77 185.5t197 72.5t195.5 -72.5t75.5 -185.5q0 -117 -75.5 -189.5t-195.5 -72.5zM606 1331q40 0 67 26.5t27 67.5q0 38 -27 64.5t-67 26.5q-42 0 -69 -26t-27 -65q0 -41 26.5 -67.5t69.5 -26.5zM606 -27q-242 0 -376 131
t-134 359v616h301v-628q0 -94 56.5 -150.5t152.5 -56.5t151.5 56.5t55.5 150.5v628h303v-616q0 -228 -134.5 -359t-375.5 -131z" />
    <glyph glyph-name="utilde.ss01" horiz-adv-x="1210" 
d="M760 1257q-43 0 -83 15.5t-64.5 34t-55.5 34t-59 15.5q-37 0 -63.5 -23t-35.5 -65l-206 88q12 49 31 90t49 79t75 59.5t101 21.5q43 0 82.5 -16t63.5 -34.5t56 -34.5t62 -16q35 0 60 23.5t36 64.5l207 -86q-66 -250 -256 -250zM606 -27q-242 0 -376 131t-134 359v616h301
v-628q0 -94 56.5 -150.5t152.5 -56.5t151.5 56.5t55.5 150.5v628h303v-616q0 -228 -134.5 -359t-375.5 -131z" />
    <glyph glyph-name="y.ss01" horiz-adv-x="1220" 
d="M811 1079h303v-981q0 -231 -134 -360t-382 -129q-182 0 -305 75.5t-184 209.5l253 96q64 -150 236 -150q111 0 171 60.5t60 173.5v92q-126 -129 -315 -129q-199 0 -308.5 120.5t-109.5 313.5v608h301v-569q0 -90 56.5 -146.5t150.5 -56.5q89 0 148 54.5t59 142.5v575z
" />
    <glyph glyph-name="yacute.ss01" horiz-adv-x="1220" 
d="M922 1462l-502 -291l-123 195l489 317zM811 1079h303v-981q0 -231 -134 -360t-382 -129q-182 0 -305 75.5t-184 209.5l253 96q64 -150 236 -150q111 0 171 60.5t60 173.5v92q-126 -129 -315 -129q-199 0 -308.5 120.5t-109.5 313.5v608h301v-569q0 -90 56.5 -146.5
t150.5 -56.5q89 0 148 54.5t59 142.5v575z" />
    <glyph glyph-name="ycircumflex.ss01" horiz-adv-x="1220" 
d="M610 1440l-145 -209h-262l282 397h260l275 -397h-262zM811 1079h303v-981q0 -231 -134 -360t-382 -129q-182 0 -305 75.5t-184 209.5l253 96q64 -150 236 -150q111 0 171 60.5t60 173.5v92q-126 -129 -315 -129q-199 0 -308.5 120.5t-109.5 313.5v608h301v-569
q0 -90 56.5 -146.5t150.5 -56.5q89 0 148 54.5t59 142.5v575z" />
    <glyph glyph-name="ydieresis.ss01" horiz-adv-x="1220" 
d="M367 1243q-77 0 -132 54t-55 137q0 80 56 131t137 51q77 0 130.5 -54t53.5 -135q0 -79 -55 -131.5t-135 -52.5zM850 1243q-77 0 -131.5 54t-54.5 137q0 80 55 131t135 51q79 0 133.5 -54t54.5 -135q0 -79 -56 -131.5t-136 -52.5zM811 1079h303v-981q0 -231 -134 -360
t-382 -129q-182 0 -305 75.5t-184 209.5l253 96q64 -150 236 -150q111 0 171 60.5t60 173.5v92q-126 -129 -315 -129q-199 0 -308.5 120.5t-109.5 313.5v608h301v-569q0 -90 56.5 -146.5t150.5 -56.5q89 0 148 54.5t59 142.5v575z" />
    <glyph glyph-name="ygrave.ss01" horiz-adv-x="1220" 
d="M905 1366l-123 -195l-501 291l135 221zM811 1079h303v-981q0 -231 -134 -360t-382 -129q-182 0 -305 75.5t-184 209.5l253 96q64 -150 236 -150q111 0 171 60.5t60 173.5v92q-126 -129 -315 -129q-199 0 -308.5 120.5t-109.5 313.5v608h301v-569q0 -90 56.5 -146.5
t150.5 -56.5q89 0 148 54.5t59 142.5v575z" />
    <glyph glyph-name="uni1EF9.ss01" horiz-adv-x="1220" 
d="M504 1356q-37 0 -63 -23t-35 -65l-207 88q26 105 88.5 177.5t167.5 72.5q43 0 82.5 -16t64 -34.5t56.5 -34.5t63 -16q34 0 58.5 23.5t35.5 64.5l207 -86q-62 -250 -254 -250q-44 0 -84 15.5t-65 34t-56 34t-59 15.5zM811 1079h303v-981q0 -231 -134 -360t-382 -129
q-182 0 -305 75.5t-184 209.5l253 96q64 -150 236 -150q111 0 171 60.5t60 173.5v92q-126 -129 -315 -129q-199 0 -308.5 120.5t-109.5 313.5v608h301v-569q0 -90 56.5 -146.5t150.5 -56.5q89 0 148 54.5t59 142.5v575z" />
    <glyph glyph-name="zero.osf" horiz-adv-x="1325" 
d="M662 -25q-254 0 -421 158.5t-167 409.5q0 169 77 297.5t210 196t301 67.5q258 0 423.5 -153t165.5 -408q0 -166 -77 -296t-211 -201t-301 -71zM662 244q124 0 206 80.5t82 216.5q0 133 -82.5 213t-205.5 80q-124 0 -206.5 -79.5t-82.5 -213.5q0 -136 82.5 -216.5
t206.5 -80.5z" />
    <glyph glyph-name="one.osf" horiz-adv-x="923" 
d="M664 258h219v-258h-793v258h270v563h-280v258h584v-821z" />
    <glyph glyph-name="two.osf" horiz-adv-x="1134" 
d="M586 240h487v-240h-1005v193q239 112 376 202t185.5 155.5t48.5 135.5q0 69 -41.5 109.5t-114.5 40.5q-68 0 -115.5 -35t-66.5 -99l-274 91q37 137 169.5 224t309.5 87q202 0 320 -99t118 -270q0 -143 -92.5 -261t-304.5 -234z" />
    <glyph glyph-name="three.osf" horiz-adv-x="1130" 
d="M682 539q166 -12 274.5 -125.5t108.5 -278.5q0 -189 -144 -313.5t-376 -124.5q-193 0 -333.5 89.5t-182.5 231.5l276 111q25 -73 89.5 -117.5t152.5 -44.5q97 0 156 54t59 137q0 84 -57.5 134t-149.5 50h-229v199l303 280h-531v258h893v-237z" />
    <glyph glyph-name="four.osf" horiz-adv-x="1167" 
d="M1112 252v-223h-137v-271h-303v271h-623v223l627 827h299v-827h137zM676 252v453l-340 -453h340z" />
    <glyph glyph-name="five.osf" horiz-adv-x="1110" 
d="M535 569q245 0 381.5 -112.5t136.5 -311.5q0 -197 -143 -322.5t-382 -125.5q-187 0 -318.5 83t-189.5 245l277 110q22 -76 84.5 -122t148.5 -46q98 0 158 54.5t60 134.5q0 84 -58 137t-151 53h-389l40 733h766v-258h-512l-12 -252h103z" />
    <glyph glyph-name="six.osf" horiz-adv-x="1159" 
d="M621 926q217 -8 351 -136t134 -331q0 -214 -144.5 -350t-373.5 -136q-231 0 -380 134.5t-149 343.5q0 81 27 161.5t53.5 123.5t65.5 95l395 521h350zM588 231q95 0 157 64t62 162q0 100 -61 162.5t-158 62.5q-100 0 -164 -63t-64 -162q0 -97 65 -161.5t163 -64.5z" />
    <glyph glyph-name="seven.osf" horiz-adv-x="1007" 
d="M31 1079h934v-229l-443 -1120h-338l443 1095h-596v254z" />
    <glyph glyph-name="eight.osf" horiz-adv-x="1183" 
d="M858 713q117 -42 185.5 -133.5t68.5 -208.5q0 -180 -141.5 -289t-378.5 -109t-377.5 108.5t-140.5 289.5q0 120 64 211t177 131q-85 41 -136.5 116.5t-51.5 180.5q0 160 123.5 263t341.5 103t340.5 -102t122.5 -264q0 -108 -53 -183t-144 -114zM592 1130
q-79 0 -127.5 -42t-48.5 -113q0 -70 49 -114t127 -44t127 44t49 114q0 72 -48 113.5t-128 41.5zM592 219q99 0 159 51.5t60 137.5q0 81 -60 132.5t-159 51.5t-159 -51.5t-60 -132.5q0 -86 59.5 -137.5t159.5 -51.5z" />
    <glyph glyph-name="nine.osf" horiz-adv-x="1138" 
d="M563 1106q147 0 266 -58.5t188.5 -168.5t69.5 -250q0 -174 -126 -346l-412 -555h-352l323 430q-214 11 -345.5 134.5t-131.5 328.5q0 144 68.5 255.5t186.5 170.5t265 59zM563 399q98 0 161.5 62.5t63.5 161.5q0 98 -64 161.5t-161 63.5q-96 0 -158.5 -63t-62.5 -162
t62.5 -161.5t158.5 -62.5z" />
    <glyph glyph-name="uni030C.alt" 
d="M-387 930l41 514h215l-62 -514h-194z" />
    <glyph glyph-name="caron.alt" horiz-adv-x="432" 
d="M111 930l41 514h215l-62 -514h-194z" />
    <glyph glyph-name="uni0308.case" 
d="M-758 1548q-80 0 -136 55t-56 140t56.5 137.5t141.5 52.5q80 0 135.5 -55t55.5 -139q0 -83 -56.5 -137t-140.5 -54zM-258 1548q-80 0 -136.5 55t-56.5 140t56.5 137.5t140.5 52.5q82 0 137.5 -55t55.5 -139q0 -83 -56.5 -137t-140.5 -54z" />
    <glyph glyph-name="uni0307.case" 
d="M-258 1548q-80 0 -136.5 55t-56.5 140q0 84 56.5 136t140.5 52q83 0 138 -53.5t55 -138.5q0 -83 -56.5 -137t-140.5 -54z" />
    <glyph glyph-name="gravecomb.case" 
d="M-129 1530l-606 180l76 248l598 -209z" />
    <glyph glyph-name="acutecomb.case" 
d="M-668 1530l-67 219l600 209l74 -248z" />
    <glyph glyph-name="uni030B.case" 
d="M-827 1509l-187 136l264 385l209 -152zM-350 1509l-187 136l265 385l211 -152z" />
    <glyph glyph-name="uni0302.case" 
d="M-61 1556h-271l-149 173l-150 -173h-270l301 371h246z" />
    <glyph glyph-name="uni030C.case" 
d="M-332 1927h271l-293 -371h-246l-301 371h270l150 -172z" />
    <glyph glyph-name="uni0306.case" 
d="M-440 1556q-172 0 -274.5 103.5t-102.5 267.5h248q0 -66 34.5 -106.5t94.5 -40.5q59 0 94 41t35 106h245q0 -164 -101.5 -267.5t-272.5 -103.5z" />
    <glyph glyph-name="uni030A.case" 
d="M-328 1421q-119 0 -195.5 72.5t-76.5 187.5q0 112 76.5 185t195.5 73q120 0 196.5 -72.5t76.5 -185.5q0 -115 -76.5 -187.5t-196.5 -72.5zM-328 1589q42 0 68.5 25.5t26.5 66.5q0 40 -27 65.5t-68 25.5t-68.5 -25.5t-27.5 -65.5q0 -41 27 -66.5t69 -25.5z" />
    <glyph glyph-name="tildecomb.case" 
d="M-340 1565q-47 0 -88 15.5t-65 34.5t-56 34.5t-63 15.5q-79 0 -101 -88l-207 88q12 46 34 88t55.5 79t83 59t108.5 22q46 0 87.5 -15.5t66 -33.5t56 -33.5t60.5 -15.5q38 0 64 23t37 65l207 -88q-28 -105 -98 -177.5t-181 -72.5z" />
    <glyph glyph-name="uni0304.case" 
d="M-803 1618v248h742v-248h-742z" />
    <glyph glyph-name="uni0326.case" 
d="M-209 -98q65 0 108.5 -42.5t43.5 -109.5q0 -50 -20 -98.5t-70 -124.5l-70 -115l-139 51l71 123l13 25q-41 18 -67 56t-26 87q0 65 44.5 106.5t111.5 41.5z" />
    <glyph glyph-name="uni0337.case" 
d="M-760 385l-63 190l698 250l64 -190z" />
    <glyph glyph-name="uni0338.case" 
d="M-1384 -16l-177 166l1305 1370l174 -170z" />
    <glyph glyph-name="dieresis.case" horiz-adv-x="909" 
d="M254 1548q-80 0 -136.5 55t-56.5 140t57 137.5t142 52.5q80 0 135.5 -55t55.5 -139q0 -83 -56.5 -137t-140.5 -54zM754 1548q-80 0 -136.5 55t-56.5 140t56.5 137.5t140.5 52.5q82 0 137 -55t55 -139q0 -83 -56 -137t-140 -54z" />
    <glyph glyph-name="dotaccent.case" horiz-adv-x="364" 
d="M254 1548q-80 0 -136.5 55t-56.5 140q0 84 56.5 136t140.5 52q83 0 138 -53.5t55 -138.5q0 -83 -56.5 -137t-140.5 -54z" />
    <glyph glyph-name="grave.case" horiz-adv-x="704" 
d="M668 1530l-607 180l76 248l598 -209z" />
    <glyph glyph-name="acute.case" horiz-adv-x="704" 
d="M129 1530l-68 219l601 209l73 -248z" />
    <glyph glyph-name="hungarumlaut.case" horiz-adv-x="1138" 
d="M248 1509l-187 136l265 385l209 -152zM725 1509l-186 136l264 385l211 -152z" />
    <glyph glyph-name="circumflex.case" horiz-adv-x="917" 
d="M901 1556h-270l-150 173l-149 -173h-271l301 371h246z" />
    <glyph glyph-name="caron.case" horiz-adv-x="917" 
d="M631 1927h270l-293 -371h-246l-301 371h271l149 -172z" />
    <glyph glyph-name="breve.case" horiz-adv-x="829" 
d="M438 1556q-172 0 -274.5 103.5t-102.5 267.5h248q0 -66 34.5 -106.5t94.5 -40.5q59 0 94 41t35 106h246q0 -164 -102 -267.5t-273 -103.5z" />
    <glyph glyph-name="ring.case" horiz-adv-x="577" 
d="M330 1421q-119 0 -196 72.5t-77 187.5q0 112 77 185t196 73q120 0 196 -72.5t76 -185.5q0 -115 -76 -187.5t-196 -72.5zM330 1589q41 0 67.5 25.5t26.5 66.5q0 40 -26.5 65.5t-67.5 25.5q-42 0 -69.5 -25.5t-27.5 -65.5q0 -41 27.5 -66.5t69.5 -25.5z" />
    <glyph glyph-name="tilde.case" horiz-adv-x="956" 
d="M641 1565q-47 0 -88 15.5t-65 34.5t-56 34.5t-63 15.5q-79 0 -101 -88l-207 88q12 46 34 88t55.5 79t83 59t108.5 22q46 0 87.5 -15.5t66 -33.5t56 -33.5t60.5 -15.5q38 0 64 23t37 65l207 -88q-28 -105 -98 -177.5t-181 -72.5z" />
    <glyph glyph-name="macron.case" horiz-adv-x="858" 
d="M61 1618v248h742v-248h-742z" />
    <glyph glyph-name="IJacute" horiz-adv-x="1271" 
d="M35 1530l-68 219l600 209l76 -248zM750 1530l-66 219l598 209l76 -248zM131 0v1423h305v-1423h-305zM604 0v270h82q78 0 119 45t41 129v979h305v-983q0 -206 -113.5 -323t-326.5 -117h-107z" />
    <glyph glyph-name="ijacute" horiz-adv-x="1112" 
d="M68 1171l-121 193l487 317l137 -221zM666 1171l-121 195l487 315l137 -221zM109 0v1079h303v-1079h-303zM506 -379v260h20q78 0 126 52t48 139v1007h304v-1003q0 -210 -123.5 -332.5t-315.5 -122.5h-59z" />
    </font>
</defs>
</svg>
