<svg xmlns="http://www.w3.org/2000/svg" xmlns:xlink="http://www.w3.org/1999/xlink" width="1024" height="512" viewBox="0 0 1024 512">
  <defs>
    <filter id="XYNUM" x="476.182" y="193.897" width="534.09" height="116.4" filterUnits="userSpaceOnUse">
      <feOffset dy="4" input="SourceAlpha"/>
      <feGaussianBlur stdDeviation="4" result="blur"/>
      <feFlood flood-color="#a53da6"/>
      <feComposite operator="in" in2="blur"/>
      <feComposite in="SourceGraphic"/>
    </filter>
    <filter id="O" x="352" y="190.842" width="124.015" height="124.015" filterUnits="userSpaceOnUse">
      <feOffset dy="4" input="SourceAlpha"/>
      <feGaussianBlur stdDeviation="4" result="blur-2"/>
      <feFlood flood-color="#a53da6"/>
      <feComposite operator="in" in2="blur-2"/>
      <feComposite in="SourceGraphic"/>
    </filter>
    <filter id="O-2" x="12.046" y="74" width="314.279" height="371.505" filterUnits="userSpaceOnUse">
      <feOffset dy="4" input="SourceAlpha"/>
      <feGaussianBlur stdDeviation="4" result="blur-3"/>
      <feFlood flood-color="#a53da6"/>
      <feComposite operator="in" in2="blur-3"/>
      <feComposite in="SourceGraphic"/>
    </filter>
    <filter id="Eye" x="139.515" y="134.242" width="68.672" height="68.672" filterUnits="userSpaceOnUse">
      <feOffset dy="4" input="SourceAlpha"/>
      <feGaussianBlur stdDeviation="4" result="blur-4"/>
      <feFlood flood-color="#a53da6"/>
      <feComposite operator="in" in2="blur-4"/>
      <feComposite in="SourceGraphic"/>
    </filter>
    <clipPath id="clip-Brand_-_Inline">
      <rect width="1024" height="512"/>
    </clipPath>
  </defs>
  <g id="Brand_-_Inline" data-name="Brand - Inline" clip-path="url(#clip-Brand_-_Inline)">
    <g id="BRAND-INLINE" transform="translate(-21)">
      <g id="OXYNUM" transform="translate(255.993 -312)">
        <g transform="matrix(1, 0, 0, 1, -234.99, 312)" filter="url(#XYNUM)">
          <path id="XYNUM-2" data-name="XYNUM" d="M85.8,17.4h-.132a7.2,7.2,0,0,1-5.94-3.036L53.46-22.068,27.192,14.364A7.142,7.142,0,0,1,21.384,17.4h-.4a7.324,7.324,0,0,1-7.26-7.26V-67.74A7.324,7.324,0,0,1,20.988-75a7.353,7.353,0,0,1,7.392,7.26v55.572l18.876-26.4A7.443,7.443,0,0,1,53.328-41.6h.264a7.2,7.2,0,0,1,5.94,3.036l19.008,26.4V-67.74A7.239,7.239,0,0,1,85.8-75a7.44,7.44,0,0,1,7.392,7.26V10.14A7.531,7.531,0,0,1,85.8,17.4ZM214.764-36.852V10.14a7.157,7.157,0,0,1-7.26,7.26,7.269,7.269,0,0,1-7.392-7.26V-36.852a23.463,23.463,0,0,0-23.5-23.5,23.548,23.548,0,0,0-23.5,23.5V10.14a7.352,7.352,0,0,1-7.392,7.26,7.157,7.157,0,0,1-7.26-7.26V-36.852A38.082,38.082,0,0,1,176.616-75,38.167,38.167,0,0,1,214.764-36.852Zm56.76,23.892,42.24-58.608a3.5,3.5,0,0,1,.66-.792A7.157,7.157,0,0,1,319.836-75a7.324,7.324,0,0,1,7.26,7.26V8.952a7.3,7.3,0,0,1-7.26,7.128,7.183,7.183,0,0,1-7.128-7.128V-45.432l-42.636,59a7.272,7.272,0,0,1-10.032,1.584,7.139,7.139,0,0,1-2.9-6.072V-67.74A7.239,7.239,0,0,1,264.4-75a7.3,7.3,0,0,1,7.128,7.26ZM428.736,15.024a7.247,7.247,0,0,1-10.164-1.584L396-17.448,373.428,13.44A7.039,7.039,0,0,1,363.4,15.024a6.942,6.942,0,0,1-1.452-10.032L388.74-32.1V-67.74A7.324,7.324,0,0,1,396-75a7.157,7.157,0,0,1,7.26,7.26V-32.1L430.32,4.992A7.312,7.312,0,0,1,428.736,15.024Zm92.136-.132a7.01,7.01,0,0,1-10.164-1.584l-22.176-30.36-22.308,30.36a6.847,6.847,0,0,1-10.032,1.584A7.177,7.177,0,0,1,454.476,4.86L479.556-29.2l-25.08-34.32a7.2,7.2,0,0,1,1.716-10.032A6.82,6.82,0,0,1,460.416-75a7.516,7.516,0,0,1,5.808,3.036l22.308,30.492,22.176-30.492A7.567,7.567,0,0,1,516.648-75a7.42,7.42,0,0,1,4.224,1.452,7.171,7.171,0,0,1,1.584,10.032L497.376-29.2,522.456,4.86A7.152,7.152,0,0,1,520.872,14.892Z" transform="translate(1012 219.3) rotate(180)" fill="#fff"/>
        </g>
        <g transform="matrix(1, 0, 0, 1, -234.99, 312)" filter="url(#O)">
          <path id="O-3" data-name="O" d="M50.008,0A50.008,50.008,0,1,1,0,50.008,50.008,50.008,0,0,1,50.008,0Z" transform="translate(364 198.84)" fill="#fff"/>
        </g>
      </g>
      <g id="LOGO" transform="matrix(0.985, 0.174, -0.174, 0.985, 98.972, 82.47)">
        <g transform="matrix(0.98, -0.17, 0.17, 0.98, -91.11, -67.68)" filter="url(#O-2)">
          <path id="O-4" data-name="O" d="M49.808,310.547a25.612,25.612,0,0,1-4.722-.45,37.137,37.137,0,0,1-5.947-1.725,29.6,29.6,0,0,1-6.559-3.4,37.03,37.03,0,0,1-6.394-6.036c-.085-.112-.181-.236-.287-.372a26.833,26.833,0,0,1-4.335-7.5,32.064,32.064,0,0,1-1.9-7.487l0-.03-.076-.5a37.3,37.3,0,0,1,.1-7.415,29.511,29.511,0,0,1,2.19-8.391c.9-2.212,1.375-3.159,1.875-4.162.595-1.192,1.269-2.543,2.8-6.3a61.586,61.586,0,0,0,3.682-13.041A55.572,55.572,0,0,0,31.586,229.4c-.336-7.894-.448-9.194-2.255-16.764-1.654-6.929-5.7-14.443-8.113-18.932l0-.009c-.257-.478-.5-.93-.72-1.342-.081-.136-8.091-13.731-11.064-20.956a125.269,125.269,0,0,1-6.991-23.158,128.009,128.009,0,0,1,0-49.729A124.537,124.537,0,0,1,20.493,54.4,123.555,123.555,0,0,1,35.147,36.137a121.6,121.6,0,0,1,17.76-15.066A118.986,118.986,0,0,1,73.29,9.7a117.181,117.181,0,0,1,93.42,0,118.986,118.986,0,0,1,20.383,11.375,121.6,121.6,0,0,1,17.76,15.066A123.806,123.806,0,0,1,230.57,75.353a125.263,125.263,0,0,1,6.991,23.159,128.011,128.011,0,0,1,0,49.729,100.733,100.733,0,0,1-4.72,14.665c-1.962,5.029-3.953,9.513-4.829,11.178-.651,1.238-1.851,3.456-3.241,6.024l-.008.014c-2.237,4.134-5.019,9.276-6.561,12.276-2.877,5.6-5.976,13.2-4.395,22.369a39.946,39.946,0,0,0,7.245,16.873c.255.367.475.684.667.972a42.787,42.787,0,0,1,3.259,6.081,23.137,23.137,0,0,1,2.094,7.394c.023.492.052.972.079,1.436.218,3.668.406,6.831-2.3,12.182a26.665,26.665,0,0,1-6.117,7.809A21.285,21.285,0,0,1,211,272.074a33.96,33.96,0,0,1-9.8,1.523c-.12,0-.237,0-.348,0a30.175,30.175,0,0,1-8.1-1.58,25.773,25.773,0,0,1-6.679-4.273c-1.88-1.88-4.917-5.284-6.06-6.566l-.037-.041-.346-.388-.143-.159-.014-.015c-.675-.751-2.468-2.745-4.922-5.049a74.248,74.248,0,0,0-13.424-9.693,62.127,62.127,0,0,0-14.351-5.2l-.2-.04-.022,0a55.538,55.538,0,0,0-11.409-1.16c-1.663,0-3.339.074-4.981.219a58.711,58.711,0,0,0-18.943,5.276,59.134,59.134,0,0,0-14.78,10.508,50.045,50.045,0,0,0-9.224,11.978,40.1,40.1,0,0,0-4.172,9.3l-.182.538c-1.013,3-1.495,4.975-2,7.07-.086.355-.174.714-.265,1.084a64.583,64.583,0,0,1-2.077,6.273,27.744,27.744,0,0,1-3.065,5.616,25.986,25.986,0,0,1-5.033,5.6,31.777,31.777,0,0,1-4.931,3.609,30.672,30.672,0,0,1-6.571,2.781,33.665,33.665,0,0,1-6.842,1.206l-.082,0C51.243,310.519,50.529,310.547,49.808,310.547ZM119.864,27.393a93,93,0,0,0-18.6,1.875A91.8,91.8,0,0,0,68.254,43.158,92.577,92.577,0,0,0,34.81,83.77,91.843,91.843,0,0,0,29.432,101.1a93.208,93.208,0,0,0,0,37.206,91.8,91.8,0,0,0,13.889,33.007,92.577,92.577,0,0,0,40.613,33.444,91.845,91.845,0,0,0,17.327,5.379,93.208,93.208,0,0,0,37.206,0,91.8,91.8,0,0,0,33.007-13.889,92.578,92.578,0,0,0,33.444-40.613A91.844,91.844,0,0,0,210.3,138.3a93.208,93.208,0,0,0,0-37.206,91.8,91.8,0,0,0-13.889-33.007,92.578,92.578,0,0,0-40.613-33.443,91.847,91.847,0,0,0-17.327-5.379A92.992,92.992,0,0,0,119.864,27.393Z" transform="matrix(0.98, 0.17, -0.17, 0.98, 77.97, 82)" fill="#fff"/>
        </g>
        <g transform="matrix(0.98, -0.17, 0.17, 0.98, -91.11, -67.68)" filter="url(#Eye)">
          <path id="Eye-2" data-name="Eye" d="M19.281,0A19.281,19.281,0,1,1,0,19.281,19.281,19.281,0,0,1,19.281,0Z" transform="matrix(0.98, 0.17, -0.17, 0.98, 158.21, 142.24)" fill="#fff"/>
        </g>
      </g>
    </g>
  </g>
</svg>
