<svg xmlns="http://www.w3.org/2000/svg" xmlns:xlink="http://www.w3.org/1999/xlink" width="1024" height="512" viewBox="0 0 1024 512">
  <defs>
    <filter id="XYNUM" x="208.045" y="168.197" width="769.814" height="159.1" filterUnits="userSpaceOnUse">
      <feOffset dy="4" input="SourceAlpha"/>
      <feGaussianBlur stdDeviation="4" result="blur"/>
      <feFlood flood-color="#a53da6"/>
      <feComposite operator="in" in2="blur"/>
      <feComposite in="SourceGraphic"/>
    </filter>
    <filter id="O" x="26" y="163.517" width="170.308" height="170.308" filterUnits="userSpaceOnUse">
      <feOffset dy="4" input="SourceAlpha"/>
      <feGaussianBlur stdDeviation="4" result="blur-2"/>
      <feFlood flood-color="#a53da6"/>
      <feComposite operator="in" in2="blur-2"/>
      <feComposite in="SourceGraphic"/>
    </filter>
    <clipPath id="clip-Brand_-_Typography">
      <rect width="1024" height="512"/>
    </clipPath>
  </defs>
  <g id="Brand_-_Typography" data-name="Brand - Typography" clip-path="url(#clip-Brand_-_Typography)">
    <g id="BRAND-TYPOGRAPHY" transform="translate(-347 -41)">
      <g id="OXYNUM" transform="translate(385 169.297)">
        <g transform="matrix(1, 0, 0, 1, -38, -128.3)" filter="url(#XYNUM)">
          <path id="XYNUM-2" data-name="XYNUM" d="M125.45,25.1h-.193a10.531,10.531,0,0,1-8.685-4.439L78.165-32.607,39.758,20.661A10.443,10.443,0,0,1,31.266,25.1h-.579A10.709,10.709,0,0,1,20.072,14.485V-99.385A10.709,10.709,0,0,1,30.687-110,10.751,10.751,0,0,1,41.495-99.385v81.253l27.6-38.6a10.882,10.882,0,0,1,8.878-4.439h.386a10.531,10.531,0,0,1,8.685,4.439l27.792,38.6V-99.385A10.584,10.584,0,0,1,125.45-110a10.878,10.878,0,0,1,10.808,10.615V14.485C136.258,20.275,131.24,24.907,125.45,25.1ZM314.011-54.223V14.485A10.464,10.464,0,0,1,303.4,25.1a10.628,10.628,0,0,1-10.808-10.615V-54.223a34.306,34.306,0,0,0-34.354-34.354A34.43,34.43,0,0,0,223.88-54.223V14.485A10.749,10.749,0,0,1,213.072,25.1a10.464,10.464,0,0,1-10.615-10.615V-54.223A55.681,55.681,0,0,1,258.234-110,55.8,55.8,0,0,1,314.011-54.223ZM397-19.29l61.76-85.692a5.118,5.118,0,0,1,.965-1.158,10.465,10.465,0,0,1,7.913-3.86,10.709,10.709,0,0,1,10.615,10.615V12.748A10.672,10.672,0,0,1,467.639,23.17a10.5,10.5,0,0,1-10.422-10.422V-66.768L394.878,19.5a10.632,10.632,0,0,1-14.668,2.316,10.438,10.438,0,0,1-4.246-8.878V-99.385A10.584,10.584,0,0,1,386.579-110,10.672,10.672,0,0,1,397-99.385ZM626.864,21.626A10.6,10.6,0,0,1,612,19.31L579-25.852,546,19.31a10.292,10.292,0,0,1-14.668,2.316,10.15,10.15,0,0,1-2.123-14.668l39.179-54.233v-52.11A10.708,10.708,0,0,1,579-110a10.464,10.464,0,0,1,10.615,10.615v52.11L629.18,6.958A10.691,10.691,0,0,1,626.864,21.626Zm134.714-.193a10.25,10.25,0,0,1-14.861-2.316l-32.424-44.39-32.617,44.39a10.011,10.011,0,0,1-14.668,2.316A10.494,10.494,0,0,1,664.5,6.765l36.67-49.794L664.5-93.209a10.523,10.523,0,0,1,2.509-14.668A9.972,9.972,0,0,1,673.184-110a10.989,10.989,0,0,1,8.492,4.439l32.617,44.583,32.424-44.583A11.064,11.064,0,0,1,755.4-110a10.849,10.849,0,0,1,6.176,2.123c4.825,3.281,5.6,10.036,2.316,14.668l-36.67,50.18,36.67,49.794C767.175,11.59,766.4,18.152,761.578,21.433Z" transform="translate(985.93 201.3) rotate(180)" fill="#fff"/>
        </g>
        <g transform="matrix(1, 0, 0, 1, -38, -128.3)" filter="url(#O)">
          <path id="O-2" data-name="O" d="M73.154,0A73.154,73.154,0,1,1,0,73.154,73.154,73.154,0,0,1,73.154,0Z" transform="translate(38 171.52)" fill="#fff"/>
        </g>
      </g>
    </g>
  </g>
</svg>
