<?xml version="1.0" encoding="utf-8"?>
<!-- Generator: Adobe Illustrator 19.1.0, SVG Export Plug-In . SVG Version: 6.00 Build 0)  -->
<svg version="1.1" id="Capa_1" xmlns="http://www.w3.org/2000/svg" xmlns:xlink="http://www.w3.org/1999/xlink" x="0px" y="0px"
	 viewBox="176 -7.4 2825.9 714.1" style="enable-background:new 176 -7.4 2825.9 714.1;" xml:space="preserve">
<style type="text/css">
	.st0{fill:#E3E3E3;stroke:#FFFFFF;stroke-width:8;stroke-miterlimit:10;}
</style>
<g>
	<path class="st0" d="M962.7,354.4c-0.2,0-0.3,0-0.5,0c-7.7-121.7-108.9-218-232.5-218c-114.1,0-209,82-229.1,190.2
		c-2.6-0.1-5.3-0.2-7.9-0.2c-85,0-156.7,56.3-180.1,133.6c-3.6-0.3-7.3-0.5-11-0.5c-67.1,0-121.6,54.4-121.6,121.6
		c0,67.2,54.4,121.6,121.5,121.6c1,0,661.1,0,661.1,0c96.2,0,174.1-78,174.1-174.1C1136.7,432.5,1058.9,354.4,962.7,354.4z"/>
</g>
<path class="st0" d="M2249.6,395.3c-0.1,0-0.2,0-0.4,0c-5.7-107.4-81-192.4-172.9-192.4c-81.2,0-149.2,66.2-168.1,155.5
	c-35.4-32.9-82.8-53-134.9-53c-0.2,0-0.3,0-0.6,0c-8.8-138.8-124.2-248.7-265.2-248.7c-130.2,0-238.4,93.5-261.3,217
	c-3-0.1-6-0.2-9-0.2c-97,0-178.7,64.2-205.4,152.4c-4.1-0.3-8.3-0.6-12.5-0.6c-76.5,0-138.7,62.1-138.7,138.7
	c0,76.7,62.1,138.7,138.6,138.7c1,0,631.8,0,738.8,0c9.9,0,15.3,0,15.3,0c83.1,0,476.3,0,476.3,0c71.5,0,129.5-68.8,129.5-153.7
	C2379,464.2,2321.2,395.3,2249.6,395.3z"/>
<g>
	<path class="st0" d="M2815.1,268.4c-0.2,0-0.3,0-0.5,0c-8.1-151.7-114.4-271.8-244.2-271.8c-119.9,0-219.6,102.2-240.7,237.1
		c-2.7-0.1-5.6-0.2-8.3-0.2c-89.3,0-164.6,70.2-189.2,166.6c-3.8-0.4-7.7-0.6-11.6-0.6c-70.5,0-127.7,67.8-127.7,151.6
		c0,83.8,57.1,151.6,127.6,151.6c1.1,0,694.5,0,694.5,0c101.1,0,182.9-97.2,182.9-217.1C2997.9,365.8,2916.2,268.4,2815.1,268.4z"/>
</g>
</svg>
