<svg id="Capa_1" xmlns="http://www.w3.org/2000/svg" viewBox="176 -7.4 2825.9 714.1"><style>.st0{fill:#E3E3E3;stroke:#FFFFFF;stroke-width:8;stroke-miterlimit:10;}</style><path class="st0" d="M962.7 354.4h-.5c-7.7-121.7-108.9-218-232.5-218-114.1 0-209 82-229.1 190.2-2.6-.1-5.3-.2-7.9-.2-85 0-156.7 56.3-180.1 133.6-3.6-.3-7.3-.5-11-.5-67.1 0-121.6 54.4-121.6 121.6 0 67.2 54.4 121.6 121.5 121.6h661.1c96.2 0 174.1-78 174.1-174.1s-77.8-174.2-174-174.2z"/><path class="st0" d="M2249.6 395.3h-.4c-5.7-107.4-81-192.4-172.9-192.4-81.2 0-149.2 66.2-168.1 155.5-35.4-32.9-82.8-53-134.9-53h-.6c-8.8-138.8-124.2-248.7-265.2-248.7-130.2 0-238.4 93.5-261.3 217-3-.1-6-.2-9-.2-97 0-178.7 64.2-205.4 152.4-4.1-.3-8.3-.6-12.5-.6-76.5 0-138.7 62.1-138.7 138.7 0 76.7 62.1 138.7 138.6 138.7H2249.6c71.5 0 129.5-68.8 129.5-153.7-.1-84.8-57.9-153.7-129.5-153.7z"/><path class="st0" d="M2815.1 268.4h-.5c-8.1-151.7-114.4-271.8-244.2-271.8-119.9 0-219.6 102.2-240.7 237.1-2.7-.1-5.6-.2-8.3-.2-89.3 0-164.6 70.2-189.2 166.6-3.8-.4-7.7-.6-11.6-.6-70.5 0-127.7 67.8-127.7 151.6s57.1 151.6 127.6 151.6H2815c101.1 0 182.9-97.2 182.9-217.1 0-119.8-81.7-217.2-182.8-217.2z"/></svg>