<?xml version="1.0" standalone="no"?>
<!DOCTYPE svg PUBLIC "-//W3C//DTD SVG 20010904//EN"
 "http://www.w3.org/TR/2001/REC-SVG-20010904/DTD/svg10.dtd">
<svg version="1.0" xmlns="http://www.w3.org/2000/svg"
 width="700.000000pt" height="700.000000pt" viewBox="0 0 700.000000 700.000000"
 preserveAspectRatio="xMidYMid meet">
<metadata>
Created by potrace 1.11, written by Peter Selinger 2001-2013
</metadata>
<g transform="translate(0.000000,700.000000) scale(0.100000,-0.100000)"
fill="#000000" stroke="none">
<path d="M3404 6083 c5 -9 -2 -13 -26 -14 -73 -3 -104 -5 -113 -10 -6 -3 -19
-5 -30 -5 -11 1 -22 -2 -25 -5 -5 -7 -77 -21 -117 -23 -13 0 -23 -5 -23 -10 0
-4 -11 -6 -25 -4 -15 3 -22 1 -18 -5 4 -6 -2 -8 -15 -5 -12 4 -20 3 -17 -2 6
-10 -54 -22 -68 -13 -5 3 -7 1 -4 -4 4 -6 -21 -19 -58 -32 -36 -11 -73 -25
-83 -31 -67 -37 -166 -79 -175 -73 -5 3 -7 1 -4 -4 7 -10 -20 -28 -35 -25 -5
1 -8 -3 -8 -9 0 -6 -7 -9 -15 -5 -8 3 -15 1 -15 -5 0 -9 -63 -51 -75 -50 -3 1
-14 -7 -24 -16 -32 -29 -45 -39 -89 -67 -23 -14 -42 -31 -42 -38 0 -6 -3 -9
-6 -6 -3 3 -15 -4 -28 -16 -62 -58 -119 -106 -128 -106 -5 0 -6 -5 -2 -12 5
-8 2 -9 -10 -5 -14 6 -17 3 -12 -9 5 -12 2 -15 -9 -10 -9 3 -14 2 -11 -3 8
-12 -19 -33 -29 -23 -5 4 -5 1 -1 -6 5 -8 -5 -25 -28 -47 -20 -18 -36 -38 -36
-44 0 -6 -3 -11 -7 -11 -5 0 -35 -36 -67 -80 -54 -72 -79 -101 -60 -67 4 7 3
9 -2 4 -5 -5 -10 -13 -10 -18 -1 -5 -2 -13 -3 -18 0 -5 -7 -16 -14 -23 -7 -7
-28 -40 -46 -73 -18 -33 -38 -63 -45 -67 -6 -4 -7 -8 -3 -8 4 0 3 -9 -3 -20
-6 -11 -14 -18 -18 -16 -5 3 -8 -3 -9 -12 -3 -37 -23 -74 -38 -68 -8 3 -17 1
-20 -5 -4 -5 -3 -8 2 -7 22 8 17 -38 -7 -62 -11 -11 -16 -20 -10 -20 11 0 -9
-51 -24 -61 -5 -4 -6 -11 -2 -17 3 -6 -2 -15 -11 -21 -14 -8 -15 -10 -3 -11
12 0 12 -2 2 -9 -8 -4 -13 -11 -13 -15 3 -23 0 -36 -8 -32 -5 3 -9 -4 -9 -17
0 -20 -8 -62 -12 -62 -1 0 -4 -11 -6 -25 -3 -14 -9 -26 -14 -28 -5 -2 -6 -10
-3 -19 4 -9 -1 -21 -12 -29 -11 -8 -13 -14 -6 -14 8 0 10 -7 6 -20 -4 -12 -9
-37 -11 -56 -2 -19 -5 -40 -7 -47 -3 -18 -21 -35 -31 -29 -5 3 -6 0 -2 -6 4
-6 14 -9 24 -6 10 4 13 2 7 -3 -5 -4 -10 -14 -11 -20 -1 -7 -2 -23 -3 -34 -1
-16 -6 -20 -21 -16 -11 3 -18 1 -14 -4 3 -5 11 -9 18 -9 7 0 12 -13 11 -30 0
-16 -3 -30 -7 -30 -5 0 -8 5 -8 12 0 6 -3 8 -6 5 -4 -4 -3 -12 3 -19 14 -19
15 -69 1 -86 -7 -9 -8 -13 -3 -10 7 4 10 -41 10 -132 -1 -82 2 -137 8 -133 5
3 4 -4 -2 -15 -7 -14 -7 -22 -1 -25 6 -3 5 -4 -2 -3 -7 1 -15 13 -18 27 l-6
24 -6 -27 c-3 -15 -2 -25 3 -23 4 3 10 1 13 -4 4 -5 2 -12 -3 -15 -5 -4 -3
-19 6 -36 8 -17 18 -28 22 -26 4 3 7 -3 8 -12 0 -9 4 -28 7 -41 3 -14 1 -30
-4 -37 -7 -8 -6 -13 4 -17 9 -4 12 -14 9 -26 -3 -12 -1 -21 5 -21 6 0 9 -11 6
-25 -2 -15 0 -25 7 -25 6 0 9 -7 6 -15 -4 -8 -2 -17 4 -20 5 -4 7 -10 4 -15
-3 -5 -1 -11 5 -15 6 -4 8 -11 4 -16 -3 -5 -1 -16 6 -24 8 -10 8 -15 -1 -21
-8 -5 -9 -3 -4 6 5 9 4 11 -4 6 -6 -4 -9 -12 -5 -17 3 -5 0 -17 -8 -26 -9 -12
-9 -15 0 -9 6 4 12 2 12 -3 0 -6 5 -11 11 -11 8 0 8 4 0 14 -9 10 -7 17 6 27
16 13 17 12 4 -3 -12 -17 -9 -23 12 -19 5 1 6 -3 3 -8 -4 -5 0 -12 6 -14 10
-4 10 -6 1 -6 -8 -1 -4 -17 11 -47 26 -52 27 -81 2 -76 -9 2 -16 -3 -16 -9 0
-7 3 -9 7 -6 3 4 12 -1 20 -11 8 -9 12 -12 9 -5 -8 14 10 27 18 14 4 -5 2 -12
-4 -16 -6 -4 -8 -11 -4 -16 3 -5 9 -7 13 -5 4 3 8 -1 8 -9 0 -8 -5 -11 -10 -8
-5 3 -7 0 -5 -8 3 -8 11 -13 17 -11 7 1 10 -2 7 -7 -4 -5 -2 -12 3 -16 6 -3 7
-13 4 -21 -3 -9 0 -20 8 -25 10 -6 10 -9 2 -9 -7 0 -13 -4 -13 -10 0 -5 8 -7
18 -4 14 5 15 4 2 -5 -13 -9 -12 -12 4 -24 17 -13 17 -14 2 -20 -11 -5 -15 -3
-10 5 5 7 2 8 -7 3 -8 -5 -11 -4 -6 0 4 5 0 19 -8 31 -11 17 -12 24 -2 27 8 4
8 6 1 6 -6 1 -18 -7 -25 -16 -8 -9 -9 -14 -3 -10 10 6 24 -11 28 -33 1 -3 10
-16 20 -30 11 -16 16 -18 12 -7 -3 11 -2 16 5 12 5 -4 7 -16 3 -27 -4 -13 -2
-18 4 -14 6 4 7 -6 2 -29 -4 -19 -4 -33 0 -30 4 3 14 -3 21 -13 13 -15 12 -16
-3 -3 -11 8 -18 9 -18 3 0 -6 5 -14 10 -17 6 -4 8 -16 5 -26 -4 -11 -2 -25 3
-32 6 -7 9 -28 8 -47 -1 -19 3 -41 9 -49 7 -11 7 -13 -2 -7 -7 4 -13 2 -13 -3
0 -6 5 -11 11 -11 5 0 8 -4 4 -9 -10 -17 -13 -71 -4 -77 5 -3 6 -11 2 -17 -4
-7 -8 -27 -10 -46 -1 -18 -7 -39 -13 -46 -6 -7 -8 -20 -4 -29 3 -9 2 -16 -3
-16 -5 0 -10 -12 -11 -27 -2 -27 -19 -46 -33 -37 -4 2 -11 -1 -15 -7 -4 -8 -3
-9 4 -5 7 4 12 1 12 -6 0 -10 3 -9 11 2 9 12 10 12 5 -3 -3 -11 -9 -30 -12
-43 -3 -13 -10 -24 -16 -24 -5 0 -6 -4 -3 -10 3 -5 2 -10 -2 -10 -5 0 -9 -10
-10 -22 -2 -28 -23 -40 -43 -25 -13 11 -13 10 -1 -5 7 -10 17 -15 22 -13 4 3
2 -7 -6 -22 -8 -15 -15 -33 -15 -39 0 -7 -7 -15 -16 -18 -8 -3 -13 -10 -10
-15 4 -5 -1 -16 -9 -25 -9 -8 -17 -19 -18 -23 -1 -4 -5 -7 -9 -6 -4 2 -4 -5
-1 -14 5 -12 3 -14 -7 -8 -9 5 -11 4 -6 -4 8 -12 -30 -81 -45 -81 -4 0 -6 -7
-3 -15 4 -8 1 -15 -5 -15 -6 0 -11 -7 -11 -15 0 -8 -5 -15 -11 -15 -5 0 -7 5
-3 12 4 7 3 8 -5 4 -8 -5 -9 -12 -2 -20 7 -8 4 -22 -9 -44 -11 -18 -20 -39
-20 -47 0 -8 -5 -15 -11 -15 -5 0 -8 -4 -5 -8 3 -5 -1 -21 -9 -36 -8 -14 -10
-24 -5 -21 10 6 8 -14 -3 -32 -4 -6 -4 -18 -1 -27 3 -9 1 -16 -6 -16 -6 0 -8
-5 -4 -12 4 -7 9 -33 11 -58 3 -46 8 -91 13 -100 1 -3 1 -16 0 -29 -1 -13 2
-21 7 -18 6 4 10 1 11 -6 2 -27 9 -46 20 -59 6 -8 9 -18 5 -22 -4 -4 -1 -11 7
-16 12 -7 11 -12 -4 -29 -11 -12 -15 -21 -10 -21 5 0 2 -4 -6 -10 -8 -5 -11
-12 -7 -17 5 -4 11 -3 15 2 9 13 32 17 32 6 0 -5 8 -7 19 -4 10 3 22 0 25 -5
4 -6 -2 -8 -14 -5 -15 4 -20 0 -20 -15 0 -12 -4 -24 -10 -27 -5 -3 -10 -14 -9
-23 0 -14 2 -14 8 2 10 25 24 5 15 -21 -5 -15 -4 -15 5 -3 9 13 11 13 12 0 1
-8 1 -18 0 -22 0 -5 4 -8 10 -8 6 0 8 7 5 15 -21 51 -21 51 -3 36 9 -7 15 -16
13 -20 -3 -4 -1 -13 5 -21 6 -11 9 -12 9 -2 0 7 5 10 10 7 8 -5 7 -12 -2 -23
-11 -13 -11 -14 1 -7 11 6 13 4 8 -11 -6 -17 -6 -17 6 -2 9 12 17 14 30 6 15
-8 16 -12 6 -26 -11 -14 -11 -15 1 -5 15 14 23 46 9 37 -5 -3 -9 -3 -9 0 0 3
10 11 23 17 12 6 19 8 15 4 -4 -5 -3 -14 4 -22 9 -11 7 -12 -8 -7 -18 5 -18 5
0 -10 15 -12 22 -13 27 -4 4 7 5 17 2 23 -4 5 -2 6 2 2 5 -4 10 -13 11 -20 1
-7 4 -19 6 -27 3 -8 3 -12 1 -7 -3 4 -10 4 -15 1 -7 -5 -8 -2 -3 6 5 9 4 11
-4 6 -6 -4 -18 -3 -25 3 -18 15 -29 -9 -14 -30 8 -11 9 -10 4 5 -5 14 -2 17
10 12 8 -3 19 -6 22 -6 4 0 0 -5 -8 -10 -11 -7 -7 -8 14 -6 32 3 51 26 33 39
-8 6 -8 7 3 4 8 -2 13 -12 12 -22 -3 -16 -2 -17 12 -6 9 8 19 12 21 9 8 -8 -6
-38 -17 -38 -5 0 -7 4 -4 8 3 5 -1 9 -9 9 -8 0 -16 -6 -19 -13 -3 -8 -12 -11
-21 -8 -8 3 -15 2 -15 -4 0 -11 25 -10 36 1 4 4 12 7 18 7 6 0 5 -5 -2 -12 -7
-7 -12 -16 -12 -22 0 -5 7 -1 16 10 14 17 15 17 10 1 -3 -11 -2 -16 4 -12 6 3
10 13 10 21 0 8 10 14 23 14 13 0 17 3 10 8 -8 5 -8 12 2 26 13 17 14 16 10
-10 -2 -16 -4 -33 -4 -37 -1 -5 -5 -5 -11 -2 -5 3 -10 1 -10 -5 0 -7 7 -9 16
-6 12 5 15 2 10 -9 -3 -9 -2 -13 4 -10 6 3 10 1 10 -4 0 -6 5 -11 11 -11 8 0
8 4 -1 15 -6 8 -8 20 -4 26 5 8 3 9 -6 4 -8 -5 -11 -4 -6 3 4 6 13 9 21 5 11
-4 14 0 9 13 -5 16 -4 16 5 4 9 -13 11 -13 11 0 0 9 5 7 16 -8 12 -17 19 -20
29 -12 9 7 16 6 25 -4 10 -13 8 -15 -9 -11 -13 2 -22 -3 -26 -16 -4 -11 -4
-23 -1 -26 3 -4 6 1 6 10 0 10 5 17 11 17 5 0 7 -5 3 -12 -5 -7 -3 -8 7 -3 7
5 24 10 37 11 20 2 22 1 10 -13 -12 -15 -11 -15 9 -2 12 7 21 13 20 14 -1 0
-12 9 -25 20 -20 16 -22 16 -16 2 4 -11 1 -17 -7 -17 -7 0 -9 3 -6 7 4 3 1 16
-7 28 -10 15 -11 26 -4 36 8 11 9 11 4 -3 -6 -21 10 -33 27 -21 18 13 52 10
50 -4 -2 -7 4 -13 13 -13 9 0 12 5 8 12 -4 7 -3 8 5 4 6 -4 19 -2 27 5 20 16
29 5 14 -18 -11 -17 -11 -17 -5 2 5 15 3 17 -5 8 -8 -7 -9 -17 -2 -29 9 -16
10 -16 16 4 4 13 13 19 22 15 7 -3 14 0 14 7 0 6 -4 9 -9 6 -4 -3 -8 5 -7 17
1 12 7 22 16 22 11 0 14 -10 13 -40 -2 -31 0 -35 7 -19 11 29 32 42 28 19 -2
-13 4 -19 21 -20 21 -2 22 0 7 10 -17 13 -23 31 -7 20 5 -3 15 1 23 8 18 18
50 31 68 28 10 -2 9 2 -5 13 -16 12 -17 15 -4 16 8 0 20 -5 27 -12 10 -10 16
-8 30 7 15 17 15 18 0 6 -17 -13 -38 -8 -38 9 0 5 8 7 18 4 13 -4 14 -3 4 4
-11 7 -11 10 2 15 9 4 16 3 16 -2 0 -4 7 -8 16 -8 14 0 14 2 -2 14 -11 8 -18
21 -16 30 3 13 1 13 -11 2 -11 -10 -12 -16 -3 -22 7 -6 4 -7 -7 -3 -10 3 -16
2 -13 -3 3 -5 -2 -15 -11 -22 -12 -10 -14 -10 -9 -1 4 6 2 12 -3 12 -6 0 -11
5 -11 12 0 6 3 9 6 5 3 -3 21 8 40 25 25 23 33 37 28 51 -5 17 -4 18 8 6 16
-15 20 -42 5 -32 -6 4 -7 1 -2 -7 6 -9 4 -11 -6 -5 -12 7 -12 5 -1 -6 11 -12
14 -12 22 1 8 13 14 8 12 -11 -1 -3 5 -6 12 -6 7 0 13 6 13 13 0 7 -4 11 -8 9
-3 -3 -12 2 -18 9 -8 9 -8 17 -2 20 5 3 12 1 14 -4 3 -6 4 -5 3 2 -1 7 6 21
15 32 10 10 16 23 12 29 -3 5 4 6 18 2 24 -7 24 -7 4 10 l-20 17 20 -6 c20 -6
20 -6 0 9 -11 9 -25 13 -32 11 -7 -3 -10 1 -6 10 3 7 9 14 15 14 5 0 6 4 3 10
-4 6 1 7 11 3 14 -5 15 -3 5 15 -10 18 -9 21 4 16 8 -3 12 -11 8 -18 -3 -6 -1
-6 8 2 7 6 18 12 23 12 6 -1 1 -9 -11 -19 -12 -10 -19 -22 -15 -25 3 -4 -1 -4
-11 0 -11 4 -17 1 -17 -7 0 -7 3 -9 7 -6 3 4 13 1 21 -6 10 -7 13 -8 9 -1 -4
7 2 22 12 35 10 13 16 29 14 36 -2 6 6 18 17 26 l22 15 -25 -2 c-17 -1 -23 -6
-20 -16 4 -13 4 -13 -7 0 -10 13 -11 12 -6 -3 4 -12 2 -16 -6 -11 -7 5 -8 3
-3 -7 8 -12 6 -12 -8 0 -19 15 -23 26 -5 15 8 -5 9 -2 4 12 -4 10 -4 15 0 11
8 -8 34 11 34 25 0 6 -8 4 -17 -3 -15 -11 -16 -11 -6 1 7 8 20 15 28 16 12 2
13 -2 4 -19 -7 -16 -4 -14 11 5 14 18 27 25 38 21 13 -4 12 -2 -3 10 -21 16
-40 13 -29 -5 4 -6 0 -6 -13 1 -11 6 -24 7 -28 3 -5 -4 -5 -1 -1 6 5 7 10 11
13 8 3 -3 14 -1 24 5 22 12 73 -16 62 -35 -3 -6 -2 -8 2 -3 5 4 9 16 10 26 1
13 -4 17 -17 13 -10 -2 -18 1 -18 7 0 7 6 9 13 5 6 -4 9 -3 4 1 -4 5 3 19 14
32 21 21 23 22 36 5 13 -15 13 -15 4 5 -8 15 -8 22 1 25 8 3 8 9 -1 24 -10 15
-11 15 -7 2 3 -11 0 -17 -7 -15 -7 1 -11 -4 -9 -11 1 -8 -2 -11 -9 -6 -8 5 -9
3 -4 -6 6 -10 4 -12 -8 -7 -11 4 -14 2 -11 -7 3 -8 1 -17 -5 -21 -6 -3 -11 -1
-11 5 0 6 -5 8 -11 4 -8 -4 -7 -9 2 -16 11 -8 10 -9 -3 -4 -10 3 -20 1 -23 -4
-4 -6 -12 -10 -18 -9 -9 0 -8 2 1 6 6 2 9 10 6 15 -4 6 -3 8 3 5 6 -4 21 5 33
18 17 18 19 25 9 25 -12 0 -11 2 1 10 8 5 11 10 6 10 -6 0 -5 5 2 12 8 8 15 8
28 -3 16 -12 17 -12 11 4 -17 42 -19 52 -9 38 8 -11 12 -10 21 5 6 11 11 14
11 7 0 -6 -4 -15 -10 -18 -6 -3 -10 -11 -10 -16 0 -5 11 -2 24 8 16 12 20 20
12 25 -10 7 5 13 27 9 4 0 8 9 8 22 1 16 2 18 6 5 2 -10 9 -18 14 -18 6 0 7
-5 4 -10 -4 -6 -9 -8 -13 -6 -4 2 -19 -6 -34 -17 l-27 -22 20 -25 c12 -14 18
-19 14 -12 -4 8 5 29 23 51 24 29 28 41 20 55 -7 13 -7 21 2 26 7 4 10 15 7
23 -3 9 1 14 11 14 10 0 26 1 37 2 20 2 20 2 1 16 -20 15 -11 21 10 7 17 -11
13 -41 -5 -35 -14 4 -14 4 -1 -6 19 -14 5 -14 -21 -1 -19 10 -26 1 -11 -14 4
-4 8 -12 8 -17 1 -5 2 -13 3 -18 0 -5 8 -11 15 -14 10 -4 13 -1 9 9 -3 7 -10
14 -16 14 -7 0 -6 5 2 12 11 10 14 10 18 1 3 -7 9 -13 15 -13 6 0 6 6 -2 15
-10 12 -8 16 11 24 13 5 18 10 12 10 -7 1 -13 5 -13 9 0 14 41 7 52 -9 8 -11
9 -11 5 3 -3 9 3 24 13 33 17 15 22 16 37 4 14 -11 15 -11 9 0 -7 10 -3 12 15
6 23 -7 24 -7 4 9 -18 14 -18 15 -2 16 9 0 17 5 17 11 0 5 4 8 10 4 5 -3 7
-13 4 -23 -5 -14 -4 -14 4 -2 6 8 8 18 6 22 -3 4 0 8 6 8 8 0 8 6 0 20 -6 11
-16 17 -22 14 -6 -4 -8 -3 -4 4 3 5 0 13 -6 15 -8 3 -8 6 -2 6 6 1 19 -8 29
-19 10 -11 24 -20 31 -20 7 0 15 -8 17 -17 3 -10 4 -6 4 8 -1 16 -6 25 -12 22
-7 -2 -18 3 -25 12 -8 10 -9 15 -1 15 6 0 11 -4 11 -10 0 -5 4 -10 10 -10 5 0
9 3 9 8 -3 19 2 32 12 32 8 0 9 -4 0 -13 -11 -14 -5 -27 11 -27 5 0 6 4 3 10
-4 6 1 7 12 3 16 -6 17 -5 3 13 -14 18 -14 18 4 4 18 -14 19 -13 13 3 -4 11
-3 16 3 12 7 -4 9 4 6 20 -3 15 -2 24 2 21 12 -12 10 -86 -2 -85 -17 3 -46
-12 -46 -23 0 -6 8 -4 17 3 15 12 16 12 10 -3 -3 -10 -2 -18 3 -18 6 0 10 7
10 16 0 13 3 14 13 5 11 -9 13 -5 12 19 -1 17 5 36 14 43 8 6 12 7 8 1 -4 -7
5 -11 23 -11 27 0 28 2 14 22 -12 19 -12 22 0 22 9 0 12 -6 8 -16 -5 -14 -3
-14 11 -3 9 8 20 11 26 8 5 -3 12 0 15 6 2 7 3 2 2 -12 -2 -14 -9 -25 -17 -25
-8 -1 -23 -7 -34 -14 -13 -8 -14 -11 -4 -8 9 3 22 0 29 -6 10 -9 11 -9 6 0 -4
7 -2 13 3 13 6 0 11 -8 12 -17 0 -14 2 -13 9 5 11 26 25 28 39 5 10 -17 10
-17 11 0 0 9 -5 17 -11 17 -5 0 -7 5 -3 11 4 8 0 8 -15 0 -17 -10 -20 -9 -15
4 3 8 10 13 14 10 5 -3 11 -1 14 4 4 5 -2 12 -11 14 -15 4 -15 5 -2 6 9 0 24
-9 35 -21 10 -12 14 -18 7 -15 -8 5 -8 1 0 -18 13 -27 30 -35 21 -10 -5 11 -2
13 12 8 13 -5 16 -3 11 10 -4 12 -1 15 15 12 29 -6 69 5 62 16 -3 5 -14 4 -26
-2 -15 -8 -19 -8 -14 0 4 6 0 14 -8 17 -9 3 -16 10 -16 15 0 5 11 2 25 -7 14
-9 25 -13 25 -9 0 4 6 2 14 -4 11 -9 20 -9 35 -2 16 9 21 7 26 -9 3 -11 11
-20 16 -20 6 0 5 9 -1 23 -10 20 -10 20 3 5 8 -10 16 -15 19 -12 3 2 8 -1 11
-8 3 -10 -7 -13 -39 -14 -23 0 -40 4 -38 8 3 5 10 6 15 3 5 -4 9 -1 9 4 0 6
-7 11 -15 11 -8 0 -15 -5 -15 -11 0 -5 -4 -8 -8 -5 -5 3 -22 -4 -40 -14 -21
-13 -32 -15 -35 -7 -2 6 -6 5 -9 -5 -8 -19 6 -18 50 5 32 17 33 17 42 -5 7
-18 9 -19 9 -5 1 10 5 16 11 12 5 -3 7 -13 4 -23 -5 -16 -5 -16 6 0 15 24 29
23 59 -4 l26 -23 -19 23 c-23 26 -6 30 17 4 10 -10 14 -23 10 -27 -5 -5 -1 -4
8 3 9 6 19 9 22 5 4 -3 7 -1 7 5 0 7 5 12 11 12 5 0 7 -4 4 -10 -9 -14 -16
-54 -8 -46 7 6 13 29 15 54 1 6 5 12 9 12 5 0 6 6 3 14 -3 8 -12 12 -21 9 -10
-4 -11 -8 -3 -13 8 -5 7 -9 -5 -13 -9 -4 -14 -3 -11 1 3 5 0 9 -7 9 -7 0 -19
2 -27 4 -25 7 -41 39 -19 39 5 0 7 -5 3 -12 -5 -8 -2 -9 10 -5 10 4 15 3 11
-3 -11 -17 7 -11 21 8 13 16 14 16 8 -1 -5 -13 -2 -16 9 -11 9 3 15 11 13 17
-1 7 -1 9 1 4 3 -4 10 -4 15 -1 6 4 8 3 5 -2 -3 -6 -2 -16 3 -24 7 -11 11 -11
23 -1 11 9 17 9 22 1 4 -6 4 -14 1 -17 -3 -4 -6 -1 -6 6 0 7 -5 9 -10 6 -6 -4
-8 -10 -5 -15 3 -5 -2 -13 -12 -18 -9 -6 -17 -19 -18 -30 -1 -12 2 -19 7 -16
5 4 7 12 4 20 -6 14 9 20 17 7 2 -5 3 -3 1 3 -1 6 9 17 22 23 15 7 22 16 18
23 -4 6 -3 8 4 5 7 -5 7 -14 -1 -31 -7 -13 -15 -22 -19 -20 -5 3 -8 0 -8 -6 0
-6 6 -10 13 -9 6 1 21 1 32 0 15 -1 16 -4 7 -10 -10 -6 -10 -10 3 -21 13 -11
14 -10 9 4 -4 9 -3 16 2 15 22 -4 33 2 28 16 -8 21 -25 19 -18 -2 5 -16 4 -16
-8 -2 -7 9 -19 15 -26 13 -7 -1 -8 0 -2 3 5 2 7 10 4 16 -5 9 -4 9 6 0 7 -6
19 -9 26 -6 8 3 17 -2 20 -11 3 -9 11 -13 18 -9 6 3 2 -4 -8 -16 -22 -24 -30
-51 -15 -51 8 0 11 8 8 26 -2 13 26 23 46 18 16 -5 18 -4 8 7 -7 7 -13 17 -13
23 0 5 6 2 13 -9 9 -12 19 -15 28 -10 8 5 11 5 7 0 -4 -4 -3 -16 3 -26 6 -13
6 -19 -1 -19 -5 0 -10 7 -10 15 0 8 -4 15 -10 15 -5 0 -10 -5 -10 -11 0 -8 -5
-7 -15 1 -9 7 -18 10 -22 6 -3 -3 0 -6 7 -6 9 0 7 -5 -6 -16 -19 -15 -19 -15
1 -6 18 7 26 8 53 3 4 -1 1 -5 -6 -10 -11 -7 -10 -9 3 -14 10 -4 14 -3 9 4 -3
6 1 10 12 9 31 -4 40 0 26 9 -11 7 -11 9 1 14 11 4 15 0 12 -14 -4 -18 29 -46
47 -41 4 1 4 -6 1 -15 -4 -10 -2 -14 5 -9 6 3 14 1 18 -6 5 -8 10 -6 16 8 8
18 8 18 5 0 -2 -21 -33 -31 -43 -14 -4 6 -10 5 -15 -3 -12 -19 -11 -29 2 -29
5 0 7 5 4 10 -3 6 -2 10 4 10 5 0 12 -6 14 -12 4 -10 6 -10 6 0 1 7 6 10 11 7
8 -5 7 -12 -2 -23 -11 -13 -11 -14 1 -7 11 6 13 4 8 -11 -6 -17 -6 -18 6 -2 9
11 18 14 28 7 8 -5 10 -9 5 -9 -5 0 -3 -7 4 -15 15 -18 0 -20 -20 -3 -12 11
-12 10 0 -5 7 -10 19 -16 26 -13 7 3 16 -4 19 -15 4 -12 13 -18 21 -15 17 6
29 -10 12 -18 -7 -2 -2 -3 11 -2 14 2 27 9 29 16 3 9 -1 11 -12 7 -10 -4 -14
-3 -11 3 3 5 -3 7 -14 5 -15 -3 -18 1 -14 13 4 15 3 15 -7 2 -10 -13 -11 -12
-6 3 4 12 2 16 -6 11 -7 -5 -8 -3 -3 6 6 9 4 11 -6 5 -8 -5 -11 -5 -7 0 4 4 3
14 -3 22 -9 9 -8 13 0 13 6 0 11 -4 11 -9 0 -5 15 -8 33 -6 30 4 31 3 9 -8
-12 -7 -20 -16 -16 -20 4 -4 13 -2 21 4 12 11 18 2 14 -24 -1 -7 15 -11 32 -8
10 2 9 -13 -3 -25 -15 -15 -21 -54 -9 -54 6 0 7 -6 3 -13 -6 -9 -4 -9 7 1 7 6
18 12 23 12 6 -1 0 -10 -14 -22 -15 -12 -18 -19 -8 -15 9 3 19 3 21 -1 2 -4 2
-1 1 6 -2 7 3 15 11 18 7 3 11 12 8 20 -5 14 -24 15 -34 1 -3 -5 -9 -2 -12 6
-3 9 4 23 16 33 12 11 19 15 15 10 -7 -8 0 -19 38 -61 17 -19 18 -25 8 -39 -8
-11 -14 -13 -19 -7 -3 6 -1 11 4 11 6 0 11 4 11 8 0 5 -6 9 -14 9 -8 0 -13 -8
-11 -19 2 -10 -2 -18 -8 -18 -7 0 -7 -4 3 -9 8 -6 17 -8 21 -5 4 2 10 0 14 -6
3 -5 0 -10 -7 -10 -10 0 -9 -3 1 -9 9 -6 22 -6 33 0 10 5 18 6 18 2 0 -4 5 -1
10 7 7 10 10 11 11 3 1 -7 3 -17 4 -23 1 -5 3 -15 4 -21 0 -5 7 -7 14 -3 6 4
9 4 5 -1 -4 -4 -3 -16 3 -26 8 -16 14 -17 32 -9 20 10 20 10 5 -3 -22 -17 -12
-30 13 -17 12 7 20 7 24 0 4 -6 3 -10 -2 -9 -18 3 -33 -2 -33 -11 0 -5 6 -9
13 -7 6 1 11 -3 10 -10 -1 -6 4 -13 11 -16 10 -4 13 1 10 16 -3 15 -1 13 7 -6
6 -15 15 -25 20 -22 5 4 6 -1 3 -9 -5 -13 -8 -14 -20 -1 -8 8 -21 12 -30 8 -8
-3 -14 -2 -12 3 1 5 -4 19 -12 30 -12 19 -15 20 -28 7 -8 -7 -11 -17 -7 -21 4
-4 10 -1 12 6 3 6 9 9 14 6 6 -3 5 -12 -3 -22 -8 -10 -8 -13 -1 -9 6 4 13 2
15 -4 2 -7 15 -13 28 -14 13 -1 26 -7 28 -13 2 -8 -3 -10 -15 -6 -15 5 -15 4
-3 -5 11 -8 18 -7 26 4 6 8 14 12 17 8 4 -3 17 2 29 13 12 10 18 13 14 7 -4
-7 -2 -13 3 -13 6 0 11 6 11 13 0 6 6 3 12 -8 6 -11 16 -23 21 -26 5 -4 5 -9
-1 -13 -6 -3 -13 2 -16 12 -3 10 -15 18 -26 18 -11 0 -19 -5 -17 -11 2 -5 9
-10 14 -10 6 0 15 -3 19 -7 4 -5 1 -8 -7 -8 -8 0 -20 5 -27 12 -9 9 -12 9 -12
-2 0 -13 -2 -13 -11 0 -8 12 -10 12 -7 1 2 -8 13 -15 24 -16 10 -2 26 -6 35
-9 10 -4 20 -3 24 3 3 6 18 11 33 11 25 0 25 0 6 16 -17 14 -16 14 9 0 27 -16
37 -10 16 11 -8 8 -7 13 2 18 7 5 10 4 6 -2 -8 -12 16 -36 26 -27 3 3 12 2 19
-2 19 -12 50 -16 44 -5 -3 5 2 15 12 22 15 12 16 12 4 -2 -10 -13 -10 -19 2
-28 8 -7 13 -18 10 -26 -3 -7 -1 -16 5 -20 7 -4 8 0 4 11 -4 12 -2 15 8 12 8
-3 13 -11 11 -17 -1 -7 2 -10 8 -6 8 5 8 11 1 19 -11 13 -5 26 11 26 5 0 6 -6
2 -12 -4 -7 2 -4 14 6 12 11 22 14 22 8 0 -7 5 -12 11 -12 5 0 8 4 4 9 -3 5
-1 12 5 16 5 3 10 -2 11 -12 1 -18 2 -17 15 26 4 11 7 11 21 0 14 -12 16 -12
9 0 -7 10 -3 12 15 6 22 -7 23 -6 6 7 -18 13 -18 15 -1 29 16 12 17 12 11 -3
-4 -13 -2 -15 10 -11 12 5 14 3 8 -8 -7 -12 -6 -12 6 -1 12 11 11 15 -6 25
-26 14 -47 18 -39 6 3 -5 3 -9 0 -9 -3 0 -10 8 -15 19 -9 15 -7 18 12 16 37
-5 52 -10 59 -20 4 -5 11 -6 15 -1 4 5 2 11 -5 13 -6 3 -10 9 -6 14 3 5 13 5
24 -1 16 -8 18 -7 14 4 -3 8 -1 17 5 21 6 3 8 17 5 30 -4 18 -2 23 13 22 13
-2 18 5 18 21 0 13 7 27 15 32 8 5 11 10 6 10 -5 0 -3 7 4 15 9 10 9 15 1 15
-6 0 -11 -4 -11 -10 0 -5 -9 -19 -20 -30 -11 -11 -16 -20 -10 -20 6 0 10 -7
10 -15 0 -8 -5 -15 -11 -15 -5 0 -8 4 -4 9 3 6 -3 14 -12 20 -13 7 -14 10 -4
11 8 0 11 3 8 6 -4 4 2 19 13 34 11 15 16 31 12 36 -4 4 1 2 11 -5 9 -7 17
-10 17 -5 0 5 4 2 10 -6 5 -8 12 -11 17 -7 9 9 -17 28 -29 21 -8 -5 -12 12 -8
31 1 6 4 17 5 25 2 8 4 15 5 15 1 0 4 13 6 29 1 16 13 40 26 55 12 14 16 20 8
13 -18 -15 -38 -16 -22 0 7 7 8 17 1 30 -6 12 -6 18 0 18 7 0 7 9 -1 25 -8 19
-8 28 3 42 12 15 12 16 -3 10 -10 -3 -17 -3 -16 1 1 4 -4 24 -11 45 -7 21 -10
45 -7 53 3 8 2 13 -3 10 -12 -8 -22 20 -14 41 4 10 2 14 -4 10 -7 -4 -14 4
-17 20 -4 16 -9 39 -12 53 -8 38 -11 268 -4 280 4 6 11 10 16 9 22 -4 36 2 31
14 -2 6 2 18 9 25 8 7 14 9 14 5 0 -13 24 17 26 34 2 9 -5 33 -15 54 -18 36
-18 37 0 26 10 -6 16 -14 14 -17 -2 -3 0 -12 5 -20 8 -13 11 -13 22 -1 8 9 9
11 1 7 -6 -3 -14 -2 -18 4 -3 5 1 10 9 10 8 0 18 5 22 11 4 7 0 9 -14 5 -34
-11 -53 37 -22 54 13 7 21 5 31 -7 12 -14 12 -16 0 -8 -10 6 -12 4 -6 -6 6
-11 5 -12 -6 -1 -18 16 -28 15 -25 -3 3 -18 16 -33 16 -18 0 12 25 12 36 0 4
-4 12 -7 18 -7 5 0 1 6 -10 14 -18 14 -18 15 -1 22 10 3 16 13 13 20 -6 16 5
18 22 4 9 -7 9 -7 2 2 -13 15 -13 38 0 38 6 0 10 -6 10 -14 0 -20 13 -27 30
-14 13 8 12 9 -2 5 -10 -4 -18 1 -21 14 -6 22 14 36 34 23 8 -4 9 -3 5 4 -4 7
-1 12 6 12 9 0 9 3 -2 10 -21 13 -39 12 -20 -1 13 -9 12 -10 -2 -5 -11 3 -18
0 -18 -7 0 -8 -3 -8 -9 2 -6 9 -11 10 -15 2 -4 -6 -2 -11 4 -11 6 0 -3 -13
-19 -29 -18 -17 -25 -31 -19 -33 7 -3 8 -7 3 -10 -6 -3 -19 6 -29 21 -11 14
-13 21 -7 14 16 -14 57 23 55 49 -1 10 3 15 9 11 6 -4 8 0 4 10 -3 9 -2 19 4
22 5 4 9 3 8 -2 -3 -20 2 -34 11 -28 6 4 7 11 4 17 -4 7 -2 8 4 4 7 -4 13 -2
13 3 3 21 4 26 13 40 7 11 5 13 -10 7 -14 -5 -16 -4 -7 5 13 13 37 3 28 -12
-4 -5 2 -9 12 -10 15 0 14 -2 -4 -11 -13 -6 -23 -15 -23 -20 0 -5 4 -7 9 -4 5
4 11 3 14 -1 2 -5 2 -2 0 6 -2 8 2 11 12 8 17 -7 30 9 15 18 -6 4 -7 11 -4 17
4 6 12 1 20 -13 7 -13 13 -20 14 -16 0 5 -5 17 -10 27 -7 13 -7 21 0 25 5 3
10 1 10 -4 0 -6 5 -11 11 -11 8 0 7 6 -2 17 -12 15 -12 16 4 10 10 -4 16 -3
12 2 -3 5 1 12 7 15 7 3 2 3 -12 -1 -22 -5 -23 -4 -12 10 8 9 21 13 30 10 13
-4 13 -3 -2 9 -10 8 -16 20 -12 26 4 7 3 12 -1 12 -13 0 -34 -40 -28 -50 4 -6
0 -10 -7 -10 -10 0 -10 -2 1 -9 8 -5 9 -11 3 -15 -19 -11 -21 22 -3 55 10 19
19 39 21 44 1 6 4 12 7 15 4 3 3 -1 -1 -7 -4 -7 -3 -13 2 -13 17 0 22 13 9 28
-10 13 -9 14 3 7 22 -14 39 -15 47 -3 3 6 2 8 -3 5 -6 -3 -16 -1 -24 4 -11 7
-8 8 10 6 28 -4 35 -33 8 -31 -10 1 -15 -3 -11 -9 4 -6 1 -7 -8 -2 -8 5 -11 5
-7 0 4 -4 3 -14 -3 -21 -13 -16 2 -25 32 -17 l24 7 -25 7 c-23 7 -24 8 -5 14
11 4 31 21 44 38 14 18 18 26 11 20 -19 -17 -35 -17 -21 0 6 8 7 18 3 22 -4 5
1 5 11 2 12 -5 16 -3 11 5 -5 8 -2 9 9 5 30 -11 18 2 -20 23 -25 14 -29 18
-13 14 23 -6 24 -6 10 11 -9 11 -10 16 -2 11 7 -4 12 -2 12 7 0 8 7 20 15 27
8 7 12 16 9 21 -2 5 2 19 11 32 8 13 12 27 8 30 -8 9 27 48 37 42 4 -3 10 2
14 10 6 17 -10 30 -17 15 -3 -6 -4 -5 -3 2 2 7 9 13 16 13 7 0 15 6 18 14 3 8
0 11 -7 7 -6 -4 -11 -2 -11 4 0 7 8 9 19 5 24 -7 49 29 29 41 -6 4 -8 3 -5 -2
3 -6 2 -16 -4 -24 -5 -8 -9 -10 -10 -5 0 6 -2 18 -4 27 -2 10 0 17 3 17 20 -3
25 2 12 11 -9 6 -11 10 -3 10 7 0 10 7 7 15 -4 8 -1 15 5 15 6 0 13 0 16 0 3
0 4 -3 3 -7 -2 -5 -6 -7 -9 -6 -11 4 -4 -42 8 -54 20 -21 24 -14 8 11 -11 16
-13 26 -6 31 6 3 11 1 11 -4 0 -6 8 -11 17 -11 15 0 15 1 -2 14 -18 13 -18 13
1 25 16 10 16 12 2 7 -14 -4 -18 0 -18 17 0 17 -2 19 -10 7 -5 -8 -11 -12 -14
-10 -2 3 2 14 10 24 10 14 14 16 14 5 0 -8 6 -3 13 11 17 31 13 37 -10 19 -16
-12 -17 -12 -6 2 7 9 10 19 6 22 -3 4 2 9 11 13 9 3 16 10 16 16 0 5 -5 6 -11
2 -8 -5 -8 -1 0 13 6 11 7 23 4 27 -3 3 -1 6 6 6 7 0 10 4 6 9 -3 5 -1 12 4
16 5 3 8 14 6 25 -5 28 30 46 53 28 15 -11 15 -11 5 3 -7 9 -9 20 -5 24 4 5 1
5 -5 1 -7 -4 -21 -2 -30 3 -11 6 -13 11 -5 11 7 0 10 5 7 10 -3 6 -1 10 5 10
7 0 10 -7 6 -17 -4 -11 2 -8 14 7 11 14 19 32 19 40 0 8 -4 5 -9 -7 -11 -27
-14 -28 -29 -9 -9 11 -9 16 0 22 8 4 9 3 5 -4 -4 -7 -2 -12 3 -12 11 0 15 19
12 50 -1 9 6 5 18 -10 19 -23 20 -24 15 -3 -7 24 -30 38 -39 23 -4 -6 -3 -16
1 -22 5 -10 4 -10 -6 -1 -9 8 -10 16 -3 25 5 7 8 23 7 36 -1 16 2 20 11 12 6
-5 15 -7 18 -3 4 3 7 1 7 -6 0 -8 -7 -11 -15 -7 -8 3 -15 1 -15 -5 0 -6 8 -9
18 -7 9 2 17 10 17 18 0 8 -6 14 -12 13 -7 -2 -13 0 -14 5 0 4 -2 15 -4 25 -2
9 2 17 8 17 8 0 8 3 -1 12 -6 6 -8 18 -3 27 4 9 7 37 6 63 0 25 3 44 7 42 5
-3 8 0 8 7 0 9 3 9 14 0 11 -9 16 -9 22 0 4 7 3 9 -4 5 -6 -3 -13 -2 -17 4 -4
6 -11 8 -16 5 -5 -4 -9 1 -9 10 0 13 4 14 21 4 13 -6 19 -7 15 -1 -3 6 0 13 6
16 9 4 8 5 -2 5 -8 -1 -19 -1 -25 0 -6 0 -11 34 -11 74 -1 58 0 67 9 47 5 -14
9 -32 8 -40 -4 -23 9 -5 14 19 2 12 0 19 -6 16 -5 -4 -9 3 -9 15 0 12 5 18 10
15 6 -3 10 -1 10 5 0 6 -8 9 -18 6 -13 -4 -19 -1 -19 9 0 9 6 14 13 11 8 -3
11 0 7 9 -3 8 -10 12 -16 8 -6 -4 -8 0 -4 10 4 10 1 17 -6 17 -7 0 -3 7 7 15
10 8 22 12 26 10 4 -2 7 2 7 10 0 11 -4 12 -14 3 -19 -15 -28 -3 -28 38 -1 29
2 33 20 29 11 -3 14 -2 7 1 -6 3 -10 9 -7 14 3 4 -3 7 -12 6 -11 -1 -17 8 -18
27 -1 15 -5 30 -8 34 -4 3 1 11 10 18 13 9 13 14 3 20 -9 6 -11 4 -5 -5 6 -9
4 -11 -4 -6 -7 5 -10 14 -7 21 2 7 2 16 -2 20 -6 6 -10 32 -13 83 -1 12 -7 22
-13 22 -6 0 -4 5 4 10 8 5 10 10 4 10 -10 0 -61 165 -56 183 1 4 -2 7 -7 7 -5
0 -11 9 -14 20 -3 13 -1 18 6 13 7 -3 5 2 -4 13 -22 26 -32 57 -16 49 6 -4 4
0 -6 8 -10 8 -19 24 -20 36 -1 12 -4 21 -7 21 -7 0 -32 66 -30 76 1 4 -3 10
-8 13 -5 3 -17 21 -26 39 -14 28 -15 36 -4 50 12 15 11 16 -4 3 -16 -12 -22
-9 -19 12 0 4 -4 7 -10 7 -6 0 -9 7 -5 15 3 8 2 14 -2 14 -19 -3 -25 2 -12 11
13 8 13 10 -1 10 -9 0 -19 7 -23 15 -7 19 -4 31 7 27 5 -1 6 2 2 7 -3 6 -11 8
-18 5 -7 -2 -18 5 -25 17 -11 17 -11 20 0 15 7 -4 3 1 -9 10 -13 9 -23 22 -23
29 0 8 -3 15 -7 17 -17 7 -62 76 -55 83 4 5 2 5 -5 1 -7 -4 -17 3 -24 15 -6
12 -23 33 -37 46 -14 12 -22 23 -19 23 3 0 -31 37 -76 82 -45 45 -81 87 -79
93 2 5 0 7 -3 3 -10 -10 -75 41 -75 59 0 8 -4 12 -9 8 -6 -3 -25 8 -43 23 -18
16 -71 54 -118 85 -47 30 -92 61 -101 69 -8 8 -20 13 -25 11 -5 -2 -20 6 -32
17 -12 11 -23 20 -24 19 -6 -2 -83 36 -89 44 -3 5 -10 9 -15 9 -5 0 -25 7 -44
15 -47 20 -328 113 -337 112 -21 -3 -44 2 -39 9 2 4 -7 8 -22 9 -52 2 -77 7
-84 18 -5 6 -8 5 -8 -3 0 -8 -5 -10 -12 -6 -7 5 -39 10 -72 11 -33 2 -64 8
-71 13 -6 5 -17 5 -25 0 -8 -5 -18 -6 -23 -3 -8 5 -203 5 -247 0 -14 -2 -31 2
-39 7 -11 8 -13 8 -7 -1z m281 -502 c-3 -5 -1 -12 5 -16 5 -3 10 -11 10 -18 0
-6 -6 -2 -14 8 -13 18 -13 35 0 35 3 0 3 -4 -1 -9z m-249 -15 c18 5 18 5 0 -6
-15 -10 -21 -9 -35 6 -14 16 -14 17 0 6 9 -7 25 -10 35 -6z m141 -4 c-22 -24
-22 -38 0 -21 11 10 14 10 9 2 -4 -8 -1 -13 9 -13 12 0 15 6 11 23 -3 12 -3
16 0 9 3 -6 9 -10 13 -8 4 3 7 -4 7 -14 0 -11 -2 -17 -4 -15 -3 2 -13 0 -23
-5 -9 -6 -19 -7 -22 -2 -2 4 -2 1 -1 -5 2 -7 -3 -13 -11 -13 -9 0 -12 6 -9 18
5 13 4 14 -4 3 -8 -10 -14 -11 -32 -1 -15 8 -20 8 -16 1 4 -6 2 -11 -3 -11 -6
0 -11 7 -11 16 0 8 -5 12 -10 9 -6 -4 -7 -12 -4 -18 4 -7 3 -9 -1 -4 -5 4 -10
18 -12 30 -2 12 0 18 4 12 5 -5 13 -11 18 -12 6 -1 19 -5 30 -8 17 -6 16 -3
-5 15 -14 12 -18 18 -10 14 8 -4 23 -14 33 -22 19 -17 24 -3 5 16 -9 9 -7 11
10 7 12 -2 24 0 27 6 4 5 9 9 12 9 3 0 -1 -8 -10 -18z m-230 -14 c-3 -8 -6 -5
-6 6 -1 11 2 17 5 13 3 -3 4 -12 1 -19z m415 4 c-3 -10 -1 -13 6 -8 7 4 12 5
12 2 0 -15 -20 -14 -29 2 -7 14 -6 19 4 19 7 0 11 -7 7 -15z m38 -12 c-7 -13
-7 -21 0 -25 5 -3 10 2 10 12 0 15 2 15 9 4 13 -20 44 -24 37 -5 -3 9 -1 12 4
9 6 -3 10 -13 10 -21 0 -8 4 -13 9 -9 5 3 12 1 16 -5 3 -5 15 -10 26 -10 13 0
18 4 13 12 -4 6 3 4 16 -5 17 -12 28 -13 42 -6 11 6 22 8 26 5 3 -3 0 -6 -7
-6 -7 0 -9 -5 -6 -10 5 -8 11 -7 21 1 23 19 16 4 -8 -17 -14 -12 -18 -14 -13
-4 4 8 5 12 0 8 -4 -4 -17 -3 -28 3 -15 9 -18 8 -12 -2 5 -8 4 -10 -3 -5 -7 4
-12 2 -12 -3 0 -6 7 -11 16 -11 8 0 12 -4 9 -10 -3 -5 -1 -10 5 -10 7 0 9 7 5
18 -5 13 -3 14 6 5 6 -6 17 -10 23 -7 6 2 20 -9 31 -25 12 -19 22 -26 26 -19
12 18 39 18 39 0 0 -14 2 -14 9 -3 7 11 10 10 14 -5 4 -16 5 -16 6 -2 1 19 -9
28 -44 34 -14 2 -25 0 -25 -6 0 -6 -5 -8 -10 -5 -6 4 -7 11 -4 17 4 6 2 8 -3
5 -6 -4 -14 0 -17 9 -4 11 -2 14 6 11 7 -3 22 -8 33 -12 18 -5 17 -4 -2 11
-24 17 -30 34 -12 34 5 0 8 -4 5 -9 -7 -11 21 -25 63 -29 8 -1 11 -8 7 -18 -4
-12 -1 -14 13 -9 11 3 22 1 26 -5 3 -5 17 -8 30 -6 14 3 24 0 22 -6 -1 -6 4
-13 12 -16 8 -3 11 0 7 7 -4 6 -3 11 3 11 5 0 13 -4 16 -10 3 -5 1 -10 -5 -10
-6 0 -9 -4 -6 -8 3 -5 -1 -9 -9 -9 -8 0 -15 4 -15 8 0 4 -8 6 -17 5 -10 -2
-24 4 -31 13 -8 9 -11 10 -7 3 4 -7 1 -11 -7 -10 -7 2 -13 -3 -13 -11 0 -8 6
-15 13 -17 7 -1 8 0 2 3 -16 8 -11 23 6 16 9 -3 20 -15 24 -27 7 -17 9 -18 9
-3 1 9 6 17 12 17 5 0 7 -6 3 -12 -5 -10 -4 -10 7 0 11 10 15 8 24 -9 10 -18
13 -19 25 -4 11 13 10 15 -4 9 -18 -7 -21 7 -5 23 17 17 71 -11 63 -32 -4 -10
0 -15 11 -15 10 0 13 4 9 13 -6 9 -5 9 8 0 8 -7 19 -9 23 -5 5 4 5 1 1 -6 -4
-7 -12 -10 -17 -7 -8 6 -11 -2 -8 -21 0 -4 -5 -11 -13 -16 -10 -7 -9 -8 5 -4
9 3 17 1 17 -5 0 -6 9 -7 22 -3 20 6 21 5 9 -9 -7 -9 -11 -22 -8 -29 3 -8 6
-6 6 5 1 10 5 16 10 13 5 -3 15 1 22 10 7 8 8 14 3 12 -5 -1 -19 3 -31 10 -13
7 -23 10 -23 7 0 -4 -5 -3 -12 1 -7 5 -3 10 12 16 12 5 25 6 28 3 3 -3 -1 -5
-9 -5 -12 0 -12 -2 0 -9 10 -6 20 -3 32 12 10 12 18 17 19 10 0 -6 -6 -13 -12
-16 -23 -7 12 -38 36 -32 12 3 15 2 9 -1 -7 -3 -13 -10 -13 -15 0 -6 5 -7 10
-4 6 3 10 1 10 -4 0 -16 -11 -13 -33 7 -11 9 -17 11 -13 5 4 -8 2 -13 -5 -13
-7 0 -4 -7 7 -16 19 -15 19 -16 -1 -9 -16 5 -18 4 -7 -6 9 -10 15 -10 24 -1 7
7 20 12 29 12 12 0 17 6 14 18 -2 11 3 19 11 19 17 0 19 -17 2 -17 -7 0 0 -12
15 -25 16 -14 33 -23 38 -20 5 4 17 1 26 -4 10 -6 12 -11 6 -11 -7 0 -13 -5
-13 -11 0 -5 5 -7 11 -4 6 4 5 -2 -2 -13 -7 -12 -18 -18 -24 -15 -5 4 -2 -3 8
-14 10 -12 15 -23 10 -25 -4 -3 -3 -4 3 -2 15 3 54 -24 54 -37 0 -6 -4 -8 -8
-5 -5 3 -9 -1 -9 -9 0 -10 4 -12 12 -5 7 5 15 7 18 3 4 -3 7 -1 7 6 0 7 4 10
9 6 5 -3 12 -1 16 4 3 6 -4 8 -15 6 -13 -3 -18 0 -14 7 5 7 2 8 -7 3 -8 -5
-11 -5 -7 0 4 4 4 13 -1 19 -6 7 -4 19 6 31 15 20 15 20 11 0 -2 -16 2 -20 22
-18 l25 3 -23 -13 c-12 -7 -20 -16 -16 -20 4 -4 13 -2 20 4 10 8 12 6 9 -10
-2 -12 -7 -26 -10 -31 -4 -6 4 -20 17 -31 20 -18 21 -20 3 -14 -16 5 -17 4 -8
-6 10 -10 15 -9 28 1 18 15 20 0 3 -19 -11 -11 -10 -12 1 -6 11 6 13 4 8 -9
-4 -9 -3 -15 2 -12 4 3 18 -6 31 -19 21 -23 48 -26 34 -4 -3 5 -10 7 -15 4 -5
-4 -9 -1 -9 4 0 6 4 11 9 11 14 0 30 -24 27 -43 -3 -21 -16 -35 -16 -17 0 9
-3 10 -13 1 -8 -6 -17 -9 -20 -6 -4 3 -5 2 -2 -2 3 -4 18 -8 33 -9 15 -1 37
-5 49 -7 14 -4 26 0 31 10 8 13 10 13 15 -1 4 -10 3 -14 -2 -11 -19 11 -18
-11 2 -30 17 -17 19 -17 14 -2 -4 9 -2 17 4 17 6 0 9 -9 6 -19 -6 -24 20 -64
35 -55 6 4 8 2 4 -4 -3 -5 0 -13 6 -15 9 -4 10 -6 1 -6 -6 -1 -15 4 -18 9 -5
8 -12 7 -22 -2 -12 -10 -18 -9 -29 6 -12 18 -13 17 -11 -2 0 -11 5 -18 9 -16
4 3 8 0 8 -7 0 -9 3 -9 14 1 10 7 21 8 32 2 15 -8 15 -9 0 -15 -12 -5 -15 -3
-10 6 5 9 3 8 -7 -1 -12 -11 -12 -14 1 -22 8 -5 20 -10 25 -10 6 0 3 5 -5 10
-8 5 -10 10 -4 10 5 0 16 -6 23 -12 11 -11 12 -8 7 12 -6 23 -6 23 5 5 11 -17
14 -30 18 -82 1 -7 9 -10 19 -7 14 5 15 4 2 -5 -13 -9 -9 -15 10 -13 3 0 7 -8
7 -19 1 -10 -2 -19 -8 -19 -5 0 -9 -5 -9 -11 0 -5 5 -7 10 -4 6 3 10 1 10 -5
0 -6 5 -8 12 -4 6 4 8 3 4 -4 -3 -6 -1 -14 5 -17 5 -4 8 -13 5 -21 -3 -7 3
-18 12 -23 11 -7 12 -11 4 -11 -7 0 -11 -4 -8 -9 9 -13 -4 -42 -16 -35 -5 3
-5 11 2 19 8 9 8 15 0 20 -6 3 -8 10 -6 14 3 4 -1 8 -8 8 -8 0 -12 -6 -9 -14
4 -9 0 -11 -13 -7 -15 5 -16 4 -5 -4 8 -6 21 -8 30 -4 13 4 12 1 -3 -16 -11
-12 -16 -25 -13 -29 4 -3 7 -1 7 7 0 8 4 9 13 3 6 -6 22 -9 34 -8 14 1 19 -3
16 -12 -3 -7 0 -19 6 -27 6 -7 8 -16 5 -19 -3 -3 -2 -12 2 -19 5 -7 9 -20 9
-28 0 -8 4 -21 9 -29 6 -10 5 -12 -2 -7 -7 4 -12 1 -12 -9 0 -9 -5 -13 -10
-10 -8 5 -7 12 2 23 12 15 11 16 -4 4 -17 -13 -14 -42 4 -42 5 0 6 -5 3 -10
-5 -8 -11 -8 -20 0 -10 8 -15 8 -21 -1 -4 -7 -3 -9 4 -5 11 7 36 -27 26 -36
-3 -3 2 -8 10 -11 9 -4 18 -1 22 5 4 7 3 8 -4 4 -7 -4 -12 -3 -12 3 0 5 3 11
8 14 4 2 1 2 -5 1 -15 -4 -17 12 -3 21 6 4 8 10 5 15 -3 5 0 12 6 15 6 5 10 0
9 -11 -1 -11 -1 -21 0 -24 7 -16 6 -60 -2 -60 -4 0 -8 -5 -8 -10 0 -6 5 -9 12
-8 6 2 12 -9 13 -24 1 -15 -2 -25 -6 -22 -4 2 -6 13 -4 24 3 17 1 18 -14 10
-10 -5 -22 -6 -26 -2 -5 4 -5 2 -1 -5 4 -7 13 -10 21 -7 10 4 13 -2 10 -25 -2
-17 1 -31 6 -31 6 0 7 5 4 10 -3 6 -1 10 4 10 6 0 11 -7 11 -15 0 -13 -11 -19
-31 -17 -3 1 -5 -9 -4 -21 1 -12 6 -20 11 -17 5 2 8 10 6 17 -2 7 1 13 6 13 4
0 8 -32 8 -70 0 -42 -4 -69 -10 -67 -5 2 -12 9 -14 17 -3 8 0 10 9 5 11 -6 12
-5 2 6 -14 15 -18 43 -5 35 5 -3 9 1 9 9 0 8 -3 13 -5 10 -3 -3 -12 1 -21 8
-13 10 -14 10 -6 -3 6 -8 10 -30 9 -47 -1 -18 2 -35 7 -39 5 -3 7 -10 4 -15
-3 -5 0 -6 7 -4 10 4 13 -3 12 -22 0 -15 -7 -29 -14 -31 -9 -3 -11 1 -7 11 3
9 -2 21 -11 28 -14 11 -15 11 -5 0 6 -7 9 -20 6 -27 -3 -8 2 -17 11 -20 9 -3
16 -16 16 -28 0 -17 -2 -18 -10 -6 -5 8 -10 10 -10 4 0 -5 5 -15 12 -22 9 -9
9 -12 0 -12 -6 0 -11 -8 -10 -17 3 -38 -2 -54 -14 -47 -10 5 -10 4 -2 -5 7 -8
9 -25 4 -47 -4 -19 -6 -34 -3 -34 2 0 1 -5 -2 -11 -5 -6 -12 -4 -22 8 -10 11
-9 7 2 -11 17 -28 17 -29 0 -22 -16 6 -16 4 -4 -10 10 -13 11 -18 2 -21 -7 -2
-10 -10 -7 -18 3 -7 0 -24 -8 -37 -7 -13 -13 -27 -13 -33 -1 -18 -39 -110 -48
-116 -5 -3 -9 -9 -9 -12 0 -19 -12 -47 -19 -47 -5 0 -8 -3 -7 -7 4 -15 -13
-53 -23 -53 -6 0 -8 -4 -5 -9 5 -7 -2 -19 -43 -67 -5 -7 -7 -15 -4 -18 4 -3 1
-6 -5 -6 -7 0 -12 -6 -12 -14 0 -7 -11 -25 -25 -40 -13 -14 -21 -26 -17 -26 4
-1 -2 -8 -14 -18 -11 -9 -22 -21 -25 -27 -2 -5 -9 -9 -16 -9 -6 1 -9 -4 -7
-11 6 -15 -73 -101 -89 -97 -7 2 -9 1 -5 -3 9 -9 -23 -45 -34 -39 -5 3 -7 1
-6 -5 2 -6 -26 -36 -62 -65 -49 -41 -68 -52 -78 -44 -9 8 -11 7 -7 -4 7 -17
-50 -62 -67 -52 -6 4 -8 3 -4 -4 8 -13 -151 -105 -167 -95 -5 3 -7 2 -4 -4 7
-12 -40 -36 -54 -28 -5 4 -9 1 -9 -5 0 -7 -7 -9 -16 -6 -8 3 -13 2 -10 -3 3
-5 -8 -14 -24 -20 -17 -5 -30 -7 -30 -4 0 3 -7 0 -15 -7 -8 -6 -19 -9 -25 -5
-5 3 -10 2 -10 -3 0 -16 -200 -68 -226 -58 -10 4 -13 2 -8 -6 5 -7 0 -9 -13
-6 -12 3 -27 2 -34 -3 -8 -4 -20 -3 -28 4 -10 8 -13 8 -8 1 5 -8 -7 -13 -36
-16 -50 -6 -313 -2 -342 5 -11 3 -45 8 -75 12 -30 4 -76 13 -102 20 -27 8 -48
11 -48 7 0 -3 -5 -1 -12 6 -7 7 -21 12 -33 12 -31 1 -187 65 -178 73 4 5 0 5
-9 2 -8 -3 -23 2 -33 12 -10 10 -20 16 -22 14 -7 -6 -63 21 -63 31 0 5 -4 7
-8 4 -16 -9 -197 118 -196 137 2 13 -1 15 -11 7 -9 -7 -27 4 -68 44 -32 30
-64 57 -73 60 -9 4 -14 9 -11 13 4 3 -5 14 -18 25 -14 11 -22 24 -19 30 4 6 3
8 -3 5 -5 -3 -17 3 -26 14 -9 10 -15 19 -13 19 3 0 -10 15 -27 34 -41 43 -67
75 -67 82 0 3 -7 12 -16 21 -8 9 -13 22 -10 29 3 8 0 13 -6 11 -6 -1 -17 9
-24 21 -6 13 -16 28 -22 34 -6 6 -8 17 -5 26 4 10 2 13 -5 8 -12 -7 -16 5 -12
34 1 8 -1 12 -5 8 -4 -4 -22 23 -41 60 -33 64 -44 93 -24 62 8 -13 10 -13 10
1 0 9 -6 19 -14 22 -7 3 -18 20 -25 37 -9 29 -9 31 6 25 10 -3 14 -3 10 1 -4
4 -1 14 5 23 10 13 10 14 -2 4 -23 -21 -34 -15 -47 24 -9 29 -9 41 0 52 9 11
9 13 1 8 -7 -4 -14 0 -18 8 -7 19 3 47 15 39 5 -3 9 0 9 5 0 14 -12 14 -28 1
-6 -6 -10 -7 -7 -4 2 4 -1 16 -7 28 -10 18 -9 19 3 9 12 -10 15 -8 15 6 0 11
-6 17 -13 14 -8 -3 -11 2 -8 16 2 12 0 21 -4 21 -4 0 -8 12 -9 28 -1 15 -4 51
-6 79 -3 37 -1 57 9 67 13 12 12 15 -1 20 -8 3 -12 2 -9 -4 3 -6 2 -10 -3 -10
-6 0 -9 11 -8 24 1 17 5 21 12 15 7 -6 16 -3 25 8 13 16 12 17 -3 4 -19 -14
-25 -2 -8 15 7 7 6 11 -4 11 -8 0 -13 -4 -10 -9 3 -4 1 -8 -4 -8 -5 0 -7 26
-5 58 2 31 5 83 6 114 1 31 6 60 9 63 4 4 4 13 2 20 -3 7 0 16 6 20 8 5 8 10
0 20 -9 11 -8 13 9 10 14 -2 18 1 14 11 -3 7 -9 12 -14 9 -4 -3 -6 5 -3 17 3
13 6 28 6 35 1 7 5 10 9 7 5 -2 8 6 7 18 -1 36 1 48 11 48 10 0 9 -19 -2 -37
-5 -8 -4 -13 3 -13 7 0 6 -8 -3 -22 -16 -27 -16 -36 0 -63 11 -18 12 -18 13
-2 0 9 -5 17 -11 17 -5 0 -8 4 -4 10 3 5 13 7 23 4 15 -5 15 -4 -1 6 -17 11
-17 13 -2 37 13 19 14 27 4 39 -6 8 -8 14 -4 14 4 0 3 6 -2 13 -5 6 -10 23
-10 37 -1 14 1 19 4 12 3 -6 9 -9 14 -6 6 4 6 11 -1 19 -8 10 -7 13 4 11 9 -1
19 -6 23 -11 4 -4 3 -5 -3 -2 -6 3 -11 0 -11 -8 0 -8 4 -15 9 -15 8 0 12 16 9
34 -1 4 3 14 9 21 13 16 43 8 33 -9 -3 -6 -2 -7 2 -3 16 14 14 36 -3 30 -11
-5 -13 -3 -7 8 7 11 5 11 -10 -1 -17 -14 -17 -13 -10 10 7 22 6 23 -9 11 -11
-9 -13 -17 -6 -26 5 -6 7 -15 3 -18 -10 -10 -33 -8 -33 3 0 5 8 6 18 3 14 -6
15 -4 4 9 -9 11 -10 18 -2 23 6 3 7 11 4 17 -4 6 -2 8 4 4 6 -3 13 -2 17 4 3
5 0 10 -7 10 -9 0 -9 3 2 10 13 9 13 10 0 10 -12 1 -11 3 3 11 9 6 15 15 11
20 -3 5 -2 9 3 8 4 -1 10 0 13 1 20 7 41 7 47 -2 4 -7 -2 -9 -15 -6 -12 4 -20
3 -17 -2 3 -4 13 -10 24 -13 20 -5 22 7 7 32 -7 11 -5 13 9 7 15 -5 16 -4 5 9
-12 15 0 22 14 8 3 -4 16 -8 28 -10 12 -2 19 -1 16 3 -3 3 -12 6 -20 8 -28 4
-40 17 -27 32 6 8 9 14 5 14 -3 0 -8 0 -11 0 -3 0 -6 -3 -7 -7 0 -5 -8 -14
-17 -21 -9 -8 -10 -11 -4 -7 9 4 11 1 7 -9 -3 -9 -11 -13 -17 -9 -5 3 -7 2 -4
-3 3 -5 -3 -10 -13 -10 -19 0 -19 1 0 18 10 10 17 27 15 38 -2 11 1 23 7 26 7
5 8 2 3 -6 -5 -8 -3 -11 5 -8 7 2 14 12 16 22 1 10 6 21 10 24 4 4 4 -1 1 -10
-4 -10 -3 -18 1 -19 4 0 15 -2 25 -4 18 -3 18 -3 0 18 -10 12 -22 26 -28 30
-6 5 -3 7 7 3 10 -3 20 -1 23 4 4 6 0 10 -7 10 -7 0 2 9 21 21 18 11 31 23 27
26 -3 3 -13 0 -22 -8 -16 -13 -16 -12 -4 8 10 16 18 19 27 12 7 -6 17 -7 24
-3 7 4 10 2 7 -7 -3 -8 -11 -13 -17 -11 -7 1 -9 -2 -5 -9 4 -8 3 -9 -4 -5 -7
4 -10 2 -6 -7 2 -7 11 -14 18 -14 8 0 12 5 10 12 -3 6 4 20 15 32 15 16 17 22
7 26 -8 3 -18 1 -23 -4 -6 -6 -14 -4 -22 5 -11 13 -9 15 9 11 17 -3 20 0 15
15 -4 12 -2 20 5 20 6 0 9 -4 6 -9 -3 -5 0 -14 8 -20 11 -9 18 -8 30 4 20 20
20 22 1 22 -8 0 -12 -4 -9 -8 2 -4 -1 -11 -7 -15 -12 -7 -10 10 7 50 6 15 4
17 -7 11 -12 -8 -12 -6 0 8 7 9 21 17 30 17 13 1 13 3 -3 15 -11 8 -15 15 -9
15 5 0 18 -10 29 -22 10 -12 13 -18 5 -13 -9 5 -12 4 -7 -3 3 -6 1 -14 -5 -18
-8 -4 -9 -3 -5 4 4 7 1 12 -6 12 -8 0 -14 -9 -14 -19 0 -14 4 -17 16 -12 8 5
22 6 30 4 13 -4 13 -3 0 6 -13 10 -8 15 13 12 4 0 7 4 7 10 0 5 4 7 10 4 5 -3
7 0 4 8 -3 8 -1 18 5 21 6 4 8 13 5 21 -6 14 12 15 34 1 7 -4 16 -5 19 -2 4 3
1 6 -5 6 -7 0 -12 4 -12 9 0 6 9 8 20 6 11 -2 23 1 26 7 4 6 3 8 -3 5 -6 -4
-14 4 -17 17 -3 14 -15 28 -27 31 -11 4 -18 9 -16 12 3 2 14 0 25 -6 11 -6 22
-7 26 -4 4 4 -4 13 -16 19 l-23 13 23 -2 c12 -1 22 -5 22 -10 0 -4 4 -6 8 -3
11 6 43 -30 34 -39 -4 -3 2 -3 13 1 11 5 14 9 7 12 -7 2 -10 8 -6 13 3 5 0 8
-7 7 -6 -2 -13 2 -16 9 -2 7 3 10 14 8 10 -2 18 -4 18 -5 0 -1 8 -3 18 -5 9
-2 17 1 17 6 0 5 -5 9 -11 9 -5 0 -8 4 -5 9 7 10 -13 9 -31 -2 -6 -4 -15 -2
-19 4 -4 8 -9 7 -15 -2 -4 -7 -11 -10 -15 -7 -3 4 0 14 9 22 13 14 16 14 21 0
3 -8 10 -12 16 -9 6 4 5 12 -5 21 -17 17 -20 28 -6 20 5 -3 11 0 14 7 4 12 57
23 57 11 0 -3 -4 -13 -9 -23 -6 -10 -6 -23 0 -32 6 -9 9 -10 9 -2 0 7 7 10 18
7 16 -5 16 -5 0 6 -26 16 -23 33 3 19 15 -8 19 -8 15 0 -4 6 -3 11 2 11 6 0
13 7 16 16 3 8 2 13 -3 9 -5 -3 -8 3 -6 12 2 10 4 22 4 26 1 5 5 6 10 3 9 -6
34 18 26 25 -2 3 5 5 15 6 11 1 20 -3 20 -8 0 -6 7 -6 19 1 13 7 22 7 26 0 5
-9 -1 -12 -21 -9 -4 0 -11 -5 -15 -13 -5 -7 -9 -8 -9 -2 0 6 -7 11 -15 11 -18
0 -20 -17 -2 -18 6 0 22 -2 34 -3 12 -1 20 1 17 6 -5 8 11 12 30 9 5 -1 3 5
-4 14 -12 14 -10 15 13 11 21 -4 25 -1 20 12 -3 9 -2 14 2 9 5 -4 17 0 27 9
14 14 20 14 33 4 10 -8 15 -9 15 -1 0 6 -5 11 -11 11 -5 0 -7 5 -4 11 5 7 14
4 28 -8 11 -10 17 -13 14 -6 -9 15 2 45 14 37 5 -3 6 -10 3 -16 -4 -7 -2 -8 5
-4 6 4 9 12 6 17 -6 8 8 13 28 10 4 -1 15 5 23 14 9 8 20 15 27 15 6 0 3 -6
-6 -12 -16 -12 -16 -14 5 -27 21 -13 22 -13 10 2 -11 13 -10 17 5 26 15 8 16
12 4 23 -8 7 -11 8 -8 3 3 -6 -3 -11 -13 -11 -15 0 -16 4 -7 24 6 13 13 19 15
13 2 -6 9 -8 14 -5 6 4 9 3 6 -2 -3 -5 11 -17 31 -27 20 -11 33 -16 29 -12 -9
10 15 34 26 27 5 -3 6 0 2 6 -8 14 -4 15 18 6 9 -3 13 -11 9 -17 -3 -6 -1 -7
5 -3 6 4 9 12 6 20 -3 7 2 13 11 13 10 0 14 -6 10 -16 -3 -11 0 -10 10 3 18
23 19 33 5 41 -6 4 -7 -1 -4 -12 5 -15 4 -16 -5 -3 -9 12 -11 13 -11 1 0 -8
-2 -12 -5 -9 -10 10 8 39 21 34 8 -3 14 0 14 7 0 8 3 8 8 2 4 -6 13 -10 20 -9
6 1 17 2 23 3 5 0 7 6 4 11 -3 6 -1 10 4 10 6 0 10 -9 8 -20 -3 -21 -17 -40
-17 -23 0 14 -33 10 -38 -5 -2 -6 7 -16 20 -22 21 -10 21 -10 6 3 -26 20 -22
28 7 15 13 -6 22 -15 18 -21 -3 -6 -1 -7 5 -3 6 4 9 12 6 19 -2 7 4 13 16 14
14 1 18 -2 13 -10 -11 -18 -12 -38 -2 -31 5 3 7 9 4 13 -2 5 4 16 15 26 10 9
16 24 13 32 -8 20 17 35 34 21 9 -7 17 -7 28 2 8 7 15 9 15 6 0 -13 -24 -31
-45 -34 -16 -2 -17 -1 -5 7 8 6 12 11 8 11 -5 0 -11 0 -15 0 -4 0 -8 -14 -9
-30 -2 -31 -2 -31 14 -9 15 21 16 21 29 4 7 -11 13 -13 13 -6 0 7 5 9 10 6 6
-4 8 -11 5 -16 -4 -5 -1 -9 4 -9 6 0 11 4 11 9 0 14 -26 32 -35 23 -5 -4 -5
-1 -1 6 5 8 13 9 24 3 9 -5 19 -9 22 -9 23 -2 40 -17 35 -31 -5 -12 -4 -13 6
-4 10 10 9 15 -1 28 -15 18 -7 19 20 3 16 -10 24 -10 41 0 12 8 33 16 47 18
36 7 42 12 35 32 -3 10 2 7 12 -7 15 -20 20 -21 29 -10 16 21 34 21 40 1 7
-21 42 -26 44 -6 1 8 3 21 4 29 1 8 5 12 10 9 4 -3 4 -14 -2 -24z m43 5 c-3
-9 -8 -14 -10 -11 -3 3 -2 9 2 15 9 16 15 13 8 -4z m-193 -5 c0 -5 -5 -10 -11
-10 -5 0 -7 5 -4 10 3 6 8 10 11 10 2 0 4 -4 4 -10z m257 -4 c-3 -7 0 -20 6
-27 10 -11 9 -11 -5 0 -15 11 -15 41 -1 41 3 0 3 -6 0 -14z m-677 1 c0 -1 -9
-10 -19 -19 -17 -14 -20 -14 -25 -2 -3 8 -2 13 2 10 4 -2 14 -1 22 5 16 9 20
11 20 6z m-103 -24 c0 -9 -4 -10 -14 -2 -7 6 -13 12 -13 14 0 1 6 2 13 2 8 0
14 -6 14 -14z m213 10 c-1 -18 -18 -35 -24 -24 -4 6 -2 11 4 11 6 0 8 5 5 10
-3 6 -1 10 4 10 6 0 11 -3 11 -7z m24 -25 c-9 -14 -23 2 -17 18 4 12 8 13 14
3 4 -7 5 -17 3 -21z m636 17 c0 -2 -6 -5 -13 -8 -8 -3 -14 1 -14 8 0 7 6 11
14 8 7 -3 13 -6 13 -8z m-815 -45 c-4 -6 -11 -8 -16 -4 -6 3 -21 -4 -34 -16
-20 -19 -27 -21 -40 -10 -11 9 -12 16 -5 25 5 6 7 15 3 18 -3 4 -2 7 4 7 6 0
13 -7 17 -15 3 -8 10 -15 15 -15 6 0 8 7 5 15 -6 13 6 20 29 16 4 0 7 5 7 12
0 6 5 4 11 -6 5 -9 7 -22 4 -27z m-184 -3 c-10 -9 -11 -8 -5 6 3 10 9 15 12
12 3 -3 0 -11 -7 -18z m37 9 c-7 -8 -15 -12 -17 -11 -5 6 10 25 20 25 5 0 4
-6 -3 -14z m1072 4 c0 -5 -4 -10 -10 -10 -5 0 -10 5 -10 10 0 6 5 10 10 10 6
0 10 -4 10 -10z m-1164 -31 c3 -22 5 -23 15 -9 9 13 10 12 5 -2 -3 -10 -1 -20
4 -23 6 -4 10 -1 10 4 0 6 7 11 16 11 8 0 12 5 9 10 -3 6 -1 10 4 10 14 0 14
-6 1 -30 -6 -11 -18 -17 -30 -15 -11 2 -20 -1 -20 -6 0 -6 -4 -8 -9 -4 -6 3
-14 -3 -20 -12 -5 -10 -13 -14 -17 -10 -5 5 -2 12 6 18 11 7 9 8 -10 5 -39 -7
-60 -17 -54 -27 3 -5 15 -5 27 2 14 6 11 1 -8 -13 -16 -13 -33 -24 -37 -24 -5
-1 -13 -2 -19 -3 -5 0 -7 -7 -3 -13 5 -9 2 -9 -9 1 -9 7 -17 9 -17 4 0 -5 -9
-9 -21 -10 -12 -1 -18 3 -16 10 3 7 10 11 17 9 7 -1 18 3 26 9 12 10 12 15 -3
32 -17 20 -16 19 11 -1 15 -12 33 -19 39 -15 6 4 1 10 -11 14 -27 10 -29 19
-3 12 10 -2 24 2 32 9 8 7 30 14 49 15 50 1 52 2 45 13 -4 6 -10 8 -14 6 -4
-3 -7 6 -7 19 0 22 9 25 12 4z m1244 -4 c7 -9 8 -15 2 -15 -5 0 -12 7 -16 15
-3 8 -4 15 -2 15 2 0 9 -7 16 -15z m-1289 -12 c12 -16 12 -17 -2 -6 -9 7 -20
9 -24 5 -5 -4 -5 -1 -1 6 9 16 11 15 27 -5z m1449 -53 c0 -5 -2 -10 -4 -10 -3
0 -8 5 -11 10 -3 6 -1 10 4 10 6 0 11 -4 11 -10z m-1565 -28 c-3 -3 -11 0 -18
7 -9 10 -8 11 6 5 10 -3 15 -9 12 -12z m-35 -7 c0 -2 -10 -9 -22 -15 -22 -11
-22 -10 -4 4 21 17 26 19 26 11z m-60 -47 c0 -19 -16 -5 -17 14 -2 18 0 20 7
8 5 -8 10 -18 10 -22z m1780 2 c0 -5 -5 -10 -11 -10 -5 0 -7 5 -4 10 3 6 8 10
11 10 2 0 4 -4 4 -10z m-1817 -25 c-3 -9 -8 -14 -10 -11 -3 3 -2 9 2 15 9 16
15 13 8 -4z m-28 -15 c-3 -5 -12 -10 -18 -10 -7 0 -6 4 3 10 19 12 23 12 15 0z
m20 -20 c-3 -5 -1 -10 5 -10 6 0 8 -4 5 -10 -10 -16 -21 -11 -22 10 -1 11 3
20 8 20 6 0 7 -4 4 -10z m1915 -5 c11 -13 10 -14 -4 -9 -9 3 -16 10 -16 15 0
13 6 11 20 -6z m60 -80 c-10 -13 -11 -18 -1 -28 10 -9 12 -9 9 2 -2 7 3 16 10
18 15 6 16 -13 2 -22 -8 -5 -7 -12 2 -23 8 -9 -1 -7 -19 7 -32 22 -33 23 -15
46 9 13 19 21 21 19 2 -2 -2 -11 -9 -19z m-2165 -56 c-4 -6 0 -9 11 -7 11 2
20 -4 22 -14 2 -13 -2 -16 -17 -13 -12 2 -21 -1 -21 -8 0 -7 -4 -6 -10 3 -9
13 -10 13 -11 0 -4 -37 -17 -70 -28 -70 -3 0 -12 9 -19 21 -8 12 -9 18 -3 14
6 -3 11 -1 11 5 0 6 5 8 10 5 17 -10 11 7 -7 22 -16 13 -16 13 5 3 22 -11 23
-10 17 12 -3 12 -3 19 2 13 11 -14 33 -17 33 -5 0 6 -6 10 -12 10 -9 0 -8 4 2
10 19 13 23 12 15 -1z m2290 -19 c4 -6 2 -17 -4 -24 -8 -10 -7 -17 6 -27 15
-12 16 -12 10 4 -3 9 -2 17 3 17 5 0 9 -10 9 -22 -1 -29 5 -55 14 -64 7 -7 11
12 7 31 -1 6 2 6 7 2 4 -5 7 -11 5 -13 -6 -10 43 -41 58 -36 11 4 12 2 4 -7
-9 -10 -17 -9 -37 3 -13 9 -31 14 -40 11 -17 -7 -29 8 -31 36 -1 11 -4 18 -7
17 -4 -2 -16 6 -28 16 -16 14 -18 22 -10 32 6 8 15 11 20 8 5 -3 9 -1 9 5 0 5
-6 12 -12 14 -10 4 -10 6 -1 6 6 1 15 -4 18 -9z m121 -182 c10 -12 13 -18 7
-14 -8 4 -13 2 -14 -6 0 -10 -2 -10 -6 0 -2 6 -8 10 -13 7 -6 -4 -7 13 -1 33
2 6 9 1 27 -20z m-3383 -1225 c-10 -3 -9 -8 3 -20 8 -8 12 -18 9 -21 -7 -7
-34 31 -29 40 3 5 11 8 17 7 9 0 9 -2 0 -6z m3850 -890 c-5 -15 -3 -16 8 -5 7
6 18 12 24 12 5 0 3 -5 -5 -10 -8 -5 -15 -15 -15 -22 -1 -7 -7 -11 -15 -9 -8
2 -20 4 -27 4 -7 0 -10 4 -7 8 2 5 12 5 22 2 14 -6 15 -4 4 9 -13 16 -12 18
15 27 1 1 0 -7 -4 -16z m-114 -187 c9 -10 7 -17 -6 -27 -9 -8 -14 -9 -10 -2 4
6 2 13 -5 15 -6 2 -8 10 -4 16 9 15 11 15 25 -2z m-227 -302 c-15 -12 -15 -12
6 -7 14 3 22 1 22 -7 0 -7 -6 -10 -13 -7 -19 7 -43 -8 -28 -17 6 -4 11 -3 11
3 0 6 7 8 15 5 8 -4 12 -10 9 -15 -3 -5 -9 -7 -13 -4 -8 5 -39 -24 -40 -37 -1
-5 -3 -8 -6 -8 -25 0 -28 2 -12 11 14 8 15 14 7 24 -8 9 -8 15 0 20 6 3 7 11
4 17 -4 6 -3 8 3 5 13 -8 37 37 28 55 -3 7 0 4 9 -6 14 -17 14 -20 -2 -32z
m-1822 -448 c0 -3 -4 -8 -10 -11 -5 -3 -10 -1 -10 4 0 6 5 11 10 11 6 0 10 -2
10 -4z m90 -6 c0 -5 -8 -10 -17 -10 -15 0 -16 2 -3 10 19 12 20 12 20 0z
m-170 -14 c0 -2 -7 -7 -16 -10 -8 -3 -12 -2 -9 4 6 10 25 14 25 6z m200 -7 c0
-5 5 -7 12 -3 7 4 8 3 4 -4 -4 -6 -14 -8 -23 -5 -12 5 -15 2 -11 -9 3 -8 1
-15 -6 -15 -6 0 -12 8 -12 18 0 10 4 15 8 13 4 -3 8 0 8 5 0 6 5 11 10 11 6 0
10 -5 10 -11z m235 1 c3 -5 1 -10 -4 -10 -6 0 -11 5 -11 10 0 6 2 10 4 10 3 0
8 -4 11 -10z m194 -56 c-6 -8 -17 -14 -23 -14 -6 0 -3 5 7 11 9 6 14 15 11 21
-4 7 -2 8 5 4 9 -6 9 -11 0 -22z m-189 -16 c0 -6 -6 -5 -15 2 -8 7 -15 14 -15
16 0 2 7 1 15 -2 8 -4 15 -11 15 -16z m231 -11 c-8 -8 -14 -7 -23 2 -11 10 -9
11 6 5 15 -6 17 -4 11 6 -6 9 -4 11 4 5 9 -5 10 -10 2 -18z m-891 -17 c0 -5
-5 -10 -12 -10 -6 0 -9 -2 -6 -5 8 -9 38 6 32 16 -3 5 0 9 5 9 20 0 11 -20
-14 -32 -13 -6 -22 -15 -18 -21 3 -6 1 -7 -6 -3 -6 4 -8 12 -5 18 4 6 1 8 -7
6 -8 -3 -13 -10 -12 -16 3 -12 -23 -35 -43 -38 -8 -1 -14 2 -14 7 0 6 -4 8 -9
5 -5 -3 -11 1 -15 9 -3 8 0 17 6 21 7 4 8 3 4 -4 -4 -7 -5 -12 -2 -12 2 0 12
-3 21 -7 15 -5 16 -3 6 18 -11 22 -11 23 3 6 14 -18 15 -18 28 2 7 12 18 21
25 21 7 0 13 5 13 10 0 6 5 10 10 10 6 0 10 -4 10 -10z m975 -19 c3 -5 2 -12
-3 -15 -5 -3 -9 1 -9 9 0 17 3 19 12 6z m65 -61 c8 -5 11 -10 5 -10 -5 0 -17
5 -25 10 -8 5 -10 10 -5 10 6 0 17 -5 25 -10z m35 -9 c3 -5 2 -12 -3 -15 -5
-3 -9 1 -9 9 0 17 3 19 12 6z m-1295 -21 c0 -5 -2 -10 -4 -10 -3 0 -8 5 -11
10 -3 6 -1 10 4 10 6 0 11 -4 11 -10z m1330 -30 c-15 -28 -12 -35 8 -17 15 14
19 14 19 3 0 -8 -3 -15 -6 -14 -3 0 -8 -1 -11 -2 -37 -14 -48 0 -22 28 7 8 9
18 6 24 -4 7 -2 8 4 4 9 -5 9 -13 2 -26z m67 -36 c-3 -3 -12 -4 -19 -1 -8 3
-5 6 6 6 11 1 17 -2 13 -5z m-1423 -39 c-9 -14 -20 -22 -25 -19 -5 3 1 14 13
24 30 25 32 25 12 -5z m1561 -113 c-3 -3 -11 0 -18 7 -9 10 -8 11 6 5 10 -3
15 -9 12 -12z m16 -46 c-7 -9 -8 -17 -2 -20 5 -3 12 0 14 6 4 9 6 8 6 -2 1 -8
-8 -21 -20 -28 -12 -8 -18 -9 -15 -3 4 5 1 13 -4 16 -8 5 -6 13 6 26 20 22 32
26 15 5z m733 -87 c-10 -11 -12 -19 -5 -24 8 -4 8 -12 0 -26 -6 -12 -13 -18
-16 -15 -4 3 -15 -2 -25 -11 -18 -16 -18 -16 -12 0 3 9 10 17 15 17 4 0 6 7 3
15 -4 8 -11 12 -17 8 -6 -3 -7 -1 -3 5 4 6 13 9 21 5 9 -3 15 1 15 11 0 9 5
16 11 16 5 0 8 4 5 8 -3 5 1 9 9 9 13 0 13 -3 -1 -18z m-64 -59 c0 -5 -4 -10
-10 -10 -5 0 -10 5 -10 10 0 6 5 10 10 10 6 0 10 -4 10 -10z m-2490 -40 c-6
-11 -8 -20 -4 -20 4 0 -3 -11 -16 -25 -27 -29 -49 -22 -23 8 17 20 17 20 -2
13 -20 -7 -20 -7 0 12 11 10 23 15 26 10 3 -5 9 -3 12 6 4 9 9 16 12 16 3 0 1
-9 -5 -20z m2413 -7 c-4 -9 -2 -14 3 -10 17 10 34 -7 24 -23 -8 -13 -10 -12
-10 3 0 10 -4 16 -9 12 -12 -7 -24 12 -16 25 10 16 15 12 8 -7z m-3303 -20 c4
-3 -40 1 -58 6 -2 1 0 6 3 11 5 9 37 -1 55 -17z m2940 14 c0 -2 -10 -12 -21
-23 -22 -19 -22 -19 -8 4 12 19 29 30 29 19z m272 -21 c7 4 8 2 4 -5 -9 -13
-26 -5 -25 12 0 9 2 8 6 -1 2 -6 10 -9 15 -6z m-195 -11 c4 -4 3 -5 -4 -2 -6
4 -13 2 -15 -5 -3 -8 -6 -6 -10 4 -7 17 15 19 29 3z m117 -17 c-3 -4 -11 -8
-17 -7 -9 0 -9 2 0 5 7 3 9 13 6 22 -4 14 -3 14 5 2 6 -8 8 -18 6 -22z m121
22 c-3 -5 1 -10 10 -10 9 0 13 5 10 10 -3 6 -1 10 4 10 6 0 11 -5 11 -11 0 -5
5 -7 12 -3 7 4 8 3 4 -5 -4 -6 -11 -9 -16 -6 -4 3 -11 -2 -14 -11 -4 -9 -9
-14 -13 -11 -3 4 -12 2 -19 -4 -8 -7 -14 -7 -19 1 -8 14 -26 13 -22 -1 3 -17
-20 -22 -26 -6 -3 8 -1 20 4 28 6 10 9 11 9 1 0 -9 5 -10 18 -3 13 7 23 6 32
-2 10 -10 11 -7 5 11 -4 14 -2 22 5 22 6 0 8 -4 5 -10z m-3224 -34 c-8 -10 -9
-15 -1 -18 6 -2 13 -12 15 -23 2 -11 4 -22 4 -25 1 -3 6 2 11 10 6 9 10 11 10
3 0 -7 7 -10 18 -7 16 5 16 5 0 -9 -10 -8 -15 -17 -11 -21 3 -3 16 2 27 11 21
18 21 18 3 -3 -9 -11 -24 -21 -32 -21 -8 0 -13 3 -10 5 9 9 -17 32 -28 25 -5
-3 -7 -1 -4 4 6 10 -30 51 -39 46 -2 -2 -4 -1 -4 2 0 3 0 10 0 16 0 6 7 9 15
6 8 -4 17 -2 20 3 4 6 9 10 12 10 3 0 0 -6 -6 -14z m769 -6 c0 -5 -5 -10 -11
-10 -5 0 -7 5 -4 10 3 6 8 10 11 10 2 0 4 -4 4 -10z m-64 -105 c1 -17 -3 -28
-14 -32 -9 -3 -25 -13 -34 -21 -15 -13 -18 -13 -18 -1 0 11 -2 11 -10 -1 -8
-13 -10 -13 -10 -1 0 11 -4 9 -16 -5 -15 -18 -15 -18 -5 3 14 29 14 36 -1 27
-9 -5 -9 -3 1 9 15 18 33 14 25 -6 -3 -8 4 -13 17 -14 18 -2 19 0 7 14 -8 10
-8 14 -1 10 7 -4 14 1 18 13 4 11 11 18 16 15 5 -4 9 2 9 11 0 26 12 9 16 -21z
m-502 -21 c3 -8 2 -12 -4 -9 -6 3 -10 10 -10 16 0 14 7 11 14 -7z m79 -34 c-7
-27 -13 -25 -11 4 1 14 5 23 9 20 4 -2 5 -13 2 -24z m73 -2 c5 -7 3 -8 -6 -3
-10 6 -12 4 -6 -11 5 -14 4 -16 -5 -7 -6 6 -8 16 -5 22 9 14 13 14 22 -1z
m154 1 c0 -4 -9 -7 -19 -6 -11 0 -18 4 -16 7 6 9 35 8 35 -1z"/>
<path d="M3660 5516 c-7 -9 -17 -13 -23 -9 -6 3 -7 1 -3 -6 4 -6 12 -8 18 -5
8 5 9 1 5 -12 -7 -18 -7 -18 8 0 8 11 15 16 15 11 0 -5 5 -4 12 3 7 7 17 8 30
1 10 -5 18 -6 18 -2 0 4 7 -2 15 -13 8 -10 15 -15 15 -10 0 5 6 4 13 -1 19
-15 49 -24 42 -13 -3 6 -14 10 -23 10 -12 0 -13 3 -4 12 9 9 15 9 24 0 9 -9
15 -9 27 1 12 10 14 9 9 -3 -4 -11 0 -16 13 -17 24 -2 35 15 20 30 -9 9 -11 8
-6 -5 4 -11 2 -18 -4 -18 -6 0 -11 7 -11 15 0 8 -3 16 -7 16 -39 7 -71 3 -87
-10 -18 -15 -19 -15 -13 2 4 10 3 16 -2 12 -6 -3 -14 3 -20 12 -8 15 -13 16
-29 6 -13 -7 -23 -8 -29 -2 -6 6 -14 4 -23 -5z m24 -4 c3 -5 -1 -9 -9 -9 -8 0
-12 4 -9 9 3 4 7 8 9 8 2 0 6 -4 9 -8z m51 -2 c3 -6 -1 -7 -9 -4 -18 7 -21 14
-7 14 6 0 13 -4 16 -10z m115 -16 c0 -8 -19 -13 -24 -6 -3 5 1 9 9 9 8 0 15
-2 15 -3z"/>
<path d="M3610 5503 c0 -6 8 -17 18 -24 16 -13 16 -13 2 6 -8 11 -16 22 -17
24 -2 2 -3 0 -3 -6z"/>
<path d="M3593 5475 c0 -8 4 -12 9 -9 5 3 6 10 3 15 -9 13 -12 11 -12 -6z"/>
<path d="M3700 5486 c0 -2 7 -7 16 -10 8 -3 12 -2 9 4 -6 10 -25 14 -25 6z"/>
<path d="M3935 5480 c-4 -6 -12 -7 -18 -4 -8 5 -8 3 1 -7 6 -7 12 -21 12 -30
0 -10 4 -20 9 -24 6 -3 6 6 1 24 -5 19 -4 33 3 40 6 6 8 11 5 11 -4 0 -10 -5
-13 -10z"/>
<path d="M3675 5471 c-3 -5 -2 -12 3 -15 5 -3 9 1 9 9 0 17 -3 19 -12 6z"/>
<path d="M3891 5451 c-8 -5 -9 -11 -3 -15 5 -3 12 1 16 9 6 17 6 18 -13 6z"/>
<path d="M3776 5438 c3 -5 10 -6 15 -3 13 9 11 12 -6 12 -8 0 -12 -4 -9 -9z"/>
<path d="M3846 5438 c3 -5 10 -6 15 -3 13 9 11 12 -6 12 -8 0 -12 -4 -9 -9z"/>
<path d="M4096 5442 c-2 -4 4 -9 15 -9 11 -1 17 2 14 8 -7 11 -22 12 -29 1z"/>
<path d="M3153 5415 c0 -8 4 -12 9 -9 4 3 8 9 8 15 0 5 -4 9 -8 9 -5 0 -9 -7
-9 -15z"/>
<path d="M4017 5413 c6 -16 5 -17 -13 -3 -15 11 -16 11 -7 0 7 -8 20 -15 28
-16 12 -2 13 2 5 17 -13 24 -22 25 -13 2z"/>
<path d="M3077 5401 c-4 -17 -3 -21 5 -13 5 5 8 16 6 23 -3 8 -7 3 -11 -10z"/>
<path d="M3553 5405 c0 -8 4 -12 9 -9 5 3 6 10 3 15 -9 13 -12 11 -12 -6z"/>
<path d="M4090 5380 c0 -5 5 -10 11 -10 5 0 7 5 4 10 -3 6 -8 10 -11 10 -2 0
-4 -4 -4 -10z"/>
<path d="M3013 5367 c0 -8 6 -14 14 -14 9 0 10 4 2 14 -6 7 -12 13 -14 13 -1
0 -2 -6 -2 -13z"/>
<path d="M4275 5369 c-4 -5 -3 -9 2 -8 19 3 23 -2 13 -21 -9 -16 -8 -19 6 -13
11 4 15 3 10 -5 -3 -6 -2 -14 4 -17 8 -5 8 -11 1 -19 -8 -9 -7 -13 4 -13 8 0
13 2 10 5 -2 3 0 13 6 23 7 15 6 21 -6 25 -13 5 -13 9 -3 22 10 12 10 14 1 8
-7 -4 -13 -3 -13 2 0 14 -28 23 -35 11z"/>
<path d="M4127 5359 c7 -7 15 -10 18 -7 3 3 -2 9 -12 12 -14 6 -15 5 -6 -5z"/>
<path d="M2970 5339 c0 -5 5 -7 10 -4 6 3 10 8 10 11 0 2 -4 4 -10 4 -5 0 -10
-5 -10 -11z"/>
<path d="M4220 5336 c0 -2 7 -6 15 -10 8 -3 15 -1 15 4 0 6 -7 10 -15 10 -8 0
-15 -2 -15 -4z"/>
<path d="M2870 5319 c0 -5 5 -7 10 -4 6 3 10 8 10 11 0 2 -4 4 -10 4 -5 0 -10
-5 -10 -11z"/>
<path d="M3486 5301 c-3 -5 -23 -12 -43 -15 -34 -6 -100 -33 -113 -46 -3 -3
-22 -20 -43 -38 -21 -17 -35 -32 -32 -32 3 0 -3 -10 -14 -21 -11 -12 -23 -35
-26 -50 -4 -16 -11 -29 -16 -29 -5 0 -8 -3 -8 -7 1 -5 1 -21 0 -36 -1 -20 -5
-26 -13 -21 -10 6 -10 5 -1 -7 10 -12 9 -21 -1 -41 -10 -19 -11 -25 -2 -22 7
3 13 -5 14 -18 3 -51 9 -74 20 -95 7 -13 10 -23 7 -23 -3 0 4 -10 15 -22 11
-12 18 -28 16 -34 -6 -15 18 -37 28 -27 4 4 4 0 0 -10 -6 -16 10 -25 19 -9 2
4 2 1 0 -7 -5 -18 27 -52 41 -44 6 3 5 0 -2 -8 -11 -12 -14 -12 -22 1 -5 8
-10 11 -11 5 -5 -35 -6 -55 -1 -51 9 10 63 -25 57 -37 -4 -7 0 -3 9 7 14 17
16 17 22 3 3 -10 11 -17 16 -17 6 0 4 8 -3 17 -12 15 -12 16 2 11 11 -4 20 1
28 18 6 13 16 24 23 24 9 0 8 -3 -2 -10 -13 -9 -12 -12 5 -22 28 -17 47 -19
62 -6 7 6 13 6 13 2 0 -5 -9 -15 -20 -22 -11 -7 -20 -8 -20 -4 0 5 -16 8 -35
8 -19 -1 -35 -4 -35 -8 0 -5 9 -8 21 -8 13 0 18 -4 13 -12 -4 -7 -3 -8 5 -4 6
4 9 12 6 17 -3 5 1 6 10 3 14 -6 13 -9 -5 -29 -14 -15 -18 -25 -11 -30 7 -3
11 -3 10 2 -4 20 2 27 12 13 9 -13 10 -12 5 2 -8 26 31 50 58 36 12 -6 22 -11
23 -10 2 1 10 -1 18 -5 9 -3 19 -3 22 1 4 3 -2 6 -12 6 -16 0 -13 15 3 15 4 0
13 4 21 9 10 7 12 3 7 -15 -6 -21 -5 -21 4 -6 6 9 15 15 21 12 5 -4 12 1 15
10 6 14 9 14 28 -2 18 -15 19 -16 7 -1 -7 9 -10 22 -7 27 4 5 1 13 -5 17 -8 4
-9 3 -5 -4 7 -11 -6 -17 -28 -13 -5 1 -6 -5 -3 -13 4 -10 1 -13 -8 -9 -13 4
-13 8 0 26 13 18 12 22 -3 34 -15 12 -14 12 8 2 14 -7 30 -14 35 -15 31 -6 41
-10 53 -24 11 -13 11 -12 3 7 -18 36 5 75 40 68 12 -2 16 1 13 10 -3 7 -1 16
5 20 6 3 11 -1 11 -9 0 -9 5 -16 10 -16 7 0 7 6 0 19 -7 13 -7 22 0 26 9 6 13
0 12 -15 0 -3 8 -6 19 -6 25 0 25 1 -15 25 -44 27 -60 28 -46 1 8 -16 8 -20
-2 -18 -8 2 -12 -5 -10 -16 3 -18 2 -18 -13 -3 -17 18 -11 42 7 31 8 -5 9 -1
5 10 -5 13 -1 19 12 23 11 3 18 12 16 21 -1 10 6 28 16 41 10 13 16 27 13 32
-3 5 -1 9 5 9 6 0 8 7 5 15 -5 12 -2 14 12 8 16 -5 17 -4 8 8 -14 16 -13 77 0
98 6 10 5 12 -3 7 -8 -6 -11 2 -8 28 3 22 0 33 -6 29 -6 -4 -8 2 -5 15 4 12 2
20 -3 16 -5 -3 -9 4 -9 15 0 12 -4 21 -10 21 -5 0 -10 6 -10 14 0 7 -7 19 -15
26 -9 7 -13 15 -11 18 4 4 -11 18 -89 80 -6 5 -23 12 -38 16 -15 3 -26 10 -23
14 2 4 -6 8 -17 9 -12 1 -40 3 -62 5 -22 2 -45 7 -52 11 -6 4 -14 3 -17 -2z
m248 -633 c-9 -27 -11 -34 -13 -50 -1 -7 -8 -5 -19 5 -10 10 -22 14 -27 10 -4
-5 -5 -3 -2 4 4 6 1 14 -5 16 -8 4 -9 6 -2 6 6 1 17 -6 24 -14 7 -8 17 -15 23
-15 5 0 2 9 -7 19 -13 14 -14 21 -5 27 7 4 10 3 5 -4 -3 -6 -2 -13 4 -17 5 -3
12 6 16 20 3 14 9 24 11 21 3 -2 1 -15 -3 -28z m-399 -6 c-3 -3 -11 0 -18 7
-9 10 -8 11 6 5 10 -3 15 -9 12 -12z m45 -18 c0 -2 -7 -4 -15 -4 -8 0 -15 4
-15 10 0 5 7 7 15 4 8 -4 15 -8 15 -10z m-27 -28 c6 -8 10 -7 14 2 2 6 9 12
15 12 7 0 6 -5 -1 -14 -7 -9 -8 -17 -3 -20 6 -3 12 1 16 9 3 8 11 15 18 14 10
0 10 -2 0 -6 -6 -2 -10 -9 -6 -14 3 -5 2 -9 -3 -10 -4 0 -16 -2 -27 -4 -28 -5
-48 6 -41 23 4 12 3 12 -9 3 -10 -9 -15 -8 -19 2 -6 16 34 18 46 3z m287 -16
c0 -4 -10 -15 -22 -26 -12 -10 -18 -13 -14 -6 4 6 3 12 -3 12 -5 0 -15 -8 -20
-17 -6 -10 -11 -12 -11 -5 0 6 -5 12 -11 12 -5 0 -7 -6 -3 -12 4 -7 4 -10 0
-6 -4 3 -7 8 -5 10 1 2 -3 13 -10 26 -7 14 -8 22 -1 22 5 0 10 -7 10 -15 0
-18 20 -20 21 -2 0 9 2 9 6 0 3 -10 10 -10 24 -2 11 5 17 14 14 19 -3 6 1 7 9
4 9 -3 16 -9 16 -14z"/>
<path d="M3347 4599 c7 -7 15 -10 18 -7 3 3 -2 9 -12 12 -14 6 -15 5 -6 -5z"/>
<path d="M4276 5293 c-6 -14 -5 -15 5 -6 7 7 10 15 7 18 -3 3 -9 -2 -12 -12z"/>
<path d="M2682 5263 c-9 -3 -5 -12 13 -29 29 -26 35 -29 35 -14 0 6 -7 10 -15
10 -8 0 -15 5 -15 10 0 6 8 10 18 10 14 0 15 2 2 10 -16 11 -19 11 -38 3z"/>
<path d="M4354 5256 c1 -8 5 -18 8 -22 4 -3 5 1 4 10 -1 8 -5 18 -8 22 -4 3
-5 -1 -4 -10z"/>
<path d="M4316 5247 c3 -10 9 -15 12 -12 3 3 0 11 -7 18 -10 9 -11 8 -5 -6z"/>
<path d="M2776 5238 c3 -5 10 -6 15 -3 13 9 11 12 -6 12 -8 0 -12 -4 -9 -9z"/>
<path d="M4488 5214 c-16 -8 -28 -17 -28 -20 0 -2 9 0 21 6 25 14 31 9 33 -29
0 -16 4 -27 9 -24 4 2 5 8 2 13 -3 5 9 8 28 6 26 -3 33 0 33 15 0 13 -6 17
-20 15 -11 -2 -27 5 -36 15 -14 17 -17 17 -42 3z m62 -29 c4 0 11 -3 15 -7 4
-3 -1 -5 -12 -3 -10 2 -21 4 -24 4 -4 1 -9 11 -12 24 -6 22 -6 22 9 2 8 -11
19 -20 24 -20z"/>
<path d="M2566 5204 c-11 -28 19 -32 34 -5 8 17 7 20 -10 18 -11 -1 -22 -7
-24 -13z"/>
<path d="M2681 5213 c-1 -17 16 -25 25 -12 4 7 3 9 -4 5 -5 -3 -13 0 -15 6 -4
9 -6 10 -6 1z"/>
<path d="M4427 5199 c7 -7 15 -10 18 -7 3 3 -2 9 -12 12 -14 6 -15 5 -6 -5z"/>
<path d="M2656 5138 c3 -5 10 -6 15 -3 13 9 11 12 -6 12 -8 0 -12 -4 -9 -9z"/>
<path d="M2509 5113 c-10 -12 -10 -15 -1 -9 8 5 15 -1 21 -16 7 -16 10 -18 10
-6 1 9 -4 20 -9 23 -6 4 -8 11 -5 16 10 15 -2 10 -16 -8z"/>
<path d="M3870 5079 c0 -5 5 -7 10 -4 6 3 10 8 10 11 0 2 -4 4 -10 4 -5 0 -10
-5 -10 -11z"/>
<path d="M4655 5030 c-3 -6 1 -7 9 -4 18 7 21 14 7 14 -6 0 -13 -4 -16 -10z"/>
<path d="M2454 5022 c3 -5 1 -12 -6 -14 -8 -3 -9 -6 -1 -11 6 -4 13 0 17 8 3
8 0 17 -6 21 -6 4 -8 3 -4 -4z"/>
<path d="M3873 5015 c0 -8 4 -12 9 -9 5 3 6 10 3 15 -9 13 -12 11 -12 -6z"/>
<path d="M3136 4998 c3 -5 10 -6 15 -3 13 9 11 12 -6 12 -8 0 -12 -4 -9 -9z"/>
<path d="M3887 4979 c7 -7 15 -10 18 -7 3 3 -2 9 -12 12 -14 6 -15 5 -6 -5z"/>
<path d="M3870 4961 c0 -6 4 -13 10 -16 6 -3 7 1 4 9 -7 18 -14 21 -14 7z"/>
<path d="M3106 4938 c3 -5 10 -6 15 -3 13 9 11 12 -6 12 -8 0 -12 -4 -9 -9z"/>
<path d="M3886 4915 c4 -8 8 -15 10 -15 2 0 4 7 4 15 0 8 -4 15 -10 15 -5 0
-7 -7 -4 -15z"/>
<path d="M4760 4926 c0 -2 8 -10 18 -17 15 -13 16 -12 3 4 -13 16 -21 21 -21
13z"/>
<path d="M3155 4910 c-3 -6 1 -7 9 -4 18 7 21 14 7 14 -6 0 -13 -4 -16 -10z"/>
<path d="M3860 4911 c0 -6 4 -13 10 -16 6 -3 7 1 4 9 -7 18 -14 21 -14 7z"/>
<path d="M3153 4867 c-3 -6 -1 -7 5 -3 7 4 12 2 12 -3 0 -6 4 -11 8 -11 5 0 9
6 9 13 0 16 -25 18 -34 4z"/>
<path d="M3851 4841 c-8 -14 -5 -23 17 -42 14 -13 21 -17 14 -8 -6 9 -8 20 -4
24 4 5 2 5 -5 1 -6 -3 -14 -2 -18 4 -3 5 -1 10 5 10 6 0 8 5 5 10 -9 14 8 12
25 -2 12 -11 12 -10 1 5 -17 22 -28 22 -40 -2z"/>
<path d="M4809 4843 c-13 -16 -12 -17 4 -4 9 7 17 15 17 17 0 8 -8 3 -21 -13z"/>
<path d="M3913 4835 c0 -8 4 -12 9 -9 5 3 6 10 3 15 -9 13 -12 11 -12 -6z"/>
<path d="M4856 4834 c-3 -8 -2 -13 2 -11 10 7 32 -19 24 -29 -4 -4 -2 -4 5 0
7 4 17 -2 23 -14 6 -11 16 -17 22 -14 7 5 5 12 -7 21 -11 7 -15 13 -10 13 5 0
-2 11 -15 25 -27 29 -36 31 -44 9z m39 -14 c10 -11 16 -20 13 -20 -3 0 -13 9
-23 20 -10 11 -16 20 -13 20 3 0 13 -9 23 -20z"/>
<path d="M3174 4829 c-3 -6 -15 -8 -27 -5 -15 4 -17 2 -8 -7 9 -9 16 -9 30 0
18 11 19 9 17 -22 -2 -20 3 -40 10 -46 8 -6 11 -15 8 -20 -3 -5 3 -6 13 -2 10
3 15 2 10 -2 -4 -5 0 -17 10 -27 9 -10 13 -21 10 -25 -4 -3 -7 -1 -7 5 0 17
-17 15 -24 -4 -3 -9 -2 -12 5 -9 5 4 17 1 25 -6 9 -7 22 -14 30 -15 26 -4 24
14 -2 35 -15 12 -23 21 -19 21 5 0 0 9 -9 19 -10 11 -15 24 -12 30 3 5 -5 18
-19 29 -25 20 -35 40 -14 26 8 -4 8 0 0 15 -13 24 -17 25 -27 10z m46 -76 c0
-13 -3 -13 -15 -3 -8 7 -12 16 -9 21 8 13 24 1 24 -18z m59 -87 c11 -14 6 -15
-27 -7 -4 1 8 21 12 21 2 0 9 -6 15 -14z"/>
<path d="M2240 4820 c-10 -6 -11 -10 -2 -10 6 0 12 -5 12 -11 0 -5 -4 -8 -9
-4 -5 3 -12 1 -16 -4 -3 -6 2 -14 12 -20 16 -8 18 -5 19 25 0 19 0 34 0 34 -1
0 -8 -5 -16 -10z"/>
<path d="M3824 4798 c-9 -14 -14 -62 -6 -53 3 3 12 -1 21 -8 14 -10 14 -10 4
4 -7 9 -10 19 -6 23 4 4 13 -4 19 -16 13 -23 13 -23 10 5 -4 36 -30 65 -42 45z
m27 -15 c7 -10 9 -15 5 -11 -5 4 -15 3 -22 -3 -11 -9 -13 2 -5 29 2 6 10 1 22
-15z"/>
<path d="M4844 4799 c-4 -7 -3 -9 4 -5 5 3 13 0 15 -6 4 -9 6 -10 6 -1 1 17
-16 25 -25 12z"/>
<path d="M2279 4773 c-12 -16 -12 -17 2 -6 9 7 20 9 24 5 5 -4 5 -1 1 6 -9 16
-11 15 -27 -5z"/>
<path d="M3177 4729 c4 -13 8 -18 11 -10 2 7 -1 18 -6 23 -8 8 -9 4 -5 -13z"/>
<path d="M2228 4723 c7 -3 16 -2 19 1 4 3 -2 6 -13 5 -11 0 -14 -3 -6 -6z"/>
<path d="M3147 4719 c7 -7 15 -10 18 -7 3 3 -2 9 -12 12 -14 6 -15 5 -6 -5z"/>
<path d="M4876 4718 c3 -5 10 -6 15 -3 13 9 11 12 -6 12 -8 0 -12 -4 -9 -9z"/>
<path d="M4916 4697 c3 -10 9 -15 12 -12 3 3 0 11 -7 18 -10 9 -11 8 -5 -6z"/>
<path d="M4970 4685 c0 -6 6 -17 13 -24 10 -11 9 -13 -5 -8 -10 3 -20 1 -24
-5 -4 -6 -3 -8 4 -4 6 3 20 -7 32 -24 12 -16 17 -30 11 -30 -6 0 -11 -5 -11
-11 0 -5 5 -7 10 -4 15 9 12 -11 -3 -24 -8 -6 -18 -7 -22 -3 -5 4 -5 1 -1 -6
5 -9 12 -10 20 -3 7 6 17 6 26 1 13 -8 13 -10 1 -10 -22 0 -7 -10 23 -16 27
-5 35 9 14 23 -13 8 -19 9 -39 12 -7 1 -6 10 5 25 15 24 14 26 -8 44 -17 13
-23 27 -21 48 1 21 -2 31 -11 31 -8 0 -14 -5 -14 -12z m49 -79 c9 -11 9 -16
-1 -22 -7 -4 -10 -4 -6 1 4 4 3 14 -3 22 -6 7 -9 13 -6 13 2 0 10 -6 16 -14z
m35 -74 c3 -5 -1 -9 -9 -9 -8 0 -12 4 -9 9 3 4 7 8 9 8 2 0 6 -4 9 -8z"/>
<path d="M4937 4676 c-4 -10 -1 -13 8 -9 8 3 12 9 9 14 -7 12 -11 11 -17 -5z"/>
<path d="M3216 4642 c-2 -4 4 -8 14 -8 10 0 16 4 14 8 -3 4 -9 8 -14 8 -5 0
-11 -4 -14 -8z"/>
<path d="M3780 4642 c0 -5 9 -8 20 -7 29 2 33 10 5 13 -14 1 -25 -2 -25 -6z"/>
<path d="M2125 4630 c-16 -26 -12 -57 9 -70 19 -12 20 -12 6 5 -13 15 -12 19
10 38 15 12 18 18 8 14 -11 -4 -18 0 -20 11 -3 15 -5 15 -13 2z m10 -19 c3 -5
2 -12 -3 -15 -5 -3 -9 1 -9 9 0 17 3 19 12 6z"/>
<path d="M3750 4620 c0 -5 5 -10 10 -10 6 0 10 5 10 10 0 6 -4 10 -10 10 -5 0
-10 -4 -10 -10z"/>
<path d="M4935 4620 c3 -5 8 -10 11 -10 2 0 4 5 4 10 0 6 -5 10 -11 10 -5 0
-7 -4 -4 -10z"/>
<path d="M4965 4600 c3 -5 8 -10 11 -10 2 0 4 5 4 10 0 6 -5 10 -11 10 -5 0
-7 -4 -4 -10z"/>
<path d="M3430 4580 c0 -5 5 -10 11 -10 5 0 7 5 4 10 -3 6 -8 10 -11 10 -2 0
-4 -4 -4 -10z"/>
<path d="M3710 4580 c0 -5 5 -10 11 -10 5 0 7 5 4 10 -3 6 -8 10 -11 10 -2 0
-4 -4 -4 -10z"/>
<path d="M3314 4560 c0 -13 4 -16 10 -10 7 7 7 13 0 20 -6 6 -10 3 -10 -10z"/>
<path d="M2175 4540 c3 -5 8 -10 11 -10 2 0 4 5 4 10 0 6 -5 10 -11 10 -5 0
-7 -4 -4 -10z"/>
<path d="M3407 4527 c-3 -8 1 -14 8 -14 7 0 11 6 8 14 -3 7 -6 13 -8 13 -2 0
-5 -6 -8 -13z"/>
<path d="M3511 4531 c-10 -7 -7 -9 12 -8 14 1 23 5 20 10 -6 9 -15 9 -32 -2z"/>
<path d="M3556 4513 c-6 -14 -5 -15 5 -6 7 7 10 15 7 18 -3 3 -9 -2 -12 -12z"/>
<path d="M3725 4520 c-3 -6 1 -7 9 -4 18 7 21 14 7 14 -6 0 -13 -4 -16 -10z"/>
<path d="M2113 4485 c0 -14 3 -27 7 -30 4 -2 6 7 4 21 -3 35 -11 41 -11 9z"/>
<path d="M5002 4498 c-7 -7 -12 -17 -12 -22 0 -6 5 -3 11 7 6 9 15 14 21 11 7
-4 8 -2 4 4 -9 15 -9 15 -24 0z"/>
<path d="M2055 4450 c-7 -11 16 -50 29 -50 5 0 6 3 3 7 -4 3 -2 12 4 20 10 11
15 11 28 1 14 -12 14 -11 2 5 -8 9 -16 15 -19 13 -2 -3 -13 -1 -23 4 -11 7
-20 7 -24 0z m27 -14 c7 4 8 2 4 -5 -9 -13 -26 -5 -25 12 0 9 2 8 6 -1 2 -6
10 -9 15 -6z"/>
<path d="M2145 4440 c-3 -6 1 -7 9 -4 18 7 21 14 7 14 -6 0 -13 -4 -16 -10z"/>
<path d="M5050 4400 c0 -5 5 -10 10 -10 6 0 10 5 10 10 0 6 -4 10 -10 10 -5 0
-10 -4 -10 -10z"/>
<path d="M5083 4403 c4 -3 2 -12 -4 -19 -6 -8 -8 -21 -5 -30 5 -12 2 -15 -9
-10 -10 3 -13 2 -10 -4 4 -6 12 -10 18 -9 23 3 37 -1 37 -10 0 -5 -8 -8 -17
-6 -10 1 -12 0 -5 -2 7 -3 9 -9 6 -14 -3 -6 3 -5 14 2 17 11 21 28 11 49 -1 3
-3 10 -4 15 -5 23 -18 45 -28 45 -6 0 -7 -3 -4 -7z m21 -34 c-3 -5 0 -17 8
-26 12 -15 11 -15 -9 -4 -22 11 -30 31 -17 44 10 10 25 -3 18 -14z"/>
<path d="M2076 4354 c-23 -23 -20 -30 4 -9 11 10 20 20 20 22 0 7 -9 2 -24
-13z"/>
<path d="M5073 4275 c0 -8 4 -12 9 -9 5 3 6 10 3 15 -9 13 -12 11 -12 -6z"/>
<path d="M2012 4257 c-2 -23 -8 -42 -17 -57 -7 -12 -6 -13 7 -3 8 7 19 9 24 5
4 -4 2 1 -5 11 -14 18 -2 24 15 7 7 -7 11 -6 11 4 0 8 -3 15 -6 14 -18 -2 -24
3 -13 11 11 7 11 9 0 14 -8 3 -15 0 -16 -6z"/>
<path d="M2070 4199 c0 -5 5 -7 10 -4 6 3 10 8 10 11 0 2 -4 4 -10 4 -5 0 -10
-5 -10 -11z"/>
<path d="M2000 4180 c-8 -5 -10 -10 -5 -10 6 0 17 5 25 10 8 5 11 10 5 10 -5
0 -17 -5 -25 -10z"/>
<path d="M5104 4168 c3 -15 26 -23 26 -8 0 6 -4 9 -9 6 -5 -4 -12 -1 -14 4 -3
6 -4 5 -3 -2z"/>
<path d="M2010 4159 c0 -5 -5 -7 -12 -3 -7 4 -8 3 -4 -4 4 -6 13 -9 21 -5 17
6 20 23 5 23 -5 0 -10 -5 -10 -11z"/>
<path d="M5070 4146 c0 -2 7 -7 16 -10 8 -3 12 -2 9 4 -6 10 -25 14 -25 6z"/>
<path d="M2030 4129 c0 -5 -6 -7 -12 -3 -7 4 -9 3 -5 -1 13 -15 36 -14 30 1
-6 17 -13 18 -13 3z"/>
<path d="M1993 4098 c0 -7 -2 -19 -4 -27 -2 -7 2 -16 10 -18 10 -4 11 0 6 17
-6 17 -4 21 6 14 21 -13 39 -14 39 -2 0 6 -7 7 -15 4 -9 -3 -18 1 -21 9 -7 18
-21 20 -21 3z"/>
<path d="M2026 4038 c3 -4 9 -8 15 -8 5 0 9 4 9 8 0 5 -7 9 -15 9 -8 0 -12 -4
-9 -9z"/>
<path d="M1984 4023 c3 -20 21 -28 30 -14 4 5 -2 15 -13 20 -16 9 -19 8 -17
-6z"/>
<path d="M2015 3940 c-3 -5 -1 -10 4 -10 6 0 11 5 11 10 0 6 -2 10 -4 10 -3 0
-8 -4 -11 -10z"/>
<path d="M2013 3892 c-10 -7 -10 -12 0 -25 11 -16 12 -15 12 8 0 14 0 25 0 25
0 0 -6 -4 -12 -8z"/>
<path d="M1999 3848 c-6 -20 -3 -45 7 -45 9 0 10 5 4 17 -5 10 -6 20 -3 24 3
3 3 6 0 6 -4 0 -7 -1 -8 -2z"/>
<path d="M2006 3773 c-6 -14 -5 -15 5 -6 7 7 10 15 7 18 -3 3 -9 -2 -12 -12z"/>
<path d="M5115 3780 c-3 -5 -1 -10 4 -10 6 0 11 5 11 10 0 6 -2 10 -4 10 -3 0
-8 -4 -11 -10z"/>
<path d="M2031 3757 c-1 -11 -6 -15 -13 -11 -7 5 -8 3 -3 -5 10 -16 29 2 22
21 -4 8 -6 7 -6 -5z"/>
<path d="M5100 3691 c0 -6 4 -13 10 -16 6 -3 7 1 4 9 -7 18 -14 21 -14 7z"/>
<path d="M5100 3651 c0 -6 4 -13 10 -16 6 -3 7 1 4 9 -7 18 -14 21 -14 7z"/>
<path d="M2040 3565 c0 -5 5 -17 10 -25 5 -8 10 -10 10 -5 0 6 -5 17 -10 25
-5 8 -10 11 -10 5z"/>
<path d="M2065 3520 c-3 -6 1 -7 9 -4 18 7 21 14 7 14 -6 0 -13 -4 -16 -10z"/>
<path d="M5025 3420 c-3 -6 1 -7 9 -4 18 7 21 14 7 14 -6 0 -13 -4 -16 -10z"/>
<path d="M2135 3360 c6 -30 16 -40 12 -12 -2 12 -6 24 -10 28 -3 4 -4 -4 -2
-16z"/>
<path d="M4995 3340 c3 -5 8 -10 11 -10 2 0 4 5 4 10 0 6 -5 10 -11 10 -5 0
-7 -4 -4 -10z"/>
<path d="M4736 2938 c3 -4 11 -5 19 -1 21 7 19 12 -4 10 -11 0 -18 -5 -15 -9z"/>
<path d="M4567 2779 c7 -7 15 -10 18 -7 3 3 -2 9 -12 12 -14 6 -15 5 -6 -5z"/>
<path d="M3905 2460 c-3 -6 1 -7 9 -4 18 7 21 14 7 14 -6 0 -13 -4 -16 -10z"/>
<path d="M3096 5461 c-4 -5 -2 -12 3 -15 5 -4 12 -2 15 3 4 5 2 12 -3 15 -5 4
-12 2 -15 -3z"/>
<path d="M2805 5340 c-3 -6 1 -7 9 -4 18 7 21 14 7 14 -6 0 -13 -4 -16 -10z"/>
<path d="M2400 5020 c-9 -6 -10 -10 -3 -10 6 0 15 5 18 10 8 12 4 12 -15 0z"/>
<path d="M4716 5051 c-3 -5 2 -15 12 -22 15 -12 16 -12 5 2 -7 9 -10 19 -6 22
3 4 4 7 0 7 -3 0 -8 -4 -11 -9z"/>
<path d="M4956 2251 c-4 -5 -2 -12 3 -15 5 -4 12 -2 15 3 4 5 2 12 -3 15 -5 4
-12 2 -15 -3z"/>
<path d="M2799 1663 c-13 -16 -12 -17 4 -4 16 13 21 21 13 21 -2 0 -10 -8 -17
-17z"/>
<path d="M4905 1221 c-3 -5 0 -13 6 -17 7 -4 9 -3 5 4 -3 5 0 13 6 15 9 4 10
6 1 6 -6 1 -14 -3 -18 -8z"/>
<path d="M2353 1143 c4 -3 -1 -16 -10 -27 -18 -21 -18 -21 4 -2 20 16 23 36 6
36 -4 0 -3 -3 0 -7z"/>
<path d="M1484 1068 c-4 -7 -3 -10 1 -5 5 4 18 -1 29 -10 21 -18 21 -18 2 5
-22 26 -23 26 -32 10z"/>
<path d="M2196 964 c-19 -19 -21 -31 -3 -15 8 6 16 9 19 6 2 -3 5 2 5 10 0 19
-2 19 -21 -1z"/>
<path d="M1890 5260 c0 -5 5 -10 11 -10 5 0 7 5 4 10 -3 6 -8 10 -11 10 -2 0
-4 -4 -4 -10z"/>
<path d="M5471 4873 c7 -12 15 -20 18 -17 3 2 -3 12 -13 22 -17 16 -18 16 -5
-5z"/>
<path d="M1630 4836 c0 -2 8 -10 18 -17 15 -13 16 -12 3 4 -13 16 -21 21 -21
13z"/>
<path d="M5553 4705 c0 -8 4 -12 9 -9 5 3 6 10 3 15 -9 13 -12 11 -12 -6z"/>
<path d="M1536 4562 c-3 -5 1 -9 9 -9 8 0 12 4 9 9 -3 4 -7 8 -9 8 -2 0 -6 -4
-9 -8z"/>
<path d="M5590 4541 c0 -6 4 -12 8 -15 5 -3 9 1 9 9 0 8 -4 15 -9 15 -4 0 -8
-4 -8 -9z"/>
<path d="M1525 4500 c-3 -6 1 -7 9 -4 18 7 21 14 7 14 -6 0 -13 -4 -16 -10z"/>
<path d="M1495 4390 c-3 -6 1 -7 9 -4 18 7 21 14 7 14 -6 0 -13 -4 -16 -10z"/>
<path d="M1459 4353 c-13 -16 -12 -17 4 -4 9 7 17 15 17 17 0 8 -8 3 -21 -13z"/>
<path d="M1490 4340 c0 -5 5 -10 11 -10 5 0 7 5 4 10 -3 6 -8 10 -11 10 -2 0
-4 -4 -4 -10z"/>
<path d="M5650 4340 c-9 -6 -10 -10 -3 -10 6 0 15 5 18 10 8 12 4 12 -15 0z"/>
<path d="M5653 4292 c-8 -14 -8 -19 1 -19 7 0 13 9 13 19 1 10 1 18 0 18 -1 0
-7 -8 -14 -18z"/>
<path d="M1473 4285 c0 -8 4 -12 9 -9 5 3 6 10 3 15 -9 13 -12 11 -12 -6z"/>
<path d="M5650 4250 c-9 -6 -10 -10 -3 -10 6 0 15 5 18 10 8 12 4 12 -15 0z"/>
<path d="M1470 4220 c0 -5 5 -10 11 -10 5 0 7 5 4 10 -3 6 -8 10 -11 10 -2 0
-4 -4 -4 -10z"/>
<path d="M5653 4151 c0 -11 5 -18 9 -15 4 3 5 11 1 19 -7 21 -12 19 -10 -4z"/>
<path d="M1425 4100 c-3 -6 1 -7 9 -4 18 7 21 14 7 14 -6 0 -13 -4 -16 -10z"/>
<path d="M1442 4081 c-10 -6 -10 -10 2 -21 9 -7 13 -16 10 -21 -3 -5 0 -9 5
-9 14 0 14 17 1 25 -5 3 -10 11 -10 16 0 6 5 7 12 3 7 -4 8 -3 4 4 -8 14 -7
14 -24 3z"/>
<path d="M1435 4010 c3 -5 8 -10 11 -10 2 0 4 5 4 10 0 6 -5 10 -11 10 -5 0
-7 -4 -4 -10z"/>
<path d="M1456 3954 c-8 -20 -8 -24 2 -24 4 0 8 9 9 20 2 24 -3 26 -11 4z"/>
<path d="M1422 3916 c10 -7 14 -17 10 -21 -4 -5 -1 -5 6 -1 19 11 14 23 -10
29 -21 5 -21 5 -6 -7z"/>
<path d="M5673 3904 c0 -17 2 -22 8 -13 4 7 6 16 3 20 -2 4 2 10 8 12 9 4 7 6
-3 6 -11 1 -16 -7 -16 -25z"/>
<path d="M1449 3883 c-13 -16 -12 -17 4 -4 9 7 17 15 17 17 0 8 -8 3 -21 -13z"/>
<path d="M1415 3842 c4 -4 12 -7 18 -7 7 -1 11 -6 10 -13 -2 -7 4 -9 13 -5 14
5 14 7 -2 17 -22 12 -49 18 -39 8z"/>
<path d="M1386 3818 c3 -5 10 -6 15 -3 13 9 11 12 -6 12 -8 0 -12 -4 -9 -9z"/>
<path d="M5656 3793 c-6 -14 -5 -15 5 -6 7 7 10 15 7 18 -3 3 -9 -2 -12 -12z"/>
<path d="M5716 3793 c-6 -14 -5 -15 5 -6 7 7 10 15 7 18 -3 3 -9 -2 -12 -12z"/>
<path d="M1433 3770 c-1 -11 2 -20 5 -20 4 0 8 9 9 20 1 11 -2 20 -5 20 -4 0
-8 -9 -9 -20z"/>
<path d="M5668 3776 c-11 -8 -16 -22 -13 -36 3 -13 0 -29 -6 -36 -7 -8 -7 -14
1 -19 7 -4 7 -13 -1 -27 -8 -16 -8 -19 1 -13 7 4 16 1 21 -6 6 -9 9 -10 9 -2
0 6 -4 14 -10 18 -5 3 -7 12 -3 20 3 8 -1 15 -8 15 -7 0 -9 3 -5 8 4 4 13 7
19 7 5 0 12 7 14 15 4 12 3 12 -5 2 -7 -11 -10 -11 -15 2 -4 9 -1 16 6 16 8 0
8 3 -2 9 -11 7 -10 11 5 19 10 6 17 13 14 15 -3 3 -13 0 -22 -7z"/>
<path d="M1414 3689 c-3 -6 -2 -15 3 -20 5 -5 9 -1 9 11 0 23 -2 24 -12 9z"/>
<path d="M5696 3607 c3 -10 9 -15 12 -12 3 3 0 11 -7 18 -10 9 -11 8 -5 -6z"/>
<path d="M1460 3600 c-9 -6 -10 -10 -3 -10 6 0 15 5 18 10 8 12 4 12 -15 0z"/>
<path d="M1476 3581 c-4 -6 -11 -9 -16 -6 -4 3 -6 -5 -2 -17 4 -16 2 -19 -8
-13 -8 5 -11 4 -7 -2 10 -16 50 -10 52 8 4 23 -10 44 -19 30z m11 -26 c0 -8
-4 -15 -9 -15 -4 0 -8 7 -8 15 0 8 4 15 8 15 5 0 9 -7 9 -15z"/>
<path d="M1416 3567 c3 -10 9 -15 12 -12 3 3 0 11 -7 18 -10 9 -11 8 -5 -6z"/>
<path d="M1470 3514 c0 -6 3 -14 8 -18 4 -4 8 -12 8 -17 1 -5 2 -13 3 -19 0
-5 6 -10 12 -10 8 0 8 4 0 13 -8 10 -7 17 2 27 9 9 9 11 0 6 -6 -3 -16 2 -22
11 -6 10 -11 13 -11 7z"/>
<path d="M1467 3449 c4 -13 8 -18 11 -10 2 7 -1 18 -6 23 -8 8 -9 4 -5 -13z"/>
<path d="M5660 3466 c0 -2 8 -10 18 -17 15 -13 16 -12 3 4 -13 16 -21 21 -21
13z"/>
<path d="M1486 3423 c-4 -11 -1 -11 14 -3 24 13 25 17 5 17 -8 0 -16 -6 -19
-14z"/>
<path d="M5610 3421 c0 -7 -4 -10 -8 -7 -5 3 -9 -1 -9 -9 0 -11 4 -12 14 -4 9
8 13 8 13 1 0 -6 -9 -16 -19 -22 -19 -10 -22 -25 -8 -47 6 -9 3 -11 -7 -7 -9
3 -16 2 -16 -3 0 -5 9 -9 20 -10 11 -1 20 4 20 13 0 8 -4 14 -8 14 -5 0 -9 7
-9 15 0 8 6 15 13 15 17 0 29 39 15 53 -8 8 -11 8 -11 -2z"/>
<path d="M1484 3395 c-12 -8 -25 -11 -29 -7 -5 4 -5 1 -1 -6 6 -10 12 -9 28 2
11 8 27 12 36 9 10 -4 13 -2 8 5 -9 16 -17 15 -42 -3z"/>
<path d="M5646 3378 c3 -5 10 -6 15 -3 13 9 11 12 -6 12 -8 0 -12 -4 -9 -9z"/>
<path d="M1497 3374 c7 -3 9 -12 6 -20 -3 -7 -10 -11 -17 -7 -6 3 -7 2 -3 -3
5 -5 13 -10 18 -10 5 -1 14 -2 19 -3 6 0 10 -6 10 -12 0 -5 -4 -7 -10 -4 -5 3
-10 2 -10 -4 0 -5 5 -13 10 -16 6 -3 10 -1 10 5 0 6 4 9 8 6 7 -4 8 33 2 42
-2 1 -3 7 -4 14 0 6 -12 12 -26 14 -14 1 -20 0 -13 -2z m30 -11 c-4 -3 -2 -12
5 -20 8 -11 7 -12 -6 -7 -9 3 -16 9 -16 13 0 9 11 21 18 21 3 0 2 -3 -1 -7z"/>
<path d="M5620 3360 c-9 -6 -10 -10 -3 -10 6 0 15 5 18 10 8 12 4 12 -15 0z"/>
<path d="M5614 3295 c-4 -10 -10 -12 -18 -6 -7 6 -18 4 -30 -5 -16 -11 -17
-14 -4 -14 9 0 19 6 21 13 4 10 6 10 6 0 1 -20 19 -15 31 7 6 11 8 20 5 20 -3
0 -8 -7 -11 -15z"/>
<path d="M1510 3270 c-13 -8 -12 -10 3 -10 9 0 17 5 17 10 0 12 -1 12 -20 0z"/>
<path d="M5577 3248 c-7 -20 -7 -28 0 -30 3 -2 8 7 9 20 4 24 -1 30 -9 10z"/>
<path d="M1506 3221 c-4 -5 3 -7 14 -4 23 6 26 13 6 13 -8 0 -17 -4 -20 -9z"/>
<path d="M1561 3221 c-12 -8 -12 -14 2 -42 9 -19 12 -36 7 -39 -5 -3 4 -14 20
-23 28 -17 29 -17 25 2 -2 10 -13 37 -24 59 -11 22 -17 42 -14 46 9 9 0 7 -16
-3z m13 -27 c3 -8 2 -12 -4 -9 -6 3 -10 10 -10 16 0 14 7 11 14 -7z m16 -50
c-1 -4 4 -11 12 -16 11 -8 10 -9 -1 -6 -8 2 -15 15 -17 29 -1 13 0 18 2 12 3
-7 5 -15 4 -19z"/>
<path d="M5550 3202 c0 -6 9 -12 20 -15 11 -3 20 -3 20 -1 0 2 -9 8 -20 14
-11 6 -20 7 -20 2z"/>
<path d="M1537 3173 c5 -12 3 -14 -8 -8 -8 5 -11 4 -6 0 4 -5 14 -10 22 -11
12 -2 12 2 5 17 -13 23 -22 25 -13 2z"/>
<path d="M1558 3103 c7 -3 16 -2 19 1 4 3 -2 6 -13 5 -11 0 -14 -3 -6 -6z"/>
<path d="M5566 3102 c-3 -5 1 -9 9 -9 8 0 12 4 9 9 -3 4 -7 8 -9 8 -2 0 -6 -4
-9 -8z"/>
<path d="M5595 3081 c-3 -5 -2 -12 3 -15 5 -3 9 1 9 9 0 17 -3 19 -12 6z"/>
<path d="M5500 3051 c-28 -29 -32 -52 -11 -59 10 -3 12 0 7 13 -4 12 1 26 15
42 31 32 20 35 -11 4z"/>
<path d="M1515 3060 c-3 -5 -1 -10 4 -10 6 0 11 5 11 10 0 6 -2 10 -4 10 -3 0
-8 -4 -11 -10z"/>
<path d="M1595 3059 c6 -9 3 -11 -9 -6 -11 4 -15 3 -11 -4 4 -6 13 -8 21 -5
17 7 19 -10 2 -18 -7 -2 -3 -4 9 -2 34 3 36 12 7 31 -15 9 -23 11 -19 4z"/>
<path d="M5522 3038 c-7 -7 -12 -17 -12 -22 0 -6 5 -3 11 7 6 9 15 14 21 11 7
-4 8 -2 4 4 -9 15 -9 15 -24 0z"/>
<path d="M1608 3004 c6 -3 9 -11 5 -17 -4 -7 -1 -7 9 1 10 8 19 9 22 3 4 -5
-3 -12 -14 -16 -27 -9 -25 -20 4 -23 50 -4 33 49 -17 54 -12 2 -16 0 -9 -2z
m47 -34 c-3 -5 -12 -10 -18 -10 -7 0 -6 4 3 10 19 12 23 12 15 0z"/>
<path d="M5431 2977 c-7 -9 -10 -21 -6 -27 4 -6 0 -19 -9 -29 -9 -10 -16 -22
-14 -27 1 -5 -4 -19 -11 -32 -19 -35 -21 -59 -6 -59 8 0 12 4 9 9 -3 4 0 8 5
8 6 0 11 8 11 18 0 15 2 15 11 2 9 -13 10 -13 6 0 -2 8 -10 14 -16 13 -6 -2
-11 2 -11 8 0 7 10 9 25 5 15 -4 25 -2 25 4 0 6 -4 9 -9 6 -11 -7 -36 22 -27
31 3 3 6 1 6 -5 0 -7 5 -12 11 -12 5 0 8 4 5 9 -3 5 4 11 15 14 14 4 18 10 13
18 -5 8 -2 11 8 7 8 -4 15 -1 15 7 0 8 -7 11 -16 7 -14 -5 -14 -3 -3 10 10 13
10 18 1 24 -8 4 -9 3 -5 -4 4 -7 3 -12 -3 -12 -5 0 -11 5 -13 11 -2 7 -9 5
-17 -4z m24 -35 c2 -14 -3 -22 -17 -25 -19 -5 -19 -5 -2 14 11 12 13 19 5 19
-7 0 -9 5 -6 11 9 13 15 7 20 -19z m-64 -115 c-10 -9 -11 -8 -5 6 3 10 9 15
12 12 3 -3 0 -11 -7 -18z"/>
<path d="M5506 2962 c-3 -5 1 -9 9 -9 8 0 12 4 9 9 -3 4 -7 8 -9 8 -2 0 -6 -4
-9 -8z"/>
<path d="M1637 2880 c3 -10 11 -24 19 -31 10 -8 10 -3 -2 20 -18 35 -24 40
-17 11z"/>
<path d="M1673 2819 c9 -6 15 -15 11 -21 -4 -7 -9 -6 -15 3 -4 7 -11 11 -14 8
-11 -11 20 -28 35 -19 11 7 11 11 1 24 -8 9 -19 16 -25 16 -6 0 -3 -5 7 -11z"/>
<path d="M5410 2798 c0 -11 12 -10 30 2 12 7 10 9 -8 7 -12 0 -22 -5 -22 -9z"/>
<path d="M1663 2764 c9 -11 14 -24 10 -29 -5 -4 -2 -5 5 -1 8 5 12 0 12 -13 0
-26 16 -35 24 -14 4 10 4 14 0 10 -13 -13 -32 36 -20 53 9 13 8 13 -5 3 -12
-10 -18 -10 -29 0 -8 6 -7 3 3 -9z"/>
<path d="M5391 2727 c2 -1 13 -9 24 -17 19 -14 19 -14 6 3 -7 9 -18 17 -24 17
-6 0 -8 -1 -6 -3z"/>
<path d="M1655 2679 c-3 -4 2 -6 10 -5 21 3 28 13 10 13 -9 0 -18 -4 -20 -8z"/>
<path d="M1693 2650 c-1 -11 3 -20 8 -20 6 0 7 5 4 10 -3 6 2 10 12 10 15 0
16 2 3 10 -22 14 -26 12 -27 -10z"/>
<path d="M1710 2611 c0 -6 4 -12 8 -15 5 -3 9 1 9 9 0 8 -4 15 -9 15 -4 0 -8
-4 -8 -9z"/>
<path d="M1703 2573 c1 -17 4 -19 14 -11 15 12 18 22 4 14 -5 -4 -11 0 -14 6
-3 7 -4 3 -4 -9z"/>
<path d="M1718 2543 c-6 -28 -3 -123 4 -123 5 0 7 4 3 9 -3 5 -1 13 5 16 7 5
8 11 1 19 -5 6 -8 28 -6 49 1 20 1 37 -1 37 -2 0 -5 -3 -6 -7z"/>
<path d="M5193 2455 c0 -8 4 -12 9 -9 5 3 6 10 3 15 -9 13 -12 11 -12 -6z"/>
<path d="M1690 2400 c0 -5 5 -10 10 -10 6 0 10 5 10 10 0 6 -4 10 -10 10 -5 0
-10 -4 -10 -10z"/>
<path d="M5075 2329 c-4 -6 -5 -12 -2 -15 2 -3 7 2 10 11 7 17 1 20 -8 4z"/>
<path d="M1646 2202 c-3 -5 1 -9 9 -9 8 0 15 4 15 9 0 4 -4 8 -9 8 -6 0 -12
-4 -15 -8z"/>
<path d="M1617 2175 c-4 -8 -3 -16 1 -19 4 -3 9 4 9 15 2 23 -3 25 -10 4z"/>
<path d="M4990 2179 c0 -5 5 -7 10 -4 6 3 10 8 10 11 0 2 -4 4 -10 4 -5 0 -10
-5 -10 -11z"/>
<path d="M4934 2169 c-3 -5 1 -18 9 -30 10 -13 17 -17 22 -10 3 6 10 9 15 6 4
-3 13 2 20 10 7 8 17 12 23 8 6 -3 7 -1 3 6 -6 9 -11 9 -23 -1 -8 -6 -25 -13
-36 -15 -21 -3 -21 -2 -4 11 17 13 16 14 -3 19 -11 3 -22 1 -26 -4z"/>
<path d="M1614 2129 c-3 -6 -2 -15 3 -20 5 -5 9 -1 9 11 0 23 -2 24 -12 9z"/>
<path d="M5000 2120 c-9 -6 -10 -10 -3 -10 6 0 15 5 18 10 8 12 4 12 -15 0z"/>
<path d="M4950 2099 c0 -5 -4 -8 -8 -5 -4 2 -8 -3 -8 -13 0 -10 6 -18 12 -18
7 0 9 7 6 16 -5 14 -4 14 13 1 17 -14 18 -14 6 8 -13 24 -21 28 -21 11z"/>
<path d="M1576 2058 c3 -5 10 -6 15 -3 13 9 11 12 -6 12 -8 0 -12 -4 -9 -9z"/>
<path d="M4933 2035 c0 -8 4 -12 9 -9 4 3 8 9 8 15 0 5 -4 9 -8 9 -5 0 -9 -7
-9 -15z"/>
<path d="M4950 2009 c0 -5 5 -7 10 -4 6 3 10 8 10 11 0 2 -4 4 -10 4 -5 0 -10
-5 -10 -11z"/>
<path d="M4931 1987 c2 -1 13 -9 24 -17 19 -14 19 -14 6 3 -7 9 -18 17 -24 17
-6 0 -8 -1 -6 -3z"/>
<path d="M4939 1956 c11 -12 51 -29 51 -21 0 2 -14 10 -31 19 -23 12 -28 12
-20 2z"/>
<path d="M4944 1922 c4 -3 14 -7 22 -8 9 -1 13 0 10 4 -4 3 -14 7 -22 8 -9 1
-13 0 -10 -4z"/>
<path d="M4950 1861 c0 -6 4 -12 8 -15 5 -3 9 1 9 9 0 8 -4 15 -9 15 -4 0 -8
-4 -8 -9z"/>
<path d="M3136 1802 c-2 -4 4 -9 15 -9 11 -1 17 2 14 8 -7 11 -22 12 -29 1z"/>
<path d="M4975 1799 c-3 -4 2 -6 10 -5 21 3 28 13 10 13 -9 0 -18 -4 -20 -8z"/>
<path d="M3070 1764 c6 -6 7 -14 3 -17 -3 -4 -3 -7 0 -7 3 0 11 8 16 18 7 14
6 18 -9 18 -13 0 -16 -4 -10 -12z"/>
<path d="M3350 1751 c0 -5 5 -13 10 -16 6 -3 10 -2 10 4 0 5 -4 13 -10 16 -5
3 -10 2 -10 -4z"/>
<path d="M4995 1749 c-4 -6 -5 -12 -2 -15 2 -3 7 2 10 11 7 17 1 20 -8 4z"/>
<path d="M3095 1741 c-3 -5 0 -13 6 -17 7 -4 9 -3 5 4 -3 5 0 13 6 15 9 4 10
6 1 6 -6 1 -14 -3 -18 -8z"/>
<path d="M3430 1746 c0 -2 9 -6 20 -9 11 -3 18 -1 14 4 -5 9 -34 13 -34 5z"/>
<path d="M3156 1727 c3 -10 9 -15 12 -12 3 3 0 11 -7 18 -10 9 -11 8 -5 -6z"/>
<path d="M3230 1718 c0 -4 4 -8 9 -8 6 0 12 4 15 8 3 5 -1 9 -9 9 -8 0 -15 -4
-15 -9z"/>
<path d="M2990 1701 c0 -6 4 -13 10 -16 6 -3 7 1 4 9 -7 18 -14 21 -14 7z"/>
<path d="M3055 1700 c3 -5 8 -10 11 -10 2 0 4 5 4 10 0 6 -5 10 -11 10 -5 0
-7 -4 -4 -10z"/>
<path d="M3485 1700 c-3 -6 1 -7 9 -4 18 7 21 14 7 14 -6 0 -13 -4 -16 -10z"/>
<path d="M3650 1691 c0 -6 4 -13 10 -16 6 -3 7 1 4 9 -7 18 -14 21 -14 7z"/>
<path d="M2826 1641 c-3 -5 0 -11 7 -14 8 -3 14 1 14 9 0 16 -13 19 -21 5z"/>
<path d="M3766 1635 c4 -8 8 -15 10 -15 2 0 4 7 4 15 0 8 -4 15 -10 15 -5 0
-7 -7 -4 -15z"/>
<path d="M3833 1618 c1 -17 3 -17 13 -4 6 9 14 13 17 9 4 -3 2 -12 -4 -20 -9
-10 -8 -13 0 -13 7 0 9 -4 6 -10 -3 -5 0 -7 9 -4 25 10 27 33 3 46 -34 19 -46
18 -44 -4z m57 -12 c0 -3 -4 -8 -10 -11 -5 -3 -10 -1 -10 4 0 6 5 11 10 11 6
0 10 -2 10 -4z"/>
<path d="M3793 1615 c0 -7 6 -11 14 -8 7 3 13 6 13 8 0 2 -6 5 -13 8 -8 3 -14
-1 -14 -8z"/>
<path d="M5026 1618 c3 -5 10 -6 15 -3 13 9 11 12 -6 12 -8 0 -12 -4 -9 -9z"/>
<path d="M2780 1613 c0 -6 8 -17 18 -24 16 -13 16 -13 2 6 -8 11 -16 22 -17
24 -2 2 -3 0 -3 -6z"/>
<path d="M5046 1602 c-3 -5 1 -9 9 -9 8 0 12 4 9 9 -3 4 -7 8 -9 8 -2 0 -6 -4
-9 -8z"/>
<path d="M2756 1587 c3 -10 9 -15 12 -12 3 3 0 11 -7 18 -10 9 -11 8 -5 -6z"/>
<path d="M2667 1584 c-3 -4 -2 -15 4 -26 8 -15 6 -25 -8 -41 l-18 -22 22 18
c22 19 28 57 8 57 -5 0 -3 5 5 10 8 5 10 10 4 10 -6 0 -14 -3 -17 -6z"/>
<path d="M3827 1579 c7 -7 15 -10 18 -7 3 3 -2 9 -12 12 -14 6 -15 5 -6 -5z"/>
<path d="M1353 1565 c0 -8 4 -12 9 -9 5 3 6 10 3 15 -9 13 -12 11 -12 -6z"/>
<path d="M5056 1533 c-6 -14 -5 -15 5 -6 7 7 10 15 7 18 -3 3 -9 -2 -12 -12z"/>
<path d="M1320 1526 c0 -2 8 -10 18 -17 15 -13 16 -12 3 4 -13 16 -21 21 -21
13z"/>
<path d="M2695 1511 c-3 -5 -2 -12 3 -15 5 -3 9 1 9 9 0 17 -3 19 -12 6z"/>
<path d="M5025 1490 c-7 -23 1 -40 18 -39 9 0 9 2 0 6 -15 6 -17 33 -3 33 6 0
10 5 10 10 0 18 -18 11 -25 -10z"/>
<path d="M3929 1483 c-13 -16 -12 -17 4 -4 16 13 21 21 13 21 -2 0 -10 -8 -17
-17z"/>
<path d="M2634 1479 c-3 -6 -2 -15 3 -20 5 -5 9 -1 9 11 0 23 -2 24 -12 9z"/>
<path d="M4050 1479 c0 -5 5 -7 10 -4 6 3 10 8 10 11 0 2 -4 4 -10 4 -5 0 -10
-5 -10 -11z"/>
<path d="M2523 1465 c0 -9 4 -14 9 -13 5 2 10 8 10 13 0 5 -5 11 -10 13 -5 1
-9 -4 -9 -13z"/>
<path d="M1333 1451 c0 -11 5 -18 9 -15 4 3 5 11 1 19 -7 21 -12 19 -10 -4z"/>
<path d="M5009 1445 c-1 -6 -1 -14 0 -19 1 -4 -4 -16 -11 -25 -7 -9 -8 -13 -4
-9 5 4 16 2 25 -4 13 -10 14 -10 4 2 -9 10 -10 17 -1 27 8 10 8 17 0 25 -7 7
-13 8 -13 3z"/>
<path d="M4106 1422 c-3 -5 1 -9 9 -9 8 0 12 4 9 9 -3 4 -7 8 -9 8 -2 0 -6 -4
-9 -8z"/>
<path d="M5037 1415 c-4 -8 -3 -16 1 -19 4 -3 9 4 9 15 2 23 -3 25 -10 4z"/>
<path d="M5065 1420 c-3 -6 1 -7 9 -4 18 7 21 14 7 14 -6 0 -13 -4 -16 -10z"/>
<path d="M1342 1404 c10 -10 20 -15 24 -12 3 4 -5 12 -18 18 -22 12 -22 12 -6
-6z"/>
<path d="M2546 1402 c-3 -5 1 -9 9 -9 8 0 15 4 15 9 0 4 -4 8 -9 8 -6 0 -12
-4 -15 -8z"/>
<path d="M1337 1370 c8 -30 21 -33 33 -8 11 22 10 22 -4 4 -14 -17 -16 -17
-16 -4 0 9 -4 19 -9 22 -5 4 -7 -3 -4 -14z"/>
<path d="M4966 1335 c-9 -14 -13 -25 -8 -25 5 0 14 11 20 25 6 14 10 25 8 25
-2 0 -11 -11 -20 -25z"/>
<path d="M1362 1333 c-9 -3 -7 -12 7 -32 14 -20 17 -31 9 -45 -8 -14 -5 -21
11 -32 12 -9 21 -23 21 -32 -1 -15 -2 -15 -15 2 -8 11 -15 15 -15 10 0 -6 3
-14 8 -18 7 -7 8 -11 11 -38 1 -9 4 -9 10 2 6 8 7 18 4 24 -4 5 1 7 12 2 15
-5 16 -4 6 8 -7 8 -10 20 -7 25 6 9 -11 26 -26 26 -17 0 -19 15 -2 15 16 0 17
2 4 10 -8 5 -12 10 -7 10 4 0 0 12 -9 26 -15 22 -15 27 -3 35 15 9 3 11 -19 2z"/>
<path d="M5019 1338 c-5 -18 -6 -38 -1 -34 7 8 12 36 6 36 -2 0 -4 -1 -5 -2z"/>
<path d="M2490 1319 c0 -5 5 -7 10 -4 6 3 10 8 10 11 0 2 -4 4 -10 4 -5 0 -10
-5 -10 -11z"/>
<path d="M4096 1318 c3 -5 10 -6 15 -3 13 9 11 12 -6 12 -8 0 -12 -4 -9 -9z"/>
<path d="M2509 1303 c-13 -16 -12 -17 4 -4 9 7 17 15 17 17 0 8 -8 3 -21 -13z"/>
<path d="M4126 1302 c-3 -5 1 -9 9 -9 8 0 12 4 9 9 -3 4 -7 8 -9 8 -2 0 -6 -4
-9 -8z"/>
<path d="M4190 1268 c-11 -10 -20 -24 -20 -30 0 -7 6 -3 14 7 13 18 14 17 29
-12 18 -34 43 -49 51 -30 2 7 5 4 5 -6 1 -10 6 -15 11 -12 18 11 -8 34 -30 28
-12 -3 -20 0 -20 6 0 7 4 10 9 6 5 -3 12 -1 16 5 3 6 0 13 -9 16 -8 3 -13 13
-11 23 4 23 -19 23 -45 -1z m37 -21 c4 -21 3 -21 -11 -2 -8 11 -12 24 -9 28 7
12 16 0 20 -26z"/>
<path d="M2473 1253 c0 -9 4 -10 14 -2 7 6 13 12 13 14 0 1 -6 2 -13 2 -8 0
-14 -6 -14 -14z"/>
<path d="M2456 1221 c-3 -4 4 -17 17 -27 22 -19 22 -19 4 2 -9 11 -14 24 -10
27 3 4 4 7 0 7 -3 0 -8 -4 -11 -9z"/>
<path d="M4193 1215 c0 -8 4 -12 9 -9 5 3 6 10 3 15 -9 13 -12 11 -12 -6z"/>
<path d="M4228 1183 c6 -2 10 -9 7 -14 -4 -5 1 -6 10 -2 13 5 14 7 3 14 -7 5
-17 8 -23 8 -5 0 -4 -3 3 -6z"/>
<path d="M4960 1180 c-9 -6 -10 -10 -3 -10 6 0 15 5 18 10 8 12 4 12 -15 0z"/>
<path d="M2439 1178 c-5 -18 -6 -38 -1 -34 7 8 12 36 6 36 -2 0 -4 -1 -5 -2z"/>
<path d="M4253 1131 c0 -11 5 -18 9 -15 4 3 5 11 1 19 -7 21 -12 19 -10 -4z"/>
<path d="M1376 1122 c-3 -5 1 -9 9 -9 8 0 12 4 9 9 -3 4 -7 8 -9 8 -2 0 -6 -4
-9 -8z"/>
<path d="M1437 1103 c-10 -10 -8 -33 3 -33 5 0 6 7 3 17 -4 11 -3 14 5 9 7 -4
12 -2 12 3 0 12 -13 14 -23 4z"/>
<path d="M2410 1099 c0 -5 5 -7 10 -4 6 3 10 8 10 11 0 2 -4 4 -10 4 -5 0 -10
-5 -10 -11z"/>
<path d="M4273 1087 c0 -8 6 -14 14 -14 9 0 10 4 2 14 -6 7 -12 13 -14 13 -1
0 -2 -6 -2 -13z"/>
<path d="M2370 1082 c0 -5 7 -9 15 -9 8 0 12 4 9 9 -3 4 -9 8 -15 8 -5 0 -9
-4 -9 -8z"/>
<path d="M4315 1080 c3 -5 8 -10 11 -10 2 0 4 5 4 10 0 6 -5 10 -11 10 -5 0
-7 -4 -4 -10z"/>
<path d="M4568 1075 c-5 -6 -44 -16 -65 -17 -7 -1 -10 -5 -7 -10 3 -4 -4 -8
-15 -8 -11 0 -22 -4 -25 -9 -3 -4 6 -6 19 -3 14 2 28 8 31 13 9 15 22 10 27
-8 4 -17 5 -17 6 0 0 10 5 16 11 12 5 -3 6 -13 3 -22 -6 -15 -5 -16 9 -3 14
13 14 16 -1 28 -14 12 -14 13 4 7 11 -4 26 -8 33 -8 15 0 16 -14 0 -19 -8 -3
-8 -9 1 -24 9 -14 11 -15 7 -2 -3 11 4 25 19 37 14 10 25 23 25 27 0 4 -5 3
-12 -4 -15 -15 -31 -16 -22 0 4 6 3 8 -4 4 -6 -3 -13 -2 -17 4 -7 11 -19 13
-27 5z"/>
<path d="M4366 1062 c-3 -5 1 -9 9 -9 8 0 12 4 9 9 -3 4 -7 8 -9 8 -2 0 -6 -4
-9 -8z"/>
<path d="M4760 1046 c0 -2 7 -7 16 -10 8 -3 12 -2 9 4 -6 10 -25 14 -25 6z"/>
<path d="M4637 1033 c-11 -11 -8 -20 7 -20 8 0 12 6 9 14 -6 15 -7 15 -16 6z"/>
<path d="M2310 1026 c0 -2 7 -7 16 -10 8 -3 12 -2 9 4 -6 10 -25 14 -25 6z"/>
<path d="M2365 1000 c10 -11 20 -20 23 -20 3 0 -3 9 -13 20 -10 11 -20 20 -23
20 -3 0 3 -9 13 -20z"/>
<path d="M4506 1002 c-2 -4 4 -8 14 -8 10 0 16 4 14 8 -3 4 -9 8 -14 8 -5 0
-11 -4 -14 -8z"/>
<path d="M4679 993 c-13 -16 -12 -17 4 -4 16 13 21 21 13 21 -2 0 -10 -8 -17
-17z"/>
<path d="M4550 976 c0 -2 8 -10 18 -17 15 -13 16 -12 3 4 -13 16 -21 21 -21
13z"/>
<path d="M1565 949 c-4 -6 -5 -12 -2 -15 2 -3 7 2 10 11 7 17 1 20 -8 4z"/>
<path d="M1516 942 c-3 -4 4 -9 15 -9 23 -2 25 3 4 10 -8 4 -16 3 -19 -1z"/>
<path d="M2080 920 c0 -5 5 -10 10 -10 6 0 10 5 10 10 0 6 -4 10 -10 10 -5 0
-10 -4 -10 -10z"/>
<path d="M1573 905 c0 -8 4 -12 9 -9 5 3 6 10 3 15 -9 13 -12 11 -12 -6z"/>
<path d="M2220 906 c0 -2 8 -10 18 -17 15 -13 16 -12 3 4 -13 16 -21 21 -21
13z"/>
<path d="M1936 891 c-4 -6 1 -14 11 -18 10 -3 21 -8 25 -10 4 -2 6 6 5 17 -1
21 -17 28 -17 8 0 -10 -3 -9 -9 1 -6 9 -11 10 -15 2z"/>
<path d="M1616 878 c3 -5 10 -6 15 -3 13 9 11 12 -6 12 -8 0 -12 -4 -9 -9z"/>
<path d="M1820 875 c-7 -9 -11 -17 -9 -18 2 -1 13 -9 24 -17 11 -8 17 -10 13
-6 -4 5 -3 15 2 21 7 9 6 16 -4 24 -10 9 -16 8 -26 -4z m30 -9 c0 -11 -19 -15
-25 -6 -3 5 1 10 9 10 9 0 16 -2 16 -4z"/>
<path d="M2003 872 c-9 -6 -7 -11 7 -20 12 -7 20 -8 20 -2 0 5 -5 10 -11 10
-5 0 -7 5 -4 10 7 12 4 12 -12 2z"/>
<path d="M1726 842 c-3 -5 1 -9 9 -9 8 0 15 4 15 9 0 4 -4 8 -9 8 -6 0 -12 -4
-15 -8z"/>
<path d="M1980 839 c0 -5 5 -7 10 -4 6 3 10 8 10 11 0 2 -4 4 -10 4 -5 0 -10
-5 -10 -11z"/>
<path d="M2056 841 c-3 -4 6 -6 19 -3 14 2 25 6 25 8 0 8 -39 4 -44 -5z"/>
<path d="M1815 820 c-3 -5 -1 -10 4 -10 6 0 11 5 11 10 0 6 -2 10 -4 10 -3 0
-8 -4 -11 -10z"/>
<path d="M1896 822 c-2 -4 -1 -14 4 -22 7 -11 9 -9 7 8 -1 24 -3 26 -11 14z"/>
<path d="M1956 822 c-3 -4 4 -9 15 -9 23 -2 25 3 4 10 -8 4 -16 3 -19 -1z"/>
</g>
</svg>
