<?xml version="1.0" encoding="utf-8"?>
<!-- Generator: Adobe Illustrator 19.1.0, SVG Export Plug-In . SVG Version: 6.00 Build 0)  -->
<svg version="1.1" id="Calque_1" xmlns="http://www.w3.org/2000/svg" xmlns:xlink="http://www.w3.org/1999/xlink" x="0px" y="0px"
	 viewBox="0 0 152.1 110.2" style="enable-background:new 0 0 152.1 110.2;" xml:space="preserve">
<style type="text/css">
	.st0{fill:#D7D9DA;stroke:#FFFFFF;stroke-width:4;stroke-miterlimit:10;}
	.st1{fill:#FFFFFF;stroke:#FFFFFF;stroke-width:4;stroke-miterlimit:10;}
	.st2{fill:#FFFFFF;}
</style>
<g>
	<path class="st0" d="M72.6,2h2.2c1.5,0,2.9,0.4,4.2,1.1c0.4,0.2,0.8,0.2,1.2,0.4c6.1,2.3,10.4,6.6,13.9,11.7
		c2.8,4,7.4,6.3,12.2,5.7c2.6-0.3,5.2-0.4,8-0.1c7,0.8,13.4,3,19.1,7.2c8.3,6.1,10.7,16.5,5.4,24.6c-1.1,1.7-0.4,2.4,0.8,3.4
		c4.1,2.9,7,6.6,8.7,11.4c0.3,0.8,1.1,4.6,1.6,7.9c0.4,2.3-0.1,4.7-1.3,6.8c-1.9,3.3-4.9,8.6-7.7,10.9c-8.2,6.7-18,7.8-27,3
		c-2.6-1.4-3-1.5-5,1c-3.7,4.7-8.5,7.7-14.1,9.5c-9.6,3.1-18.2,1-26.4-4.6c-2.6-1.8-4.4-4.2-6.5-6.5c-0.7-0.8-1.4-1.5-2.1-0.2
		c-1,1.8-2.6,3-4,4.4c-4.2,4.3-9.3,6.9-15.1,8.4c-0.8,0.2-14.6,0.4-15.2,0.3c-4.2-1.1-8.1-2.6-11.8-5c-5.5-3.7-9.6-8.4-11.6-14.9
		C2.1,87.7,2,77.6,2,77.4C4,71.1,7.7,66,13.2,62.3c1-0.7,2-1.4,3.1-2c1-0.6,1.2-1.4,1-2.5c-0.4-2.1-0.6-4.3-0.6-6.5
		c0-3.8,1.3-7.2,2.5-10.8c3.6-10.2,14.4-20,27-15.4c1.1,0.4,1.6-0.1,1.9-1c0.9-3,2.6-5.6,4.3-8.2c3.5-5.5,8-9.8,14-12.3
		c0.5-0.2,1.1-0.2,1.6-0.5C69.4,2.3,71,2,72.6,2z"/>
	<path class="st1" d="M138.8,52.5"/>
</g>
<path class="st2" d="M46.8,13"/>
<path class="st2" d="M21.4,65.8"/>
</svg>
