<svg xmlns="http://www.w3.org/2000/svg" xmlns:xlink="http://www.w3.org/1999/xlink" width="512" height="512" viewBox="0 0 512 512">
  <defs>
    <filter id="XYNUM" x="145.027" y="403.2" width="271.317" height="68.8" filterUnits="userSpaceOnUse">
      <feOffset dy="4" input="SourceAlpha"/>
      <feGaussianBlur stdDeviation="4" result="blur"/>
      <feFlood flood-color="#a53da6"/>
      <feComposite operator="in" in2="blur"/>
      <feComposite in="SourceGraphic"/>
    </filter>
    <filter id="O" x="88.007" y="402.398" width="72" height="72" filterUnits="userSpaceOnUse">
      <feOffset dy="4" input="SourceAlpha"/>
      <feGaussianBlur stdDeviation="4" result="blur-2"/>
      <feFlood flood-color="#a53da6"/>
      <feComposite operator="in" in2="blur-2"/>
      <feComposite in="SourceGraphic"/>
    </filter>
    <filter id="O-2" x="73.468" y="2.255" width="365.586" height="432.925" filterUnits="userSpaceOnUse">
      <feOffset dy="4" input="SourceAlpha"/>
      <feGaussianBlur stdDeviation="4" result="blur-3"/>
      <feFlood flood-color="#a53da6"/>
      <feComposite operator="in" in2="blur-3"/>
      <feComposite in="SourceGraphic"/>
    </filter>
    <filter id="Eye" x="223.393" y="72.532" width="76.522" height="76.522" filterUnits="userSpaceOnUse">
      <feOffset dy="4" input="SourceAlpha"/>
      <feGaussianBlur stdDeviation="4" result="blur-4"/>
      <feFlood flood-color="#a53da6"/>
      <feComposite operator="in" in2="blur-4"/>
      <feComposite in="SourceGraphic"/>
    </filter>
    <clipPath id="clip-Brand_-_Block">
      <rect width="512" height="512"/>
    </clipPath>
  </defs>
  <g id="Brand_-_Block" data-name="Brand - Block" clip-path="url(#clip-Brand_-_Block)">
    <g id="BRAND-BLOCK">
      <g id="OXYNUM" transform="translate(-29 -84)">
        <g transform="matrix(1, 0, 0, 1, 29, 84)" filter="url(#XYNUM)">
          <path id="XYNUM-2" data-name="XYNUM" d="M41.6,7.8h-.064a3.492,3.492,0,0,1-2.88-1.472L25.92-11.336,13.184,6.328A3.463,3.463,0,0,1,10.368,7.8h-.192a3.551,3.551,0,0,1-3.52-3.52V-33.48A3.551,3.551,0,0,1,10.176-37a3.565,3.565,0,0,1,3.584,3.52V-6.536l9.152-12.8a3.609,3.609,0,0,1,2.944-1.472h.128a3.492,3.492,0,0,1,2.88,1.472l9.216,12.8V-33.48A3.51,3.51,0,0,1,41.6-37a3.607,3.607,0,0,1,3.584,3.52V4.28A3.651,3.651,0,0,1,41.6,7.8Zm62.528-26.3V4.28a3.47,3.47,0,0,1-3.52,3.52,3.524,3.524,0,0,1-3.584-3.52V-18.5A11.376,11.376,0,0,0,85.632-29.9,11.417,11.417,0,0,0,74.24-18.5V4.28A3.564,3.564,0,0,1,70.656,7.8a3.47,3.47,0,0,1-3.52-3.52V-18.5A18.464,18.464,0,0,1,85.632-37,18.505,18.505,0,0,1,104.128-18.5ZM131.648-6.92l20.48-28.416a1.7,1.7,0,0,1,.32-.384A3.47,3.47,0,0,1,155.072-37a3.551,3.551,0,0,1,3.52,3.52V3.7a3.539,3.539,0,0,1-3.52,3.456A3.483,3.483,0,0,1,151.616,3.7V-22.664L130.944,5.944a3.526,3.526,0,0,1-4.864.768,3.461,3.461,0,0,1-1.408-2.944V-33.48a3.51,3.51,0,0,1,3.52-3.52,3.539,3.539,0,0,1,3.456,3.52ZM207.872,6.648a3.514,3.514,0,0,1-4.928-.768L192-9.1,181.056,5.88a3.413,3.413,0,0,1-4.864.768,3.366,3.366,0,0,1-.7-4.864L188.48-16.2V-33.48A3.551,3.551,0,0,1,192-37a3.47,3.47,0,0,1,3.52,3.52V-16.2L208.64,1.784A3.545,3.545,0,0,1,207.872,6.648Zm44.672-.064a3.4,3.4,0,0,1-4.928-.768L236.864-8.9,226.048,5.816a3.32,3.32,0,0,1-4.864.768,3.48,3.48,0,0,1-.832-4.864l12.16-16.512-12.16-16.64a3.49,3.49,0,0,1,.832-4.864,3.307,3.307,0,0,1,2.048-.7,3.644,3.644,0,0,1,2.816,1.472l10.816,14.784,10.752-14.784A3.669,3.669,0,0,1,250.5-37a3.6,3.6,0,0,1,2.048.7,3.477,3.477,0,0,1,.768,4.864l-12.16,16.64L253.312,1.72A3.468,3.468,0,0,1,252.544,6.584Z" transform="translate(411 419) rotate(180)" fill="#fff"/>
        </g>
        <g transform="matrix(1, 0, 0, 1, 29, 84)" filter="url(#O)">
          <path id="O-3" data-name="O" d="M24,0A24,24,0,1,1,0,24,24,24,0,0,1,24,0Z" transform="translate(100.01 410.4)" fill="#fff"/>
        </g>
      </g>
      <g id="LOGO" transform="matrix(0.985, 0.174, -0.174, 0.985, 148.925, 10.255)">
        <g transform="matrix(0.98, -0.17, 0.17, 0.98, -148.44, 15.76)" filter="url(#O-2)">
          <path id="O-4" data-name="O" d="M58.611,365.436a30.153,30.153,0,0,1-5.556-.53,43.624,43.624,0,0,1-7-2.031,34.776,34.776,0,0,1-7.718-4,43.553,43.553,0,0,1-7.523-7.1c-.1-.13-.212-.275-.335-.433a31.568,31.568,0,0,1-5.1-8.828,37.766,37.766,0,0,1-2.242-8.809l-.014-.092q-.04-.258-.081-.53a43.81,43.81,0,0,1,.122-8.726,34.766,34.766,0,0,1,2.577-9.874c1.062-2.6,1.618-3.718,2.207-4.9.7-1.4,1.493-2.993,3.3-7.412a72.465,72.465,0,0,0,4.333-15.345,65.274,65.274,0,0,0,1.595-16.875c-.395-9.292-.527-10.822-2.654-19.728-1.947-8.156-6.706-17-9.549-22.284l0-.005c-.3-.562-.589-1.094-.846-1.578-.095-.161-9.522-16.161-13.019-24.661a147.543,147.543,0,0,1-8.228-27.251,150.671,150.671,0,0,1,0-58.519A146.578,146.578,0,0,1,24.116,64.011,145.454,145.454,0,0,1,41.359,42.523,143.166,143.166,0,0,1,62.258,24.8,140.072,140.072,0,0,1,86.244,11.409a137.887,137.887,0,0,1,109.93,0A140.073,140.073,0,0,1,220.162,24.8a143.218,143.218,0,0,1,20.9,17.728,145.7,145.7,0,0,1,30.262,46.148,147.412,147.412,0,0,1,8.228,27.251,150.627,150.627,0,0,1,0,58.519c-1.015,5.1-3.58,12.2-5.554,17.258-2.31,5.92-4.652,11.2-5.683,13.154-.767,1.458-2.18,4.07-3.816,7.093l0,.009c-2.632,4.864-5.907,10.917-7.721,14.448-3.385,6.587-7.031,15.532-5.171,26.322a47.023,47.023,0,0,0,8.522,19.851c.3.435.561.808.788,1.148a50.316,50.316,0,0,1,3.835,7.155,27.218,27.218,0,0,1,2.464,8.7c.027.576.06,1.138.092,1.681v.016c.256,4.31.477,8.032-2.712,14.328a31.4,31.4,0,0,1-7.2,9.189,25.052,25.052,0,0,1-9.1,5.365,39.976,39.976,0,0,1-11.536,1.792c-.139,0-.276,0-.405,0a35.592,35.592,0,0,1-9.531-1.859,30.389,30.389,0,0,1-7.86-5.029c-2.182-2.181-5.738-6.167-7.078-7.667l0,0c-.238-.266-.411-.46-.5-.559l-.171-.189c-.794-.883-2.9-3.229-5.805-5.958a87.331,87.331,0,0,0-15.8-11.406,73.007,73.007,0,0,0-16.888-6.115l-.244-.05a65.251,65.251,0,0,0-13.436-1.369c-1.958,0-3.931.087-5.864.258a69.084,69.084,0,0,0-22.291,6.208,69.594,69.594,0,0,0-17.392,12.364,58.92,58.92,0,0,0-10.855,14.095,47.239,47.239,0,0,0-4.909,10.951l-.027.08-.186.552c-1.194,3.527-1.76,5.857-2.36,8.324-.1.417-.2.838-.31,1.271a76.11,76.11,0,0,1-2.444,7.382,32.615,32.615,0,0,1-3.607,6.608,30.554,30.554,0,0,1-5.923,6.587,37.888,37.888,0,0,1-5.8,4.247,36.151,36.151,0,0,1-7.733,3.272,39.675,39.675,0,0,1-8.051,1.419l-.088,0C60.3,365.4,59.462,365.436,58.611,365.436Zm82.438-333.2a109.425,109.425,0,0,0-21.891,2.207A108.028,108.028,0,0,0,80.317,50.786a108.939,108.939,0,0,0-39.355,47.79,108.075,108.075,0,0,0-6.329,20.389,109.681,109.681,0,0,0,0,43.783A108.027,108.027,0,0,0,50.977,201.59a108.939,108.939,0,0,0,47.791,39.354,108.073,108.073,0,0,0,20.389,6.329,109.682,109.682,0,0,0,43.782,0,108.029,108.029,0,0,0,38.841-16.344,108.939,108.939,0,0,0,39.355-47.791,108.077,108.077,0,0,0,6.329-20.39,109.681,109.681,0,0,0,0-43.783,108.026,108.026,0,0,0-16.344-38.84A108.94,108.94,0,0,0,183.33,40.771a108.074,108.074,0,0,0-20.389-6.329A109.425,109.425,0,0,0,141.049,32.235Z" transform="matrix(0.98, 0.17, -0.17, 0.98, 148.93, 10.26)" fill="#fff"/>
        </g>
        <g transform="matrix(0.98, -0.17, 0.17, 0.98, -148.44, 15.76)" filter="url(#Eye)">
          <path id="Eye-2" data-name="Eye" d="M22.669,0A22.669,22.669,0,1,1,0,22.669,22.669,22.669,0,0,1,22.669,0Z" transform="matrix(0.98, 0.17, -0.17, 0.98, 243.27, 80.53)" fill="#fff"/>
        </g>
      </g>
    </g>
  </g>
</svg>
