<svg xmlns="http://www.w3.org/2000/svg" xmlns:xlink="http://www.w3.org/1999/xlink" width="512" height="512" viewBox="0 0 512 512">
  <defs>
    <filter id="O" x="30.468" y="-7.745" width="451.687" height="536" filterUnits="userSpaceOnUse">
      <feOffset dy="4" input="SourceAlpha"/>
      <feGaussianBlur stdDeviation="4" result="blur"/>
      <feFlood flood-color="#a53da6"/>
      <feComposite operator="in" in2="blur"/>
      <feComposite in="SourceGraphic"/>
    </filter>
    <filter id="Eye" x="218.183" y="80.246" width="89.761" height="89.761" filterUnits="userSpaceOnUse">
      <feOffset dy="4" input="SourceAlpha"/>
      <feGaussianBlur stdDeviation="4" result="blur-2"/>
      <feFlood flood-color="#a53da6"/>
      <feComposite operator="in" in2="blur-2"/>
      <feComposite in="SourceGraphic"/>
    </filter>
    <clipPath id="clip-Brand_-_Logo">
      <rect width="512" height="512"/>
    </clipPath>
  </defs>
  <g id="Brand_-_Logo" data-name="Brand - Logo" clip-path="url(#clip-Brand_-_Logo)">
    <g id="BRAND-LOGO" transform="translate(-43 -10)">
      <g id="LOGO" transform="matrix(0.985, 0.174, -0.174, 0.985, 164.92, 10.255)">
        <g transform="matrix(0.98, -0.17, 0.17, 0.98, -120.11, 20.92)" filter="url(#O)">
          <path id="O-2" data-name="O" d="M73.387,457.548a37.791,37.791,0,0,1-6.958-.663,54.629,54.629,0,0,1-8.763-2.543A43.517,43.517,0,0,1,48,449.334a54.557,54.557,0,0,1-9.419-8.893c-.125-.164-.266-.345-.421-.545a39.532,39.532,0,0,1-6.39-11.051,47.213,47.213,0,0,1-2.8-11.018l-.007-.049q-.055-.36-.114-.742c-.614-3.967.143-10.857.151-10.926a43.608,43.608,0,0,1,3.226-12.362c1.329-3.258,2.025-4.653,2.762-6.13.876-1.756,1.869-3.747,4.13-9.282a90.621,90.621,0,0,0,5.425-19.213c.006-.024.63-2.481,1.181-6.27a81.678,81.678,0,0,0,.816-14.859c-.494-11.629-.659-13.544-3.322-24.7-2.438-10.213-8.4-21.286-11.957-27.9-.38-.706-.739-1.373-1.063-1.983-.119-.2-11.923-20.234-16.3-30.877a184.628,184.628,0,0,1-10.3-34.121,188.615,188.615,0,0,1,0-73.269,183.528,183.528,0,0,1,26.6-65,182.162,182.162,0,0,1,21.589-26.9,179.308,179.308,0,0,1,26.167-22.2,175.4,175.4,0,0,1,30.033-16.76,172.665,172.665,0,0,1,137.641,0,175.4,175.4,0,0,1,30.032,16.76,179.311,179.311,0,0,1,26.167,22.2,182.435,182.435,0,0,1,37.89,57.78,184.541,184.541,0,0,1,10.3,34.12,188.571,188.571,0,0,1,0,73.269c-1.27,6.383-4.483,15.274-6.954,21.608-2.891,7.41-5.823,14.016-7.115,16.47-.958,1.82-2.722,5.08-4.765,8.856l-.005.009c-3.3,6.1-7.408,13.69-9.683,18.117a68.154,68.154,0,0,0-5.527,13.827,47.478,47.478,0,0,0-1.483,9,43.3,43.3,0,0,0,.535,10.136,58.854,58.854,0,0,0,10.674,24.859l0,.005c.374.538.7,1,.979,1.426a63.017,63.017,0,0,1,4.8,8.959c1.315,3,2.918,7.319,3.085,10.894.034.729.076,1.44.117,2.128.32,5.4.6,10.057-3.395,17.939a39.325,39.325,0,0,1-9.013,11.5,33.479,33.479,0,0,1-5.729,4.2,38.126,38.126,0,0,1-5.658,2.521c-4.156,1.547-10.946,2.243-14.44,2.243-.174,0-.346,0-.511-.005A44.486,44.486,0,0,1,284,400.773a38,38,0,0,1-9.841-6.3c-2.749-2.747-7.212-7.75-8.892-9.633-.284-.319-.492-.551-.6-.672l-.214-.238c-.994-1.106-3.634-4.044-7.267-7.458a109.381,109.381,0,0,0-19.78-14.28c-8.055-4.422-18.893-7.2-21.144-7.656l-.312-.063a81.687,81.687,0,0,0-16.818-1.712c-2.451,0-4.921.109-7.341.323a86.524,86.524,0,0,0-27.911,7.773A87.145,87.145,0,0,0,142.1,376.339a73.719,73.719,0,0,0-13.591,17.648,59.1,59.1,0,0,0-6.145,13.706l-.017.05-.252.746c-1.5,4.424-2.207,7.345-2.959,10.437l0,.007c-.125.513-.251,1.034-.383,1.569a93.944,93.944,0,0,1-3.06,9.243,40.834,40.834,0,0,1-4.516,8.274,38.3,38.3,0,0,1-7.416,8.248,46.882,46.882,0,0,1-7.264,5.317,45.2,45.2,0,0,1-9.682,4.1,49.62,49.62,0,0,1-10.081,1.777l-.109,0C75.508,457.506,74.453,457.548,73.387,457.548ZM176.6,40.36a137,137,0,0,0-27.409,2.763,135.257,135.257,0,0,0-48.631,20.464,136.4,136.4,0,0,0-49.274,59.837,135.309,135.309,0,0,0-7.925,25.529,137.327,137.327,0,0,0,0,54.819A135.259,135.259,0,0,0,63.827,252.4a136.4,136.4,0,0,0,59.837,49.274,135.314,135.314,0,0,0,25.529,7.925,137.325,137.325,0,0,0,54.818,0,135.257,135.257,0,0,0,48.631-20.464A136.4,136.4,0,0,0,301.916,229.3a135.316,135.316,0,0,0,7.925-25.529,137.327,137.327,0,0,0,0-54.819,135.257,135.257,0,0,0-20.464-48.631A136.4,136.4,0,0,0,229.54,51.047a135.314,135.314,0,0,0-25.529-7.925A137.005,137.005,0,0,0,176.6,40.36Z" transform="matrix(0.98, 0.17, -0.17, 0.98, 121.92, 0.26)" fill="#fff"/>
        </g>
        <g transform="matrix(0.98, -0.17, 0.17, 0.98, -120.11, 20.92)" filter="url(#Eye)">
          <path id="Eye-2" data-name="Eye" d="M28.383,0A28.383,28.383,0,1,1,0,28.383,28.383,28.383,0,0,1,28.383,0Z" transform="matrix(0.98, 0.17, -0.17, 0.98, 240.04, 88.25)" fill="#fff"/>
        </g>
      </g>
    </g>
  </g>
</svg>
