<?xml version="1.0" standalone="no"?>
<!DOCTYPE svg PUBLIC "-//W3C//DTD SVG 20010904//EN"
 "http://www.w3.org/TR/2001/REC-SVG-20010904/DTD/svg10.dtd">
<svg version="1.0" xmlns="http://www.w3.org/2000/svg"
 width="700.000000pt" height="700.000000pt" viewBox="0 0 700.000000 700.000000"
 preserveAspectRatio="xMidYMid meet">
<metadata>
Created by potrace 1.11, written by Peter Selinger 2001-2013
</metadata>
<g transform="translate(0.000000,700.000000) scale(0.100000,-0.100000)"
fill="#000000" stroke="none">
<path d="M3628 6615 c-2 -1 -59 -5 -128 -9 -108 -5 -164 -11 -279 -31 -22 -4
-129 -27 -141 -30 -3 -1 -18 -5 -35 -9 -193 -50 -390 -130 -610 -250 -64 -35
-243 -162 -325 -229 -106 -88 -255 -236 -315 -312 -22 -27 -46 -56 -53 -64
-85 -89 -263 -389 -345 -581 -50 -115 -119 -330 -132 -409 -3 -19 -8 -37 -10
-41 -2 -4 -7 -22 -10 -41 -3 -19 -7 -45 -10 -59 -42 -226 -51 -577 -20 -775 3
-16 7 -41 9 -55 24 -153 54 -263 147 -532 115 -335 140 -456 134 -658 -2 -69
-7 -143 -10 -165 -34 -232 -116 -429 -277 -670 -124 -185 -160 -292 -152 -459
11 -261 194 -487 457 -563 145 -42 327 -20 457 54 134 77 200 155 296 349 73
148 129 244 175 300 165 197 395 336 645 389 91 20 299 27 370 14 27 -5 65
-12 84 -15 63 -11 184 -53 260 -92 129 -66 192 -112 301 -221 85 -85 127 -139
213 -271 151 -230 208 -278 378 -315 68 -15 184 -13 248 4 58 16 164 79 213
127 98 96 138 187 143 324 4 113 -8 168 -73 324 -53 130 -74 222 -75 331 -2
182 50 294 272 575 88 113 182 238 208 278 26 40 62 96 81 125 108 167 213
433 257 652 45 225 58 359 57 571 -4 804 -390 1545 -1047 2012 -47 34 -88 62
-90 62 -2 0 -35 19 -72 42 -149 90 -394 194 -554 234 -173 44 -189 47 -352 69
-18 3 -82 8 -143 11 -60 3 -118 7 -127 8 -9 2 -18 3 -20 1z m252 -570 c64 -12
185 -36 195 -39 6 -2 24 -6 40 -10 133 -34 341 -123 470 -200 136 -82 339
-252 440 -369 62 -72 185 -239 185 -251 0 -2 20 -39 45 -80 25 -42 45 -82 45
-89 0 -7 4 -17 9 -22 14 -16 72 -164 97 -250 179 -597 46 -1243 -356 -1730
-73 -89 -252 -251 -357 -324 -139 -98 -336 -196 -488 -244 -109 -35 -161 -50
-180 -52 -5 -1 -28 -5 -50 -9 -113 -24 -188 -30 -340 -30 -238 -1 -386 23
-605 94 -82 27 -295 125 -355 162 -76 49 -165 109 -176 120 -8 7 -37 31 -64
53 -301 240 -538 630 -623 1025 -38 172 -45 241 -44 411 2 414 139 809 395
1139 56 72 227 246 297 301 76 60 201 143 284 188 136 73 359 157 475 178 14
2 45 8 67 13 23 5 73 13 110 16 38 4 71 8 74 11 6 6 370 -5 410 -12z"/>
<path d="M3469 5708 c-126 -45 -219 -147 -249 -277 -45 -193 68 -395 256 -456
240 -77 489 91 507 340 19 274 -255 483 -514 393z"/>
</g>
</svg>
